<svg id="Layer_1" data-name="Layer 1" xmlns="http://www.w3.org/2000/svg" xmlns:xlink="http://www.w3.org/1999/xlink" viewBox="0 0 250 250"><defs><style>.cls-1{fill:#fff;}.cls-2{fill:#d6d6d6;}.cls-3{fill:url(#linear-gradient);}.cls-4{fill:url(#linear-gradient-2);}.cls-5{fill:url(#linear-gradient-3);}.cls-6{fill:#f47e23;}.cls-7{fill:#5c5d5d;}.cls-8{fill:#f1797a;}.cls-9{fill:#b7b7b7;}.cls-10{fill:#474747;}.cls-11{fill:#f69996;}.cls-12{fill:#011833;}.cls-13{opacity:0.3;}.cls-14{opacity:0.43;}.cls-15{fill:#444;}.cls-16{fill:none;stroke:#5c5d5d;stroke-miterlimit:10;stroke-width:1.03px;}.cls-17{opacity:0.42;}.cls-18{fill:#b5b5b5;}.cls-19{fill:#a8a8a8;}</style><linearGradient id="linear-gradient" x1="126.89" y1="19.43" x2="126.89" y2="162.91" gradientUnits="userSpaceOnUse"><stop offset="0" stop-color="#ff7e00"/><stop offset="0.04" stop-color="#fd7e06"/><stop offset="0.24" stop-color="#f47e23"/><stop offset="0.32" stop-color="#f58d3d"/><stop offset="0.66" stop-color="#facaa4"/><stop offset="0.89" stop-color="#fef0e6"/><stop offset="1" stop-color="#fff"/></linearGradient><linearGradient id="linear-gradient-2" x1="171.15" y1="59.39" x2="171.15" y2="150.51" xlink:href="#linear-gradient"/><linearGradient id="linear-gradient-3" x1="74.37" y1="53.75" x2="74.37" y2="156.23" xlink:href="#linear-gradient"/></defs><title>Reach icon</title><path class="cls-1" d="M194.41,172.39a.29.29,0,0,1-.3-.29l0-1.56a.29.29,0,0,1,.29-.3h0a.31.31,0,0,1,.3.29l0,1.56a.3.3,0,0,1-.29.3Z"/><path class="cls-1" d="M194.45,176.58a.31.31,0,0,1-.3-.29l0-1.56a.31.31,0,0,1,.29-.3h0a.29.29,0,0,1,.29.29l0,1.56a.29.29,0,0,1-.29.3Z"/><path class="cls-1" d="M195.73,173.7a.29.29,0,0,1-.29-.29.29.29,0,0,1,.29-.3l1.56,0a.32.32,0,0,1,.3.29.29.29,0,0,1-.29.3l-1.56,0Z"/><path class="cls-1" d="M191.54,173.74a.31.31,0,0,1-.3-.29.3.3,0,0,1,.3-.3l1.55,0a.28.28,0,0,1,.3.29.29.29,0,0,1-.29.3l-1.55,0Z"/><path class="cls-1" d="M57.78,30a.3.3,0,0,1-.3-.29l0-1.56a.29.29,0,0,1,.29-.3.3.3,0,0,1,.3.29l0,1.56a.29.29,0,0,1-.29.3Z"/><path class="cls-1" d="M57.82,34.14a.28.28,0,0,1-.29-.29l0-1.55a.29.29,0,0,1,.29-.3h0a.28.28,0,0,1,.29.29l0,1.55a.29.29,0,0,1-.29.3Z"/><path class="cls-1" d="M59.11,31.26a.3.3,0,0,1,0-.59l1.56,0a.31.31,0,0,1,.3.29.29.29,0,0,1-.29.3l-1.56,0Z"/><path class="cls-1" d="M54.91,31.3a.29.29,0,0,1-.29-.29.29.29,0,0,1,.29-.3l1.56,0c.15,0,.29.13.3.29a.3.3,0,0,1-.3.3l-1.55,0Z"/><path class="cls-1" d="M42.64,86.82a.29.29,0,0,1-.3-.29l0-1.56a.29.29,0,0,1,.29-.3.29.29,0,0,1,.3.29l0,1.56a.3.3,0,0,1-.29.3Z"/><path class="cls-1" d="M42.68,91a.31.31,0,0,1-.3-.29l0-1.55a.29.29,0,0,1,.29-.3h0a.29.29,0,0,1,.29.3l0,1.55a.29.29,0,0,1-.29.3Z"/><path class="cls-1" d="M44,88.13a.3.3,0,0,1,0-.59l1.56,0h0a.31.31,0,0,1,.3.29.29.29,0,0,1-.29.3l-1.56,0Z"/><path class="cls-1" d="M39.77,88.17a.29.29,0,0,1-.29-.29.29.29,0,0,1,.29-.3l1.55,0h0a.29.29,0,0,1,.29.29.29.29,0,0,1-.29.3l-1.55,0Z"/><path class="cls-1" d="M216.77,92.19a.3.3,0,0,1-.3-.29l0-1.56a.29.29,0,0,1,.29-.3.28.28,0,0,1,.3.29l0,1.56a.29.29,0,0,1-.29.3Z"/><path class="cls-1" d="M216.81,96.38a.29.29,0,0,1-.29-.29l0-1.55a.29.29,0,0,1,.29-.3h0a.28.28,0,0,1,.29.29l0,1.55a.29.29,0,0,1-.29.3Z"/><path class="cls-1" d="M218.09,93.5a.3.3,0,0,1,0-.59l1.56,0a.3.3,0,0,1,.3.29.29.29,0,0,1-.29.3l-1.56,0Z"/><path class="cls-1" d="M213.9,93.54a.29.29,0,0,1-.29-.29.29.29,0,0,1,.29-.3l1.55,0a.28.28,0,0,1,.3.29.29.29,0,0,1-.29.3l-1.55,0Z"/><path class="cls-1" d="M149.33,121.07a.29.29,0,0,1-.29-.29l0-1.56a.29.29,0,0,1,.29-.3.27.27,0,0,1,.3.29l0,1.56a.31.31,0,0,1-.29.3Z"/><path class="cls-1" d="M149.38,125.26a.3.3,0,0,1-.3-.29l0-1.56a.29.29,0,0,1,.29-.3.29.29,0,0,1,.3.29l0,1.56a.29.29,0,0,1-.29.3Z"/><path class="cls-1" d="M150.66,122.37a.31.31,0,0,1-.3-.29.3.3,0,0,1,.3-.3l1.55,0a.28.28,0,0,1,.3.29.29.29,0,0,1-.29.3l-1.55,0Z"/><path class="cls-1" d="M146.47,122.42a.3.3,0,0,1-.3-.29.29.29,0,0,1,.29-.3l1.56,0a.29.29,0,0,1,.3.29.29.29,0,0,1-.29.3l-1.56,0Z"/><path class="cls-2" d="M126.93,159.15a.29.29,0,0,1-.29-.29V157.8a.29.29,0,0,1,.29-.29h0a.29.29,0,0,1,.29.29v1.06a.29.29,0,0,1-.3.29Zm0-5.45a.31.31,0,0,1-.3-.3v-1.05a.29.29,0,0,1,.29-.3h0a.29.29,0,0,1,.3.29v1.06a.3.3,0,0,1-.3.3Zm0-5.46a.3.3,0,0,1-.3-.3v-1.05a.29.29,0,0,1,.29-.3h0a.29.29,0,0,1,.3.29v1.06a.31.31,0,0,1-.3.3Zm-1.66-3.82h-1.06a.29.29,0,0,1-.3-.29.3.3,0,0,1,.3-.3h1.06a.3.3,0,0,1,0,.59Zm-5.46,0h-1.06a.29.29,0,0,1-.29-.3.29.29,0,0,1,.29-.29h1.06a.3.3,0,0,1,0,.59Zm-4.21-1.25a.3.3,0,0,1-.3-.3v-1.06a.3.3,0,0,1,.59,0v1.06A.3.3,0,0,1,115.54,143.15Zm0-5.46a.3.3,0,0,1-.3-.3v-1.06a.3.3,0,0,1,.59,0v1.06A.3.3,0,0,1,115.54,137.69Zm0-5.46a.29.29,0,0,1-.3-.3v-1.05a.3.3,0,1,1,.59,0v1.05A.29.29,0,0,1,115.54,132.23Zm0-5.46a.29.29,0,0,1-.3-.29v-1.06a.3.3,0,1,1,.59,0v1.06A.29.29,0,0,1,115.54,126.77Z"/><path class="cls-2" d="M203.74,151.07h-1.05a.3.3,0,1,1,0-.59h1.05a.3.3,0,1,1,0,.59Zm-5.45,0h-1.06a.3.3,0,1,1,0-.59h1.06a.3.3,0,0,1,0,.59Zm-5.46,0h-1.06a.3.3,0,0,1,0-.59h1.06a.3.3,0,0,1,0,.59Zm-5.46,0h-1.06a.3.3,0,0,1,0-.59h1.06a.3.3,0,1,1,0,.59Zm-5.46,0h-1a.3.3,0,1,1,0-.59h1a.3.3,0,1,1,0,.59Zm-5.46,0h-1a.3.3,0,1,1,0-.59h1a.3.3,0,1,1,0,.59Zm-5.45,0h-1.06a.3.3,0,1,1,0-.59H171a.3.3,0,0,1,0,.59Zm-5.46,0h-1.06a.3.3,0,0,1,0-.59h1.06a.3.3,0,0,1,0,.59Zm38.93-3.7h0a.29.29,0,0,1-.29-.3v-1a.31.31,0,0,1,.3-.3h0a.3.3,0,0,1,.3.3v1.06A.29.29,0,0,1,204.47,147.37Zm0-5.46h0a.3.3,0,0,1-.3-.3v-1.05a.3.3,0,0,1,.3-.3h0a.31.31,0,0,1,.29.3v1.06A.3.3,0,0,1,204.49,141.91Zm0-5.46h0a.29.29,0,0,1-.29-.29V135.1a.31.31,0,0,1,.3-.29h0a.29.29,0,0,1,.3.29v1.06A.29.29,0,0,1,204.52,136.45Zm0-5.45h0a.29.29,0,0,1-.29-.3v-1.06a.29.29,0,0,1,.3-.29h0a.29.29,0,0,1,.29.3v1A.31.31,0,0,1,204.54,131Zm0-5.46h0a.3.3,0,0,1-.29-.3v-1.06a.29.29,0,0,1,.29-.29h0a.29.29,0,0,1,.3.3v1A.29.29,0,0,1,204.57,125.54Zm0-5.46h0a.29.29,0,0,1-.29-.3v-1a.29.29,0,0,1,.3-.3h0a.3.3,0,0,1,.29.3v1.06A.3.3,0,0,1,204.59,120.08Zm0-5.46h0a.29.29,0,0,1-.3-.29v-1.06a.3.3,0,0,1,.29-.3h0a.3.3,0,0,1,.3.3v1.06A.29.29,0,0,1,204.62,114.62Zm0-5.46h0a.29.29,0,0,1-.29-.29v-1.06a.29.29,0,0,1,.3-.29h0a.29.29,0,0,1,.29.29v1.06A.29.29,0,0,1,204.64,109.16Zm0-5.45h0a.3.3,0,0,1-.3-.3v-1.06a.29.29,0,0,1,.29-.29.29.29,0,0,1,.3.3v1A.3.3,0,0,1,204.67,103.71Zm0-5.46h0a.3.3,0,0,1-.29-.3V96.89a.29.29,0,0,1,.3-.29h0a.29.29,0,0,1,.29.3v1A.29.29,0,0,1,204.69,98.25Zm0-5.46h0a.29.29,0,0,1-.3-.3v-1a.29.29,0,0,1,.29-.3h0a.3.3,0,0,1,.3.3V92.5A.29.29,0,0,1,204.72,92.79Zm0-5.46h0a.29.29,0,0,1-.29-.3V86a.3.3,0,0,1,.3-.3h0a.3.3,0,0,1,.29.3V87A.29.29,0,0,1,204.74,87.33Zm0-5.46h0a.29.29,0,0,1-.3-.29V80.52a.29.29,0,0,1,.29-.29h0a.29.29,0,0,1,.3.29v1.06A.29.29,0,0,1,204.77,81.87Zm0-5.45h0a.3.3,0,0,1-.29-.3V75.06a.29.29,0,0,1,.3-.29h0a.29.29,0,0,1,.29.3v1.05A.3.3,0,0,1,204.79,76.42Z"/><path class="cls-2" d="M41.59,150.88a.31.31,0,0,1-.3-.3v-.34a.3.3,0,0,1,.59,0v0h.42a.29.29,0,0,1,.3.29.3.3,0,0,1-.29.3Zm5.12,0a.3.3,0,0,1-.3-.3.31.31,0,0,1,.29-.3h1.06a.3.3,0,0,1,.3.3.31.31,0,0,1-.29.3Zm5.46-.06a.29.29,0,0,1-.3-.29.3.3,0,0,1,.29-.3h1.06a.3.3,0,0,1,.3.29.29.29,0,0,1-.3.3Zm5.45-.05a.3.3,0,0,1,0-.59h.2a.32.32,0,0,1,.3.3.31.31,0,0,1-.3.3h-.2Zm-16-4.58a.29.29,0,0,1-.3-.3v-1.05a.3.3,0,1,1,.59,0v1.05A.29.29,0,0,1,41.59,146.14Zm0-5.46a.29.29,0,0,1-.3-.3v-1a.3.3,0,1,1,.59,0v1A.29.29,0,0,1,41.59,140.68Zm0-5.46a.29.29,0,0,1-.3-.29v-1.06a.3.3,0,1,1,.59,0v1.06A.29.29,0,0,1,41.59,135.22Zm0-5.46a.29.29,0,0,1-.3-.29v-1.06a.3.3,0,0,1,.59,0v1.06A.29.29,0,0,1,41.59,129.76Zm0-5.45a.3.3,0,0,1-.3-.3V123a.3.3,0,0,1,.59,0V124A.3.3,0,0,1,41.59,124.31Zm0-5.46a.29.29,0,0,1-.3-.3v-1a.3.3,0,1,1,.59,0v1A.29.29,0,0,1,41.59,118.85Zm0-5.46a.29.29,0,0,1-.3-.3v-1a.3.3,0,1,1,.59,0v1A.29.29,0,0,1,41.59,113.39Z"/><path class="cls-2" d="M111.29,85.13a.31.31,0,0,1-.3-.29V83.78a.3.3,0,0,1,.29-.3h0a.29.29,0,0,1,.29.29l0,1.06a.3.3,0,0,1-.3.3Zm-.07-5.46a.29.29,0,0,1-.29-.29V78.32a.3.3,0,0,1,.29-.3h0a.3.3,0,0,1,.3.3v1.05a.29.29,0,0,1-.29.3Zm-.06-5.46a.3.3,0,0,1-.3-.29v-1a.29.29,0,0,1,.29-.3h0a.29.29,0,0,1,.29.29v1a.28.28,0,0,1-.29.3Zm-.07-5.45a.29.29,0,0,1-.29-.3l0-1a.29.29,0,0,1,.3-.3h0a.31.31,0,0,1,.3.29v1.06a.31.31,0,0,1-.29.3ZM111,63.3a.3.3,0,0,1-.3-.29V62a.3.3,0,0,1,.29-.3h0a.29.29,0,0,1,.3.29V63a.29.29,0,0,1-.29.3ZM90.27,61.22a.3.3,0,1,1,0-.59h1.06a.3.3,0,0,1,0,.59Zm5.46,0a.3.3,0,1,1,0-.59h1a.3.3,0,1,1,0,.59Zm5.46,0a.29.29,0,0,1-.3-.3.29.29,0,0,1,.29-.29h1.06a.31.31,0,0,1,.3.3.29.29,0,0,1-.3.29Zm5.45,0a.3.3,0,0,1,0-.59h1.06a.3.3,0,1,1,0,.59ZM87.05,60a.29.29,0,0,1-.29-.29V58.69a.3.3,0,0,1,.29-.3h0a.3.3,0,0,1,.3.3v1.06a.29.29,0,0,1-.29.29Zm0-5.46a.29.29,0,0,1-.3-.29V53.23a.29.29,0,0,1,.29-.29h0a.29.29,0,0,1,.3.29v1.06a.29.29,0,0,1-.29.29Zm0-5.45a.3.3,0,0,1-.3-.3V47.77a.29.29,0,0,1,.3-.29h0a.29.29,0,0,1,.29.29v1.06a.3.3,0,0,1-.29.3Zm0-5.46a.3.3,0,0,1-.3-.3v-1A.29.29,0,0,1,87,42h0a.29.29,0,0,1,.29.29v1.06a.31.31,0,0,1-.3.3Zm0-5.46a.29.29,0,0,1-.29-.3v-1a.3.3,0,0,1,.3-.3h0a.3.3,0,0,1,.3.3v1a.29.29,0,0,1-.3.3Zm0-5.46a.29.29,0,0,1-.29-.29V31.4a.3.3,0,0,1,.29-.3h0a.3.3,0,0,1,.3.3v1.05a.29.29,0,0,1-.3.3Z"/><path class="cls-2" d="M204.84,69.16a.3.3,0,0,1-.3-.3v-1a.29.29,0,0,1,.29-.3h0a.29.29,0,0,1,.3.3v1a.29.29,0,0,1-.29.3Zm0-5.46a.3.3,0,0,1-.3-.29V62.35a.3.3,0,0,1,.29-.3h0a.29.29,0,0,1,.3.3v1a.29.29,0,0,1-.29.3Zm0-5.46a.3.3,0,0,1-.3-.29V56.89a.3.3,0,0,1,.29-.3h0a.3.3,0,0,1,.3.3V58a.28.28,0,0,1-.29.29Zm0-5.46a.3.3,0,0,1-.3-.29V51.43a.29.29,0,0,1,.29-.29h0a.29.29,0,0,1,.3.29v1.06a.28.28,0,0,1-.29.29Zm0-5.45a.31.31,0,0,1-.3-.3v-.15h-.31a.3.3,0,1,1,0-.59h.61a.29.29,0,0,1,.29.29V47a.29.29,0,0,1-.29.3Zm-32.31-.44h-1a.3.3,0,1,1,0-.59h1a.3.3,0,1,1,0,.59Zm4.41,0a.3.3,0,0,1-.3-.3.29.29,0,0,1,.3-.29h1a.3.3,0,0,1,0,.6Zm5.45,0a.3.3,0,0,1,0-.6h1.06a.3.3,0,1,1,0,.6Zm5.46,0a.29.29,0,0,1-.29-.29.3.3,0,0,1,.29-.3h1.06a.3.3,0,0,1,0,.59Zm5.46,0a.3.3,0,1,1,0-.59h1.06a.3.3,0,0,1,0,.59Zm5.46,0a.3.3,0,1,1,0-.59h1.05a.3.3,0,1,1,0,.59Z"/><path class="cls-3" d="M137.24,162.91h-1.76V55.79a3,3,0,0,1,3-3h7.44a1.2,1.2,0,0,0,1.08-.65,1.22,1.22,0,0,0-.07-1.26L127.36,21.73a1.22,1.22,0,0,0-1-.54,1.17,1.17,0,0,0-1,.57L106.84,50.93a1.24,1.24,0,0,0,0,1.25,1.22,1.22,0,0,0,1.08.63h7.56a3,3,0,0,1,3,3V162.91h-1.76V55.79a1.22,1.22,0,0,0-1.22-1.22h-7.56A3,3,0,0,1,105.35,50l18.47-29.18a3,3,0,0,1,2.48-1.38,2.94,2.94,0,0,1,2.52,1.32l19.57,29.17a3,3,0,0,1-2.48,4.65h-7.44a1.23,1.23,0,0,0-1.23,1.22Z"/><path class="cls-4" d="M181.51,150.51H160.92V95.76a1.22,1.22,0,0,0-1.22-1.23h-7.56A3,3,0,0,1,149.62,90l18.46-29.17a3,3,0,0,1,2.48-1.39h0a3,3,0,0,1,2.48,1.32l19.57,29.17a3,3,0,0,1-2.48,4.65h-7.44a1.23,1.23,0,0,0-1.22,1.23Zm-18.83-1.76h17.07v-53a3,3,0,0,1,3-3h7.44a1.22,1.22,0,0,0,1-1.9h0L171.62,61.69a1.18,1.18,0,0,0-1-.54,1.2,1.2,0,0,0-1,.57L151.1,90.89a1.23,1.23,0,0,0,1,1.88h7.56a3,3,0,0,1,3,3Z"/><path class="cls-5" d="M84.73,156.23H64.15V90.12a1.23,1.23,0,0,0-1.23-1.23H55.36a3,3,0,0,1-2.52-4.58L71.3,55.14a3,3,0,0,1,5-.07L95.87,84.24a3,3,0,0,1-2.48,4.65H86a1.23,1.23,0,0,0-1.22,1.23Zm-18.82-1.76H83V90.12a3,3,0,0,1,3-3h7.44a1.22,1.22,0,0,0,1-1.9L74.84,56.05a1.17,1.17,0,0,0-1-.54,1.19,1.19,0,0,0-1,.57L54.33,85.25a1.2,1.2,0,0,0,0,1.25,1.22,1.22,0,0,0,1.07.63h7.56a3,3,0,0,1,3,3Z"/><path class="cls-1" d="M211.1,220.13H42.69a.3.3,0,1,1,0-.59H211.1a.3.3,0,0,1,0,.59Z"/><path class="cls-1" d="M170.05,224.36H83.73a.3.3,0,0,1,0-.6h86.32a.3.3,0,1,1,0,.6Z"/><circle class="cls-6" cx="204.37" cy="124.67" r="7.92"/><circle class="cls-1" cx="204.37" cy="124.67" r="6.3"/><path class="cls-6" d="M204.88,127.61v1H204v-1a4.33,4.33,0,0,1-2.23-.72l.49-1.09a3.71,3.71,0,0,0,1.74.64V125c-1-.25-2.1-.58-2.1-1.85,0-.95.69-1.76,2.1-1.92v-1h.89v1a3.89,3.89,0,0,1,1.81.55l-.45,1.09a3.54,3.54,0,0,0-1.36-.46v1.52c1,.23,2.08.56,2.08,1.82C207,126.64,206.28,127.44,204.88,127.61Zm-.89-4V122.4c-.48.1-.66.36-.66.66S203.59,123.54,204,123.66Zm1.53,2.15c0-.31-.26-.48-.64-.61v1.23C205.32,126.33,205.52,126.1,205.52,125.81Z"/><circle class="cls-6" cx="171.18" cy="47.16" r="7.92"/><circle class="cls-1" cx="171.18" cy="47.16" r="6.3"/><path class="cls-6" d="M171.69,50.1v1h-.89v-1a4.27,4.27,0,0,1-2.23-.71l.5-1.09a3.53,3.53,0,0,0,1.73.63V47.46c-1-.24-2.1-.57-2.1-1.84,0-.95.69-1.76,2.1-1.92v-1h.89v1a4,4,0,0,1,1.81.54l-.44,1.1a3.59,3.59,0,0,0-1.37-.46v1.51c1,.24,2.08.57,2.08,1.82C173.77,49.12,173.09,49.93,171.69,50.1Zm-.89-4V44.88c-.48.11-.66.37-.66.66S170.4,46,170.8,46.15Zm1.53,2.15c0-.31-.26-.48-.64-.61v1.23C172.14,48.82,172.33,48.59,172.33,48.3Z"/><circle class="cls-6" cx="57.8" cy="150.86" r="7.92"/><circle class="cls-1" cx="57.8" cy="150.86" r="6.3" transform="matrix(0.16, -0.99, 0.99, 0.16, -100.36, 183.84)"/><path class="cls-6" d="M58.3,153.8v1h-.89v-1a4.23,4.23,0,0,1-2.22-.72l.49-1.09a3.61,3.61,0,0,0,1.73.64v-1.49c-1-.24-2.1-.57-2.1-1.85,0-.95.69-1.76,2.1-1.92v-1h.89v1a4.23,4.23,0,0,1,1.82.55l-.45,1.1a3.61,3.61,0,0,0-1.37-.47v1.52c1,.23,2.08.56,2.08,1.82C60.38,152.83,59.7,153.63,58.3,153.8Zm-.89-3.94v-1.27c-.47.11-.66.36-.66.66S57,149.73,57.41,149.86ZM59,152c0-.32-.26-.49-.65-.62v1.23C58.75,152.52,59,152.29,59,152Z"/><rect class="cls-6" x="192.15" y="58.51" width="24.47" height="24.47" rx="3.79"/><circle class="cls-7" cx="216.64" cy="58.47" r="5.68" transform="translate(124.33 263) rotate(-80.81)"/><path class="cls-1" d="M215.32,56.35v4.53h-1V57.19h-.91v-.84Z"/><path class="cls-1" d="M216.1,58.61c0-1.49.83-2.34,2-2.34s1.94.85,1.94,2.34S219.17,61,218.05,61,216.1,60.11,216.1,58.61Zm2.83,0c0-1-.36-1.45-.88-1.45s-.88.42-.88,1.45.36,1.46.88,1.46S218.93,59.64,218.93,58.61Z"/><polygon class="cls-1" points="204.36 64.59 206.38 68.67 210.89 69.33 207.62 72.51 208.39 77 204.36 74.88 200.33 77 201.1 72.51 197.84 69.33 202.34 68.67 204.36 64.59"/><rect class="cls-6" x="158.44" y="138.09" width="24.47" height="24.47" rx="3.79"/><path class="cls-1" d="M175.67,157.5v-1.62a5,5,0,0,0-5-5h0a5,5,0,0,0-5,5v1.62Z"/><path class="cls-1" d="M174,146.45a3.29,3.29,0,1,1-3.29-3.29A3.29,3.29,0,0,1,174,146.45Z"/><circle class="cls-7" cx="182.92" cy="138.05" r="5.68"/><path class="cls-1" d="M181.6,135.93v4.53h-1v-3.69h-.9v-.84Z"/><path class="cls-1" d="M182.39,138.19c0-1.49.83-2.34,1.94-2.34s1.94.85,1.94,2.34-.82,2.35-1.94,2.35S182.39,139.69,182.39,138.19Zm2.83,0c0-1-.37-1.45-.89-1.45s-.88.42-.88,1.45.36,1.46.88,1.46S185.22,139.22,185.22,138.19Z"/><rect class="cls-6" x="29.55" y="100.24" width="24.47" height="24.47" rx="3.79"/><circle class="cls-7" cx="54.04" cy="100.2" r="5.68"/><path class="cls-1" d="M52.72,98.07v4.53h-1V98.91h-.9v-.84Z"/><path class="cls-1" d="M53.51,100.34c0-1.5.83-2.34,1.94-2.34s1.94.84,1.94,2.34-.82,2.34-1.94,2.34S53.51,101.83,53.51,100.34Zm2.83,0c0-1-.37-1.46-.89-1.46s-.88.43-.88,1.46.36,1.45.88,1.45S56.34,101.37,56.34,100.34Z"/><path class="cls-1" d="M48.55,110.18a3.6,3.6,0,0,0-6.77-1.72A3.6,3.6,0,0,0,35,110.18a3.56,3.56,0,0,0,1,2.47h0l5.79,5.79,5.79-5.79h0A3.61,3.61,0,0,0,48.55,110.18Z"/><rect class="cls-6" x="75.24" y="18.72" width="24.47" height="24.47" rx="3.79"/><circle class="cls-7" cx="99.73" cy="18.68" r="5.68"/><path class="cls-1" d="M98.41,16.55v4.53h-1V17.4h-.9v-.85Z"/><path class="cls-1" d="M99.2,18.82c0-1.5.83-2.34,1.94-2.34s1.94.84,1.94,2.34-.82,2.34-1.94,2.34S99.2,20.31,99.2,18.82Zm2.83,0c0-1-.37-1.46-.89-1.46s-.88.43-.88,1.46.36,1.45.88,1.45S102,19.85,102,18.82Z"/><path class="cls-1" d="M80.41,32.12l-.54-.77h-.59v.77h-.64V29.36h1.2c.74,0,1.2.38,1.2,1a.9.9,0,0,1-.57.87l.62.89Zm-.61-2.24h-.52v1h.52c.4,0,.59-.18.59-.48S80.2,29.88,79.8,29.88Z"/><path class="cls-1" d="M83.69,31.61v.51H81.55V29.36h2.09v.51H82.19v.6h1.28V31H82.19v.64Z"/><path class="cls-1" d="M84,31.85l.22-.48a1.62,1.62,0,0,0,.91.29c.38,0,.53-.13.53-.3,0-.52-1.61-.16-1.61-1.19,0-.47.38-.86,1.17-.86a1.87,1.87,0,0,1,1,.24L86,30a1.53,1.53,0,0,0-.76-.22c-.38,0-.53.14-.53.32,0,.51,1.61.16,1.61,1.17,0,.46-.39.86-1.18.86A1.93,1.93,0,0,1,84,31.85Z"/><path class="cls-1" d="M86.71,30.91V29.36h.64v1.52c0,.53.23.74.61.74s.62-.21.62-.74V29.36h.63v1.55a1.25,1.25,0,1,1-2.5,0Z"/><path class="cls-1" d="M89.85,29.36h.64V31.6h1.38v.52h-2Z"/><path class="cls-1" d="M92.55,29.88h-.88v-.52h2.41v.52h-.89v2.24h-.64Z"/><path class="cls-1" d="M94.19,31.85l.21-.48a1.67,1.67,0,0,0,.92.29c.38,0,.53-.13.53-.3,0-.52-1.61-.16-1.61-1.19,0-.47.38-.86,1.17-.86a1.87,1.87,0,0,1,1,.24l-.2.49a1.53,1.53,0,0,0-.77-.22c-.38,0-.52.14-.52.32,0,.51,1.61.16,1.61,1.17,0,.46-.39.86-1.18.86A1.93,1.93,0,0,1,94.19,31.85Z"/><path class="cls-8" d="M110.1,118.78c-4,0-8.5-2.77-12.65-5.33-2-1.19-4-2.43-5.93-3.44a1.82,1.82,0,1,1,1.66-3.25c2.1,1.07,4.18,2.35,6.18,3.58,7.63,4.7,11.51,6.5,14.19,2.76a1.83,1.83,0,0,1,3,2.13A7.6,7.6,0,0,1,110.1,118.78Z"/><path class="cls-9" d="M101.39,116.87c-2.37-1.14-4.66-2.38-7.31-3.8-1.59-.85-3.32-1.79-5.32-2.83l2.5-4.78c2,1.06,3.77,2,5.37,2.86,2.59,1.4,4.83,2.6,7.1,3.69Z"/><path class="cls-7" d="M96.88,156.57,87,157.75a7,7,0,0,1-7.83-6.16l-.49-4.11,23.86-2.85.49,4.11A7,7,0,0,1,96.88,156.57Z"/><path class="cls-7" d="M82.15,188.26A3.33,3.33,0,0,1,79,183.93a69.22,69.22,0,0,0,2.78-30.12,3.3,3.3,0,0,1,6.55-.85,76,76,0,0,1-3,33A3.3,3.3,0,0,1,82.15,188.26Z"/><path class="cls-7" d="M98.44,187.19a3.21,3.21,0,0,1-.81-.1,3.31,3.31,0,0,1-2.4-4c2.77-11,3.38-24,1.57-33.14a3.3,3.3,0,0,1,6.48-1.29c2,10,1.34,24.19-1.64,36A3.32,3.32,0,0,1,98.44,187.19Z"/><path class="cls-9" d="M82.7,105.61h8.94a8.25,8.25,0,0,1,8.25,8.25v36.6a0,0,0,0,1,0,0H74.45a0,0,0,0,1,0,0v-36.6A8.25,8.25,0,0,1,82.7,105.61Z" transform="translate(-20.98 17.15) rotate(-10.04)"/><path class="cls-7" d="M83,110.27a4.06,4.06,0,0,1-4-3.18c0-.09-.09-.39-.09-.39l1.3-.26s0,.2,0,.27a2.81,2.81,0,0,0,3.45,2.17l.79-.14a2.79,2.79,0,0,0,1.83-1,3,3,0,0,0,.4-2.37l1.3-.23a4.33,4.33,0,0,1-.64,3.38A4.05,4.05,0,0,1,84.7,110l-.79.14A5.07,5.07,0,0,1,83,110.27Z"/><rect class="cls-8" x="79.37" y="98.3" width="7.48" height="10.85" rx="3.35" transform="translate(-16.8 16.07) rotate(-10.04)"/><rect class="cls-10" x="83.62" y="81.14" width="4.05" height="8.36" transform="translate(-23.38 33.09) rotate(-19.3)"/><path class="cls-10" d="M78,98.57h0L73.88,86.88l-4,1.48s2.23,6.24,3.38,9.53q0,.1.09.27a1.89,1.89,0,0,0,2.41,1.17Z"/><path class="cls-11" d="M76.7,80.26h0a8,8,0,0,0-4.86,10.16l.67,1.92-.85.3a2.24,2.24,0,0,0-1.37,2.86l.35,1a2.25,2.25,0,0,0,2.86,1.38l.84-.3L74.81,99A8,8,0,0,0,85,103.84l3.43-1.2a4.33,4.33,0,0,0,2.66-5.52l-4.2-12A8,8,0,0,0,76.7,80.26Z"/><path class="cls-8" d="M87.57,87.15l1.79,5.1a2.24,2.24,0,0,0,.87-2.6l-.36-1A2.22,2.22,0,0,0,87.57,87.15Z"/><path class="cls-12" d="M84.93,90.61a.78.78,0,0,0,1,.48.8.8,0,0,0,.49-1,.81.81,0,0,0-1-.49A.8.8,0,0,0,84.93,90.61Z"/><path class="cls-12" d="M79,92.68a.8.8,0,0,0,1,.49.8.8,0,0,0,.49-1,.8.8,0,0,0-1.5.53Z"/><path class="cls-12" d="M77.58,90.57a.38.38,0,0,1-.25-.71l2.81-1a.36.36,0,0,1,.47.23.37.37,0,0,1-.22.47"/><path class="cls-12" d="M85.78,86.24l-2.81,1a.37.37,0,0,1-.48-.23.38.38,0,0,1,.23-.47l2.81-1a.36.36,0,0,1,.47.23A.37.37,0,0,1,85.78,86.24Z"/><path class="cls-1" d="M79.56,96a4.6,4.6,0,0,0,5.08,1.39,4.65,4.65,0,0,0,3.15-4.27Z"/><path class="cls-8" d="M83.82,93.86a.21.21,0,0,1-.19-.13.2.2,0,0,1,.13-.25c.36-.13.57-.28.63-.47s0-.45-.24-.8l-.87-1.32a.19.19,0,0,1,.06-.27.19.19,0,0,1,.27,0L84.48,92a1.38,1.38,0,0,1,.29,1.14,1.29,1.29,0,0,1-.88.71Z"/><path class="cls-8" d="M87.57,87.15l1.79,5.1a2.24,2.24,0,0,0,.87-2.6l-.36-1A2.22,2.22,0,0,0,87.57,87.15Z"/><path class="cls-10" d="M83.29,76.87l-9.43,3.3a6.42,6.42,0,0,0-3.94,8.19h0l.89-.32,1.62,4.63a1.33,1.33,0,0,0,1.71.83h0A1.36,1.36,0,0,0,75,91.78l-1.25-3.56A2.09,2.09,0,0,1,75,85.55l10.4-2.62a3.2,3.2,0,0,0,2-4.09h0A3.2,3.2,0,0,0,83.29,76.87Z"/><rect class="cls-2" x="106.94" y="122.09" width="18" height="5.74"/><polygon class="cls-7" points="122.85 131.25 109.03 131.25 106.94 127.85 124.94 127.85 122.85 131.25"/><ellipse class="cls-6" cx="115.94" cy="93.23" rx="22.66" ry="22.75"/><polygon class="cls-6" points="136.8 101.76 95.08 101.76 106.94 122.09 124.94 122.09 136.8 101.76"/><path class="cls-1" d="M112.16,120.43a.29.29,0,0,1-.29-.29V107.37a.3.3,0,0,1,.59,0v12.77A.29.29,0,0,1,112.16,120.43Z"/><path class="cls-1" d="M119.77,120.43a.3.3,0,0,1-.3-.29V107.37a.3.3,0,0,1,.6,0v12.77A.3.3,0,0,1,119.77,120.43Z"/><path class="cls-1" d="M112.19,101.43a.29.29,0,0,1-.29-.29c0-1.72-.58-2.81-1-2.81s-1,1.09-1,2.81a.29.29,0,0,1-.29.29.3.3,0,0,1-.3-.29c0-1.65.55-3.41,1.57-3.41s1.56,1.76,1.56,3.41A.29.29,0,0,1,112.19,101.43Z"/><path class="cls-1" d="M113.46,104.54c-1,0-1.56-1.75-1.56-3.4a.3.3,0,1,1,.59,0c0,1.71.58,2.81,1,2.81s1-1.1,1-2.81a.3.3,0,0,1,.6,0C115,102.79,114.48,104.54,113.46,104.54Z"/><path class="cls-1" d="M117.27,101.43a.29.29,0,0,1-.3-.29c0-1.72-.58-2.81-1-2.81s-1,1.09-1,2.81a.3.3,0,0,1-.6,0c0-1.65.55-3.41,1.57-3.41s1.56,1.76,1.56,3.41A.29.29,0,0,1,117.27,101.43Z"/><path class="cls-1" d="M118.53,104.54c-1,0-1.56-1.75-1.56-3.4a.3.3,0,1,1,.59,0c0,1.71.58,2.81,1,2.81s1-1.1,1-2.81a.3.3,0,1,1,.59,0C120.1,102.79,119.55,104.54,118.53,104.54Z"/><path class="cls-1" d="M122.34,101.43a.29.29,0,0,1-.3-.29c0-1.72-.57-2.81-1-2.81s-1,1.09-1,2.81a.3.3,0,0,1-.59,0c0-1.65.54-3.41,1.56-3.41s1.56,1.76,1.56,3.41A.29.29,0,0,1,122.34,101.43Z"/><g class="cls-13"><path class="cls-1" d="M120.44,76.28a1.32,1.32,0,0,0-.14-2.53,18.64,18.64,0,0,0-4.32-.5A19.1,19.1,0,0,0,97.44,96.6a1.32,1.32,0,0,0,2.54.17A34.17,34.17,0,0,1,120.44,76.28Z"/></g><path class="cls-8" d="M133.08,111.19l-.23,0-2.36-.29a1.82,1.82,0,1,1,.45-3.62l2.36.29a1.83,1.83,0,0,1-.22,3.64Z"/><path class="cls-8" d="M84.24,140a14,14,0,0,1-8.36-2.43c-5-3.54-6.77-10.55-5-19.24a1.83,1.83,0,1,1,3.58.74c-1.47,7.1-.15,12.91,3.52,15.53,4.94,3.53,14.09,1.68,25.76-5.22a22.46,22.46,0,0,0,2.59-2.2,1.82,1.82,0,1,1,2.52,2.64,24.66,24.66,0,0,1-3.25,2.71C96.14,138.08,89.23,140,84.24,140Z"/><path class="cls-9" d="M69.41,126.6c-.1-6.71,1.84-15.32,5.6-18.08l3.23,4.4c-1.42,1-3.46,7.21-3.38,13.61Z"/><rect class="cls-2" x="110.78" y="155.26" width="27.82" height="14.7"/><path class="cls-7" d="M108.64,166.27h32.1a3.4,3.4,0,0,1,3.4,3.4v3.73a0,0,0,0,1,0,0H105.24a0,0,0,0,1,0,0v-3.73A3.4,3.4,0,0,1,108.64,166.27Z"/><g class="cls-14"><path class="cls-15" d="M110.78,166.27h-2.14a3.4,3.4,0,0,0-3.4,3.4v3.73h5.54Z"/></g><rect class="cls-1" x="68.35" y="173.4" width="112.77" height="46.48"/><rect class="cls-16" x="68.35" y="173.4" width="112.77" height="46.48"/><rect class="cls-2" x="65.09" y="172.84" width="3.26" height="47.44"/><g class="cls-17"><rect class="cls-7" x="110.87" y="155.26" width="3.26" height="11"/></g><path class="cls-2" d="M166.37,230H66.26a8.18,8.18,0,0,1-2-16.1,1.36,1.36,0,1,1,.68,2.64,5.45,5.45,0,0,0,1.36,10.73H166.37a1.37,1.37,0,1,1,0,2.73Z"/><path class="cls-2" d="M189,240.92H136.8a1.37,1.37,0,1,1,0-2.73H189a4.1,4.1,0,0,0,0-8.19H152.82a1.37,1.37,0,1,1,0-2.73H189a6.83,6.83,0,0,1,0,13.65Z"/><rect class="cls-7" x="114.28" y="236.32" width="15.49" height="1.41" rx="0.71"/><rect class="cls-7" x="114.28" y="240.82" width="15.49" height="1.41" rx="0.71"/><rect class="cls-18" x="122.06" y="234.96" width="17.45" height="9"/><rect class="cls-7" x="122.03" y="241.18" width="17.45" height="2.82"/><path class="cls-2" d="M65.75,217.87h.48V212.4h-.48a1.41,1.41,0,0,0-1.41,1.41v2.64A1.42,1.42,0,0,0,65.75,217.87Z"/><rect class="cls-2" x="76.62" y="191.27" width="96.92" height="19.54"/><rect class="cls-19" x="170.64" y="191.27" width="2.91" height="19.54"/><path class="cls-6" d="M83.13,203.46v-3.09l-1.52,2.54h-.53l-1.51-2.47v3H78.46v-5.14h1l1.92,3.19,1.9-3.19h1l0,5.14Z"/><path class="cls-6" d="M88.85,202.36H86.47l-.46,1.1H84.79l2.29-5.14h1.18l2.3,5.14H89.31Zm-.37-.91-.81-2-.82,2Z"/><path class="cls-6" d="M94.37,203.46l-1-1.43H92.29v1.43H91.1v-5.14h2.22c1.37,0,2.23.71,2.23,1.86a1.69,1.69,0,0,1-1,1.63l1.15,1.65Zm-1.12-4.17h-1v1.79h1c.73,0,1.1-.34,1.1-.9S94,199.29,93.25,199.29Z"/><path class="cls-6" d="M98.37,201.44l-.69.72v1.3H96.5v-5.14h1.18v2.4l2.27-2.4h1.32l-2.13,2.29,2.26,2.85H100Z"/><path class="cls-6" d="M105.91,202.5v1h-4v-5.14h3.88v1h-2.7v1.12h2.39v.92h-2.39v1.19Z"/><path class="cls-6" d="M107.92,199.29h-1.64v-1h4.48v1h-1.65v4.17h-1.19Z"/><path class="cls-6" d="M111.4,198.32h1.19v5.14H111.4Z"/><path class="cls-6" d="M118.52,198.32v5.14h-1L115,200.34v3.12h-1.17v-5.14h1l2.55,3.12v-3.12Z"/><path class="cls-6" d="M123.21,200.81h1.09v2.08a3.52,3.52,0,0,1-2.08.65,2.66,2.66,0,1,1,0-5.31,2.72,2.72,0,0,1,2.15.89l-.76.7a1.76,1.76,0,0,0-1.33-.58,1.65,1.65,0,1,0,0,3.29,1.89,1.89,0,0,0,.92-.22Z"/><path class="cls-6" d="M127.16,200.89a2.83,2.83,0,0,1,4.9-1.75l-.76.71a1.66,1.66,0,0,0-1.29-.61,1.65,1.65,0,1,0,0,3.29,1.63,1.63,0,0,0,1.29-.61l.76.71a2.83,2.83,0,0,1-4.9-1.74Z"/><path class="cls-6" d="M136.15,202.36h-2.39l-.45,1.1h-1.22l2.29-5.14h1.17l2.3,5.14H136.6Zm-.38-.91-.81-2-.82,2Z"/><path class="cls-6" d="M143.06,203.46v-3.09l-1.51,2.54H141l-1.51-2.47v3h-1.11v-5.14h1l1.93,3.19,1.89-3.19h1v5.14Z"/><path class="cls-6" d="M149.86,200.18c0,1.15-.86,1.86-2.23,1.86h-1v1.42H145.4v-5.14h2.23C149,198.32,149.86,199,149.86,200.18Zm-1.21,0c0-.56-.36-.89-1.09-.89h-1v1.78h1C148.29,201.07,148.65,200.74,148.65,200.18Z"/><path class="cls-6" d="M153.83,202.36h-2.38l-.46,1.1h-1.22l2.29-5.14h1.18l2.3,5.14h-1.25Zm-.37-.91-.82-2-.81,2Z"/><path class="cls-6" d="M156.08,198.32h1.18v5.14h-1.18Z"/><path class="cls-6" d="M162,200.81H163v2.08a3.5,3.5,0,0,1-2.08.65,2.66,2.66,0,1,1,0-5.31,2.74,2.74,0,0,1,2.15.89l-.77.7a1.74,1.74,0,0,0-1.32-.58,1.65,1.65,0,1,0,0,3.29,1.93,1.93,0,0,0,.93-.22Z"/><path class="cls-6" d="M168.86,198.32v5.14h-1l-2.56-3.12v3.12h-1.17v-5.14h1l2.55,3.12v-3.12Z"/></svg>