<svg id="Layer_1" data-name="Layer 1" xmlns="http://www.w3.org/2000/svg" viewBox="0 0 250 250"><defs><style>.cls-1{fill:#b7b7b7;}.cls-11,.cls-14,.cls-15,.cls-17,.cls-18,.cls-19,.cls-2,.cls-6{fill:#fff;}.cls-2{opacity:0.7;}.cls-13,.cls-3,.cls-8{fill:none;}.cls-3,.cls-5,.cls-6,.cls-7,.cls-8{stroke:#5a5d5d;}.cls-11,.cls-12,.cls-13,.cls-14,.cls-3,.cls-4,.cls-5,.cls-6,.cls-8{stroke-linecap:round;stroke-linejoin:round;}.cls-3{stroke-width:0.24px;}.cls-16,.cls-4{fill:#1a2e35;}.cls-11,.cls-12,.cls-13,.cls-4{stroke:#1a2e35;}.cls-11,.cls-12,.cls-13,.cls-14,.cls-4,.cls-5,.cls-6,.cls-7,.cls-8{stroke-width:0.32px;}.cls-5,.cls-9{fill:#5a5d5d;}.cls-10,.cls-7{fill:#ff8000;}.cls-7{stroke-miterlimit:10;}.cls-12{fill:#9c9c9c;}.cls-14{stroke:#b2b2b2;}.cls-17{opacity:0.5;}.cls-18{opacity:0.69;}.cls-19{opacity:0.31;}.cls-20{fill:#ff8c21;}.cls-21{fill:#5ae4a7;}.cls-22{fill:#ffd0ad;}.cls-23{fill:#fff2ea;}.cls-24{fill:#ff9b4f;}</style></defs><title>Reach icon</title><path class="cls-1" d="M204.92,78C189.49,68.9,172,65.13,154.47,62.77a130.06,130.06,0,0,0-71.79,11c-6.35,3-12.47,8.24-19.39,9.62l6.95-9.7c1.33-1.86,2.65-4.54,1.1-6.23a4.08,4.08,0,0,0-2.51-1.11c-3.57-.53-7.16.77-10.4,2.36C43.49,76,31.3,89.71,22,103.25c-15.3,22.34-13.6,59,3.89,77S80.81,207,96.35,205c11.8-1.47-.91-8.49-3.53-12.74a2.27,2.27,0,0,1-.42-1.21c0-.75.71-1.28,1.36-1.66,5.39-3.13,12.28-2.21,18.25-2.68a250.05,250.05,0,0,1,28.58-.7c1.29.05,16.21.4,15,3.45-.94,2.42-4.65,4.37-6.6,5.85-1.49,1.13-11.17,7.72-8.38,10a5.21,5.21,0,0,0,2.81.84,163.12,163.12,0,0,0,49.25-2.31c14-3,29.49-7.79,37.85-20.33,8.53-12.78,9-29.86,5.8-44.43a72.19,72.19,0,0,0-3.08-10.2c-1.2-3.08-3.1-5.67-4.69-8.54a4.74,4.74,0,0,1-.62-3.8c2-5.47,7.93,5.44,9.54-.42.78-2.84-.72-7.06-1.68-9.75a37.72,37.72,0,0,0-8.12-12.94C221,86.26,213.12,82.81,204.92,78Z"/><path class="cls-2" d="M204.92,78C189.49,68.9,172,65.13,154.47,62.77a130.06,130.06,0,0,0-71.79,11c-6.35,3-12.47,8.24-19.39,9.62l6.95-9.7c1.33-1.86,2.65-4.54,1.1-6.23a4.08,4.08,0,0,0-2.51-1.11c-3.57-.53-7.16.77-10.4,2.36C43.49,76,31.3,89.71,22,103.25c-15.3,22.34-13.6,59,3.89,77S80.81,207,96.35,205c11.8-1.47-.91-8.49-3.53-12.74a2.27,2.27,0,0,1-.42-1.21c0-.75.71-1.28,1.36-1.66,5.39-3.13,12.28-2.21,18.25-2.68a250.05,250.05,0,0,1,28.58-.7c1.29.05,16.21.4,15,3.45-.94,2.42-4.65,4.37-6.6,5.85-1.49,1.13-11.17,7.72-8.38,10a5.21,5.21,0,0,0,2.81.84,163.12,163.12,0,0,0,49.25-2.31c14-3,29.49-7.79,37.85-20.33,8.53-12.78,9-29.86,5.8-44.43a72.19,72.19,0,0,0-3.08-10.2c-1.2-3.08-3.1-5.67-4.69-8.54a4.74,4.74,0,0,1-.62-3.8c2-5.47,7.93,5.44,9.54-.42.78-2.84-.72-7.06-1.68-9.75a37.72,37.72,0,0,0-8.12-12.94C221,86.26,213.12,82.81,204.92,78Z"/><circle class="cls-3" cx="199.18" cy="188.19" r="12.32" transform="translate(-30.33 337.91) rotate(-76.49)"/><circle class="cls-3" cx="199.18" cy="188.19" r="8.41"/><circle class="cls-3" cx="199.18" cy="188.19" r="4.02"/><line class="cls-3" x1="199.18" y1="188.19" x2="214.01" y2="176.79"/><polygon class="cls-3" points="210.46 179.46 210.43 177.48 212.89 175.39 213.24 177.34 210.46 179.46"/><polygon class="cls-3" points="213.24 177.34 215.12 178.28 212.41 180.15 210.46 179.46 213.24 177.34"/><path class="cls-4" d="M164.89,155.14h0a.55.55,0,0,1-.71-.31l-1.28-3.27a.55.55,0,0,1,.31-.71h0a.54.54,0,0,1,.7.31l1.28,3.28A.54.54,0,0,1,164.89,155.14Z"/><path class="cls-4" d="M166.89,160.27h0a.55.55,0,0,1-.7-.31l-1.28-3.28a.54.54,0,0,1,.3-.7h0a.55.55,0,0,1,.71.31l1.28,3.27A.55.55,0,0,1,166.89,160.27Z"/><path class="cls-4" d="M169.65,167.32h0a.53.53,0,0,1-.7-.3l-1.28-3.28a.54.54,0,0,1,.3-.7h0a.55.55,0,0,1,.71.31l1.28,3.27A.54.54,0,0,1,169.65,167.32Z"/><rect class="cls-5" x="142.11" y="149.81" width="30.56" height="55.76" rx="2.35" transform="translate(-53.9 69.52) rotate(-21.36)"/><rect class="cls-6" x="144.4" y="153.99" width="25.98" height="47.41" transform="translate(-53.9 69.52) rotate(-21.36)"/><rect class="cls-7" x="150.32" y="186.49" width="2.68" height="7.06" transform="translate(-58.79 68.28) rotate(-21.36)"/><rect class="cls-7" x="153.78" y="184.46" width="2.68" height="7.71" transform="matrix(0.93, -0.36, 0.36, 0.93, -57.93, 69.42)"/><rect class="cls-7" x="156.85" y="180.34" width="2.68" height="10.53" transform="translate(-56.73 70.36) rotate(-21.36)"/><rect class="cls-7" x="159.63" y="174.64" width="2.68" height="14.98" transform="translate(-55.27 71.13) rotate(-21.36)"/><rect class="cls-7" x="163.77" y="176.17" width="2.68" height="11.94" transform="translate(-55 72.64) rotate(-21.36)"/><rect class="cls-7" x="165.97" y="167.43" width="2.68" height="19.54" transform="translate(-53.04 73.1) rotate(-21.36)"/><line class="cls-6" x1="151.18" y1="194.58" x2="173.12" y2="186"/><polyline class="cls-8" points="147.7 184.17 153.5 178.75 155.98 170.79 159.62 169.95 161.53 163.82"/><polygon class="cls-9" points="162.4 165.04 161.41 164.2 160.12 164.33 162.1 161.99 162.4 165.04"/><circle class="cls-10" cx="147.48" cy="165.14" r="4.56" transform="translate(-42.99 278.02) rotate(-78.88)"/><path class="cls-6" d="M148.19,167h0a.67.67,0,0,1-.6-.08l-2.93-2.12a.65.65,0,0,1,.76-1l2.15,1.56,1.6-6.32a.64.64,0,0,1,.78-.46.63.63,0,0,1,.47.78l-1.83,7.24A.64.64,0,0,1,148.19,167Z"/><path class="cls-5" d="M77.12,116.9c-1.05-6.09,1.16-13.32,0-19.35-.36-1.83,1.53-4.78-.61-6.07,0,.6-.06,1.21-.08,1.81-1.24-1.86.16-3.62-.2-5.45-.88,0-1.32,0-1.73-.67,0,1.21.31,3-.19,4.23L73,91.35c-.39-1.22.57-3,.18-4.23l-1.75-.06C71,87,71,86.44,71,85.84c0,.6-.08,1.81-.1,2.41l-1.76-.06c-.44,0-.41-.62-.38-1.23-.88,0-1.73-.67-2.19-.08l-.08,1.81a4.4,4.4,0,0,0-3.79-3.77c.41.62-.91.58-.49,1.2-.26-.39-.54-.78-.82-1.13v-.37c-.2-1.1-.65-.85-1.13-.74-.66-.43-1.23-.32-1.51.9-.21,2-.39,4.07-.56,6.11a.59.59,0,0,0-.57.16c0,.65-.08,2-.1,2.62-.91.62-1.73-.73-2.63-.1s-.43,3.27-1,3.9c-.27.8-.46.71-.58.2.13-1.94.88-4.44-.32-5.6,0,.65-.05,1.31-.08,2a.78.78,0,0,0-.05-.14c0-.43.08-1-.24-1.07-.16-1.58.41-3.13.24-4.7-.59,0-.88,0-1.14-.71A24.44,24.44,0,0,1,51.5,92l-.87,0c-.25-1.32.42-3.27.18-4.59l-1.17,0c-.29,0-.27-.67-.24-1.32,0,.65-.08,2-.11,2.62l-1.16,0c-.3,0-.27-.66-.24-1.32-.59,0-1.15-.7-1.47-.06,0,.66-.05,1.31-.08,2-.18-2.64-1.59-4-2.47-4,.27.66-.61.63-.34,1.3-.76-1.9-1.78-3.81-2.22-1.78-1.93-1.48-5.05.41-6.51,4.15l-1.36,0c.91-5-2.6-2.59-4.27-3.28a19.7,19.7,0,0,1-1.72,7.46c0,.62-.08,1.87-.11,2.5-.69,14.66-.68,28.47-2,42.75a247.36,247.36,0,0,0,1.93-27c.22.08.48.29.68,0,1.26,9.43-1.87,18.09-1.29,27.5l-1.35,0c-.31,3.3-.69,6.62-1.16,10a5.71,5.71,0,0,0,1.27,3.66c2.82-9.88,3.1-20.79,4.21-31.14-.2,4.38-.1,9.39-1,13.74-1,6.23-.89,11.87-2.18,17.46-.08.3-.17.6-.25.91.37.41.74.78,1.07,1.11,1.64,1.31,4,2,5.81-.43l.09-1.87a3.7,3.7,0,0,1,2.08.11c.56-4,1-8.06,1.53-12.09A99.64,99.64,0,0,1,39,125.13c-.91,4.94-1.56,9.9-2.18,14.86-.34,4-.57,8.14-.88,12.24a1.67,1.67,0,0,0,2.06-.72c1.07-1.22.26-5.63.72-8.12.32-1.29.58-2.61.79-3.94,0,5.08-.09,10.15-.16,15.18.24,1.32.85.69,1.43.71.11-2.62-.08-5.26.58-7.21,0-.65,1.15.71,1.76.08,0-.66.08-2,.1-2.63.91-.62,1.73.73,2.63.1s.43-3.26,1-3.9c.27-.8.46-.71.58-.2-.13,1.94-.88,4.44.32,5.61l.08-2a.78.78,0,0,0,0,.14c0,.43-.08,1,.24,1.07.16,1.58-.41,3.13-.24,4.7.59,0,.88,0,1.14.71a24.44,24.44,0,0,1,.19-4.6l.87,0c.25,1.32-.42,3.27-.18,4.59l1.17,0c.29,0,.27.67.24,1.33,0-.66.08-2,.11-2.63l1.16,0c.3,0,.27.66.24,1.32.59,0,1.15.7,1.47.06,0-.66,0-1.31.08-2,.18,2.64,1.59,4,2.47,4-.27-.67.61-.64.34-1.31.8,2,1.89,4,2.29,1.41q.45-5.7.74-11.47c.26-.29,1.75.73,2.58.21,0-.61.08-1.81.11-2.42,1.34-.55,2.6.7,3.94.15s.57-3,1.48-3.57c1-1.78,1.26,1.25,1.18,3.06.9-.57,0,1.21.82,1.24,1.76.07,3.51.13,4.93-2.23.47-.59,1.76.06,2.63.09C78.22,132.05,78.56,124.2,77.12,116.9Z"/><rect class="cls-8" x="105.43" y="73.91" width="101.92" height="10.7" transform="translate(19.23 -29.95) rotate(11.65)"/><line class="cls-8" x1="108.1" y1="74.67" x2="108.82" y2="71.15"/><line class="cls-8" x1="110.97" y1="75.26" x2="111.69" y2="71.74"/><line class="cls-8" x1="113.83" y1="75.85" x2="114.56" y2="72.33"/><line class="cls-8" x1="116.7" y1="76.44" x2="117.43" y2="72.92"/><line class="cls-8" x1="119.57" y1="77.03" x2="120.8" y2="71.04"/><line class="cls-8" x1="122.43" y1="77.62" x2="123.16" y2="74.1"/><line class="cls-8" x1="125.3" y1="78.21" x2="126.03" y2="74.69"/><line class="cls-8" x1="128.17" y1="78.8" x2="128.89" y2="75.29"/><line class="cls-8" x1="131.04" y1="79.39" x2="131.76" y2="75.88"/><line class="cls-8" x1="133.9" y1="79.99" x2="135.14" y2="73.99"/><line class="cls-8" x1="136.77" y1="80.58" x2="137.5" y2="77.06"/><line class="cls-8" x1="139.64" y1="81.17" x2="140.36" y2="77.65"/><line class="cls-8" x1="142.51" y1="81.76" x2="143.23" y2="78.24"/><line class="cls-8" x1="145.37" y1="82.35" x2="146.1" y2="78.83"/><line class="cls-8" x1="148.24" y1="82.94" x2="149.48" y2="76.95"/><line class="cls-8" x1="151.11" y1="83.53" x2="151.83" y2="80.01"/><line class="cls-8" x1="153.97" y1="84.12" x2="154.7" y2="80.61"/><line class="cls-8" x1="156.84" y1="84.72" x2="157.57" y2="81.2"/><line class="cls-8" x1="159.71" y1="85.31" x2="160.43" y2="81.79"/><line class="cls-8" x1="162.58" y1="85.9" x2="163.81" y2="79.9"/><line class="cls-8" x1="165.44" y1="86.49" x2="166.17" y2="82.97"/><line class="cls-8" x1="168.31" y1="87.08" x2="169.04" y2="83.56"/><line class="cls-8" x1="171.18" y1="87.67" x2="171.9" y2="84.15"/><line class="cls-8" x1="174.05" y1="88.26" x2="174.77" y2="84.74"/><line class="cls-8" x1="176.91" y1="88.85" x2="178.15" y2="82.86"/><line class="cls-8" x1="179.78" y1="89.44" x2="180.51" y2="85.93"/><line class="cls-8" x1="182.65" y1="90.04" x2="183.37" y2="86.52"/><line class="cls-8" x1="185.52" y1="90.63" x2="186.24" y2="87.11"/><line class="cls-8" x1="188.38" y1="91.22" x2="189.11" y2="87.7"/><line class="cls-8" x1="191.25" y1="91.81" x2="192.49" y2="85.82"/><line class="cls-8" x1="194.12" y1="92.4" x2="194.84" y2="88.88"/><line class="cls-8" x1="196.98" y1="92.99" x2="197.71" y2="89.47"/><line class="cls-8" x1="199.85" y1="93.58" x2="200.58" y2="90.06"/><line class="cls-8" x1="202.46" y1="94.12" x2="203.18" y2="90.6"/><path class="cls-7" d="M124.75,92,118,91l5.58-4.06,48.28-11.52A1.8,1.8,0,0,1,174,76.71l.38,1.58A1.82,1.82,0,0,1,173,80.47Z"/><polygon class="cls-11" points="123.68 86.85 123.53 86.89 117.95 90.95 124.75 91.98 124.9 91.95 123.68 86.85"/><polygon class="cls-4" points="121.46 88.4 117.95 90.95 122.22 91.6 121.46 88.4"/><path class="cls-4" d="M168.91,74h1.63a1.8,1.8,0,0,1,1.8,1.8v7.33a0,0,0,0,1,0,0h-5.24a0,0,0,0,1,0,0V75.79A1.8,1.8,0,0,1,168.91,74Z" transform="translate(206.75 -104.76) rotate(76.58)"/><rect class="cls-11" x="166.81" y="76.52" width="0.98" height="5.24" transform="translate(-13.8 40.98) rotate(-13.42)"/><path class="cls-12" d="M170.64,75.36h1.63a1.8,1.8,0,0,1,1.8,1.8v3.77a0,0,0,0,1,0,0h-5.24a0,0,0,0,1,0,0V77.16A1.8,1.8,0,0,1,170.64,75.36Z" transform="translate(207.68 -106.77) rotate(76.58)"/><line class="cls-13" x1="164.78" y1="78.92" x2="139.11" y2="85.05"/><line class="cls-13" x1="132.73" y1="86.57" x2="124.19" y2="88.61"/><path class="cls-3" d="M97.53,185.16H90.34V157.64h4.58v1a.62.62,0,0,0,1.24,0v-1h5.29v1a.62.62,0,0,0,1.23,0v-1H108v1a.61.61,0,0,0,.61.61.62.62,0,0,0,.62-.61v-1h5.29v1a.62.62,0,0,0,.62.61.61.61,0,0,0,.61-.61v-1H121v1a.62.62,0,0,0,1.24,0v-1h4.58v5.87"/><polyline class="cls-3" points="126.84 166.22 126.84 185.16 100.78 185.16"/><rect class="cls-3" x="94.4" y="165.17" width="4.06" height="4.06"/><rect class="cls-3" x="100.48" y="165.17" width="4.06" height="4.06"/><rect class="cls-3" x="106.56" y="165.17" width="4.06" height="4.06"/><rect class="cls-3" x="112.65" y="165.17" width="4.06" height="4.06"/><rect class="cls-3" x="118.73" y="165.17" width="4.06" height="4.06"/><rect class="cls-3" x="94.4" y="171.83" width="4.06" height="4.06"/><rect class="cls-3" x="100.48" y="171.83" width="4.06" height="4.06"/><rect class="cls-3" x="106.56" y="171.83" width="4.06" height="4.06"/><rect class="cls-3" x="112.65" y="171.83" width="4.06" height="4.06"/><rect class="cls-3" x="118.73" y="171.83" width="4.06" height="4.06"/><rect class="cls-3" x="94.4" y="178.5" width="4.06" height="4.06"/><rect class="cls-3" x="100.48" y="178.5" width="4.06" height="4.06"/><rect class="cls-3" x="106.56" y="178.5" width="4.06" height="4.06"/><rect class="cls-3" x="112.65" y="178.5" width="4.06" height="4.06"/><rect class="cls-3" x="118.73" y="178.5" width="4.06" height="4.06"/><path class="cls-3" d="M96.16,155.06v3.53a.62.62,0,0,1-1.24,0v-3.53a.62.62,0,0,1,1.24,0Z"/><path class="cls-3" d="M102.68,155.06v3.53a.62.62,0,0,1-1.23,0v-3.53a.62.62,0,1,1,1.23,0Z"/><path class="cls-3" d="M109.21,155.06v3.53a.62.62,0,0,1-.62.61.61.61,0,0,1-.61-.61v-3.53a.61.61,0,0,1,.61-.62A.62.62,0,0,1,109.21,155.06Z"/><path class="cls-3" d="M115.73,155.06v3.53a.61.61,0,0,1-.61.61.62.62,0,0,1-.62-.61v-3.53a.62.62,0,0,1,.62-.62A.61.61,0,0,1,115.73,155.06Z"/><path class="cls-3" d="M122.26,155.06v3.53a.62.62,0,0,1-1.24,0v-3.53a.62.62,0,0,1,1.24,0Z"/><line class="cls-8" x1="141.52" y1="98.4" x2="141.52" y2="94.05"/><line class="cls-8" x1="151.36" y1="98.4" x2="151.36" y2="94.05"/><line class="cls-8" x1="140.89" y1="96.16" x2="152.06" y2="96.16"/><line class="cls-8" x1="103.2" y1="99.39" x2="107.55" y2="99.39"/><line class="cls-8" x1="103.2" y1="137.16" x2="107.55" y2="137.16"/><line class="cls-8" x1="105.45" y1="96.96" x2="105.45" y2="139.82"/><line class="cls-8" x1="109.04" y1="142.39" x2="109.04" y2="138.05"/><line class="cls-8" x1="116.89" y1="142.39" x2="116.89" y2="138.05"/><line class="cls-8" x1="132.26" y1="142.39" x2="132.26" y2="138.05"/><line class="cls-8" x1="123.57" y1="142.39" x2="123.57" y2="138.05"/><line class="cls-8" x1="107.55" y1="140.15" x2="133.89" y2="140.15"/><line class="cls-8" x1="162.13" y1="142.39" x2="162.13" y2="138.05"/><line class="cls-8" x1="169.09" y1="142.39" x2="169.09" y2="138.05"/><line class="cls-8" x1="182.73" y1="142.39" x2="182.73" y2="138.05"/><line class="cls-8" x1="177.01" y1="142.39" x2="177.01" y2="138.05"/><line class="cls-8" x1="160.81" y1="140.15" x2="184.19" y2="140.15"/><path class="cls-10" d="M81.11,137.31V99.45H91a27,27,0,0,1,4.6.38,10.61,10.61,0,0,1,3.86,1.42,7.2,7.2,0,0,1,2.64,3,11.63,11.63,0,0,1,1,5.12,9.74,9.74,0,0,1-.68,3.86,6,6,0,0,1-1.92,2.5,7,7,0,0,1-3,1.26,7.5,7.5,0,0,1,3.7,1.43,7.07,7.07,0,0,1,2.26,3.06,12.28,12.28,0,0,1,.77,4.62,14.8,14.8,0,0,1-.77,5.08,8.76,8.76,0,0,1-2.22,3.48,9,9,0,0,1-3.57,2,16.88,16.88,0,0,1-4.89.65Zm8.36-22.71h1.64A5.79,5.79,0,0,0,94,114a3,3,0,0,0,1.33-1.7,9.29,9.29,0,0,0,.35-2.71,5.23,5.23,0,0,0-.54-2.5,3.49,3.49,0,0,0-1.59-1.52,5.89,5.89,0,0,0-2.64-.52H89.47Zm0,16.87h1.78c1.84,0,3.11-.47,3.81-1.4a6.82,6.82,0,0,0,1-4.12,10.12,10.12,0,0,0-.47-3.41,3.29,3.29,0,0,0-1.54-1.84,6.08,6.08,0,0,0-2.9-.59H89.47Z"/><path class="cls-10" d="M108.59,137.31V99.45H119a22.94,22.94,0,0,1,6.64.85,8.05,8.05,0,0,1,4.37,3,10.43,10.43,0,0,1,1.56,6.15,20.88,20.88,0,0,1-.37,4.16,7.77,7.77,0,0,1-1.38,3.15A7.58,7.58,0,0,1,127,119l5.18,18.32H123.5l-4.16-17H117v17ZM117,115.53h2.34a5.13,5.13,0,0,0,2.76-.63,3.4,3.4,0,0,0,1.38-1.82,9.33,9.33,0,0,0,.39-2.88,6.86,6.86,0,0,0-.88-3.78,3.65,3.65,0,0,0-3.28-1.36H117Z"/><path class="cls-10" d="M134.81,137.31,142,99.45h9.53l7.06,37.86h-7.71l-1.26-8H144l-1.3,8Zm9.95-13h4l-2-14.77Z"/><path class="cls-10" d="M162,137.31V99.45h5.89l7.76,18.23V99.45h6.91v37.86h-5.65l-7.76-19.63v19.63Z"/><path class="cls-10" d="M188.23,137.31V99.45h9.58a19.41,19.41,0,0,1,7.71,1.24,7.29,7.29,0,0,1,3.88,3.88,17.66,17.66,0,0,1,1.12,6.85v13.74a18.15,18.15,0,0,1-1.12,6.94,7.35,7.35,0,0,1-3.86,4,18.68,18.68,0,0,1-7.64,1.26Zm8.36-5.79h1.31a5.18,5.18,0,0,0,2.76-.56,2.49,2.49,0,0,0,1.05-1.69,15.52,15.52,0,0,0,.21-2.8V110a11.71,11.71,0,0,0-.25-2.71,2.29,2.29,0,0,0-1.1-1.5,5.92,5.92,0,0,0-2.71-.46h-1.27Z"/><path class="cls-14" d="M31.71,137.31V99.45H42.14a22.87,22.87,0,0,1,6.63.85,8,8,0,0,1,4.37,3,10.35,10.35,0,0,1,1.57,6.15,21.66,21.66,0,0,1-.37,4.16A7.77,7.77,0,0,1,53,116.77,7.54,7.54,0,0,1,50.08,119l5.19,18.32H46.62l-4.16-17H40.08v17Zm8.37-21.78h2.34a5.07,5.07,0,0,0,2.75-.63,3.31,3.31,0,0,0,1.38-1.82,9,9,0,0,0,.4-2.88,6.86,6.86,0,0,0-.89-3.78,3.62,3.62,0,0,0-3.27-1.36H40.08Z"/><path class="cls-14" d="M59.57,137.31V99.45h17v5.71H67.94v9.39h6.59v5.8H67.94v11.31h8.74v5.65Z"/><path class="cls-11" d="M231.41,109.57s1.19-2.38,1.58-3.06-.47-1.59-1.55-1.48a2.9,2.9,0,0,0-2.12,1.48c-.22.47-.58,1.11-.58,1.11l-.15.65s1.3-.86,1.91-.54.65,1.84.65,1.84Z"/><path class="cls-6" d="M247.84,64.82,237.23,87.08s-.28,2.78-.56,4.31-2.36,4-2.36,4l-7.38,12.1.56.91a17,17,0,0,1,2.78-1.74c.84-.28,1.25,0,1.74.69s-1,3.06-1,3.06l-1,1.53s.63.84.56,1.32a18.63,18.63,0,0,1-3.06,3.69,13.54,13.54,0,0,1-2.64.84s2.43,1.53,2.92,2.85-.56,1.74-1.32,1.67-9-2-9.39-2.37-4.11-3.34-5.15-4.24-1.25-5.15-1.25-5.64-.21-7-.35-8.06a4.27,4.27,0,0,1,1.6-3.83c1.32-.83,5.56-6,5.56-6s6.4-8.83,6.78-9.58,5.14-21.08,5.14-21.08"/><rect class="cls-15" x="224.45" y="114.57" width="14.31" height="55.1" rx="1.94" transform="translate(-27.7 60.89) rotate(-14.14)"/><rect class="cls-16" x="222.86" y="131.92" width="14.31" height="7.81" transform="translate(-26.21 60.31) rotate(-14.14)"/><rect class="cls-16" x="220.56" y="122.81" width="14.31" height="7.81" transform="translate(-24.06 59.47) rotate(-14.14)"/><rect class="cls-16" x="227.45" y="150.14" width="14.31" height="7.81" transform="translate(-30.53 61.98) rotate(-14.14)"/><rect class="cls-17" x="227.45" y="150.14" width="14.31" height="7.81" transform="translate(-30.53 61.98) rotate(-14.14)"/><rect class="cls-16" x="229.75" y="159.25" width="14.31" height="7.81" transform="translate(-32.68 62.82) rotate(-14.14)"/><rect class="cls-18" x="229.75" y="159.25" width="14.31" height="7.81" transform="translate(-32.68 62.82) rotate(-14.14)"/><rect class="cls-16" x="225.15" y="141.03" width="14.31" height="7.81" transform="translate(-28.37 61.15) rotate(-14.14)"/><rect class="cls-19" x="225.15" y="141.03" width="14.31" height="7.81" transform="translate(-28.37 61.15) rotate(-14.14)"/><rect class="cls-13" x="224.45" y="114.57" width="14.31" height="55.1" rx="1.94" transform="translate(-27.7 60.89) rotate(-14.14)"/><rect class="cls-15" x="216.97" y="116.22" width="14.31" height="55.1" rx="1.94" transform="translate(442.17 296.63) rotate(-177.65)"/><rect class="cls-20" x="220.49" y="130.12" width="7.81" height="14.31" transform="translate(78.02 355.85) rotate(-87.65)"/><rect class="cls-10" x="220.88" y="120.74" width="7.81" height="14.31" transform="translate(87.77 347.23) rotate(-87.65)"/><rect class="cls-21" x="219.72" y="148.9" width="7.81" height="14.31" transform="translate(58.51 373.08) rotate(-87.65)"/><rect class="cls-22" x="219.72" y="148.9" width="7.81" height="14.31" transform="translate(58.51 373.08) rotate(-87.65)"/><rect class="cls-21" x="219.33" y="158.29" width="7.81" height="14.31" transform="matrix(0.04, -1, 1, 0.04, 48.76, 381.7)"/><rect class="cls-23" x="219.33" y="158.29" width="7.81" height="14.31" transform="matrix(0.04, -1, 1, 0.04, 48.76, 381.7)"/><rect class="cls-21" x="220.11" y="139.51" width="7.81" height="14.31" transform="translate(68.26 364.47) rotate(-87.65)"/><rect class="cls-24" x="220.11" y="139.51" width="7.81" height="14.31" transform="translate(68.26 364.47) rotate(-87.65)"/><rect class="cls-13" x="216.97" y="116.22" width="14.31" height="55.1" rx="1.94" transform="translate(442.17 296.63) rotate(-177.65)"/><rect class="cls-15" x="212.26" y="116.15" width="14.31" height="55.1" rx="1.94" transform="translate(402.53 331.48) rotate(-167.5)"/><rect class="cls-20" x="216.91" y="130.2" width="7.81" height="14.31" transform="translate(38.93 323.22) rotate(-77.5)"/><rect class="cls-10" x="218.95" y="121.03" width="7.81" height="14.31" transform="translate(49.48 318.02) rotate(-77.5)"/><rect class="cls-21" x="212.85" y="148.55" width="7.81" height="14.31" transform="translate(17.83 333.63) rotate(-77.5)"/><rect class="cls-22" x="212.85" y="148.55" width="7.81" height="14.31" transform="translate(17.83 333.63) rotate(-77.5)"/><rect class="cls-21" x="210.81" y="157.72" width="7.81" height="14.31" transform="translate(7.28 338.83) rotate(-77.5)"/><rect class="cls-23" x="210.81" y="157.72" width="7.81" height="14.31" transform="translate(7.28 338.83) rotate(-77.5)"/><rect class="cls-21" x="214.88" y="139.38" width="7.81" height="14.31" transform="translate(28.38 328.42) rotate(-77.5)"/><rect class="cls-24" x="214.88" y="139.38" width="7.81" height="14.31" transform="translate(28.38 328.42) rotate(-77.5)"/><rect class="cls-13" x="212.26" y="116.15" width="14.31" height="55.1" rx="1.94" transform="translate(402.53 331.48) rotate(-167.5)"/><rect class="cls-15" x="207.13" y="115.1" width="14.31" height="55.1" rx="1.94" transform="translate(352.91 359.56) rotate(-156.23)"/><rect class="cls-20" x="213" y="129.55" width="7.81" height="14.31" transform="translate(4.38 280.12) rotate(-66.23)"/><rect class="cls-10" x="216.78" y="120.95" width="7.81" height="14.31" transform="translate(14.51 278.45) rotate(-66.23)"/><rect class="cls-21" x="205.42" y="146.75" width="7.81" height="14.31" transform="translate(-15.88 283.46) rotate(-66.23)"/><rect class="cls-22" x="205.42" y="146.75" width="7.81" height="14.31" transform="translate(-15.88 283.46) rotate(-66.23)"/><rect class="cls-21" x="201.64" y="155.35" width="7.81" height="14.31" transform="translate(-26.01 285.13) rotate(-66.23)"/><rect class="cls-23" x="201.64" y="155.35" width="7.81" height="14.31" transform="translate(-26.01 285.13) rotate(-66.23)"/><rect class="cls-21" x="209.21" y="138.15" width="7.81" height="14.31" transform="translate(-5.75 281.79) rotate(-66.23)"/><rect class="cls-24" x="209.21" y="138.15" width="7.81" height="14.31" transform="translate(-5.75 281.79) rotate(-66.23)"/><rect class="cls-13" x="207.13" y="115.1" width="14.31" height="55.1" rx="1.94" transform="translate(352.91 359.56) rotate(-156.23)"/><rect class="cls-15" x="180.91" y="132.89" width="55.1" height="14.31" rx="1.94" transform="translate(-29.54 220.22) rotate(-52.51)"/><rect class="cls-20" x="208.51" y="127.74" width="7.81" height="14.31" transform="translate(-23.9 221.34) rotate(-52.51)"/><rect class="cls-10" x="214.23" y="120.28" width="7.81" height="14.31" transform="translate(-15.74 222.96) rotate(-52.51)"/><rect class="cls-21" x="197.08" y="142.65" width="7.81" height="14.31" transform="translate(-40.2 218.1) rotate(-52.51)"/><rect class="cls-22" x="197.08" y="142.65" width="7.81" height="14.31" transform="translate(-40.2 218.1) rotate(-52.51)"/><rect class="cls-21" x="191.36" y="150.11" width="7.81" height="14.31" transform="translate(-48.36 216.48) rotate(-52.51)"/><rect class="cls-23" x="191.36" y="150.11" width="7.81" height="14.31" transform="translate(-48.36 216.48) rotate(-52.51)"/><rect class="cls-21" x="202.79" y="135.19" width="7.81" height="14.31" transform="translate(-32.05 219.72) rotate(-52.51)"/><rect class="cls-24" x="202.79" y="135.19" width="7.81" height="14.31" transform="translate(-32.05 219.72) rotate(-52.51)"/><rect class="cls-13" x="180.91" y="132.89" width="55.1" height="14.31" rx="1.94" transform="translate(-29.54 220.22) rotate(-52.51)"/><path class="cls-11" d="M214.64,103.26s5.7,1.44,6.24,1.8.54,1,.47,1.77-2.24,6.17-2.38,7.79-.94,5.59-.65,6.56a2.83,2.83,0,0,0,3.14,1.66c1.44-.29,1.69-.8,2.27-2.42s2.16-3.93,2.41-6.7a37.65,37.65,0,0,1,.47-3.75s3.21-4.8,4.44-6.49a24.86,24.86,0,0,0,3.2-6.56,50.06,50.06,0,0,0,1.19-5.08"/><path class="cls-11" d="M219.44,118.11a6.18,6.18,0,0,0-.9,2.74,1.84,1.84,0,0,0,1.73,2,2.1,2.1,0,0,0,2-.43c.14-.15.94-3.07.68-3.39A7.28,7.28,0,0,0,219.44,118.11Z"/><path class="cls-11" d="M230,111.91a3.08,3.08,0,0,0-2.77-.25,1.74,1.74,0,0,0-.93.83"/><path class="cls-13" d="M230.55,113.23s-1-.45-1.31-.31-2.34,2.09-2.05,2.53a.91.91,0,0,0,1.12.43"/><path class="cls-13" d="M232,107.32s-1.4-.49-1.83-.06-1.33,1.91-1,2.46a1.22,1.22,0,0,0,1.55.5"/><path class="cls-13" d="M233,105.86s-.83-.36-1.26-.11a1.12,1.12,0,0,0-.51.76"/><path class="cls-13" d="M221.17,107.59l-2.67.54a5.53,5.53,0,0,1-1.62.58,4.58,4.58,0,0,1-1.77-.73"/><path class="cls-13" d="M216.88,108.71a13,13,0,0,1,.39,2.7c0,1-.14,1.51-.14,1.69a13.69,13.69,0,0,0,1.84,1.52"/><path class="cls-13" d="M215.44,113.86s1-.9,1.69-.76"/><path class="cls-13" d="M217.78,113a8.92,8.92,0,0,1,1.87-1"/><path class="cls-11" d="M220.34,107.91a2.62,2.62,0,0,1,.4,1"/><path class="cls-13" d="M220.26,101.61a8.69,8.69,0,0,1,1.09,4.66"/><rect class="cls-5" x="33.34" y="185.85" width="33.57" height="2.94" transform="translate(-143.25 201.69) rotate(-79.27)"/><path class="cls-6" d="M53.89,171l-1.28-.25.83-4.27a3.46,3.46,0,0,1,3-2.79l22.66-2.86A2.15,2.15,0,0,0,81,159l1.78-10.42a2.18,2.18,0,0,0-1.62-2.47l-1.47-.36.32-1.27,1.46.36a3.48,3.48,0,0,1,2.6,4l-1.78,10.42a3.46,3.46,0,0,1-3,2.86l-22.66,2.86a2.18,2.18,0,0,0-1.86,1.75Z"/><rect class="cls-7" x="51.35" y="117.97" width="11.76" height="46.25" transform="translate(-91.96 171.52) rotate(-79.45)"/><path class="cls-6" d="M22.86,213.84H42.18c2.2-5.15,4.72-11,5.06-11.58a7.77,7.77,0,0,1,2.48-2s1.59-.94,3.26-2.16,3-3.19,2.89-3.58.28-.72.56-1.44a4.45,4.45,0,0,0,.34-1.94A7.34,7.34,0,0,1,58,188.62c.63-1-.42-2.48-.42-2.48s.3-1.39.63-2.66-1.43-3.65-1.43-3.65.24-1,.45-2.09a3.54,3.54,0,0,0-1.44-3c-.59-.31-3.77.77-3.77.77a8.54,8.54,0,0,0,.84-3.77A3.1,3.1,0,0,0,49.4,169c-1.72.16,0,2.54-1.25,4.51-.83,1.32-4.13,3.39-5.74,4.2s-3.91,5.5-4.43,6.39a20.47,20.47,0,0,0-1.22,7.06C36.94,192.21,27.61,206.6,22.86,213.84Z"/><path class="cls-8" d="M52,175.53a50.72,50.72,0,0,0-5.79,2"/><path class="cls-8" d="M57.85,184.57a5.08,5.08,0,0,1-1.4,1c-.14.06-.33.15-.53.26"/><path class="cls-8" d="M55.68,193.66a5.88,5.88,0,0,1-1.86,1.14"/><path class="cls-8" d="M53.94,194s-.12.27-.95.74"/><path class="cls-8" d="M54.37,175.7a2.52,2.52,0,0,1,2,1.63c.41,1.41-.86,1.71-.9,2.46a2.42,2.42,0,0,0,.21,1.2"/><path class="cls-8" d="M56.84,181a5.42,5.42,0,0,1,1.33,2.44"/><path class="cls-8" d="M50.36,169a1.21,1.21,0,0,1,.58,1.32c-.11,1-.29,2-.29,2a4.86,4.86,0,0,1-1.54.12"/></svg>