<svg width="38" height="38" viewBox="0 0 38 38" fill="none" xmlns="http://www.w3.org/2000/svg">
<g clip-path="url(#clip0_321_246)">
<path d="M18.9999 0C13.8354 0 13.1918 0.0249375 11.1707 0.110438C9.14126 0.210187 7.76851 0.524875 6.55726 0.995125C5.28961 1.47381 4.14156 2.22311 3.19307 3.19081C2.22388 4.13808 1.47435 5.28648 0.997383 6.555C0.527133 7.76625 0.212446 9.139 0.112696 11.1684C0.0212583 13.1907 0.0022583 13.8332 0.0022583 18.9976C0.0022583 24.1621 0.0271958 24.8057 0.112696 26.8268C0.212446 28.8503 0.527133 30.229 0.997383 31.4403C1.47607 32.7079 2.22537 33.856 3.19307 34.8044C4.14033 35.7736 5.28874 36.5232 6.55726 37.0001C7.76851 37.4644 9.1472 37.7851 11.1707 37.8848C13.193 37.9762 13.8354 37.9953 18.9999 37.9953C24.1643 37.9953 24.8079 37.9703 26.8291 37.8848C28.8526 37.7851 30.2313 37.4632 31.4425 37.0001C32.7102 36.5214 33.8582 35.7721 34.8067 34.8044C35.7789 33.8597 36.5289 32.7105 37.0024 31.4403C37.4667 30.229 37.7873 28.8503 37.8871 26.8268C37.9785 24.8045 37.9975 24.1621 37.9975 18.9976C37.9975 13.8332 37.9726 13.1896 37.8871 11.1684C37.7873 9.14494 37.4655 7.75913 37.0024 6.555C36.5237 5.28735 35.7744 4.1393 34.8067 3.19081C33.8619 2.21858 32.7128 1.46858 31.4425 0.995125C30.2313 0.524875 28.8526 0.210187 26.8291 0.110438C24.8068 0.019 24.1643 0 18.9999 0ZM18.9999 3.42C24.0717 3.42 24.6773 3.44494 26.6818 3.53044C28.5308 3.61713 29.5378 3.92587 30.2063 4.18713C31.0327 4.49261 31.7806 4.97816 32.3961 5.60856C33.0267 6.2203 33.5107 6.96691 33.8116 7.79237C34.0728 8.46094 34.3816 9.46794 34.4683 11.3169C34.5538 13.3214 34.5787 13.9282 34.5787 18.9988C34.5787 24.0694 34.5538 24.6763 34.4611 26.6807C34.3614 28.5297 34.0526 29.5367 33.7926 30.2053C33.4328 31.0971 33.0314 31.7205 32.3688 32.395C31.7515 33.0217 31.0039 33.505 30.179 33.8105C29.5188 34.0718 28.4975 34.3805 26.6414 34.4672C24.6263 34.5527 24.0325 34.5776 18.9476 34.5776C13.8628 34.5776 13.2702 34.5527 11.2526 34.4601C9.4037 34.3603 8.38363 34.0516 7.71507 33.7915C6.81257 33.4317 6.19388 33.0303 5.53126 32.3677C4.8627 31.6991 4.43757 31.0626 4.10982 30.1779C3.84382 29.5177 3.53982 28.4964 3.44126 26.6404C3.37357 24.6489 3.34151 24.0314 3.34151 18.9703C3.34151 13.9116 3.37357 13.2929 3.44126 11.2765C3.53982 9.42044 3.84382 8.40156 4.10982 7.73894C4.43757 6.83525 4.86388 6.21775 5.53126 5.54919C6.1927 4.88775 6.81257 4.46025 7.71507 4.12537C8.38363 3.86531 9.37876 3.55656 11.2348 3.46394C13.25 3.3915 13.8438 3.36538 18.9215 3.36538L18.9999 3.42ZM18.9999 9.24706C17.719 9.24659 16.4505 9.49854 15.267 9.98851C14.0836 10.4785 13.0082 11.1969 12.1025 12.1026C11.1967 13.0083 10.4784 14.0837 9.98839 15.2672C9.49843 16.4507 9.24648 17.7191 9.24695 19C9.24648 20.2809 9.49843 21.5494 9.98839 22.7328C10.4784 23.9163 11.1967 24.9917 12.1025 25.8974C13.0082 26.8032 14.0836 27.5215 15.267 28.0115C16.4505 28.5015 17.719 28.7534 18.9999 28.7529C20.2808 28.7534 21.5492 28.5015 22.7327 28.0115C23.9162 27.5215 24.9916 26.8032 25.8973 25.8974C26.803 24.9917 27.5214 23.9163 28.0114 22.7328C28.5013 21.5494 28.7533 20.2809 28.7528 19C28.7533 17.7191 28.5013 16.4507 28.0114 15.2672C27.5214 14.0837 26.803 13.0083 25.8973 12.1026C24.9916 11.1969 23.9162 10.4785 22.7327 9.98851C21.5492 9.49854 20.2808 9.24659 18.9999 9.24706ZM18.9999 25.3329C15.4991 25.3329 12.6669 22.5007 12.6669 19C12.6669 15.4993 15.4991 12.6671 18.9999 12.6671C22.5006 12.6671 25.3328 15.4993 25.3328 19C25.3328 22.5007 22.5006 25.3329 18.9999 25.3329ZM31.4259 8.85756C31.4253 9.46279 31.1844 10.043 30.7562 10.4707C30.328 10.8985 29.7475 11.1388 29.1423 11.1388C28.8431 11.1388 28.5467 11.0798 28.2703 10.9653C27.9938 10.8508 27.7426 10.6829 27.531 10.4713C27.3193 10.2597 27.1515 10.0085 27.037 9.732C26.9225 9.45552 26.8635 9.15919 26.8635 8.85994C26.8635 8.56068 26.9225 8.26435 27.037 7.98787C27.1515 7.7114 27.3193 7.46018 27.531 7.24857C27.7426 7.03697 27.9938 6.86911 28.2703 6.75459C28.5467 6.64007 28.8431 6.58112 29.1423 6.58112C30.3975 6.58112 31.4259 7.60238 31.4259 8.85756Z" fill="white"/>
</g>
<defs>
<clipPath id="clip0_321_246">
<rect width="38" height="38" fill="white"/>
</clipPath>
</defs>
</svg>
