<svg xmlns="http://www.w3.org/2000/svg" viewBox="0 0 250 250"><defs><style>.cls-1{isolation:isolate;}.cls-2{fill:gray;opacity:0.3;mix-blend-mode:multiply;}.cls-10,.cls-11,.cls-12,.cls-13,.cls-14,.cls-2,.cls-3,.cls-4,.cls-5,.cls-6,.cls-7,.cls-8,.cls-9{fill-rule:evenodd;}.cls-3{fill:#ff7f08;}.cls-15,.cls-4{fill:#101c29;}.cls-5{fill:#e9effd;}.cls-16,.cls-6{fill:#5b5d5d;}.cls-14,.cls-7{fill:#fff;}.cls-8{fill:#b7b7b7;}.cls-9{fill:#e46108;}.cls-10{fill:#f46809;}.cls-11{fill:#fc7178;}.cls-12{fill:#65d999;}.cls-13{fill:#fce259;}.cls-14{opacity:0.38;}</style></defs><title>Reach icon</title><g class="cls-1"><g id="Layer_1" data-name="Layer 1"><path class="cls-2" d="M82.69,186.5,69.45,213.93s-1.17,2.45,2.2,2.38,111.81,3.17,114.07,3.25,2.77-1.38,1.38-4.32c-1.27-2.67-9.41-21.78-10.92-25.32a1,1,0,0,0-.85-.59L83.6,186A1,1,0,0,0,82.69,186.5Z"/><path class="cls-3" d="M184.33,117.23s1.78-2,4.86-4.8c1.92.64,11.05,3.47,11-1.35,0-4-5.66-2-8.63-.73,1.42-1.21,3-2.5,4.79-3.8,2.23.77,10.56,3.41,10.43-.59s-6.05-2-8-1.18c1.54-1.06,3.19-2.11,4.91-3.11,1.75.77,8.45,3.47,9-.13.45-3.2-3.92-2.17-5.93-1.54,1-.51,2-1,3-1.47,3.85.58,13.16-1.41,9.69-4.79-3-2.94-8.06,2.18-9.72,4q-1.76.78-3.42,1.65c1.23-2.07,3.75-7-.16-6.57-4.34.46-3.27,6.78-2.95,8.29-1.41.82-2.75,1.67-4,2.53,1.77-2.62,4.93-8.17.4-8.7-5.46-.64-4.1,9.46-3.84,11.13-2.06,1.54-3.91,3.06-5.5,4.44,1.69-2.3,6.88-9.89,1.42-9.6-5.7.29-3.52,9-3,11-3.1,2.82-4.89,4.83-4.9,4.84Z"/><path class="cls-3" d="M142.55,131.53s-1.34-2-3.08-5.42c1-1.53,5.67-8.92,1.4-10-3.5-.9-3.12,4.52-2.68,7.45-.73-1.54-1.49-3.26-2.22-5.12,1.21-1.79,5.51-8.51,1.94-9.35s-3.17,4.87-2.91,6.75c-.57-1.61-1.11-3.31-1.59-5.07,1.1-1.37,5.06-6.64,2-7.93-2.72-1.16-2.84,2.94-2.76,4.86-.22-1-.41-2-.58-3,1.42-3.27,1.87-11.94-1.93-9.68-3.31,2,0,7.63,1.26,9.52.18,1.16.4,2.29.65,3.41-1.54-1.57-5.27-5-5.83-1.41-.63,3.94,5.2,4.49,6.61,4.56.39,1.43.82,2.82,1.28,4.16-1.9-2.18-6.05-6.28-7.58-2.41-1.86,4.66,7.37,5.85,8.91,6,.87,2.18,1.77,4.17,2.61,5.9-1.63-2-7.09-8.41-8.13-3.52-1.09,5.1,7.11,5.23,9,5.2,1.76,3.4,3.11,5.45,3.12,5.47Z"/><path class="cls-3" d="M160.84,180s2-1.34,5.42-3.08c1.53,1,8.92,5.67,10,1.4.9-3.5-4.52-3.12-7.44-2.68,1.54-.73,3.26-1.49,5.12-2.22,1.78,1.21,8.51,5.51,9.34,1.95s-4.87-3.18-6.75-2.92c1.62-.57,3.31-1.11,5.07-1.59,1.37,1.1,6.64,5.06,7.94,2,1.15-2.71-2.95-2.84-4.87-2.76,1-.22,2-.41,3-.58,3.27,1.42,11.94,1.87,9.68-1.93-2-3.31-7.62,0-9.52,1.26-1.15.19-2.29.4-3.41.65,1.58-1.54,5-5.27,1.42-5.83-3.94-.63-4.49,5.2-4.57,6.61-1.43.39-2.82.82-4.16,1.28,2.18-1.9,6.28-6,2.41-7.58-4.66-1.86-5.85,7.37-6,8.91-2.19.87-4.18,1.77-5.9,2.61,2-1.62,8.4-7.09,3.52-8.13-5.1-1.09-5.24,7.11-5.2,9-3.41,1.76-5.46,3.11-5.47,3.12Z"/><path class="cls-3" d="M160.84,180s2-1.34,5.42-3.08a29.53,29.53,0,0,0,3.5,2c-.12-1.91,1.57-3.06,2.53-3.55a22.41,22.41,0,0,0-3.45.28c.87-.41,1.79-.83,2.77-1.25a2,2,0,0,1-.07-.66c-1.4.6-2.71,1.2-3.89,1.78a29.81,29.81,0,0,0,3.89-3.69c-1.22-.26-.81-2.65-.32-4.43h-.05c-5.1-1.09-5.24,7.11-5.2,9-3.41,1.76-5.46,3.11-5.47,3.12Z"/><path class="cls-3" d="M80.5,176.65s-2-1.39-5.34-3.21c-1.56,1-9,5.48-10.06,1.19-.82-3.53,4.59-3,7.51-2.52-1.53-.76-3.23-1.56-5.07-2.33-1.81,1.17-8.63,5.32-9.39,1.73s4.94-3.06,6.81-2.76q-2.4-.92-5-1.7c-1.39,1.06-6.75,4.91-8,1.83-1.09-2.74,3-2.78,4.93-2.65-1-.24-2-.46-3-.65-3.3,1.35-12,1.61-9.63-2.14,2-3.27,7.62.18,9.49,1.47q1.73.32,3.39.72c-1.54-1.57-4.84-5.37-1.28-5.86,3.95-.53,4.37,5.3,4.41,6.71,1.43.43,2.81.89,4.13,1.38-2.13-2-6.14-6.19-2.24-7.64,4.7-1.75,5.69,7.51,5.82,9.05,2.16.91,4.13,1.86,5.84,2.74-2-1.67-8.24-7.28-3.34-8.21,5.12-1,5.08,7.23,5,9.09a61.31,61.31,0,0,1,5.4,3.24Z"/><path class="cls-3" d="M80.5,176.65s-2-1.39-5.34-3.21c-.42.27-1.25.78-2.27,1.3a3.83,3.83,0,0,0-.51-2.67l.23,0-.29-.14a9.21,9.21,0,0,0-.71-1.05c.77.37,1.5.73,2.19,1.09-2-1.67-8.24-7.28-3.34-8.21,5.12-1,5.08,7.23,5,9.09a61.31,61.31,0,0,1,5.4,3.24l-.36.52ZM62,165.4c1.17-.29,3.83-.72,5.49.82-.64-3.13-2.11-7.21-5.38-6C59.52,161.2,60.47,163.44,62,165.4Z"/><path class="cls-3" d="M63.82,109.33s-1.73-2-4.74-4.91c-1.93.6-11.13,3.22-11-1.6.12-4,5.71-1.9,8.65-.53-1.4-1.24-3-2.57-4.71-3.91-2.24.73-10.63,3.18-10.41-.82s6.09-1.85,8-1c-1.52-1.09-3.14-2.18-4.84-3.22-1.77.73-8.53,3.28-9-.33-.38-3.2,4-2.08,6-1.41q-1.45-.8-3-1.53c-3.87.49-13.12-1.7-9.58-5,3.09-2.88,8,2.35,9.63,4.25,1.15.54,2.28,1.12,3.38,1.73-1.18-2.11-3.59-7.07.3-6.57,4.34.55,3.13,6.85,2.77,8.35,1.39.85,2.72,1.74,4,2.63-1.71-2.67-4.74-8.29-.2-8.72,5.47-.52,3.88,9.55,3.59,11.22,2,1.59,3.84,3.14,5.4,4.56-1.64-2.34-6.66-10-1.21-9.63,5.7.42,3.32,9.08,2.72,11,3,2.89,4.78,4.94,4.79,5Z"/><path class="cls-3" d="M75.58,177.73,77,124.26s-.42-3.52,4.32-3.35,85.14,2.47,85.14,2.47,3.25.61,3.43,3.13-1.29,54.64-1.29,54.64Z"/><path class="cls-4" d="M125.83,123a.8.8,0,1,1-.8.8A.8.8,0,0,1,125.83,123Z"/><path class="cls-4" d="M79,171.09l1.13-43.89s-.36-3.06,3.76-2.91l79.54,2.83s2.84.53,3,2.73c.14,1.86-.77,35-1,44.82a2.7,2.7,0,0,1-2.81,2.62l-81-3.44A2.7,2.7,0,0,1,79,171.09Z"/><path class="cls-5" d="M118.34,176.75s7.08-.31,7.28.49.06,1.59-.12,1.54-7.13.13-7.26-.26S118.13,176.75,118.34,176.75Z"/><path class="cls-6" d="M120.7,161.16l-4.87-13.81a.54.54,0,0,0-.43-.35q-3-.48-6.06-.88a.53.53,0,0,0-.49.2.5.5,0,0,0-.09.52l5,13.56a.53.53,0,0,0,.41.34l5.93,1.13a.52.52,0,0,0,.51-.18.51.51,0,0,0,.1-.53Zm.3.08c-1.59-4.46-3.17-8.89-4.7-13.28a.56.56,0,0,1,.1-.53.54.54,0,0,1,.51-.18L123,148.3a.52.52,0,0,1,.42.36q2.28,6.93,4.8,14a.52.52,0,0,1-.11.53.54.54,0,0,1-.51.18l-6-1.2a.56.56,0,0,1-.41-.35l-.2-.58Zm-5.67-15.31a.51.51,0,0,1-.09.52.53.53,0,0,1-.5.19c-2-.31-4-.6-6.06-.86a.54.54,0,0,1-.44-.35q-2.47-6.69-4.85-13.33a.55.55,0,0,1,.56-.72c2.16.2,4.33.45,6.5.73a.53.53,0,0,1,.44.37c1.4,4.46,2.89,8.94,4.44,13.45Zm-4.88-14.84c-1.36-4.42-2.62-8.81-3.74-13.18a.53.53,0,0,0-.47-.4q-3.61-.41-7.23-.62a.52.52,0,0,0-.46.21.54.54,0,0,0-.09.49c1.4,4.36,2.9,8.74,4.44,13.13a.56.56,0,0,0,.47.36q3.24.28,6.5.7a.52.52,0,0,0,.48-.19.5.5,0,0,0,.1-.5Zm-4.09-14.56a.55.55,0,0,1-.12.49.53.53,0,0,1-.46.18q-3.65-.39-7.26-.59a.55.55,0,0,1-.49-.38c-1.37-4.34-2.67-8.66-3.74-13.07a.51.51,0,0,1,.11-.46.49.49,0,0,1,.43-.2c2.76.08,5.53.26,8.3.51a.55.55,0,0,1,.49.46c.69,4.41,1.65,8.72,2.74,13.06ZM105.09,110c-.45-2-.83-4.11-1.16-6.17a.53.53,0,0,1,.14-.46.52.52,0,0,1,.46-.16l8.24,1a.53.53,0,0,1,.47.49,120.11,120.11,0,0,0,1.83,13.05.49.49,0,0,1-.14.47.5.5,0,0,1-.46.16l-7.29-1a.53.53,0,0,1-.45-.41q-.89-3.51-1.64-7Zm2,8.4c1.14,4.39,2.42,8.81,3.8,13.24a.54.54,0,0,0,.43.38l6.55,1a.53.53,0,0,0,.48-.18.51.51,0,0,0,.12-.5c-1.19-4.42-2.25-8.81-3.12-13.18a.52.52,0,0,0-.45-.43l-7.21-1a.55.55,0,0,0-.48.18.54.54,0,0,0-.12.49ZM111.32,133a.53.53,0,0,1,.11-.51.51.51,0,0,1,.49-.18l6.49,1a.52.52,0,0,1,.44.39c1.25,4.53,2.62,9,4.09,13.5a.53.53,0,0,1-.11.52.56.56,0,0,1-.5.18l-6.11-1.05a.54.54,0,0,1-.41-.36c-1.57-4.53-3.08-9-4.49-13.5Zm-7.9-30.88a114.88,114.88,0,0,1-1.17-13.09.53.53,0,0,0-.49-.52c-3.19-.24-6.37-.39-9.55-.42a.55.55,0,0,0-.41.19.52.52,0,0,0-.12.45l2.31,13a.55.55,0,0,0,.5.45l8.36.5a.53.53,0,0,0,.43-.17.55.55,0,0,0,.14-.44Zm-1.2-14.42a.56.56,0,0,1-.17.4.51.51,0,0,1-.41.15c-3.21-.25-6.43-.39-9.63-.41a.55.55,0,0,1-.53-.48,128.54,128.54,0,0,1-.84-13.32.53.53,0,0,1,.53-.54c3.67,0,7.34.06,11,.28a.48.48,0,0,1,.37.19.49.49,0,0,1,.13.4,121.19,121.19,0,0,0-.47,13.33Zm.23-3.4c0-3.3.19-6.61.5-9.95a.53.53,0,0,1,.57-.48q5.48.38,10.92,1.09a.54.54,0,0,1,.37.21.53.53,0,0,1,.09.42A112.47,112.47,0,0,0,113.15,89a.48.48,0,0,1-.19.37.56.56,0,0,1-.41.13l-9.6-1.1a.54.54,0,0,1-.48-.52c0-1.18,0-2.36,0-3.54Zm.06,4.89a116.64,116.64,0,0,0,1.2,13.2.53.53,0,0,0,.47.46l8.35,1.06a.54.54,0,0,0,.61-.57,103.43,103.43,0,0,1-.07-13.06.55.55,0,0,0-.48-.56l-9.48-1.08a.5.5,0,0,0-.42.14.54.54,0,0,0-.18.41Zm.31-16.14a130,130,0,0,1,2.21-14,.54.54,0,0,0-.51-.65q-6.34-.2-12.67.07a.52.52,0,0,0-.51.48,132.33,132.33,0,0,0-.71,13.72.53.53,0,0,0,.55.53c3.68,0,7.38.06,11.07.29a.54.54,0,0,0,.57-.48Zm2.4-14.84,0-.23.25,0,0,.19c4.44.15,8.87.47,13.29.91a.52.52,0,0,0,.56-.36v0l.24.08-.13.4c4.65.48,9.29,1.11,13.88,1.86l0,.13.12.05c-7.51,16.81-11.55,33.92-10.2,51.8,1.31,17.37,7.08,35.34,13.1,52.2l-.12,0,0,.12c-8.67-1.89-17.45-3.6-26.14-5.2-3.56-.65-7.13-1.36-10.74-2.2a.5.5,0,0,0-.32,0l-.07,0-.06-.16-7.23-1.86,0,.12-.24.09,0-.05a.51.51,0,0,0-.35-.32c-2.48-.7-5-1.48-7.57-2.36l0-.12-.11.05c-5.74-14.14-13.74-28.23-22.37-41.32q-1.94-2.94-3.78-5.87h-.06v-.07a.87.87,0,0,0-.07-.17q-3.65-5.8-6.94-11.63l-.41.13-.08-.24.37-.12c-2.14-3.81-4.2-7.71-6.1-11.59l-.45.17-.1-.23.44-.17Q41,76.58,38.66,70.75l.12,0-.06-.11Q44.19,68.11,50,66.11a.53.53,0,0,0,.34-.65l-.07-.27.24-.07.06.19a.51.51,0,0,0,.26.33.5.5,0,0,0,.43,0c4-1.33,8.07-2.5,12.19-3.49l0-.31.25,0,0,.3a155.43,155.43,0,0,1,41.53-3.91Zm.11.7A131.18,131.18,0,0,0,103.08,73a.48.48,0,0,0,.12.4.52.52,0,0,0,.38.19q5.51.39,11,1.1a.54.54,0,0,0,.6-.42,129.62,129.62,0,0,1,3.75-14.23.53.53,0,0,0-.06-.46.55.55,0,0,0-.4-.24c-4.18-.42-8.38-.72-12.58-.87a.52.52,0,0,0-.54.42Zm-32.61,70.9c1.93.08,3.87.14,5.83.2a.56.56,0,0,0,.47-.25.55.55,0,0,0,0-.54q-2.91-5.73-6-11.49a.53.53,0,0,0-.52-.28q-3.24.27-6.43.58a.54.54,0,0,0-.43.3.54.54,0,0,0,0,.52,231,231,0,0,1,17.87,34.22.52.52,0,0,0,.32.31c2.12.72,4.21,1.37,6.27,2a.54.54,0,0,0,.65-.72q-2.3-5.6-4.87-11.21a.53.53,0,0,0-.41-.31q-3.23-.49-6.5-1.1l0-.25q2.82.53,5.61,1a.53.53,0,0,0,.51-.21.52.52,0,0,0,.06-.56l-5.49-11.36a.54.54,0,0,0-.47-.31l-6.55-.21v-.26Zm7.34.24,6.21.17a.5.5,0,0,0,.46-.24.51.51,0,0,0,0-.52c-1.84-4.08-3.71-8.16-5.58-12.24a.56.56,0,0,0-.53-.31l-6.69.44a.54.54,0,0,0-.44.27.53.53,0,0,0,0,.52c2.08,3.87,4.11,7.75,6.07,11.61a.52.52,0,0,0,.46.3Zm2.29.32-1.59,0a.55.55,0,0,0-.47.25.53.53,0,0,0,0,.53l5.58,11.57a.54.54,0,0,0,.41.3c2,.3,4,.57,6,.83a.53.53,0,0,0,.5-.21.55.55,0,0,0,.07-.54q-2.62-6.12-5.39-12.24a.5.5,0,0,0-.47-.31l-4.56-.13Zm5.4-.1q3.14.09,6.3.22a.52.52,0,0,0,.46-.22.54.54,0,0,0,.06-.52c-1.7-4.25-3.39-8.51-5-12.76a.53.53,0,0,0-.51-.34c-2.33,0-4.63.09-6.92.19a.53.53,0,0,0-.44.26.5.5,0,0,0,0,.5c1.89,4.12,3.78,8.23,5.63,12.35a.55.55,0,0,0,.48.32Zm7.75.29a.52.52,0,0,1-.46-.33c-1.72-4.29-3.42-8.57-5.07-12.84a.5.5,0,0,1,.06-.5.51.51,0,0,1,.45-.23l7.09.14a.53.53,0,0,1,.5.38c1.39,4.34,2.87,8.69,4.4,13.06a.51.51,0,0,1-.08.5.52.52,0,0,1-.46.22l-6.43-.4Zm3.7.45-3.1-.17a.5.5,0,0,0-.46.23.52.52,0,0,0-.06.51l5.17,13a.55.55,0,0,0,.44.34l6,.7a.52.52,0,0,0,.48-.2.52.52,0,0,0,.08-.52c-1.63-4.44-3.25-8.86-4.81-13.26a.53.53,0,0,0-.46-.36c-1.1-.09-2.2-.17-3.29-.23Zm-4.56-.24a.53.53,0,0,1,.48.34L100.25,144a.53.53,0,0,1-.07.53.52.52,0,0,1-.49.2c-2-.22-4-.46-6-.71a.5.5,0,0,1-.43-.32c-1.76-4.12-3.58-8.25-5.43-12.37a.54.54,0,0,1,0-.52.53.53,0,0,1,.47-.24c2.08.07,4.16.14,6.25.23Zm24.65,2.44a.51.51,0,0,1-.42-.39c-1.22-4.45-2.29-8.87-3.18-13.26a.5.5,0,0,1,.14-.48.54.54,0,0,1,.48-.16q3.56.61,7.09,1.37a.51.51,0,0,1,.42.45c2.09,14.46,6.84,29.3,11.87,43.46a.56.56,0,0,1-.11.54.53.53,0,0,1-.52.17l-6-1.26a.53.53,0,0,1-.4-.35c-1.67-4.73-3.3-9.41-4.83-14a.53.53,0,0,1,.11-.52.53.53,0,0,1,.5-.18q3,.59,6,1.21l0-.24c-2.25-.48-4.51-.93-6.76-1.35a.52.52,0,0,1-.41-.36c-1.49-4.55-2.87-9-4.14-13.56a.56.56,0,0,1,.12-.51.52.52,0,0,1,.5-.16c2.19.4,4.39.83,6.58,1.3l.05-.25c-2.4-.51-4.81-1-7.22-1.42ZM44.56,82.1q4.57-1.77,9.39-3.21a.53.53,0,0,0,.33-.27.54.54,0,0,0,0-.43q-2-5.7-3.63-11.45a.52.52,0,0,0-.27-.33.51.51,0,0,0-.42,0c-3.62,1.25-7.15,2.65-10.57,4.17a.54.54,0,0,0-.28.7q2.18,5.31,4.74,10.58a.54.54,0,0,0,.68.27Zm10.67-3.58c3.35-1,6.77-1.81,10.21-2.51a.51.51,0,0,0,.35-.24.53.53,0,0,0,.07-.41Q64.45,69.22,63.56,63a.53.53,0,0,0-.23-.37.54.54,0,0,0-.43-.07C59,63.54,55.06,64.67,51.25,66a.53.53,0,0,0-.34.65c1.07,3.87,2.3,7.73,3.66,11.58a.54.54,0,0,0,.66.34Zm7.64-1.7c-2.54.57-5,1.21-7.49,1.92a.5.5,0,0,0-.33.27.54.54,0,0,0,0,.43c1.43,3.92,3,7.83,4.69,11.67a.54.54,0,0,0,.6.31l8.9-1.75a.53.53,0,0,0,.36-.26.52.52,0,0,0,.05-.44c-1.31-4.06-2.47-8.18-3.46-12.32a.54.54,0,0,0-.63-.4c-.89.18-1.78.37-2.66.57ZM54.1,79.11c-3.19,1-6.31,2-9.34,3.18a.54.54,0,0,0-.29.74c1.76,3.59,3.66,7.18,5.63,10.71a.55.55,0,0,0,.63.25q4.05-1.24,8.28-2.27a.54.54,0,0,0,.36-.74c-1.66-3.8-3.21-7.66-4.61-11.53a.55.55,0,0,0-.66-.34Zm12.64-3.36q5.28-1,10.75-1.64a.55.55,0,0,0,.47-.6q-.72-6.48-.83-13a.54.54,0,0,0-.62-.52q-6.27.9-12.3,2.32a.54.54,0,0,0-.42.6q.9,6.25,2.33,12.46a.54.54,0,0,0,.62.41ZM78.8,74c3.69-.38,7.34-.61,11-.68a.55.55,0,0,0,.53-.54,131.83,131.83,0,0,1,.68-13.56.54.54,0,0,0-.56-.6q-6.36.33-12.66,1.18a.53.53,0,0,0-.46.55q.11,6.62.83,13.17a.55.55,0,0,0,.59.48Zm4.39-.13c-1.46.1-2.9.23-4.34.38a.53.53,0,0,0-.48.6c.53,4.35,1.26,8.69,2.18,13a.54.54,0,0,0,.57.42c3.19-.24,6.35-.36,9.56-.37a.53.53,0,0,0,.53-.6,128.63,128.63,0,0,1-.83-13.18.51.51,0,0,0-.16-.38.56.56,0,0,0-.39-.15q-3.33.08-6.64.3Zm-5.67.52Q72.09,75,66.84,76a.51.51,0,0,0-.35.24.54.54,0,0,0-.07.41q1.5,6.27,3.5,12.43a.53.53,0,0,0,.59.37c3-.47,6.14-.84,9.28-1.11a.52.52,0,0,0,.39-.22.54.54,0,0,0,.09-.43c-.91-4.25-1.64-8.54-2.16-12.85a.54.54,0,0,0-.59-.47Zm38.36.55c3.38.46,6.74,1,10.09,1.63l0,.25c-3.36-.62-6.75-1.17-10.15-1.64a.55.55,0,0,0-.61.43,112.85,112.85,0,0,0-1.76,13.5.54.54,0,0,0,.46.57c3.14.47,6.28,1,9.4,1.64l-.05.25c-3.08-.61-6.17-1.16-9.28-1.62a.52.52,0,0,0-.61.5,103.93,103.93,0,0,0,.09,13.21.53.53,0,0,0,.45.49c2.75.44,5.49.95,8.21,1.51a.55.55,0,0,0,.45-.11.53.53,0,0,0,.2-.42c.18-14.8,4-29.1,10.13-43.14a.54.54,0,0,0,0-.48.52.52,0,0,0-.39-.27q-6.28-1-12.63-1.69a.52.52,0,0,0-.57.37,130.36,130.36,0,0,0-3.82,14.38.53.53,0,0,0,.09.42.55.55,0,0,0,.37.22ZM67.37,90.22q-3.42.61-6.75,1.38a.51.51,0,0,0-.36.28.53.53,0,0,0,0,.46q2.61,5.84,5.61,11.65a.54.54,0,0,0,.56.29l7.72-1.08a.53.53,0,0,0,.4-.26.58.58,0,0,0,0-.48Q72.07,96.37,70,90.23a.55.55,0,0,0-.6-.36l-2.06.35ZM59.3,91.91q-4.2,1-8.22,2.24a.48.48,0,0,0-.34.31.55.55,0,0,0,0,.47c2,3.58,4.18,7.16,6.42,10.74a.53.53,0,0,0,.57.24q3.59-.78,7.29-1.41a.55.55,0,0,0,.39-.29.53.53,0,0,0,0-.49q-3-5.75-5.52-11.51a.54.54,0,0,0-.62-.3Zm26-3.68q2.79-.12,5.58-.12a.54.54,0,0,1,.54.47,128.24,128.24,0,0,0,2.29,13,.57.57,0,0,1-.1.46.53.53,0,0,1-.42.2l-8.28.12a.55.55,0,0,1-.52-.38q-2-6.39-3.49-12.84a.5.5,0,0,1,.09-.44.52.52,0,0,1,.39-.22c1.3-.09,2.61-.17,3.92-.23ZM80,88.57c-3.12.26-6.2.63-9.22,1.09a.49.49,0,0,0-.38.25.51.51,0,0,0,0,.45q2.05,6.19,4.6,12.35a.56.56,0,0,0,.56.33c2.63-.29,5.3-.5,8-.65a.54.54,0,0,0,.49-.7Q82,95.38,80.56,89a.53.53,0,0,0-.57-.42Zm-7.32,15.05c-1.94.24-3.86.52-5.76.82a.54.54,0,0,0-.4.3.53.53,0,0,0,0,.49l6.32,11.64a.54.54,0,0,0,.51.29l6.79-.45a.54.54,0,0,0,.45-.76c-1.87-4-3.78-8.13-5.5-12.23a.52.52,0,0,0-.56-.32l-1.86.22Zm-7.15,1c-2.45.42-4.85.88-7.22,1.38a.55.55,0,0,0-.39.32.52.52,0,0,0,.05.5L65.15,118l0-.15c2.24-.22,4.49-.43,6.77-.62a.54.54,0,0,0,.43-.28.53.53,0,0,0,0-.52L66.08,105a.52.52,0,0,0-.56-.28ZM89,102.45c-1.26,0-2.5.06-3.75.11a.54.54,0,0,0-.49.71c1.42,4.31,3,8.55,4.69,12.8a.54.54,0,0,0,.49.35l7.18.14a.53.53,0,0,0,.44-.22.52.52,0,0,0,.09-.48c-1.36-4.32-2.64-8.6-3.69-13a.53.53,0,0,0-.51-.41c-1.49,0-3,0-4.45,0Zm-5.13.18q-4,.2-8,.62a.52.52,0,0,0-.41.26.51.51,0,0,0,0,.48c1.75,4.14,3.68,8.24,5.56,12.33a.53.53,0,0,0,.51.31q3.47-.16,7-.21a.52.52,0,0,0,.44-.24.53.53,0,0,0,.06-.49c-1.63-4.22-3.22-8.41-4.62-12.69a.52.52,0,0,0-.54-.37Zm10.2-.41,9.44.57c-3.15-.29-6.3-.49-9.44-.57Zm28.65,3.68,0,.11q-4.26-.89-8.55-1.59a.53.53,0,0,0-.45.14.5.5,0,0,0-.17.44,123,123,0,0,0,1.89,13.18.51.51,0,0,0,.44.42q3.57.62,7.13,1.36a.52.52,0,0,0,.48-.13.56.56,0,0,0,.17-.47,97.76,97.76,0,0,1-.91-13.46ZM91.77,155.83l5.94,1.54a.55.55,0,0,0,.54-.16.53.53,0,0,0,.1-.56q-2.38-6.08-5-12.16a.5.5,0,0,0-.43-.32c-2-.25-3.9-.51-5.87-.8a.52.52,0,0,0-.51.21.53.53,0,0,0-.06.54q2.59,5.72,4.9,11.39a.52.52,0,0,0,.37.32Zm7.54,1.94c2,.46,3.94.88,5.9,1.28a.53.53,0,0,0,.51-.18.51.51,0,0,0,.1-.54c-1.63-4.32-3.31-8.63-5-12.93a.52.52,0,0,0-.44-.34l-5.9-.7a.53.53,0,0,0-.5.21.55.55,0,0,0-.06.54q2.61,6.16,5,12.33a.53.53,0,0,0,.38.33Zm7.44,1.58a.5.5,0,0,1-.4-.34q-2.46-6.54-5-13a.53.53,0,0,1,.07-.53.55.55,0,0,1,.49-.21l6,.7a.54.54,0,0,1,.44.35l5,13.46a.51.51,0,0,1-.1.53.52.52,0,0,1-.51.18Z"/><path class="cls-7" d="M86.46,164.12c5.13,10.15,40.3,16.16,39.9,9.75-18.65-18.19-20-57.34-18.71-72.26,6.86-1.87,13.38-6.24,11.57-14.46-2.13-9.65-40.87-5-59.82-1.85C33.91,89.55,61.07,155.94,86.46,164.12Z"/><path class="cls-5" d="M86.46,164.12c2.46,4.86,11.79,8.76,20.81,10.82l17.74.75c.91-.43,1.4-1,1.35-1.82-8.31-8.11-13.19-20.38-15.92-32.82-4,4.24-12.82,10.75-23.28.73a37.71,37.71,0,0,1-7.45,3.29l-.39,15.31A26.54,26.54,0,0,0,86.46,164.12Z"/><path class="cls-4" d="M107.65,101.61c16.11,2.22,14.06-15.7,8.28-17.13C111.87,83.48,106.09,88.77,107.65,101.61Z"/><path class="cls-7" d="M115.93,84.48a7.19,7.19,0,0,1,3.77,7.27c-.44,5.35-7.37,9.33-8.36,6.1s3.15-5.18,3.85-3.31c0,0-.53-3.18-2.71-2.71h0c-7.67,1.68-4.9,11,.65,9.73A10.13,10.13,0,0,0,120.81,95C122.51,90.1,119.84,84.57,115.93,84.48Z"/><path class="cls-8" d="M53.18,106.18s49.3-2,49.55-1.07.67,28.87,6.77,43.74c0,0,2.07,2.31-2.1,2.06s-35.88-.1-35.88-.1S54,126.3,53.18,106.18Z"/><path class="cls-6" d="M107.7,143.56a48.86,48.86,0,0,0,1.8,5.29s2.07,2.31-2.1,2.06-35.88-.1-35.88-.1-1.06-1.48-2.66-4c9.91.17,18.3-5,18.3-5C95.66,149.92,103.07,147.15,107.7,143.56Z"/><path class="cls-7" d="M99.17,106.49l2-.08a.23.23,0,0,1,.22.17l.4,1.74a.23.23,0,0,1-.17.26l-.2,0a.21.21,0,0,1-.25-.16l-.15-.62a.2.2,0,0,0-.16-.17.21.21,0,0,0-.21.07L99.57,109a.21.21,0,0,1-.3,0l-.16-.13a.21.21,0,0,1,0-.3l.94-1.11a.21.21,0,0,0-.17-.35l-.66,0a.2.2,0,0,1-.22-.2v-.21a.2.2,0,0,1,0-.15A.19.19,0,0,1,99.17,106.49Z"/><path class="cls-7" d="M94.23,109.83c0,.25,0,.5,0,.75v0a.32.32,0,0,1-.31.33h0l-7.4.27h0a.31.31,0,0,1-.24-.08.34.34,0,0,1-.1-.23v0a2.22,2.22,0,0,1,.16-1.2c.13-.18.4-.19.61-.21l.84,0c.83,0,1.66-.06,2.49-.07s1.62,0,2.43,0a3.63,3.63,0,0,1,1.44.21h0a.3.3,0,0,1,.12.24Z"/><path class="cls-7" d="M84.69,110V111a.34.34,0,0,1-.32.33h0c-2.82.09-5.64.17-8.46.22h0a.29.29,0,0,1-.23-.1.3.3,0,0,1-.1-.22v0c0-.42-.08-1.09.33-1.36a6.29,6.29,0,0,1,1.52-.12q1.41,0,2.82-.06c.94,0,1.87,0,2.8,0a4.55,4.55,0,0,1,1.58.14l0,0a.29.29,0,0,1,.12.24Z"/><path class="cls-7" d="M98.38,113.38c0,.25,0,.5,0,.75v.05a.32.32,0,0,1-.08.23.36.36,0,0,1-.23.11h0q-3.25.12-6.52.29h0a.36.36,0,0,1-.24-.09.3.3,0,0,1-.1-.22v0c0-.31,0-.62,0-.93v0a.32.32,0,0,1,.31-.33h0c1.09,0,2.18-.1,3.27-.13q1,0,2,0a8.92,8.92,0,0,1,1.37.07h0a.33.33,0,0,1,.27.31Z"/><path class="cls-7" d="M90.45,113.74l0,.75v0a.32.32,0,0,1-.31.34h0c-6.84.34-13.68.63-20.52.72h0a.32.32,0,0,1-.32-.3v0c0-.42-.14-1.09.26-1.36a3.92,3.92,0,0,1,1.09-.11l2.31-.07,7-.19,6.94-.15,2.32,0a3.17,3.17,0,0,1,1.16.11h0a.34.34,0,0,1,.13.25Z"/><path class="cls-7" d="M68.23,115.61c-3.07,0-6.14.07-9.21.14h0a.32.32,0,0,1-.33-.31v0c0-.48-.13-1.22.43-1.44a9.66,9.66,0,0,1,1.64-.12c1,0,2-.06,3-.08l3.08,0a6.89,6.89,0,0,1,1.61.08.32.32,0,0,1,.21.29v0c0,.36,0,.73,0,1.09v0a.28.28,0,0,1-.09.24.33.33,0,0,1-.23.1Z"/><path class="cls-7" d="M91.71,118.36c0,.25,0,.5,0,.75v0a.27.27,0,0,1-.08.23.3.3,0,0,1-.23.11h0q-4.34.23-8.67.42h0a.35.35,0,0,1-.34-.31v0l-.06-.93v0a.35.35,0,0,1,.08-.24.34.34,0,0,1,.23-.11h0c1.42-.06,2.85-.18,4.27-.26.7,0,4.17-.27,4.66.1h0a.32.32,0,0,1,.13.24Z"/><path class="cls-7" d="M80.69,118.88c0,.25,0,.5,0,.74v0a.31.31,0,0,1-.08.24.33.33,0,0,1-.23.1h-.05c-4.65.18-9.31.27-14,.33h0a.31.31,0,0,1-.32-.3V120c0-.51-.14-1.3.52-1.46a5.16,5.16,0,0,1,.79,0l1.57,0q2.28,0,4.56,0l4.69,0,1.56,0a2.17,2.17,0,0,1,.81.09h0a.32.32,0,0,1,.13.24Z"/><path class="cls-7" d="M60.3,118.78c.89,0,4.15-.35,4.73.21h0a.35.35,0,0,1,.1.22h0c0,.43.07,1-.41,1.21-.15.07-2,0-2.24,0H61.05a2.09,2.09,0,0,1-.85-.07.29.29,0,0,1-.15-.16,3.73,3.73,0,0,1-.1-1.1v0a.34.34,0,0,1,.09-.24.29.29,0,0,1,.23-.1Z"/><path class="cls-7" d="M94.2,124.13l-.06-.93v0a.27.27,0,0,1,.08-.23.3.3,0,0,1,.23-.11h0q2.58-.14,5.16-.24h0a.32.32,0,0,1,.33.31l.06,1a.32.32,0,0,1-.09.24.3.3,0,0,1-.22.1h0l-5.14.23h0a.32.32,0,0,1-.34-.3Z"/><path class="cls-7" d="M77.5,125c0-.3,0-.61-.08-.92v0a.3.3,0,0,1,.08-.24.3.3,0,0,1,.23-.11h0c1,0,1.92-.1,2.88-.16l4.8-.28c1.75-.1,3.51-.19,5.26-.24a10.37,10.37,0,0,1,2.86.15h0a.35.35,0,0,1,.14.25v0c0,.24,0,.49,0,.74v0a.34.34,0,0,1-.08.23.34.34,0,0,1-.23.11h0c-5.18.27-10.36.56-15.54.78h0a.33.33,0,0,1-.34-.3Z"/><path class="cls-7" d="M76.25,124.25l.06.73v0a.31.31,0,0,1-.08.24.3.3,0,0,1-.23.11h0c-4.45.16-8.9.26-13.35.4h0a.32.32,0,0,1-.34-.3v0c0-.39-.12-1,.19-1.31.16-.15.62-.13.83-.14l1.51,0c1.5,0,3-.06,4.51-.07l4.49,0,1.52,0c.2,0,.66,0,.82.12h0a.34.34,0,0,1,.13.23Z"/><path class="cls-7" d="M84.87,128.87c0-.31-.05-.62-.07-.92v0a.35.35,0,0,1,.08-.24.34.34,0,0,1,.23-.11h.05c5.29-.26,10.58-.52,15.87-.74h0a.31.31,0,0,1,.33.3l.06,1a.35.35,0,0,1-.08.24.36.36,0,0,1-.23.11h-.05q-7.92.33-15.84.73h-.05a.31.31,0,0,1-.33-.3Z"/><path class="cls-7" d="M83.85,128.15l.06.74v.05a.31.31,0,0,1-.08.24.36.36,0,0,1-.22.11h0c-6.07.28-12.15.48-18.22.69h0a.33.33,0,0,1-.33-.31v0c0-.31,0-.62-.07-.93v0a.3.3,0,0,1,.08-.24.3.3,0,0,1,.23-.11h0l9.07-.31,5.82-.17c.71,0,1.42,0,2.14,0,.4,0,.82,0,1.23,0h0a.33.33,0,0,1,.31.3Z"/><path class="cls-7" d="M79.63,132.79c0,.24,0,.49,0,.74v0a.3.3,0,0,1-.09.24.3.3,0,0,1-.23.11h0c-4.09.1-8.17.08-12.25.19h0a.33.33,0,0,1-.33-.32v0c0-.43-.11-1.14.31-1.41a1.77,1.77,0,0,1,.73-.07H69.1l4.13,0,4.1,0a8.89,8.89,0,0,1,2.16.17v0a.29.29,0,0,1,.13.23Z"/><path class="cls-7" d="M74.42,110c0,.49,0,1.15-.6,1.31a11,11,0,0,1-2,.15c-1.15,0-2.31,0-3.46,0l-3.14,0c-.67,0-1.35,0-2,0h0a.31.31,0,0,1-.32-.31v0c0-.41-.11-1.08.27-1.36a8.21,8.21,0,0,1,1.94-.16c1.21,0,2.43-.06,3.65-.08s2.43,0,3.64,0h1.23a1.49,1.49,0,0,1,.73.13h0a.3.3,0,0,1,.11.23Z"/><path class="cls-3" d="M51.76,96.39c.12,0,42.6-2.71,50.45-1.71.09,0,1.52.07,1.62,2a10.41,10.41,0,0,1-.26,3.18,2.28,2.28,0,0,1-1.12,1.6c-.63.26-15.09,1.06-28.3,1.64-11.12.49-21.38.82-21.81.55s-1.05-2.43-1.21-4.26a10.94,10.94,0,0,1,0-1.6,2.5,2.5,0,0,1,.26-1.1.5.5,0,0,1,.4-.28Zm50.43-1.45c-7.8-1-50.29,1.69-50.41,1.7a.29.29,0,0,0-.21.16,2.46,2.46,0,0,0-.22,1,10.27,10.27,0,0,0,0,1.55c.15,1.78.63,3.78,1.09,4.07s10.59-.09,21.67-.58c13.19-.58,27.61-1.37,28.22-1.63a2.05,2.05,0,0,0,1-1.43,10.17,10.17,0,0,0,.25-3.1c-.09-1.73-1.38-1.73-1.38-1.73Z"/><path class="cls-3" d="M53,98.09c0,1.37,0,2.71.08,4.06a.24.24,0,0,0,.12.19.44.44,0,0,0,.22.07c2.39.13,3.07-1.47.8-2.47,2,.49,2.6-2.57-1-2A.21.21,0,0,0,53,98.09Z"/><path class="cls-3" d="M58.9,98.83l-.56,2.36a.22.22,0,0,1-.2.16l-.63,0a.22.22,0,0,0-.21.18v.06a.29.29,0,0,0,.09.24.32.32,0,0,0,.24.09L60,101.8a.2.2,0,0,0,.21-.18v-.05a.25.25,0,0,0-.09-.22.33.33,0,0,0-.24-.1h-.22a.32.32,0,0,1-.25-.11.25.25,0,0,1-.07-.24l.54-2.24a.2.2,0,0,1,.19-.16l.89-.11a.2.2,0,0,0,.19-.18l0-.31a.28.28,0,0,0-.09-.24.3.3,0,0,0-.25-.09l-2.69.24a.2.2,0,0,0-.19.19l0,.17a.32.32,0,0,0,.1.23.38.38,0,0,0,.24.09l.3,0a.34.34,0,0,1,.26.11A.27.27,0,0,1,58.9,98.83Z"/><path class="cls-3" d="M63.2,101.07l3.72-.21a.27.27,0,0,1,.28.25v.25a.26.26,0,0,1-.06.19.31.31,0,0,1-.19.09l-3.72.2a.26.26,0,0,1-.27-.24l0-.25a.27.27,0,0,1,.25-.28Zm.28-1.67,5.07-.28a.27.27,0,0,1,.28.25v.25a.28.28,0,0,1-.07.19.22.22,0,0,1-.18.08l-5.07.29a.27.27,0,0,1-.28-.25v-.25a.24.24,0,0,1,.07-.19.26.26,0,0,1,.18-.09ZM63.73,98l2.78-.15a.26.26,0,0,1,.28.25v.25a.23.23,0,0,1-.06.19.25.25,0,0,1-.18.08l-2.78.16a.26.26,0,0,1-.28-.25v-.25a.23.23,0,0,1,.06-.19A.31.31,0,0,1,63.73,98Z"/><path class="cls-3" d="M71.77,97.63l2.34-.13a.26.26,0,0,1,.28.25l0,.24a.25.25,0,0,1-.07.19.23.23,0,0,1-.18.09l-2.35.13a.25.25,0,0,1-.27-.24l0-.25a.25.25,0,0,1,.07-.19.23.23,0,0,1,.18-.09Zm-.19,2.93,3.06-.17a.27.27,0,0,1,.28.25l0,.25a.28.28,0,0,1-.07.19.31.31,0,0,1-.18.09l-3.07.17a.27.27,0,0,1-.27-.25l0-.25a.26.26,0,0,1,.07-.19.31.31,0,0,1,.18-.09Zm-1-1.48,5.08-.29A.27.27,0,0,1,76,99l0,.25a.26.26,0,0,1-.07.19.31.31,0,0,1-.18.09l-5.07.28a.26.26,0,0,1-.28-.25v-.25a.23.23,0,0,1,.06-.19A.25.25,0,0,1,70.63,99.08Z"/><path class="cls-3" d="M83.62,99.71,80,99.94a.3.3,0,0,0-.27.28l0,.26a.2.2,0,0,0,.06.18.21.21,0,0,0,.18.07l3.65-.22a.33.33,0,0,0,.28-.29V100a.21.21,0,0,0-.06-.19.21.21,0,0,0-.17-.07Zm-.24-1.66-5,.3a.32.32,0,0,0-.28.29l0,.25a.29.29,0,0,0,.06.19.2.2,0,0,0,.18.06l5-.3a.32.32,0,0,0,.28-.29l0-.25a.31.31,0,0,0-.06-.19.2.2,0,0,0-.18-.06Zm-.22-1.43-2.74.17a.29.29,0,0,0-.27.28l0,.26a.2.2,0,0,0,.06.18.24.24,0,0,0,.18.07l2.73-.17a.3.3,0,0,0,.27-.28l0-.26a.2.2,0,0,0-.06-.18A.18.18,0,0,0,83.16,96.62Z"/><path class="cls-3" d="M98,98.34c.88-.32,1.59,1.5.16,1.61-1.94.14-2.11-2.45-.39-3.14a.24.24,0,0,1,.28.08.21.21,0,0,1,0,.28,1.75,1.75,0,0,0-.37,1,.23.23,0,0,0,.11.19.22.22,0,0,0,.21,0Zm2.92,0a.2.2,0,0,1-.21,0,.21.21,0,0,1-.11-.19,1.72,1.72,0,0,1,.37-1,.24.24,0,0,0,0-.29.25.25,0,0,0-.28-.07c-1.72.69-1.55,3.27.39,3.13C102.48,99.89,101.77,98.06,100.89,98.39Z"/><path class="cls-3" d="M86.57,97.55a2.21,2.21,0,0,1,1.07-.45,1.15,1.15,0,0,1,1.11,1.17c.09.89.35.63.35.63l0,.65s-.78.38-.87-.28a1.17,1.17,0,0,1-1.16.64c-.85-.07-.77-1-.49-1.33s1.21-.67,1.48-.36A.71.71,0,0,0,87,98.1l-.39-.55ZM94.5,97s-1-.93-1.77-.15-.49,2.19.26,2.34a2,2,0,0,0,1.46-.49l-.35-.51s-1,.83-1.16-.11.71-1.11.9-.65L94.5,97Zm-4.91-.77a4.91,4.91,0,0,1,.9-.2l-.17,1.55c1.64-1.2,2.05.69,1.51,1.5s-1.43.11-1.43.11l0,.39-.9.06.07-3.41Zm.82,1.94s0,.38.23.51.87-.1.71-.61-.94.1-.94.1Zm-2.48.53s-1.11,0-1,.35,1,0,1-.12A.24.24,0,0,0,87.93,98.74Z"/><path class="cls-3" d="M95.14,86.09c.36-.79,8.34-1.29,7.81.28a42.58,42.58,0,0,0-1.42,5.27c-.24,1.41-7.11,1-7.27.08A14.19,14.19,0,0,1,95.14,86.09Z"/><path class="cls-3" d="M95.88,88.18l4.05-1.27a.27.27,0,0,1,.29.07.3.3,0,0,1,.07.29L99.2,90.76A.25.25,0,0,1,99,91a.27.27,0,0,1-.26,0l-1.3-1a.28.28,0,0,1-.12-.21.31.31,0,0,1,.09-.22l1.19-1.18-1.9.88a.28.28,0,0,1-.29,0l-.64-.47a.28.28,0,0,1-.11-.28A.29.29,0,0,1,95.88,88.18Z"/><path class="cls-3" d="M55.94,89.75S79.44,87.87,80.33,88s.32,5.19-.48,5.28S54.63,95.48,54,94.54,54,90.19,55.94,89.75Z"/><path class="cls-3" d="M86.32,145.33l31.12,3.38c.84.07,3.39.75,2.37,4.07a16.13,16.13,0,0,0-3.65-.69c-2.29,8.26,0,19.44,6.29,23.49l-30-1.27Z"/><path class="cls-9" d="M86.32,145.33l22.35,2.43c-4,8.18-8.39,22.65,7.47,27.55l-23.66-1Z"/><path class="cls-4" d="M119.81,152.78a16.13,16.13,0,0,0-3.65-.69C117.85,147.41,120.2,150.49,119.81,152.78Z"/><path class="cls-3" d="M71.14,137.45l13.18,1a.54.54,0,0,1,.47.65,10.11,10.11,0,0,0,.26,3.93l-14-.79Z"/><path class="cls-4" d="M72.5,140.89c7.36.54,14.8.65,29.29,2.15-.5,31.82,14.07,32.26,22.46,32.62L84.67,174c-13.42-4.95-34.09-19.42-38.9-38.53l26,1.46a.53.53,0,0,1,.46.61A7.39,7.39,0,0,0,72.5,140.89Z"/><path class="cls-7" d="M56.19,146.23c-1.67-.13-1.77-1.77-.59-1.68l7.51.57c1,.08,1.28,1.74.59,1.68Z"/><path class="cls-3" d="M63.63,151.05a.91.91,0,0,1-.86-.88.76.76,0,0,1,.83-.78l10.28.6a.85.85,0,0,1,.55.27.72.72,0,0,1,.22.56V151a.69.69,0,0,1-.76.67l-10.26-.6Zm14.61-.8,8.8.52a.82.82,0,0,1,.78.77v.15a.66.66,0,0,1-.21.54.69.69,0,0,1-.55.2l-8.82-.52a.79.79,0,0,1-.57-.28.75.75,0,0,1-.21-.59l0-.16a.7.7,0,0,1,.75-.63Zm12.31.73,5.56.33a.9.9,0,0,1,.86.88.77.77,0,0,1-.84.77l-5.57-.32a.84.84,0,0,1-.55-.26.75.75,0,0,1-.22-.55v-.16A.69.69,0,0,1,90.55,151Z"/><path class="cls-3" d="M66.45,155.34a.93.93,0,0,1-.87-.88.75.75,0,0,1,.82-.79l4.79.25a.84.84,0,0,1,.79.82v.16a.7.7,0,0,1-.75.68l-4.78-.24Zm9.67-1.17,9.13.47a.93.93,0,0,1,.87.88.76.76,0,0,1-.82.79l-9.13-.47a.85.85,0,0,1-.79-.77v-.16a.67.67,0,0,1,.19-.54A.72.72,0,0,1,76.12,154.17Z"/><path class="cls-7" d="M70.84,159.46a1.14,1.14,0,0,1-1-.87.64.64,0,0,1,.72-.77l7.52.43a1.13,1.13,0,0,1,1,.86.63.63,0,0,1-.72.77Z"/><path class="cls-7" d="M69.42,162.75c-1.74-.13-1.69-1.79-.68-1.71l6.07.49c.88.06,1.49,1.77.69,1.71Z"/><path class="cls-7" d="M80.85,165.75a1,1,0,0,1-.9-.86.74.74,0,0,1,.79-.8l2.29.09a.86.86,0,0,1,.81.73l0,.16a.67.67,0,0,1-.71.77l-2.3-.09Zm5.27-1.45,11.29.46a.94.94,0,0,1,.9.86.74.74,0,0,1-.79.8L86.24,166a.87.87,0,0,1-.81-.75l0-.16a.65.65,0,0,1,.17-.55A.71.71,0,0,1,86.12,164.3Z"/><path class="cls-3" d="M81.84,169.23a1,1,0,0,1-.93-.88.71.71,0,0,1,.76-.8l5.92.27a1,1,0,0,1,.93.88.71.71,0,0,1-.76.8Z"/><path class="cls-7" d="M69.14,138a1.38,1.38,0,0,1,1.46,1,1,1,0,0,1-.91,1.31,1.38,1.38,0,0,1-1.46-1A1,1,0,0,1,69.14,138Z"/><path class="cls-7" d="M97.94,158.6,97,159.9a.48.48,0,0,0,0,.49.45.45,0,0,0,.41.26l2.11,0a.47.47,0,0,0,.37-.78l-1.18-1.36a.46.46,0,0,0-.38-.16A.45.45,0,0,0,97.94,158.6Z"/><path class="cls-3" d="M121.81,172.9S140.25,140,142.26,93.61c0,0,86.56,17.46,103,24.72-14,25.79-79.07,27.3-79.87,56.34a2.7,2.7,0,0,1-2.81,2.62l-42.34-1.8Z"/><path class="cls-10" d="M121.81,172.9a142.09,142.09,0,0,0,8.1-18.42c6.06,7.38,18.29,14.32,42.29,6.12-4.09,3.92-6.63,8.48-6.78,14.07a2.7,2.7,0,0,1-2.81,2.62l-42.34-1.8Z"/><path class="cls-7" d="M141.38,105.49c.4-3.85.71-7.81.88-11.88,0,0,86.56,17.46,103,24.72a32.22,32.22,0,0,1-6.09,7.89C223,120.12,154.68,107.85,141.38,105.49Z"/><path class="cls-11" d="M147.06,98.73a2.44,2.44,0,1,1-1.76,3A2.44,2.44,0,0,1,147.06,98.73Z"/><path class="cls-12" d="M160.48,102a2.44,2.44,0,1,1-1.76,3A2.44,2.44,0,0,1,160.48,102Z"/><path class="cls-13" d="M153.55,100.24a2.44,2.44,0,1,1-1.76,3A2.43,2.43,0,0,1,153.55,100.24Z"/><path class="cls-8" d="M128,168.53c7.1-13.37,19.8-58.35,17.77-57,2.95.7,33.8,7.66,38,9,.62.19-28.95,36.71-32.6,48.85a1.06,1.06,0,0,1-1,.76c-9.57.26-12.69,0-21.12-.11a1,1,0,0,1-.88-.46A.93.93,0,0,1,128,168.53Z"/><path class="cls-6" d="M128,168.53a99.78,99.78,0,0,0,4.74-11.13c4.37,3.91,10.91,7.06,20.57,6.9a30.37,30.37,0,0,0-2.18,5,1.06,1.06,0,0,1-1,.76c-9.57.26-12.69,0-21.12-.11a1,1,0,0,1-.88-.46A.93.93,0,0,1,128,168.53Z"/><path class="cls-4" d="M127.86,168.47c4.94-9.3,12.59-33.92,16.1-47.58.72-2.82,1.27-5.17,1.58-6.82a11,11,0,0,0,.32-2.43l-.44-.1.25-.16a.24.24,0,0,1,.17,0,.19.19,0,0,1,.12.07l4.26,1c9.44,2.16,30.16,6.89,33.52,8,.09,0,.12.09.09.2-.13.41-2.13,3.06-5.08,7-8.48,11.25-24.88,33-27.53,41.82a1.19,1.19,0,0,1-.42.62,1.28,1.28,0,0,1-.7.24c-6.39.17-9.9.1-14,0-2.05-.05-4.27-.1-7.08-.12a1.15,1.15,0,0,1-.55-.14,1.11,1.11,0,0,1-.43-.38,1.35,1.35,0,0,1-.23-.57.93.93,0,0,1,.1-.54ZM144.2,121c-3.51,13.68-11.17,38.32-16.12,47.63a.7.7,0,0,0-.06.4,1.14,1.14,0,0,0,.18.46,1,1,0,0,0,.34.3,1.06,1.06,0,0,0,.44.11c2.79,0,5,.07,7.08.11,4.14.09,7.65.17,14,0a1,1,0,0,0,.56-.2.93.93,0,0,0,.33-.48c2.66-8.86,19.08-30.64,27.56-41.9,2.79-3.7,4.72-6.26,5-6.83-3.67-1.13-24.05-5.79-33.39-7.92l-4.12-.95a9.21,9.21,0,0,1-.25,2.43C145.48,115.77,144.93,118.13,144.2,121Z"/><path class="cls-7" d="M149.92,135.51c.7,1.72,10.45,3.67,12.51,4,2.39-4.83,3.38-7.6,6.44-12.55,1.22-2-13.59-6.73-13.74-6.65C154.39,120.28,149.42,134.28,149.92,135.51Z"/><path class="cls-4" d="M161.67,136.51c-.21,2.05-4,.4-5.34-.19-2.53-1.11-6-2.35-3-4.25,4.47-2.91,8.88-.23,8.38,4.44Zm-4.58-10.16c-1.85,3.15,3.6,6.41,5.5,2.89,1.2-2.22,0-3.84-1.36-4.36A3.54,3.54,0,0,0,157.09,126.35Z"/><path class="cls-7" d="M141.66,138.39a1.55,1.55,0,0,1,1.71,1.26,1.45,1.45,0,0,1-1,1.76,1.55,1.55,0,0,1-1.71-1.27A1.43,1.43,0,0,1,141.66,138.39Z"/><path class="cls-7" d="M139.12,145.31c.77-.2,1.46.49,1.66,1.26a1.44,1.44,0,0,1-1,1.75c-.77.2-1.46-.49-1.66-1.26A1.44,1.44,0,0,1,139.12,145.31Z"/><path class="cls-7" d="M136.89,151.73A1.42,1.42,0,0,1,138.5,153a1.44,1.44,0,0,1-1,1.76,1.53,1.53,0,0,1-.57-3Z"/><path class="cls-7" d="M145,141.52a1,1,0,0,1,.87-1.7s9,4.62,14.54,5.83a1,1,0,1,1-.4,1.86C154.21,146.25,145.07,141.53,145,141.52Z"/><path class="cls-7" d="M144.08,143.61a.64.64,0,0,1,.67-1.08,42.76,42.76,0,0,0,6,3.14.64.64,0,0,1,.37.82.63.63,0,0,1-.82.37A44.52,44.52,0,0,1,144.08,143.61Z"/><path class="cls-7" d="M152.06,147.15a.65.65,0,0,1,.79-.44,12.42,12.42,0,0,0,4.39,1.26.64.64,0,0,1-.4,1.21C156.15,149.09,151.74,148.35,152.06,147.15Z"/><path class="cls-7" d="M142.33,148.05a1,1,0,0,1,.84-1.71c-.08.33,5.91,3.57,11.64,5a1,1,0,1,1-.65,1.79C148.35,151.48,142.26,148.28,142.33,148.05Z"/><path class="cls-7" d="M141.54,150.39a.63.63,0,0,1-.29-.85.63.63,0,0,1,.85-.28s2.64,1.32,4.85,2.35a.63.63,0,1,1-.53,1.15C144.29,151.77,141.54,150.4,141.54,150.39Z"/><path class="cls-7" d="M140,155a1,1,0,1,1,1.18-1.49c4.23,2.6,9.29,3.65,11.94,4.58.42.32.62.71.3,1.13a1.27,1.27,0,0,1-1.46.39A41.43,41.43,0,0,1,140,155Z"/><path class="cls-7" d="M138.9,157.34a.63.63,0,1,1,.73-1,35.89,35.89,0,0,0,6.85,3.05.64.64,0,0,1,.44.79.63.63,0,0,1-.78.44A36.61,36.61,0,0,1,138.9,157.34Z"/><path class="cls-8" d="M187.11,121.12a224.14,224.14,0,0,1,41.51,9.33c.38.12.5.59.46,1a1.07,1.07,0,0,1-.65.89c-4.52,1.94-23.33,10.27-31,13.24a1,1,0,0,1-.74,0c-2.21-.76-13.73-4.73-20.89-6.85a1,1,0,0,1-.72-.72,1,1,0,0,1,.2-1,130.11,130.11,0,0,0,10.76-15.36A1.06,1.06,0,0,1,187.11,121.12Z"/><path class="cls-14" d="M186.72,125.72a1,1,0,0,1-.79-1.1,1,1,0,0,1,1.1-.78c7.32,1.21,9.35,1.49,18.16,5a1,1,0,0,1-1,1.61C196.67,127.27,193.76,126.88,186.72,125.72Z"/><path class="cls-14" d="M185.54,128.65a.94.94,0,0,1-.79-1.09c.32-2,10.68,1.23,11.82,1.58a1,1,0,0,1-.79,1.73C190.54,129.07,185.24,128.77,185.54,128.65Z"/><path class="cls-14" d="M193.8,143.12a.84.84,0,0,1-.52-1.14,1,1,0,0,1,1.23-.53l3.15,1.25a1.07,1.07,0,0,1,.65,1.29c-.19.49-.87.57-1.36.38Z"/><path class="cls-8" d="M174.05,140.19c2.81.25,14,3.12,18.25,5.51a1.08,1.08,0,0,1,.66,1c-.06,1.77-22.32,6.77-28.35,23.73a1.07,1.07,0,0,1-1.14.71l-9.49-1.1a1.08,1.08,0,0,1-.86-1.52c2-4.39,9-18.52,19.86-28.15A1.07,1.07,0,0,1,174.05,140.19Z"/><path class="cls-3" d="M180.08,146.33a.64.64,0,1,1,.25-1.25l.1,0a19.79,19.79,0,0,1,5.62,2.41.7.7,0,0,1,.15.94.63.63,0,0,1-.88.2,19.41,19.41,0,0,0-5.13-2.3Z"/><path class="cls-3" d="M178.55,147.69c-.41-.33-.07-1,.6-.87a14.77,14.77,0,0,1,3.38,1.18.65.65,0,0,1,.15.89.67.67,0,0,1-.89.14A29.53,29.53,0,0,1,178.55,147.69Z"/><path class="cls-7" d="M171.81,150.7a.7.7,0,0,1-.53-.77.58.58,0,0,1,.77-.4l.12,0a25.06,25.06,0,0,1,5.91,3,.63.63,0,1,1-.75,1,24.53,24.53,0,0,0-5.41-2.8Z"/><path class="cls-7" d="M167.47,151.3a.64.64,0,0,1,.3-1.24l.11,0a19.88,19.88,0,0,1,5.49,2.67.71.71,0,0,1,.1,1,.64.64,0,0,1-.88.16,19.78,19.78,0,0,0-5-2.55Z"/><path class="cls-3" d="M170.61,155.25a.69.69,0,0,1-.5-.74c.19-1,1.35-.3,1.9,0a10.66,10.66,0,0,1,1.15.64.71.71,0,0,1,.15.94.65.65,0,0,1-.88.21A8.85,8.85,0,0,0,170.61,155.25Z"/><path class="cls-7" d="M166.06,156.47a.71.71,0,0,1-.5-.75c.19-1,1.35-.3,1.9,0a11.22,11.22,0,0,1,1.15.65.69.69,0,0,1,.15.93.65.65,0,0,1-.88.21A8.33,8.33,0,0,0,166.06,156.47Z"/><path class="cls-7" d="M159.3,161.93a.69.69,0,0,1-.5-.75c.19-1,1.35-.3,1.9,0a11.22,11.22,0,0,1,1.15.65.68.68,0,0,1,.14.93.63.63,0,0,1-.87.21A8.56,8.56,0,0,0,159.3,161.93Z"/><path class="cls-3" d="M177.81,144.4a2.36,2.36,0,0,1-2.44,2.09,2.13,2.13,0,0,1-2.38-2,2.36,2.36,0,0,1,2.44-2.09A2.13,2.13,0,0,1,177.81,144.4Z"/><path class="cls-7" d="M122.45,175.75c1.93-2.21,7.4-8.7,10.65-14.75,0,0,20.61,9.2,29.9,8.54,0,0-9.44,2.39-14.24,7.34Z"/><rect class="cls-15" x="122.01" y="133.43" width="0.28" height="84.24" transform="translate(-58.23 290.44) rotate(-87.66)"/><path class="cls-10" d="M67.9,203.83l-6,3.06L64,210s1,.94,3.52.92,108.29,2.66,108.29,2.66,2.33.35,3.63-3.13Z"/><path class="cls-3" d="M75.58,177.73l-13.52,28s-1.17,2.45,2.2,2.38,114.07,3.25,114.07,3.25a3.17,3.17,0,0,0,1.38-4.33c-1.4-2.93-11.16-25.88-11.16-25.88Z"/><path class="cls-7" d="M84.74,179.87l4.91.22a.49.49,0,0,1,.41.25.53.53,0,0,1,0,.49l-.67,1.67a.47.47,0,0,1-.47.31l-6.4-.19a.49.49,0,0,1-.43-.26.56.56,0,0,1,0-.52l.31-.6a2.4,2.4,0,0,1,2.31-1.37Zm68.77,13.24,2.24.06h0l9.22.22a.48.48,0,0,0,.43-.23.53.53,0,0,0,.05-.49l-.72-1.79-.12-.31h0l-.91-2.3h0l-.17-.44-.5-1.23a.52.52,0,0,0-.46-.34l-8.13-.24a.5.5,0,0,0-.4.19.51.51,0,0,0-.09.45l.23,1h0v0l.14.65,0,.08.35,1.54-3.05,0-7.85-.18a.5.5,0,0,0-.38.17.53.53,0,0,0-.12.42l.24,2a.51.51,0,0,0,.5.47l9.46.23Zm-43.94.18h0l3.54.09h0l5.42.13h0l7.69.19a.51.51,0,0,1,.37.16.6.6,0,0,1,.14.39l-.1,2.93a.5.5,0,0,1-.51.5l-8.45-.27-2.72-.08h0l-2.2-.07h0l-14.56-.47a.5.5,0,0,1-.4-.21.55.55,0,0,1-.08-.45l.65-2.71a.5.5,0,0,1,.5-.39l10.72.26ZM92,180.2l7.58.34a.48.48,0,0,1,.39.21.6.6,0,0,1,.09.45l-.37,1.53a.49.49,0,0,1-.5.39l-7.87-.24a.47.47,0,0,1-.41-.24.51.51,0,0,1-.05-.49l.65-1.64a.5.5,0,0,1,.49-.31Zm9.84.44,12.81.58a.49.49,0,0,1,.38.19.55.55,0,0,1,.11.41l-.16,1.31a.52.52,0,0,1-.51.45l-13-.39a.49.49,0,0,1-.39-.22.52.52,0,0,1-.09-.45l.36-1.49a.5.5,0,0,1,.51-.39Zm15,.68,9.75.44a.44.44,0,0,1,.35.17.53.53,0,0,1,.14.38l0,1.13a.51.51,0,0,1-.51.5l-9.87-.3a.49.49,0,0,1-.38-.19.52.52,0,0,1-.12-.41l.17-1.27a.49.49,0,0,1,.51-.45Zm12,.53,11.86.54a.52.52,0,0,1,.49.47l.11.92a.49.49,0,0,1-.12.41.46.46,0,0,1-.39.17l-12-.36a.45.45,0,0,1-.36-.17.48.48,0,0,1-.14-.38l0-1.09a.51.51,0,0,1,.52-.51Zm14.09.64,8.57.39a.51.51,0,0,1,.48.41l.17.76a.56.56,0,0,1-.1.45.48.48,0,0,1-.4.19l-8.63-.26a.53.53,0,0,1-.5-.47l-.1-.89a.49.49,0,0,1,.12-.41.47.47,0,0,1,.39-.17Zm10.85.49,6.31.28a2.51,2.51,0,0,1,1.77.84.54.54,0,0,1,.09.57.47.47,0,0,1-.47.31l-7.56-.22a.52.52,0,0,1-.49-.42l-.16-.73a.52.52,0,0,1,.1-.45.49.49,0,0,1,.41-.18Zm12.6,12,.12.28c1.28,3.21,1.16,3.73-2.37,3.62l-7.17-.23a.52.52,0,0,1-.48-.42l-.7-3.18a.53.53,0,0,1,.5-.64l9.64.24a.49.49,0,0,1,.46.33Zm-11.69,3.6-10-.32a.52.52,0,0,1-.49-.47l-.37-3.08a.53.53,0,0,1,.13-.42.5.5,0,0,1,.38-.17l9.7.24a.53.53,0,0,1,.49.42l.69,3.16a.52.52,0,0,1-.1.45.48.48,0,0,1-.4.19Zm-12.25-.39-14.11-.45a.48.48,0,0,1-.36-.17.53.53,0,0,1-.13-.38l.09-2.95a.5.5,0,0,1,.51-.5l13.64.33a.53.53,0,0,1,.5.47l.37,3.06a.53.53,0,0,1-.13.42.47.47,0,0,1-.38.17Zm-46.53-1.48-10-.32a.47.47,0,0,1-.41-.24.51.51,0,0,1,0-.49l1-2.61a.51.51,0,0,1,.48-.32l9.59.24a.46.46,0,0,1,.39.21.52.52,0,0,1,.09.45l-.65,2.69a.49.49,0,0,1-.5.39Zm-12.35-.39L79,196.19c-4-.13-3.21-1.95-2.45-3.42a.49.49,0,0,1,.45-.27l7.59.19a.48.48,0,0,1,.42.24.53.53,0,0,1,0,.49L84,196a.48.48,0,0,1-.47.32Zm-5.84-5.83.94-1.86a.47.47,0,0,1,.45-.27l7.16.16a.5.5,0,0,1,.42.24.53.53,0,0,1,0,.49L86,191.14a.47.47,0,0,1-.47.32l-7.35-.18a.49.49,0,0,1-.43-.26.53.53,0,0,1,0-.52Zm2.1-4.13L81,184.1a.48.48,0,0,1,.46-.27l6.64.2a.5.5,0,0,1,.42.24.53.53,0,0,1,0,.49L87.64,187a.48.48,0,0,1-.47.32l-6.9-.15a.5.5,0,0,1-.43-.26.54.54,0,0,1,0-.52Zm10.15-2-.88,2.2a.53.53,0,0,0,0,.49.49.49,0,0,0,.42.24l8.58.19a.48.48,0,0,0,.49-.39l.52-2.14a.52.52,0,0,0-.09-.45.48.48,0,0,0-.39-.22l-8.22-.24a.48.48,0,0,0-.48.32Zm-1.79,4.48-.75,1.88a.55.55,0,0,0,0,.5.5.5,0,0,0,.42.24l9.23.22a.49.49,0,0,0,.5-.39l.46-1.91a.54.54,0,0,0-.49-.67l-8.94-.19a.47.47,0,0,0-.47.32Zm11.21,2.9,14,.34a.5.5,0,0,0,.5-.45l.25-2a.52.52,0,0,0-.12-.41.49.49,0,0,0-.38-.19l-13.79-.31a.51.51,0,0,0-.49.4l-.47,1.92a.6.6,0,0,0,.09.45.5.5,0,0,0,.4.21Zm16.23.39,10.68.26a.5.5,0,0,0,.51-.5l.07-2a.59.59,0,0,0-.14-.38.48.48,0,0,0-.37-.17l-10.49-.23a.5.5,0,0,0-.51.45l-.25,2a.54.54,0,0,0,.12.42.48.48,0,0,0,.38.18Zm12.89.32,13.29.32a.5.5,0,0,0,.38-.17.52.52,0,0,0,.13-.41l-.24-2a.53.53,0,0,0-.5-.48l-13-.28a.5.5,0,0,0-.51.5l-.06,2a.53.53,0,0,0,.5.56Zm-28.1-4.92,13.53.3a.48.48,0,0,0,.5-.45l.26-2a.52.52,0,0,0-.12-.41.45.45,0,0,0-.37-.19l-13.27-.4a.49.49,0,0,0-.5.39l-.52,2.13a.55.55,0,0,0,.09.45.48.48,0,0,0,.4.21Zm15.75.35,10.28.23a.51.51,0,0,0,.51-.5l.07-1.94a.56.56,0,0,0-.14-.38.48.48,0,0,0-.36-.17l-10.09-.31a.52.52,0,0,0-.51.45l-.26,2a.57.57,0,0,0,.13.42.45.45,0,0,0,.37.19Zm12.49.28,12.64.27a.44.44,0,0,0,.38-.17.49.49,0,0,0,.12-.41l-.21-1.83a.54.54,0,0,0-.5-.47l-12.36-.37a.51.51,0,0,0-.51.5l-.06,1.92a.53.53,0,0,0,.5.56Zm14.86.32a.51.51,0,0,1-.5-.47l-.21-1.81a.5.5,0,0,1,.12-.41.44.44,0,0,1,.38-.17l8.86.26a.52.52,0,0,1,.49.42l.38,1.75a.5.5,0,0,1-.09.44.46.46,0,0,1-.4.19Z"/><path class="cls-7" d="M108.5,198.35l27.74.55a.56.56,0,0,1,.52.42l2.36,8.4a.47.47,0,0,1-.11.45.55.55,0,0,1-.44.18l-33.42-.72a.53.53,0,0,1-.43-.24.49.49,0,0,1,0-.48l3.31-8.24A.52.52,0,0,1,108.5,198.35Z"/><path class="cls-6" d="M202.27,170.74l7.78,1.78a3.66,3.66,0,0,1,2.31,1.63,3.7,3.7,0,0,1,.48,2.79,3.71,3.71,0,0,1-4.43,2.79L200.63,178a3.69,3.69,0,0,1-2.31-1.64,3.65,3.65,0,0,1-.48-2.79,3.71,3.71,0,0,1,4.43-2.79Zm7.73,2L202.21,171a3.45,3.45,0,0,0-4.12,2.6,3.45,3.45,0,0,0,2.59,4.12l7.79,1.77a3.45,3.45,0,0,0,1.53-6.72Z"/><path class="cls-6" d="M202.07,171.76a2.66,2.66,0,1,1-3.19,2A2.66,2.66,0,0,1,202.07,171.76Z"/><path class="cls-6" d="M41.15,146.05a7.09,7.09,0,0,1,4.62,1.16,7.31,7.31,0,0,1,3,3.78,4.91,4.91,0,0,1-.39,4.18,4.7,4.7,0,0,1-3.54,2.14,7,7,0,0,1-4.62-1.16,7.32,7.32,0,0,1-3-3.77,4.93,4.93,0,0,1,.39-4.19,4.73,4.73,0,0,1,3.54-2.14Zm4.18,1.87a6,6,0,0,0-3.89-1,4,4,0,0,0-3,1.8,4.15,4.15,0,0,0-.32,3.53,6.15,6.15,0,0,0,2.51,3.18,6,6,0,0,0,3.89,1,4,4,0,0,0,3-1.8,4.16,4.16,0,0,0,.33-3.52A6.14,6.14,0,0,0,45.33,147.92Z"/><path class="cls-6" d="M35.28,137.11a4.67,4.67,0,0,1,3.08.77,4.87,4.87,0,0,1,2,2.52,3.29,3.29,0,0,1-.26,2.79,3.16,3.16,0,0,1-2.36,1.43,5,5,0,0,1-5.07-3.3,3.3,3.3,0,0,1,.25-2.79,3.14,3.14,0,0,1,2.37-1.42Zm2.78,1.24a3.94,3.94,0,0,0-2.59-.65,2.67,2.67,0,0,0-2,1.2,2.78,2.78,0,0,0-.22,2.35,4.14,4.14,0,0,0,1.68,2.12,4,4,0,0,0,2.6.65,2.65,2.65,0,0,0,2-1.2,2.75,2.75,0,0,0,.22-2.35A4.09,4.09,0,0,0,38.06,138.35Z"/><path class="cls-6" d="M200.51,152.52a7,7,0,0,0-4.76-.18,7.27,7.27,0,0,0-3.93,2.78,5,5,0,0,0-.8,4.13,4.69,4.69,0,0,0,2.8,3,7,7,0,0,0,4.75.19,7.25,7.25,0,0,0,3.93-2.79,4.92,4.92,0,0,0,.8-4.13,4.72,4.72,0,0,0-2.79-3Zm-4.54.62a5.93,5.93,0,0,1,4,.15,4,4,0,0,1,2.35,2.56,4.13,4.13,0,0,1-.67,3.48,6.15,6.15,0,0,1-3.31,2.34,5.9,5.9,0,0,1-4-.15A4,4,0,0,1,192,159a4.21,4.21,0,0,1,.67-3.48A6.15,6.15,0,0,1,196,153.14Z"/><path class="cls-6" d="M208.65,145.58a4.72,4.72,0,0,0-3.17-.13,4.87,4.87,0,0,0-2.62,1.86,3.3,3.3,0,0,0-.54,2.76,3.19,3.19,0,0,0,1.87,2,4.72,4.72,0,0,0,3.17.12,4.87,4.87,0,0,0,2.62-1.86,3.28,3.28,0,0,0,.54-2.75,3.12,3.12,0,0,0-1.87-2Zm-3,.41a4,4,0,0,1,2.67.1,2.64,2.64,0,0,1,1.57,1.71,2.78,2.78,0,0,1-.45,2.32,4,4,0,0,1-2.21,1.56,3.89,3.89,0,0,1-2.67-.1,2.67,2.67,0,0,1-1.57-1.71,2.75,2.75,0,0,1,.45-2.31A4.09,4.09,0,0,1,205.63,146Z"/><path class="cls-6" d="M110.26,64.45l6.63,1.62a1.57,1.57,0,0,1,.81,2.56l-4.76,5.48a1.54,1.54,0,0,1-1.55.49,1.52,1.52,0,0,1-1.16-1.13l-1.86-7.09a1.52,1.52,0,0,1,.4-1.5,1.54,1.54,0,0,1,1.49-.43Zm4.93,2.16-3.64-.89a1.57,1.57,0,0,0-1.89,1.93l1,3.89a1.52,1.52,0,0,0,1.16,1.13,1.54,1.54,0,0,0,1.55-.49l2.62-3a1.54,1.54,0,0,0,.31-1.51A1.52,1.52,0,0,0,115.19,66.61Z"/><path class="cls-6" d="M101.16,70.17l2.78-2.91a.93.93,0,0,1,1.55.34l1.39,4.05a.9.9,0,0,1-.2.94.89.89,0,0,1-.92.26l-4.17-1.14a.89.89,0,0,1-.65-.65.92.92,0,0,1,.22-.89Zm2.55-1.88-1.52,1.6a.93.93,0,0,0-.23.89.9.9,0,0,0,.65.64l2.3.63a.89.89,0,0,0,.92-.26.92.92,0,0,0,.2-.94l-.77-2.22a.9.9,0,0,0-.68-.61A.92.92,0,0,0,103.71,68.29Z"/><path class="cls-6" d="M231,104.69l1.13,3.86a.92.92,0,0,1-1.06,1.17l-4.21-.82a.88.88,0,0,1-.71-.64.9.9,0,0,1,.24-.93l3.07-3a.92.92,0,0,1,1.54.4Zm.36,3.15-.62-2.12a.93.93,0,0,0-1.55-.4L227.45,107a.92.92,0,0,0-.23.93.91.91,0,0,0,.71.65l2.31.45a.9.9,0,0,0,.86-.29A.91.91,0,0,0,231.31,107.84Z"/><path class="cls-6" d="M59.27,77.33,56,79.64a.9.9,0,0,0-.4.82.93.93,0,0,0,.5.77l3.8,2a.88.88,0,0,0,.95-.06.91.91,0,0,0,.4-.87L60.73,78a.9.9,0,0,0-.54-.74.92.92,0,0,0-.92.08ZM57,79.58l1.8-1.27a.9.9,0,0,1,.92-.09.93.93,0,0,1,.54.74l.28,2.36a.91.91,0,0,1-.4.87.92.92,0,0,1-1,.06l-2.08-1.09a.9.9,0,0,1-.5-.76A.89.89,0,0,1,57,79.58Z"/><path class="cls-6" d="M171.84,196.18a1.5,1.5,0,0,1,1.76.88l19.58-6.89a1.54,1.54,0,1,1,1.89,1.45,2.13,2.13,0,0,1-.5,0l-3.08,10.1a1.53,1.53,0,1,1-2.27,1.25l-15.83-4.35a1.1,1.1,0,0,1-.85.53,1.72,1.72,0,0,1-1.85-1.15,1.57,1.57,0,0,1,1.15-1.85ZM194,191.46a1.57,1.57,0,0,1-.65-.72l-19.58,6.88a1.33,1.33,0,0,1,0,.45l15.7,4.31a1.55,1.55,0,0,1,1.5-.82Z"/><path class="cls-6" d="M126.85,118.66a1.55,1.55,0,1,0-1.55-1.55A1.56,1.56,0,0,0,126.85,118.66Z"/><path class="cls-6" d="M129,109.3a.72.72,0,0,0,0-1.44.72.72,0,0,0,0,1.44Z"/><path class="cls-6" d="M33.17,78a.91.91,0,1,0-.9-.9A.9.9,0,0,0,33.17,78Z"/><path class="cls-6" d="M166.21,92.79A1.19,1.19,0,1,0,165,91.61,1.19,1.19,0,0,0,166.21,92.79Z"/><circle class="cls-16" cx="177.93" cy="160.57" r="0.98"/><path class="cls-6" d="M84.2,191.46A1.51,1.51,0,1,0,82.69,190,1.52,1.52,0,0,0,84.2,191.46Z"/><path class="cls-6" d="M112.45,191.48a1.2,1.2,0,1,0-1.21-1.2A1.2,1.2,0,0,0,112.45,191.48Z"/><path class="cls-6" d="M54.77,175.75a.45.45,0,0,0,.45-.45.45.45,0,1,0-.9,0A.45.45,0,0,0,54.77,175.75Z"/><path class="cls-6" d="M86.32,77.25a1.59,1.59,0,1,1-1.59,1.58,1.58,1.58,0,0,1,1.59-1.58Zm-5.7-1.51a.72.72,0,1,1-.72.71A.71.71,0,0,1,80.62,75.74Z"/><path class="cls-6" d="M63,191.78l7.87-.95a1.52,1.52,0,0,1,1.12.31,1.54,1.54,0,0,1,.57,1l1,7.87a1.53,1.53,0,0,1-1.33,1.69l-7.87.94a1.51,1.51,0,0,1-1.68-1.32l-.95-7.87A1.51,1.51,0,0,1,63,191.78Zm7.94-.43-7.87,1a1,1,0,0,0-.66.37,1,1,0,0,0-.21.73l1,7.87a1,1,0,0,0,1.1.86l7.87-.94a1,1,0,0,0,.66-.38.92.92,0,0,0,.2-.72L72,192.21a1,1,0,0,0-.37-.65A1,1,0,0,0,70.93,191.35Z"/><path class="cls-6" d="M61.56,179.83l7.87-1a1.53,1.53,0,0,1,1.68,1.33l1,7.87a1.53,1.53,0,0,1-.31,1.11,1.5,1.5,0,0,1-1,.57l-7.88,1a1.51,1.51,0,0,1-1.68-1.32l-1-7.87a1.53,1.53,0,0,1,1.33-1.69Z"/><path class="cls-6" d="M62.23,185.25a.73.73,0,0,1-.12-1,.72.72,0,0,1,1-.12L65.49,186l3.23-4.11a.73.73,0,1,1,1.14.9l-3.61,4.61a.83.83,0,0,1-1.16.13Z"/><path class="cls-6" d="M171.77,63.86s38.24,11.2,38.58,13-10.77,25.25-14.22,25.31-29.44-7.53-29.44-7.53S169.61,62.3,171.77,63.86Z"/><path class="cls-3" d="M173.52,67s33.62,9.3,33.92,10.81c.24,1.19-5.77,13.53-9.82,18.79-.59-1.83-1.64-4.92-2.21-5.25-.82-.49-7.53,2-7.53,2s-4.92-9.06-6-10.34c-.81-1-8.5.33-11.95,1C170.89,76.29,172.34,66.22,173.52,67Z"/><path class="cls-6" d="M194.11,77.82a3.78,3.78,0,0,1,3.5,3.94,3.61,3.61,0,0,1-3.9,3.39,3.77,3.77,0,0,1-3.5-3.94A3.61,3.61,0,0,1,194.11,77.82Z"/><path class="cls-3" d="M124.89,69.79c-.29,5.36,2,16.17,3.93,17.7,2.5,1.93,26.16,5.54,27.49,3.45,1.13-1.78,5.43-15.54,5.25-20.19-3.45,2.46-16.86,11.93-18.56,11.8C141.76,82.45,131.58,74.87,124.89,69.79Z"/><path class="cls-3" d="M160.72,69.2c-3-.37-32.79-4-35-2.27a1.63,1.63,0,0,0-.48.73c6.51,5,17.15,13,18.08,13.07C144.41,80.81,157.62,71.42,160.72,69.2Z"/><path class="cls-7" d="M161.25,69.24l-.49-.07c-3,2.16-16.34,11.65-17.44,11.56s-12.15-8.54-18.59-13.46a9.32,9.32,0,0,0-.69,1.87c6.65,5.06,17.67,13.31,19,13.41,1.77.13,16.1-10,18.9-12C161.79,69.8,161.58,69.34,161.25,69.24Z"/><path class="cls-8" d="M162.59,67.16a4.77,4.77,0,0,0-6.48,1.2,4.42,4.42,0,0,0,1.44,6.22,4.75,4.75,0,0,0,6.47-1.2A4.41,4.41,0,0,0,162.59,67.16Z"/><path class="cls-3" d="M10.44,101.75l6-.48,6-.48a1.59,1.59,0,0,1,1.38.79c1,1.91,2,3.83,3,5.74s1.92,3.81,2.87,5.72c.24.48,0,.9-.4.94l-5.33.48-5.25.48a1.6,1.6,0,0,1-1.31-.78q-1.75-2.85-3.57-5.72c-1.21-1.91-2.46-3.82-3.69-5.73a.76.76,0,0,1-.15-.65.49.49,0,0,1,.47-.31Zm11.73-.41-5.47.44-5.41.44a.48.48,0,0,0-.46.31.72.72,0,0,0,.14.65c1.12,1.74,2.24,3.48,3.33,5.21s2.18,3.48,3.25,5.22a1.57,1.57,0,0,0,1.3.78l4.8-.44,4.88-.44c.45,0,.63-.46.39-.94q-1.3-2.59-2.65-5.21t-2.73-5.22A1.59,1.59,0,0,0,22.17,101.34Z"/><path class="cls-3" d="M14.61,104.83a4.5,4.5,0,0,1,3.09-1.4,8,8,0,0,1,6.15,4.08c1.87,3,2.13,1.81,2.32,2.17l1.16,2.22a2.62,2.62,0,0,1-3.54-1.05s.11,2.32-2.94,2-4.66-3.63-4.19-4.53,3.16-2.14,4.68-1c0,0-3-2.45-4.28-.54l-2.45-1.9ZM21.73,109s-4.06-.31-2.8,1.07,3.59.24,3.4-.31A1.39,1.39,0,0,0,21.73,109Z"/><path class="cls-3" d="M25.67,100.85l6.16-.47,6.24-.47a1.35,1.35,0,0,1,1.29.78c.74,1.91,1.48,3.81,2.19,5.71s1.41,3.79,2.09,5.69a.65.65,0,0,1-.54.94l-5.53.47-5.46.47a1.34,1.34,0,0,1-1.21-.77c-.93-1.9-1.86-3.8-2.81-5.69s-1.93-3.8-2.91-5.7a.67.67,0,0,1,0-.64.6.6,0,0,1,.53-.32Zm12-.39c-1.89.14-3.78.27-5.65.42l-5.6.44a.61.61,0,0,0-.53.31.7.7,0,0,0,0,.64q1.34,2.61,2.63,5.2c.85,1.73,1.7,3.45,2.53,5.18a1.37,1.37,0,0,0,1.23.77l5-.43,5-.43a.65.65,0,0,0,.55-.93Q42,109,41,106.44c-.66-1.73-1.34-3.46-2-5.2A1.34,1.34,0,0,0,37.72,100.46Z"/><path class="cls-3" d="M28,102.73c.92,1.59,1.84,3.18,2.72,4.77s1.76,3.18,2.63,4.77l2.77-.19c-.22-.36-.44-.73-.65-1.1,0,0,3.89,1.94,4.5-.33s-3.56-7.54-7.27-4.17q-.95-2.16-1.91-4.32a14,14,0,0,0-2.79.57Zm5.93,5.41s1.66-1.74,3-.31-.43,2.07-1.41,1.72A3.32,3.32,0,0,1,33.91,108.14Z"/><path class="cls-3" d="M30.08,118.38s-5.25-2.36-6.52-.54-.21,3.23,1,5.09,2.13,3.26,4.33,4.07,4.81-.53,4.46-.9l-2.13-2.18s-2.29,2.46-4.49-1.23,1.81-3.17,3.35-1.28C30,120.4,30.05,119.39,30.08,118.38Z"/><path class="cls-3" d="M19.24,115.89l5.33-.49,5.43-.49a1.41,1.41,0,0,1,1.23.8c.91,1.9,1.82,3.81,2.7,5.71s1.74,3.81,2.59,5.71c.21.48,0,.9-.36.94l-4.72.48-4.66.49a1.4,1.4,0,0,1-1.16-.77c-1.07-1.9-2.17-3.81-3.27-5.71s-2.25-3.81-3.39-5.71a.82.82,0,0,1-.14-.65.44.44,0,0,1,.42-.31Zm10.52-.42-4.91.44-4.84.45a.43.43,0,0,0-.42.31.87.87,0,0,0,.14.65c1,1.73,2.06,3.47,3.06,5.2s2,3.47,3,5.2a1.42,1.42,0,0,0,1.17.77l4.26-.44,4.33-.44c.4,0,.56-.47.34-.94q-1.17-2.61-2.38-5.2c-.8-1.74-1.64-3.48-2.47-5.21A1.41,1.41,0,0,0,29.76,115.47Z"/></g></g></svg>