<svg id="Layer_1" data-name="Layer 1" xmlns="http://www.w3.org/2000/svg" viewBox="0 0 250 250"><defs><style>.cls-1{fill:#ebebeb;}.cls-2{fill:#fff;}.cls-3{fill:#dcdbdb;}.cls-4{fill:#c7c7c6;}.cls-5{fill:#192f35;}.cls-6{fill:#263238;}.cls-7{fill:#f47e23;}.cls-8{fill:#37474f;}.cls-9{fill:#455b64;}.cls-10{fill:#a6a5a5;}.cls-11{fill:#d3766a;}.cls-12{fill:#b7b7b7;}.cls-13{fill:#f397b9;}.cls-14{fill:#e07024;}.cls-15{opacity:0.1;}</style></defs><title>Reach icon</title><polygon class="cls-1" points="205.46 83.64 204.75 83.64 204.75 83.17 204.99 83.17 204.99 82.93 205.46 82.93 205.46 83.64"/><path class="cls-1" d="M203.8,83.64h-1v-.47h1Zm-1.91,0h-.95v-.47h.95Zm-1.9,0h-1v-.47h1Zm-1.91,0h-1v-.47h1Zm-1.9,0h-1v-.47h1Zm-1.91,0h-1v-.47h1Zm-1.9,0h-1v-.47h1Zm-1.9,0h-1v-.47h1Zm-1.91,0h-.95v-.47h.95Zm-1.9,0h-1v-.47h1Zm-1.91,0h-.95v-.47h.95Zm-1.9,0h-.95v-.47h.95Zm-1.91,0H180v-.47h.95Z"/><polygon class="cls-1" points="179.04 83.64 178.33 83.64 178.33 82.93 178.8 82.93 178.8 83.17 179.04 83.17 179.04 83.64"/><path class="cls-1" d="M178.8,82h-.47V81h.47Zm0-1.9h-.47v-1h.47Zm0-1.91h-.47v-1h.47Zm0-1.9h-.47v-1h.47Zm0-1.91h-.47v-1h.47Zm0-1.9h-.47v-.95h.47Zm0-1.91h-.47v-1h.47Zm0-1.9h-.47v-1h.47Zm0-1.91h-.47v-.95h.47Zm0-1.9h-.47v-1h.47Zm0-1.9h-.47V62h.47Zm0-1.91h-.47v-1h.47Zm0-1.9h-.47v-1h.47Z"/><polygon class="cls-1" points="178.8 57.22 178.33 57.22 178.33 56.52 179.04 56.52 179.04 56.99 178.8 56.99 178.8 57.22"/><path class="cls-1" d="M203.8,57h-1v-.47h1Zm-1.91,0h-.95v-.47h.95ZM200,57h-1v-.47h1Zm-1.91,0h-1v-.47h1Zm-1.9,0h-1v-.47h1Zm-1.91,0h-1v-.47h1Zm-1.9,0h-1v-.47h1Zm-1.9,0h-1v-.47h1Zm-1.91,0h-.95v-.47h.95Zm-1.9,0h-1v-.47h1Zm-1.91,0h-.95v-.47h.95Zm-1.9,0h-.95v-.47h.95Zm-1.91,0H180v-.47h.95Z"/><polygon class="cls-1" points="205.46 57.22 204.99 57.22 204.99 56.99 204.75 56.99 204.75 56.52 205.46 56.52 205.46 57.22"/><path class="cls-1" d="M205.46,82H205V81h.48Zm0-1.9H205v-1h.48Zm0-1.91H205v-1h.48Zm0-1.9H205v-1h.48Zm0-1.91H205v-1h.48Zm0-1.9H205v-.95h.48Zm0-1.91H205v-1h.48Zm0-1.9H205v-1h.48Zm0-1.91H205v-.95h.48Zm0-1.9H205v-1h.48Zm0-1.9H205V62h.48Zm0-1.91H205v-1h.48Zm0-1.9H205v-1h.48Z"/><rect class="cls-2" x="176.91" y="81.74" width="3.32" height="3.32"/><path class="cls-1" d="M180.46,85.3h-3.79V81.51h3.79Zm-3.32-.47H180V82h-2.85Z"/><rect class="cls-2" x="176.91" y="68.42" width="3.32" height="3.32"/><path class="cls-1" d="M180.46,72h-3.79V68.18h3.79Zm-3.32-.47H180V68.65h-2.85Z"/><rect class="cls-2" x="176.91" y="55.09" width="3.32" height="3.32"/><path class="cls-1" d="M180.46,58.65h-3.79V54.86h3.79Zm-3.32-.47H180V55.33h-2.85Z"/><rect class="cls-2" x="203.56" y="81.74" width="3.32" height="3.32"/><path class="cls-1" d="M207.12,85.3h-3.8V81.51h3.8Zm-3.33-.47h2.86V82h-2.86Z"/><rect class="cls-2" x="203.56" y="68.42" width="3.32" height="3.32"/><path class="cls-1" d="M207.12,72h-3.8V68.18h3.8Zm-3.33-.47h2.86V68.65h-2.86Z"/><rect class="cls-2" x="203.56" y="55.09" width="3.32" height="3.32"/><path class="cls-1" d="M207.12,58.65h-3.8V54.86h3.8Zm-3.33-.47h2.86V55.33h-2.86Z"/><rect class="cls-2" x="190.23" y="55.09" width="3.32" height="3.32"/><path class="cls-1" d="M193.79,58.65H190V54.86h3.79Zm-3.32-.47h2.85V55.33h-2.85Z"/><rect class="cls-2" x="190.23" y="81.74" width="3.32" height="3.32"/><path class="cls-1" d="M193.79,85.3H190V81.51h3.79Zm-3.32-.47h2.85V82h-2.85Z"/><path class="cls-3" d="M192.22,73.25H186.9l-2.07,5.8h2v.51h-4.1v-.51H184l6.85-18.45h2.2l6.77,18.45h1.23v.51h-8.78v-.51h1.91Zm-5.08-.59H192l-2.34-7Z"/><path class="cls-1" d="M51.64,106.82A26,26,0,0,1,48.2,118H43.47A26,26,0,0,1,40,106.82c4.85-2.71,5-8.78,5-8.78h.49v9.61a1.48,1.48,0,1,0,.68,0V98h.48S46.79,104.11,51.64,106.82Z"/><rect class="cls-4" x="42.35" y="117.42" width="6.98" height="2.94"/><path class="cls-1" d="M62,113.75h-.47a15.73,15.73,0,1,0-31.45,0h-.47a16.2,16.2,0,1,1,32.39,0Z"/><rect class="cls-1" x="29.51" y="97.36" width="32.29" height="0.47"/><rect class="cls-2" x="28.21" y="112.09" width="3.32" height="3.32"/><path class="cls-1" d="M31.77,115.65H28v-3.79h3.79Zm-3.32-.47H31.3v-2.85H28.45Z"/><rect class="cls-2" x="28.21" y="95.93" width="3.32" height="3.32"/><path class="cls-1" d="M31.77,99.49H28V95.7h3.79ZM28.45,99H31.3V96.17H28.45Z"/><rect class="cls-2" x="60.14" y="112.09" width="3.32" height="3.32"/><path class="cls-1" d="M63.7,115.65H59.9v-3.79h3.8Zm-3.33-.47h2.85v-2.85H60.37Z"/><rect class="cls-2" x="60.14" y="95.93" width="3.32" height="3.32"/><path class="cls-1" d="M63.7,99.49H59.9V95.7h3.8ZM60.37,99h2.85V96.17H60.37Z"/><path class="cls-1" d="M190.86,164.36l6.29-.13c2.07,0,4.12-.07,6.17-.08l-.2.21,0-5.26.23.23-6.23,0-6.23-.07.13-.13Zm0,0-.13-5.26V159h.13l6.23-.08,6.23,0h.24v.24l0,5.26v.21h-.21c-2.1,0-4.2,0-6.28-.08Z"/><path class="cls-1" d="M197.81,171l6.29-.13c2.07,0,4.13-.07,6.18-.08l-.21.21,0-5.26.24.23-6.23,0-6.24-.07.13-.13Zm0,0-.12-5.26v-.13h.13l6.24-.08,6.23,0h.23v.24l0,5.26v.21h-.21c-2.11,0-4.21,0-6.29-.07Z"/><path class="cls-1" d="M183.91,171l6.29-.13c2.07,0,4.12-.07,6.17-.08l-.21.21,0-5.26.23.23-6.23,0-6.23-.07.13-.13Zm0,0-.13-5.26v-.13h.13l6.23-.08,6.23,0h.24v.24l0,5.26v.21h-.21c-2.1,0-4.2,0-6.28-.07Z"/><path class="cls-1" d="M30.35,171l6.29-.13c2.07,0,4.13-.07,6.18-.08l-.21.21,0-5.26.24.23-6.23,0-6.23-.07.12-.13Zm0,0-.12-5.26v-.13h.14l6.23-.08,6.23,0h.23v.24L43,171v.21h-.21c-2.11,0-4.21,0-6.29-.07Z"/><path class="cls-1" d="M39.77,84.77l6.28-.13c2.07,0,4.13-.08,6.18-.08l-.21.21,0-5.26.24.23-6.23,0-6.23-.07.13-.13Zm0,0-.13-5.26v-.13h.13L46,79.3l6.23,0h.24v.24l0,5.26V85h-.21c-2.1,0-4.2,0-6.29-.08Z"/><path class="cls-1" d="M32.82,91.41l6.28-.13c2.07,0,4.13-.08,6.18-.08l-.21.21,0-5.26.24.23-6.23,0-6.23-.07.12-.13Zm0,0-.13-5.26V86h.14l6.23-.08,6.23,0h.23v.24l0,5.26v.21h-.21c-2.11,0-4.21,0-6.29-.08Z"/><path class="cls-1" d="M93.91,135.8l-6.28.13c-2.07,0-4.13.08-6.18.08l.21-.21,0,5.27-.24-.24,6.23,0,6.23.08-.12.13Zm0,0,.13,5.27v.12h-.14l-6.23.07-6.23,0h-.23v-.23l0-5.27v-.21h.21c2.11,0,4.21,0,6.29.08Z"/><path class="cls-1" d="M87,129.16l-6.28.13c-2.07,0-4.13.08-6.18.08l.21-.21,0,5.27-.24-.24,6.23,0,6.23.08-.13.13Zm0,0,.13,5.27v.12H87l-6.23.07-6.23,0h-.23v-.23l0-5.27V129h.21c2.1,0,4.2,0,6.29.08Z"/><polygon class="cls-5" points="23.59 190.41 47.78 190.29 71.98 190.25 120.37 190.17 168.76 190.25 192.96 190.29 217.15 190.41 192.96 190.52 168.76 190.56 120.37 190.64 71.98 190.56 47.78 190.52 23.59 190.41"/><path class="cls-6" d="M45.81,143.54c-1.49-1.46-3.4-3.21-5.67-2.59s-3,2.92-3.33,4.86c-.49,2.5-.88,5-1.27,7.54s-.78,5.09-1.15,7.64c-.2,1.43-.41,2.87-.61,4.31l-.3,2.15c-.1.71-.21,1.41-.25,2.13,0,.22.34.26.39,0,.27-1.2.39-2.45.56-3.66l.54-3.68c.35-2.43.72-4.86,1.09-7.29s.74-4.86,1.13-7.28c.33-2.06.48-4.62,2.31-6a3.54,3.54,0,0,1,3.41-.32,10.27,10.27,0,0,1,3.1,2.17S45.83,143.56,45.81,143.54Z"/><path class="cls-7" d="M43.78,142.05s-3-1.09-4.53,1.12.29,7.84,14.09,11A38.9,38.9,0,0,0,50,141.71C47.06,135.26,41.79,137.7,43.78,142.05Z"/><path class="cls-6" d="M52.55,153.26a11,11,0,0,0-.7-1.12c-.23-.35-.46-.71-.7-1.06s-.35-.53-.54-.79a1.2,1.2,0,0,0,0-.2c0-.11,0-.23,0-.35s.07-.52.11-.78.08-.51.13-.77a3.66,3.66,0,0,1,.18-.81s-.06-.06-.06,0a2.54,2.54,0,0,1-.13.45l-.09.35c-.06.26-.13.53-.19.79s-.1.49-.14.73,0,.24,0,.36c-.25-.35-.5-.7-.76-1-.73-1-1.51-1.9-2.31-2.8,0,0,0,0,0,0a25.94,25.94,0,0,1,.36-4.31s0-.06-.06,0a14.73,14.73,0,0,0-.51,4.12l-.87-.95c-.68-.73-1.36-1.44-2.06-2.13a0,0,0,0,0,0,0c1.17,1.25,2.27,2.55,3.35,3.88a21.41,21.41,0,0,0-2.53.1c-.93.06-1.86.18-2.79.31,0,0,0,.07,0,.06.93-.13,1.86-.21,2.79-.25s1.8,0,2.7,0l1.72,2.18h-.13c-.21,0-.42,0-.63,0-.42,0-.84,0-1.26.07a18.24,18.24,0,0,0-2.55.38s0,.07,0,.06c.85-.09,1.7-.17,2.55-.2.41,0,.82,0,1.22,0h.64a.68.68,0,0,0,.35,0l1.11,1.45c.29.39.58.77.86,1.17s.56.83.88,1.21C52.52,153.33,52.56,153.29,52.55,153.26Z"/><path class="cls-6" d="M45.1,145.19a9.18,9.18,0,0,0-1.48-.08c-.49,0-1,0-1.48,0,0,0,0,.06,0,.06a14.83,14.83,0,0,1,1.49,0c.49,0,1,.05,1.45,0C45.11,145.21,45.11,145.19,45.1,145.19Z"/><path class="cls-6" d="M49.43,146.3a13.31,13.31,0,0,1,.21-1.41s0-.06-.06,0c-.07.46-.16.92-.23,1.39l-.09.69a3,3,0,0,0-.06.66s.07,0,.08,0a3.7,3.7,0,0,0,.07-.66C49.38,146.75,49.4,146.52,49.43,146.3Z"/><path class="cls-6" d="M48.52,141.08c-.12.45-.24.92-.33,1.39,0,.23-.07.47-.11.71a2.75,2.75,0,0,0,0,.7s0,0,0,0a3.75,3.75,0,0,0,.11-.67c0-.23.07-.45.11-.68.08-.48.17-1,.29-1.43C48.59,141.06,48.53,141,48.52,141.08Z"/><path class="cls-6" d="M30.55,169.07c-.08-.87-.16-1.74-.25-2.61-.18-1.72-.39-3.43-.63-5.15s-.44-3.42-.72-5.12a12.2,12.2,0,0,0-.53-2.32,2.18,2.18,0,0,0-1.28-1.46c-1.63-.56-2.72,1.13-3.38,2.32,0,0,0,.06.06,0,.39-.57,1.47-2.15,2.71-2.08.82,0,1.49.64,1.89,2.71,1,5.15,1.88,15.59,2,16.28.06.36.32.35.32,0C30.72,170.77,30.62,169.92,30.55,169.07Z"/><path class="cls-7" d="M24.2,154.09s1.42-5-1.72-2.51c-5.22,4.17-5.41,13.24-5.41,13.24s9.29-5.39,10.44-8.94C29.23,150.58,24.2,154.09,24.2,154.09Z"/><path class="cls-6" d="M26,156.55c-.73.14-1.47.24-2.21.35l-1,.14-.71.09c.69-1,1.39-1.9,2.05-2.88,0,0,0-.07-.06,0A22.1,22.1,0,0,0,22.44,156c-.14-.39-.28-.78-.41-1.16s-.33-.9-.45-1.36c0,0-.07,0-.06,0,.13.46.22.92.34,1.38s.26.89.41,1.32c-.34.44-.66.89-1,1.35-.16-.45-.36-.89-.5-1.35,0,0-.07,0-.06,0,.17.51.26,1,.42,1.55q-.33.47-.63.93c-.38.58-.73,1.17-1.08,1.77a.13.13,0,0,0-.08.14c-.58,1-1.14,2-1.69,3.08,0,0,0,.07,0,0,.55-1,1.17-2,1.8-3h0a1.45,1.45,0,0,1,.3-.05l.32-.07.72-.18c.47-.11.94-.23,1.42-.31,0,0,0-.07,0-.06-.56.11-1.13.17-1.7.24-.26,0-.53.06-.8.11h0c.34-.5.67-1,1-1.51s.68-1,1-1.45c.32-.05.64-.13,1-.19l1.08-.21c.72-.14,1.43-.3,2.15-.42C26,156.6,26,156.54,26,156.55Z"/><path class="cls-6" d="M20.38,157c-.05-.13-.09-.27-.13-.4a7.93,7.93,0,0,1-.21-.84s-.07,0-.06,0c.06.28.13.56.19.85a6,6,0,0,0,.24.83.06.06,0,0,0,.11,0C20.48,157.32,20.42,157.18,20.38,157Z"/><path class="cls-6" d="M26.91,155.39c-.43.06-.85.09-1.28.13s-.85.09-1.28.16c0,0,0,0,0,0,.43,0,.86-.06,1.28-.11s.85-.12,1.28-.15C27,155.45,27,155.38,26.91,155.39Z"/><path class="cls-6" d="M37.38,162.72c-.16-3.69-.4-7.37-.77-11.05-.18-1.83-.39-3.66-.65-5.48a39.74,39.74,0,0,0-1.05-5.3,10.16,10.16,0,0,0-1.77-3.74,4,4,0,0,0-3.57-1.56,7.29,7.29,0,0,0-4,2.32c-1.26,1.24-2.42,2.6-3.58,3.92l-.88,1s0,.07,0,0c1.14-1.31,2.33-2.59,3.57-3.81a10,10,0,0,1,3.92-2.82,4,4,0,0,1,2.28-.06,3.63,3.63,0,0,1,1.56,1,8.11,8.11,0,0,1,1.75,3.41,59.5,59.5,0,0,1,1.72,10.45c.37,3.56.63,7.13.8,10.7s.32,7.19.67,10.77c0,.44.1.88.16,1.33,0,.29.49.29.47,0C37.72,170.13,37.55,166.43,37.38,162.72Z"/><path class="cls-7" d="M25.33,138.31s2.11-3.9-.38-5.15-10.83,8.05-13.26,21.65c0,0,13.46-5.95,18-11.88S29.11,135.69,25.33,138.31Z"/><path class="cls-6" d="M27.31,141.48c-1.51,0-3-.11-4.54-.1l.86-1A15.6,15.6,0,0,0,24.81,139s0-.07-.06-.05a10.32,10.32,0,0,0-1.14,1.15l-1.13,1.21c-.58.63-1.15,1.26-1.71,1.9v-1c0-.51,0-1,0-1.54,0-1,0-2.08.08-3.12,0,0-.06,0-.06,0-.07,1-.18,2.08-.23,3.13,0,.51,0,1,0,1.54,0,.26,0,.53,0,.79s0,.3,0,.45l-.27.29c-1.21,1.38-2.36,2.81-3.47,4.26a1.94,1.94,0,0,0,0-.24l-.06-.48c0-.35-.08-.69-.13-1s-.1-.64-.16-1-.15-.73-.18-1.1c0,0-.07,0-.06,0a10.19,10.19,0,0,1,.13,1.11l.09,1c0,.33.06.66.1,1,0,.16,0,.32,0,.48l0,.24a.47.47,0,0,0,.07.19l-.58.75c-.76,1-1.51,2-2.26,3.05,0,0,0,.08,0,0,.71-.92,1.44-1.83,2.18-2.73.55,0,1.11,0,1.67,0h1.75a0,0,0,0,0,0-.06l-1.75,0c-.54,0-1.08,0-1.61,0,.65-.79,1.31-1.57,2-2.36l.72-.86a3.07,3.07,0,0,0,.68,0h.79l1.49,0,3.09,0s0-.06,0-.06c-1,0-2.05-.06-3.08-.08l-1.49,0h-.8c-.15,0-.31,0-.46,0l1.69-2a.08.08,0,0,0,0,0l1.66-1.95.23-.26c1.57.05,3.13,0,4.7,0C27.35,141.55,27.35,141.48,27.31,141.48Z"/><path class="cls-6" d="M26.53,144.16h-.36a0,0,0,1,0,0,.06h.37S26.57,144.16,26.53,144.16Z"/><path class="cls-6" d="M25.72,144.16c-.49,0-1,0-1.45,0l-.73,0a2.58,2.58,0,0,0-.68,0s0,0,0,0a2.21,2.21,0,0,0,.68.05h2.18S25.76,144.16,25.72,144.16Z"/><path class="cls-6" d="M21.49,148.7a21.28,21.28,0,0,0-3-.26s0,0,0,0c1,.09,2,.15,3,.31C21.51,148.77,21.53,148.71,21.49,148.7Z"/><path class="cls-6" d="M17.44,144.37l0-.25c0-.2-.05-.39-.08-.59-.06-.37-.13-.74-.2-1.1,0,0-.06,0-.06,0q.08.57.12,1.14c0,.19,0,.37,0,.56a1.55,1.55,0,0,0,.08.53.07.07,0,0,0,.13,0A.89.89,0,0,0,17.44,144.37Z"/><path class="cls-6" d="M37.25,133.3c-.48-.89-1.1-2.08-2.3-2-1,.06-1.44,1.07-1.65,1.91a40.25,40.25,0,0,0-.83,8c-.27,5.61-.51,11.22-.55,16.84,0,1.56,0,3.11,0,4.67s0,3.18.11,4.77a.12.12,0,0,0,.24,0c0-1.35,0-2.71-.05-4.07s0-2.65,0-4c0-2.68.11-5.37.21-8s.22-5.33.33-8c.06-1.33.11-2.66.17-4s.12-2.59.27-3.87c.08-.72.19-1.44.34-2.15a3,3,0,0,1,.62-1.44,1.35,1.35,0,0,1,1.75-.12,3.73,3.73,0,0,1,1.25,1.55S37.27,133.34,37.25,133.3Z"/><path class="cls-7" d="M36.92,132.88s-1-3.49,1.2-1.75c3.64,2.91,3.77,9.23,3.77,9.23s-6.47-3.76-7.27-6.24C33.42,130.43,36.92,132.88,36.92,132.88Z"/><path class="cls-6" d="M40.53,137.77l-.19-.29a1.5,1.5,0,0,0,0-.3v-.45c0-.29,0-.59,0-.88,0,0-.06,0-.07,0l0,.87c0,.14,0,.29,0,.43s0,.12,0,.19q-.37-.6-.78-1.17l-.24-.33a6.2,6.2,0,0,1,0-1.14c0-.41,0-.81,0-1.22a0,0,0,1,0-.06,0c0,.43,0,.85-.05,1.27a6.77,6.77,0,0,0,0,.9c-.62-.85-1.29-1.67-2-2.48,0,0-.07,0,0,0,.41.52.81,1.06,1.2,1.61-.76-.18-1.54-.28-2.31-.39,0,0,0,0,0,.06.81.12,1.62.33,2.43.51h0l.92,1.32.37.54h0l-.25,0-.54-.05-1.11-.07a0,0,0,0,0,0,.06c.36,0,.73,0,1.1.08l.57.07.26,0h.07c.21.3.42.61.62.92.37.54.69,1.11,1.08,1.64,0,0,.07,0,0,0A16.84,16.84,0,0,0,40.53,137.77Z"/><path class="cls-6" d="M38.92,133.82v-.4a6.13,6.13,0,0,1,0-.86s-.06-.05-.06,0c0,.29,0,.57,0,.85s0,.28,0,.43V134a.66.66,0,0,0,0,.2,0,0,0,0,0,.06,0,.55.55,0,0,0,0-.18Z"/><path class="cls-6" d="M38.12,135.27c-.24,0-.49-.05-.73-.08s-.54,0-.8-.08a0,0,0,0,0,0,.07c.51,0,1,.12,1.53.14C38.14,135.32,38.14,135.27,38.12,135.27Z"/><path class="cls-6" d="M40.15,135.29s0,.1,0,.13V136a.5.5,0,0,0,0,.21h0a.34.34,0,0,0,0-.1v-.36c0-.08,0-.16,0-.24v-.12s0-.1,0-.13S40.11,135.23,40.15,135.29Z"/><path class="cls-6" d="M37.4,151.93c-1.36-1-2.58-2.49-4.41-2.56a3.55,3.55,0,0,0-3.18,2.34,15.25,15.25,0,0,0-.74,2.09c-.27,1-.53,1.92-.77,2.88-.47,1.9-.88,3.81-1.21,5.74-.18,1.07-.35,2.15-.49,3.23a28.3,28.3,0,0,0-.32,3.31.17.17,0,0,0,.34,0c.19-.91.26-1.84.4-2.75s.27-1.84.43-2.76c.31-1.83.66-3.66,1.08-5.47s.77-3.44,1.32-5.11c.4-1.2,1-2.59,2.32-3,2-.65,3.75,1,5.19,2.09A0,0,0,0,0,37.4,151.93Z"/><path class="cls-7" d="M36,151s-1.25-3.58.56-4.28c2.72-1,9.83,7,8.44,19.24a69.47,69.47,0,0,1-9.55-6.44c-4.06-3.4-5.1-7.85-3.31-9S36,151,36,151Z"/><path class="cls-6" d="M44.17,163.28a9.18,9.18,0,0,0-.66-1.24l-.71-1.26c-.48-.8-.94-1.61-1.43-2.41l-.24-.39,0-.15.08-.35c.06-.27.11-.54.16-.8.1-.53.19-1.06.33-1.58,0,0,0,0-.06,0-.11.53-.28,1-.43,1.56-.08.25-.16.5-.23.76l-.07.26c-.58-1-1.17-1.91-1.81-2.83a1.67,1.67,0,0,0,.06-.39l.06-.54c0-.41.09-.81.15-1.21.12-.79.24-1.58.43-2.35,0,0,0,0-.06,0-.19.78-.41,1.55-.55,2.33-.07.39-.14.77-.19,1.16,0,.2-.05.39-.07.59s0,.11,0,.17l-.6-.83c-.63-.82-1.28-1.63-1.94-2.43,0,0-.07,0,0,0a42.41,42.41,0,0,1,3.09,4.52l.54.86-.18,0-.69-.06-1.39-.12c-.93-.08-1.85-.13-2.78-.23,0,0,0,0,0,.06.94.11,1.87.26,2.8.39l1.38.18a5.14,5.14,0,0,0,1.06.11l1.09,1.77H39.69l-1.79,0s0,.06,0,.06c.6,0,1.2,0,1.81.07l.85.05.43,0a.81.81,0,0,0,.38,0l.93,1.51c.28.47.57.93.87,1.39a10,10,0,0,0,.93,1.4S44.18,163.31,44.17,163.28Z"/><path class="cls-6" d="M41.55,153.35a9,9,0,0,1-.25,1.17c-.1.4-.21.79-.34,1.18,0,.06,0,.08.07,0q.18-.58.33-1.17c.09-.4.15-.8.25-1.19C41.62,153.33,41.55,153.31,41.55,153.35Z"/><path class="cls-6" d="M37.51,155.75a.5.5,0,0,0-.3-.11l-.52-.07-1-.12c-.67-.08-1.34-.14-2-.23a0,0,0,0,0,0,.07c.63.07,1.26.17,1.89.25l.92.12.45.05a1.71,1.71,0,0,1,.51.09A0,0,0,0,0,37.51,155.75Z"/><path class="cls-6" d="M41.54,161.15c-.32,0-.64,0-.95-.05h-.71a1,1,0,0,1-.3,0s0,.07,0,.07a1.31,1.31,0,0,1,.28,0l.25,0,.47,0c.32,0,.64,0,1,0C41.57,161.22,41.58,161.15,41.54,161.15Z"/><path class="cls-6" d="M43.48,159.78c0-.18.07-.36.1-.54.07-.36.13-.71.2-1.06,0,0-.06-.05-.07,0-.07.35-.15.69-.23,1,0,.17-.08.34-.11.52l0,.24a.52.52,0,0,0,0,.25,0,0,0,0,0,.07,0A1.43,1.43,0,0,0,43.48,159.78Z"/><polygon class="cls-8" points="40.8 170.36 40.5 175.43 39.6 190.41 24.24 190.41 23.33 175.43 23.03 170.36 40.8 170.36"/><polygon class="cls-6" points="40.8 170.36 40.5 175.43 23.33 175.43 23.03 170.36 40.8 170.36"/><rect class="cls-8" x="21.61" y="166.77" width="20.61" height="5.08"/><rect class="cls-7" x="78.49" y="34" width="79.45" height="79.29"/><rect class="cls-6" x="78.49" y="34" width="79.5" height="4.79"/><path class="cls-4" d="M82.26,36.4a1,1,0,0,1-2,0,1,1,0,1,1,2,0Z"/><path class="cls-2" d="M86.33,36.4a1,1,0,1,1-1-1A1,1,0,0,1,86.33,36.4Z"/><path class="cls-7" d="M90.4,36.4a1,1,0,1,1-1-1A1,1,0,0,1,90.4,36.4Z"/><rect class="cls-2" x="89.19" y="46.9" width="58.09" height="58.09"/><path class="cls-7" d="M118.2,95.5V95A20.2,20.2,0,1,0,98,74.84h-.45A20.65,20.65,0,1,1,118.2,95.5Z"/><path class="cls-2" d="M98.88,74.84a1.11,1.11,0,1,1-1.11-1.11A1.1,1.1,0,0,1,98.88,74.84Z"/><path class="cls-7" d="M97.77,76.18a1.34,1.34,0,1,1,1.34-1.34A1.34,1.34,0,0,1,97.77,76.18Zm0-2.22a.89.89,0,1,0,.89.88A.89.89,0,0,0,97.77,74Z"/><path class="cls-2" d="M139.83,74.84a1.11,1.11,0,1,1-1.11-1.11A1.11,1.11,0,0,1,139.83,74.84Z"/><path class="cls-7" d="M138.72,76.18a1.34,1.34,0,1,1,1.33-1.34A1.34,1.34,0,0,1,138.72,76.18Zm0-2.22a.89.89,0,1,0,.88.88A.89.89,0,0,0,138.72,74Z"/><path class="cls-7" d="M112,70.58a2.41,2.41,0,1,1-2.41-2.41A2.41,2.41,0,0,1,112,70.58Z"/><circle class="cls-7" cx="126.81" cy="70.58" r="2.41"/><path class="cls-2" d="M119.31,54.42a1.11,1.11,0,1,1-1.11-1.11A1.11,1.11,0,0,1,119.31,54.42Z"/><path class="cls-7" d="M118.2,55.75a1.34,1.34,0,1,1,1.34-1.33A1.33,1.33,0,0,1,118.2,55.75Zm0-2.22a.89.89,0,1,0,.88.89A.88.88,0,0,0,118.2,53.53Z"/><path class="cls-7" d="M119.31,95.26a1.11,1.11,0,1,1-1.11-1.11A1.11,1.11,0,0,1,119.31,95.26Z"/><path class="cls-6" d="M122.61,97.86a12.62,12.62,0,0,1,.88,5.62l-2.06,1a12.71,12.71,0,0,1-3.89-4.14,5.35,5.35,0,0,0,.3-4.9l.21-.11,2,4.2a.72.72,0,1,0,1.11.25.73.73,0,0,0-.81-.39l-2.05-4.2.21-.11A5.35,5.35,0,0,0,122.61,97.86Z"/><rect class="cls-6" x="120.95" y="103.66" width="3.39" height="1.43" transform="translate(-33.36 64.42) rotate(-26.03)"/><rect class="cls-6" x="126.2" y="103.37" width="0.26" height="2.54"/><rect class="cls-6" x="125.06" y="104.51" width="2.54" height="0.26"/><rect class="cls-6" x="125.06" y="104.51" width="2.54" height="0.26" transform="translate(-36.99 119.98) rotate(-45)"/><rect class="cls-6" x="126.2" y="103.37" width="0.26" height="2.54" transform="translate(-36.99 119.98) rotate(-45)"/><path class="cls-6" d="M126.32,99.13c-2,0-2.67-1.36-3.27-2.51a3.47,3.47,0,0,0-1.13-1.53,2.82,2.82,0,0,0-3.18.48l-.36-.38s1.86-1.69,3.8-.56a3.92,3.92,0,0,1,1.34,1.75c.58,1.12,1.13,2.18,2.82,2.22Z"/><path class="cls-7" d="M122.72,70a4.52,4.52,0,0,1-9,0Z"/><rect class="cls-9" x="58.3" y="34.67" width="13.86" height="52.1"/><rect class="cls-1" x="59.37" y="35.11" width="0.11" height="1.21" transform="translate(-7.85 52.48) rotate(-45)"/><rect class="cls-1" x="58.82" y="35.66" width="1.21" height="0.11" transform="translate(-7.85 52.48) rotate(-45)"/><rect class="cls-1" x="70.66" y="35.57" width="0.11" height="0.72" transform="translate(-4.69 60.55) rotate(-45.01)"/><rect class="cls-1" x="70.36" y="35.45" width="0.72" height="0.11" transform="translate(-4.39 60.41) rotate(-45)"/><rect class="cls-1" x="71.22" y="35.57" width="0.11" height="0.72" transform="translate(-4.53 60.93) rotate(-45)"/><rect class="cls-1" x="70.92" y="35.45" width="0.72" height="0.11" transform="translate(-4.23 60.8) rotate(-45)"/><path class="cls-1" d="M62.13,43.34l-.6-1.44-1.06.83V38.1l3.23,3.27-1.35.2L62.94,43Zm-.5-1.8.62,1.5.4-.16L62,41.39l1.2-.18L60.7,38.66v3.6Z"/><polygon class="cls-1" points="69.5 41.48 70.11 42.94 69.5 43.19 68.89 41.72 67.9 42.5 67.9 38.38 70.78 41.29 69.5 41.48"/><rect class="cls-1" x="59.74" y="48.87" width="4.58" height="0.34" transform="translate(-14.78 67.84) rotate(-52.08)"/><polygon class="cls-1" points="61.75 47.59 61.07 47.72 60.91 48.44 60.76 47.72 60.07 47.59 60.76 47.42 60.91 46.73 61.07 47.42 61.75 47.59"/><polygon class="cls-1" points="63.28 46.44 62.88 46.52 62.79 46.94 62.7 46.52 62.29 46.44 62.69 46.34 62.79 45.94 62.88 46.34 63.28 46.44"/><polygon class="cls-1" points="63.76 48.73 63.53 48.77 63.48 49.01 63.42 48.77 63.19 48.73 63.42 48.67 63.48 48.44 63.53 48.67 63.76 48.73"/><rect class="cls-1" x="66.42" y="61.79" width="4.58" height="0.34" transform="translate(-22.4 78.09) rotate(-52.08)"/><polygon class="cls-1" points="69.5 49.68 70.11 51.14 69.5 51.39 68.89 49.92 67.9 50.69 67.9 46.58 70.78 49.49 69.5 49.68"/><path class="cls-1" d="M67.62,49.12a1.34,1.34,0,0,1-1.22-.52c-.24-.47-.06-1.46,1.42-2.26a2.13,2.13,0,0,1,2.62.08,1,1,0,0,1,0,.79,2.87,2.87,0,0,1-1.62,1.63h0A3.2,3.2,0,0,1,67.62,49.12Zm1.63-2.94a2.87,2.87,0,0,0-1.33.35c-1.32.73-1.51,1.59-1.32,2s1.11.61,2.18.14h0a2.65,2.65,0,0,0,1.49-1.49.72.72,0,0,0,0-.6A1.2,1.2,0,0,0,69.25,46.18Z"/><path class="cls-1" d="M67,49.41a.53.53,0,0,1-.43-.22h0a.47.47,0,0,1-.06-.52.68.68,0,0,1,.58-.35.49.49,0,0,1,.47.27.53.53,0,0,1-.2.72A.75.75,0,0,1,67,49.41Zm-.25-.35a.35.35,0,0,0,.48,0,.3.3,0,0,0,.13-.42.26.26,0,0,0-.26-.14.46.46,0,0,0-.39.22.26.26,0,0,0,0,.29Z"/><path class="cls-1" d="M67.61,50l-.13-.19c.07,0,.14-.12.13-.2s-.27-.27-.38-.32l.08-.21s.49.2.53.5A.46.46,0,0,1,67.61,50Z"/><path class="cls-1" d="M60.57,55a5.76,5.76,0,0,1,2.23-1.18l.72.72a5.52,5.52,0,0,1-1.18,2.23,2.37,2.37,0,0,0-2.09.58l-.08-.07,1.47-1.47a.32.32,0,0,0,.39-.5.33.33,0,0,0-.45,0,.33.33,0,0,0,0,.4L60.07,57.2,60,57.13A2.37,2.37,0,0,0,60.57,55Z"/><rect class="cls-1" x="62.55" y="53.76" width="1.5" height="0.63" transform="translate(69.82 137.07) rotate(-135)"/><rect class="cls-6" x="65.68" y="52.61" width="5.55" height="5.18"/><path class="cls-1" d="M67.69,55a5.66,5.66,0,0,1,2.23-1.18l.72.72a5.66,5.66,0,0,1-1.18,2.23,2.4,2.4,0,0,0-2.1.58l-.07-.07,1.46-1.47a.32.32,0,0,0,.4-.05.32.32,0,1,0-.45-.45.32.32,0,0,0,0,.4L67.18,57.2l-.07-.07A2.37,2.37,0,0,0,67.69,55Z"/><rect class="cls-1" x="69.66" y="53.76" width="1.5" height="0.63" transform="translate(81.97 142.1) rotate(-135)"/><path class="cls-1" d="M67.18,57.32a.87.87,0,0,1-.77-.39c-.16-.25-.26-.74.17-1.63a.87.87,0,0,0,.07-.77,1,1,0,0,0-.71-.4l0-.22a1.19,1.19,0,0,1,.87.51,1,1,0,0,1-.06,1c-.38.8-.31,1.21-.18,1.41a.67.67,0,0,0,.58.28Z"/><path class="cls-1" d="M63.38,59.86v.92h-.31a.13.13,0,0,1-.13-.1s0-.1,0-.22h-.79v2.77l.16,0h.11a.16.16,0,0,1,.14.17v.32H61v-.32a.16.16,0,0,1,.14-.17h.11l.16,0V60.45h-.8c0,.12,0,.2,0,.23a.13.13,0,0,1-.13.1h-.31v-.92h3.25Z"/><path class="cls-1" d="M63.93,71.3H60v-4h4ZM60.3,71h3.29V67.67H60.3Z"/><path class="cls-1" d="M70.18,83.12H66.75V80.05h3.43Zm-3.09-.34h2.75V80.39H67.09Z"/><path class="cls-1" d="M68.3,84H65.91V81.88H68.3Zm-2-.34H68V82.22H66.25Z"/><rect class="cls-1" x="68.46" y="81.08" width="1.22" height="0.23" transform="translate(-37.18 72.62) rotate(-45)"/><polygon class="cls-1" points="69.67 81.28 69.44 81.28 69.44 80.83 69.01 80.83 69.01 80.6 69.67 80.6 69.67 81.28"/><path class="cls-1" d="M70.37,71.3h-4v-4h1.85a1.51,1.51,0,0,1,3,.2,1.51,1.51,0,0,1-.88,1.37ZM66.74,71H70V68.67l.11,0a1.16,1.16,0,0,0-.4-2.26,1.14,1.14,0,0,0-1.16,1.13v.17H66.74Z"/><path class="cls-1" d="M68.91,68.44c-.59-.1-.68.53-.69.77a.68.68,0,0,1-.47.52s.91.26,1.37-.21A.62.62,0,0,0,68.91,68.44Z"/><path class="cls-1" d="M70.93,66.54l-1.48,2.09a.65.65,0,0,0-.46-.35h-.1l1.23-1.73Z"/><rect class="cls-1" x="60.97" y="74.64" width="1.47" height="3" transform="translate(71.91 -21.33) rotate(45)"/><rect class="cls-1" x="62.43" y="74.36" width="1.47" height="0.64" transform="translate(71.31 -22.79) rotate(45)"/><polygon class="cls-1" points="60.03 77.82 60.11 76.71 60.34 76.72 60.27 77.57 61.12 77.51 61.14 77.73 60.03 77.82"/><path class="cls-1" d="M69.62,76.05a.8.8,0,1,1,.8-.8A.8.8,0,0,1,69.62,76.05Zm0-1.26a.47.47,0,0,0-.46.46.46.46,0,1,0,.92,0A.47.47,0,0,0,69.62,74.79Z"/><path class="cls-1" d="M66,77.3l3.13-1.72.54.3s-2.28,1.4-2.69,1.55A1.6,1.6,0,0,1,66,77.3Z"/><path class="cls-1" d="M69.61,77.83a.8.8,0,1,1,.8-.8A.8.8,0,0,1,69.61,77.83Zm0-1.26a.46.46,0,1,0,.46.46A.47.47,0,0,0,69.61,76.57Z"/><path class="cls-1" d="M65.94,75l3.13,1.73.54-.31S67.33,75,66.92,74.86A1.55,1.55,0,0,0,65.94,75Z"/><path class="cls-1" d="M60,83.51V80.57L61.86,82Zm.34-2.24v1.54l1-.77Z"/><polygon class="cls-1" points="63.9 80.61 63.9 83.47 62.08 82.04 63.9 80.61"/><path class="cls-1" d="M62,83.6h-.11v-.45H62Zm0-.9h-.11v-.45H62Zm0-.91h-.11v-.45H62Zm0-.9h-.11v-.46H62Z"/><rect class="cls-9" x="159.89" y="37.76" width="28.54" height="16.93"/><polygon class="cls-1" points="161.4 39.28 160.55 38.42 160.63 38.34 161.48 39.2 161.4 39.28"/><polygon class="cls-1" points="160.63 39.28 160.55 39.2 161.4 38.34 161.48 38.42 160.63 39.28"/><rect class="cls-1" x="186.87" y="38.67" width="0.11" height="0.72" transform="translate(27.13 143.57) rotate(-44.99)"/><rect class="cls-1" x="186.56" y="38.54" width="0.72" height="0.11" transform="translate(27.45 143.47) rotate(-45)"/><rect class="cls-1" x="187.43" y="38.67" width="0.11" height="0.72" transform="translate(27.3 143.97) rotate(-44.99)"/><rect class="cls-1" x="187.12" y="38.54" width="0.72" height="0.11" transform="translate(27.65 143.92) rotate(-45.02)"/><rect class="cls-1" x="164.93" y="40.45" width="0.11" height="11.12"/><rect class="cls-1" x="169.04" y="40.45" width="0.11" height="11.12"/><path class="cls-1" d="M162.9,41.48a1.41,1.41,0,0,0-1.19.67,1.47,1.47,0,0,0,1.19.68,1.52,1.52,0,0,0,1.21-.68A1.46,1.46,0,0,0,162.9,41.48Zm0,1.23a.56.56,0,1,1,.55-.55A.55.55,0,0,1,162.9,42.71Z"/><path class="cls-1" d="M163.33,42.16a.43.43,0,0,1-.43.42.43.43,0,1,1,0-.85A.43.43,0,0,1,163.33,42.16Z"/><path class="cls-1" d="M162.9,45.35a1.41,1.41,0,0,0-1.19.67,1.47,1.47,0,0,0,1.19.68,1.52,1.52,0,0,0,1.21-.68A1.46,1.46,0,0,0,162.9,45.35Zm0,1.23a.56.56,0,1,1,.55-.55A.55.55,0,0,1,162.9,46.58Z"/><path class="cls-1" d="M163.33,46a.43.43,0,0,1-.43.42.43.43,0,1,1,0-.85A.43.43,0,0,1,163.33,46Z"/><path class="cls-1" d="M162.9,49.05a1.41,1.41,0,0,0-1.19.67,1.47,1.47,0,0,0,1.19.68,1.52,1.52,0,0,0,1.21-.68A1.46,1.46,0,0,0,162.9,49.05Zm0,1.23a.56.56,0,1,1,.55-.56A.55.55,0,0,1,162.9,50.28Z"/><path class="cls-1" d="M163.33,49.72a.43.43,0,0,1-.43.43.43.43,0,1,1,0-.85A.43.43,0,0,1,163.33,49.72Z"/><rect class="cls-1" x="161.07" y="44.11" width="26.18" height="0.11"/><rect class="cls-1" x="161.07" y="47.83" width="26.18" height="0.11"/><path class="cls-1" d="M172.19,43h0a.06.06,0,0,1-.06-.06V41.13a.06.06,0,0,1,.06-.06.07.07,0,0,1,.07.06v1.7h.9a.07.07,0,0,1,.07.07.07.07,0,0,1-.07.06Z"/><path class="cls-1" d="M174.72,41.7v1.2a.07.07,0,0,1-.07.06.06.06,0,0,1-.06-.06v-.2a.64.64,0,1,1-.5-1.06.61.61,0,0,1,.5.26v-.2a.06.06,0,0,1,.06-.06S174.72,41.66,174.72,41.7Zm-.13.6a.5.5,0,1,0-1,0,.5.5,0,1,0,1,0Z"/><path class="cls-1" d="M175.25,41.7s0-.06.07-.06a.06.06,0,0,1,.06.06v.72a.41.41,0,0,0,.82,0V41.7s0,0,0,0h0a0,0,0,0,1,0,0h.07s0,0,0,0a0,0,0,0,1,0,0v1.15a.63.63,0,0,1-.63.63.6.6,0,0,1-.27-.07.06.06,0,0,1,0-.08.07.07,0,0,1,.08,0,.54.54,0,0,0,.22.05.5.5,0,0,0,.5-.5v-.08a.57.57,0,0,1-.41.19.54.54,0,0,1-.54-.54Z"/><path class="cls-1" d="M176.78,42.3a.64.64,0,0,1,.64-.66.65.65,0,0,1,.64.61h0s0,.06-.07.06h-1.08a.52.52,0,0,0,.51.51.5.5,0,0,0,.43-.24.06.06,0,0,1,.08,0,.07.07,0,0,1,0,.09.64.64,0,0,1-1.18-.36Zm.14-.1h1a.51.51,0,0,0-.5-.43A.5.5,0,0,0,176.92,42.2Z"/><path class="cls-1" d="M178.46,41.7a.07.07,0,0,1,.07-.06.06.06,0,0,1,.06.06V42s0,0,0,0a.66.66,0,0,1,.53-.32.06.06,0,0,1,.06.06.07.07,0,0,1-.06.07.47.47,0,0,0-.38.22,1.11,1.11,0,0,0-.16.3,0,0,0,0,0,0,0v.59a.06.06,0,0,1-.06.06.07.07,0,0,1-.07-.06Z"/><path class="cls-1" d="M180.66,41.26l-.26.16h0a.09.09,0,0,1-.05,0s0-.08,0-.09l.37-.22a.05.05,0,0,1,.08,0s0,0,0,0V42.9a.06.06,0,0,1-.06.06.07.07,0,0,1-.07-.06Z"/><path class="cls-1" d="M172.19,46.86h0a.07.07,0,0,1-.06-.07V45a.06.06,0,0,1,.06-.06.07.07,0,0,1,.07.06v1.69h.9a.07.07,0,1,1,0,.14Z"/><path class="cls-1" d="M174.72,45.6v1.19a.07.07,0,0,1-.07.07.07.07,0,0,1-.06-.07V46.6a.67.67,0,1,1,0-.81V45.6a.07.07,0,0,1,.06-.07A.07.07,0,0,1,174.72,45.6Zm-.13.6a.5.5,0,1,0-.5.53A.52.52,0,0,0,174.59,46.2Z"/><path class="cls-1" d="M175.25,45.6a.07.07,0,0,1,.07-.07.07.07,0,0,1,.06.07v.71a.41.41,0,0,0,.82,0V45.6s0,0,0,0h.06l0,0v0a0,0,0,0,1,0,0v1.15a.62.62,0,0,1-.63.62.6.6,0,0,1-.27-.06.07.07,0,0,1,0-.09.07.07,0,0,1,.08,0,.54.54,0,0,0,.22.05.49.49,0,0,0,.5-.49v-.08a.56.56,0,0,1-.41.18.54.54,0,0,1-.54-.54Z"/><path class="cls-1" d="M176.78,46.2a.64.64,0,1,1,1.28-.05h0s0,.06-.07.06h-1.08a.52.52,0,0,0,.51.51.5.5,0,0,0,.43-.24,0,0,0,0,1,.08,0,.07.07,0,0,1,0,.09.64.64,0,0,1-1.18-.36Zm.14-.11h1a.51.51,0,0,0-.5-.43A.51.51,0,0,0,176.92,46.09Z"/><path class="cls-1" d="M178.46,45.6s0-.06.07-.06a.06.06,0,0,1,.06.06v.29l0,0a.63.63,0,0,1,.53-.32.06.06,0,0,1,.06.06.07.07,0,0,1-.06.07.46.46,0,0,0-.38.21,1.3,1.3,0,0,0-.16.31v.6a.07.07,0,0,1-.06.07.07.07,0,0,1-.07-.07Z"/><path class="cls-1" d="M180.35,46.74l.89-.8a.48.48,0,0,0,.16-.36.5.5,0,0,0-.13-.32.46.46,0,0,0-.36-.16.52.52,0,0,0-.33.12l-.09.09a.06.06,0,0,1-.09,0,.06.06,0,0,1,0-.09l.09-.08a.61.61,0,0,1,.42-.16.61.61,0,0,1,.62.61.63.63,0,0,1-.2.46l-.76.68h.89a.07.07,0,1,1,0,.14H180.4l-.05,0A.09.09,0,0,1,180.35,46.74Z"/><path class="cls-1" d="M172.19,50.75h0a.06.06,0,0,1-.06-.06V48.93a.07.07,0,0,1,.06-.07.07.07,0,0,1,.07.07v1.69h.9a.07.07,0,0,1,.07.07.07.07,0,0,1-.07.06Z"/><path class="cls-1" d="M174.72,49.5v1.19a.07.07,0,0,1-.07.06.06.06,0,0,1-.06-.06v-.2a.61.61,0,0,1-.5.26.66.66,0,0,1,0-1.32.61.61,0,0,1,.5.26V49.5a.07.07,0,0,1,.06-.07A.07.07,0,0,1,174.72,49.5Zm-.13.59a.5.5,0,1,0-.5.53A.51.51,0,0,0,174.59,50.09Z"/><path class="cls-1" d="M175.25,49.49a.07.07,0,0,1,.07-.06.06.06,0,0,1,.06.06v.72a.41.41,0,0,0,.82,0v-.72a0,0,0,0,1,0,0h0s0,0,0,0h.07s0,0,0,0,0,0,0,0v1.16a.63.63,0,0,1-.63.62.6.6,0,0,1-.27-.06.07.07,0,0,1,0-.09.07.07,0,0,1,.08,0,.54.54,0,0,0,.22,0,.49.49,0,0,0,.5-.49v-.09a.54.54,0,0,1-.95-.35Z"/><path class="cls-1" d="M176.78,50.1a.64.64,0,1,1,1.28-.05h0a.07.07,0,0,1-.07.06h-1.08a.51.51,0,0,0,.51.5.5.5,0,0,0,.43-.24.07.07,0,0,1,.08,0,.07.07,0,0,1,0,.09.62.62,0,0,1-.54.3A.64.64,0,0,1,176.78,50.1Zm.14-.11h1a.51.51,0,0,0-.5-.43A.51.51,0,0,0,176.92,50Z"/><path class="cls-1" d="M178.46,49.5a.07.07,0,0,1,.07-.07.07.07,0,0,1,.06.07v.29l0,0a.64.64,0,0,1,.53-.33.07.07,0,0,1,.06.07.06.06,0,0,1-.06.06.47.47,0,0,0-.38.22,1.14,1.14,0,0,0-.16.31v.6a.06.06,0,0,1-.06.06s-.07,0-.07-.06Z"/><path class="cls-1" d="M181.5,49l-.49.5a.68.68,0,0,1,.32.18.61.61,0,0,1,.19.45.63.63,0,0,1-.19.46.64.64,0,0,1-.45.18.63.63,0,0,1-.45-.18.07.07,0,0,1,0-.1.06.06,0,0,1,.09,0,.51.51,0,0,0,.72,0,.5.5,0,0,0-.36-.86.05.05,0,0,1,0,0h0a.09.09,0,0,1,0-.1l.47-.48h-.72a.07.07,0,0,1,0-.14h.88a.07.07,0,0,1,.07.07,0,0,0,0,1,0,0Z"/><rect class="cls-9" x="169.43" y="44.42" width="0.85" height="3.21"/><rect class="cls-6" x="169.43" y="48.12" width="0.85" height="3.21"/><rect class="cls-7" x="169.43" y="40.55" width="0.85" height="3.21"/><rect class="cls-1" x="161.07" y="53.33" width="4.97" height="0.11"/><rect class="cls-1" x="166.19" y="41.96" width="1.72" height="1.45"/><path class="cls-1" d="M167.7,42.12h-.2v-.38c0-.42-.15-.63-.44-.63-.47,0-.48.56-.48.58v.43h-.2v-.43a.71.71,0,0,1,.68-.78c.42,0,.64.29.64.83Z"/><path class="cls-1" d="M185,43a.89.89,0,1,1,.88-.88A.89.89,0,0,1,185,43Zm0-1.65a.77.77,0,1,0,.77.77A.76.76,0,0,0,185,41.39Z"/><path class="cls-1" d="M185,46.91a.88.88,0,1,1,0-1.76.88.88,0,0,1,0,1.76Zm0-1.65a.77.77,0,1,0,.77.77A.76.76,0,0,0,185,45.26Z"/><path class="cls-1" d="M185,50.78A.88.88,0,1,1,185,49a.88.88,0,0,1,0,1.76Zm0-1.65a.77.77,0,1,0,.77.77A.76.76,0,0,0,185,49.13Z"/><polygon class="cls-4" points="135.3 154.26 134.08 161.56 125.84 206.09 124.51 206.09 130.5 161.56 131.39 154.26 135.3 154.26"/><polygon class="cls-10" points="131.39 154.26 135.3 154.26 134.08 161.56 130.5 161.56 131.39 154.26"/><polygon class="cls-4" points="161.19 206.09 159.86 206.09 151.62 161.56 150.4 154.26 154.31 154.26 155.19 161.56 161.19 206.09"/><polygon class="cls-10" points="154.31 154.26 155.19 161.56 151.62 161.56 150.4 154.26 154.31 154.26"/><polygon class="cls-4" points="185.92 206.09 184.59 206.09 176.34 161.56 175.13 154.26 179.04 154.26 179.92 161.56 185.92 206.09"/><polygon class="cls-10" points="179.92 161.56 176.34 161.56 175.13 154.26 179.04 154.26 179.92 161.56"/><polygon class="cls-4" points="183.81 157.69 123.4 157.69 123.4 151.33 146.01 151.33 153.61 97.69 181.51 97.69 183.81 157.69"/><polygon class="cls-3" points="180.29 151.33 123.4 151.33 123.4 157.69 180.52 157.69 180.29 151.33"/><polygon class="cls-3" points="183.81 157.69 180.52 157.69 178.37 97.69 181.51 97.69 183.81 157.69"/><path class="cls-11" d="M122.35,214.41c1.17.11,33-7.51,34-8.54a56.48,56.48,0,0,0-1.43-7l0-.07c-.57-2.51-9.87-22.74-9.87-22.74l-20.64,5.78,9.4,18.77s-3.89,2.81-7.22,5.48h0a47.77,47.77,0,0,0-4.21,3.58C121.41,211,121.19,214.31,122.35,214.41Z"/><path class="cls-2" d="M122.36,214.41c1.16.11,33-7.51,34-8.54a56.08,56.08,0,0,0-1.43-7l0-.07c-.21-.93-1.64-4.33-3.35-8.23-3.39.92-15.57,4.22-20,5.59l2.22,4.45s-3.88,2.81-7.21,5.48h0a46,46,0,0,0-4.21,3.58C121.41,211,121.18,214.32,122.36,214.41Z"/><path class="cls-7" d="M122.25,214.57c1.2.1,33.07-7.61,34.1-8.67.39-.4-.32-5.43-2.07-10.76l-20.54,5s-10.48,8.31-11.49,9.6S121.05,214.46,122.25,214.57Z"/><path class="cls-6" d="M122.4,213.18c5.31-1.42,26.86-6.66,32.22-7.66,0,0,0,0,0,0-5.24,1.52-26.83,6.59-32.21,7.72C122.31,213.29,122.29,213.21,122.4,213.18Z"/><path class="cls-6" d="M124,208.1a4.39,4.39,0,0,1,3.51.53,4.24,4.24,0,0,1,1.88,2.56s0,.05-.06,0a5.11,5.11,0,0,0-5.32-3.05A0,0,0,1,1,124,208.1Z"/><path class="cls-6" d="M132.2,201.08a7.66,7.66,0,0,1,6.54,1c.07.06,0,.15-.08.14a30.38,30.38,0,0,0-6.44-.9A.14.14,0,0,1,132.2,201.08Z"/><path class="cls-6" d="M130.7,202.12a7.66,7.66,0,0,1,6.55,1c.06.05,0,.15-.09.13a30.29,30.29,0,0,0-6.43-.9A.14.14,0,0,1,130.7,202.12Z"/><path class="cls-6" d="M129.21,203.16a7.67,7.67,0,0,1,6.54,1c.07.05,0,.15-.08.13a30.38,30.38,0,0,0-6.44-.9A.14.14,0,0,1,129.21,203.16Z"/><path class="cls-6" d="M127.71,204.2a7.69,7.69,0,0,1,6.55,1c.06.06,0,.15-.09.13a30.93,30.93,0,0,0-6.43-.89A.14.14,0,0,1,127.71,204.2Z"/><path class="cls-6" d="M152,200.77c2.4-.57,3.3,3.16.89,3.73S149.63,201.34,152,200.77Z"/><path class="cls-6" d="M129.43,199c1.52,1.21,3.5,1.72,5.28,2.41.18.07.33-.1.34-.27,0,0,.07,0,0-.07a11.44,11.44,0,0,0-3.26-5c-.89-.77-2.47-1.32-3.33-.16S128.55,198.32,129.43,199Zm-.52-1.74c-.35-2.38,2.18-1.1,2.81-.51a12.14,12.14,0,0,1,1.13,1.25,34.88,34.88,0,0,1,2,2.88c-.85-.39-1.73-.7-2.59-1.06C131.2,199.41,129.1,198.59,128.91,197.28Z"/><path class="cls-6" d="M142.37,197.89c-.51-1.36-2.17-1.28-3.25-.79a11.65,11.65,0,0,0-4.53,3.88.05.05,0,0,0,0,.09c0,.16,0,.37.25.35,1.9-.16,3.95-.09,5.74-.83C141.65,200.16,142.84,199.17,142.37,197.89Zm-4.67,2.7c-.93.11-1.86.16-2.79.29a32,32,0,0,1,2.7-2.2,11.75,11.75,0,0,1,1.43-.89c.78-.39,3.57-.91,2.56,1.28C141.05,200.27,138.81,200.47,137.7,200.59Z"/><path class="cls-12" d="M131.47,198.93l22.11-6.63s-18.22-38-17.65-39.91c.38-1.29,27.71-1.38,35.72-8.57,8.29-7.45,1.83-22.07,1.83-22.07l-23-.12s.39,4.8-.48,5.54c-.58.5-32,3.27-38,14.82C106.56,152.47,131.47,198.93,131.47,198.93Z"/><path class="cls-12" d="M135.93,152.39c-.1.32.34,1.69,1.15,3.73l-16.51,20.29C114.68,163,109.14,147.5,112,142c6-11.55,37.42-14.32,38-14.81.87-.75.48-5.55.48-5.55l14.58.08-24.24,29.77C137.94,151.8,136,152.05,135.93,152.39Z"/><path class="cls-9" d="M130.92,194.26a13,13,0,0,1,1.8-.67l1.92-.65c1.26-.4,2.53-.79,3.8-1.15,2.57-.73,5.14-1.44,7.73-2.1,1.35-.34,4.24-1.09,4.42-1.06a.11.11,0,0,1,0,.19c-2.49.89-5,1.66-7.57,2.43s-5.07,1.54-7.64,2.18c-.71.18-1.43.34-2.14.51a16.11,16.11,0,0,1-2.27.49C130.91,194.44,130.84,194.3,130.92,194.26Z"/><path class="cls-9" d="M172.25,126.13c-.07-.77-.16-1.53-.24-2.3,0-.09-.15-.09-.14,0a34,34,0,0,1,0,9.39,13.41,13.41,0,0,1-4.11,7.43c-4.56,4.25-10.93,5.51-16.87,6.52q-5.1.86-10.26,1.36c-1.68.16-3.36.3-5.05.4s-3.34.12-5,.21c-.52,0-1,.28-.91.88a4.06,4.06,0,0,0,.4,1l.54,1.22c.67,1.52,1.34,3,2,4.55q2.1,4.68,4.26,9.33,4.28,9.24,8.88,18.32c.38.76.76,1.51,1.15,2.26,0,.05.09,0,.07-.05q-4.4-9.19-8.69-18.45-2.12-4.59-4.24-9.19c-.7-1.53-1.39-3.07-2.09-4.61l-1-2.31c-.17-.38-.34-.77-.52-1.15s-.66-1.09-.3-1.39.74-.13,1-.14l1.34,0c.84,0,1.69-.06,2.53-.11,1.71-.08,3.42-.2,5.12-.35,3.34-.29,6.67-.71,10-1.24,5.9-.95,12.32-2,17-6a14.24,14.24,0,0,0,4.53-6.61A23.12,23.12,0,0,0,172.25,126.13Z"/><path class="cls-11" d="M73.77,185.3c.83.83,30.22,15.27,31.65,15.11a53.7,53.7,0,0,0,3.33-6.27l0-.07c1.15-2.29,11.61-21.6,11.61-21.6l-18.29-9.26L91.37,182s-4.78-.31-9.05-.38h0a45.07,45.07,0,0,0-5.53.08C75.24,182,72.93,184.48,73.77,185.3Z"/><path class="cls-2" d="M73.77,185.3c.83.83,30.22,15.27,31.65,15.11a53,53,0,0,0,3.33-6.26l0-.08c.08-.15.16-.32.25-.48l.18-.35.28-.52c.79-1.51,2.1-3.95,3.54-6.62L94.4,176.7l-3,5.3s-4.78-.31-9.05-.38h0a46.21,46.21,0,0,0-5.52.09C75.24,182,72.93,184.48,73.77,185.3Z"/><path class="cls-7" d="M73.59,185.35c.86.85,30.32,15.23,31.79,15.07.56-.06,3.22-4.38,5.27-9.6l-19-9.25s-13.38-.28-15,.07S72.73,184.5,73.59,185.35Z"/><path class="cls-6" d="M74.59,184.38c5,2.29,24.94,12,29.71,14.64,0,0,0,0,0,0-5-2.16-24.86-12-29.73-14.59C74.45,184.41,74.49,184.33,74.59,184.38Z"/><path class="cls-6" d="M79.09,181.5a4.41,4.41,0,0,1,2.36,2.65,4.29,4.29,0,0,1-.18,3.18s-.07,0-.06,0a5.12,5.12,0,0,0-2.15-5.74A0,0,0,1,1,79.09,181.5Z"/><path class="cls-6" d="M89.86,181.3a7.67,7.67,0,0,1,4.38,5c0,.08-.11.1-.15.05a30.26,30.26,0,0,0-4.39-4.8A.14.14,0,0,1,89.86,181.3Z"/><path class="cls-6" d="M88,181.15a7.68,7.68,0,0,1,4.38,5c0,.09-.11.11-.15,0a31.06,31.06,0,0,0-4.38-4.79A.14.14,0,0,1,88,181.15Z"/><path class="cls-6" d="M86.22,181a7.68,7.68,0,0,1,4.38,5c0,.09-.1.11-.15.05a30.57,30.57,0,0,0-4.38-4.79A.14.14,0,0,1,86.22,181Z"/><path class="cls-6" d="M84.41,180.85a7.68,7.68,0,0,1,4.38,5c0,.09-.11.11-.15.05a30.19,30.19,0,0,0-4.39-4.79A.14.14,0,0,1,84.41,180.85Z"/><path class="cls-6" d="M105.33,193.72c2.21,1.09.52,4.53-1.69,3.44A1.92,1.92,0,0,1,105.33,193.72Z"/><path class="cls-6" d="M89,178c.39,1.9,1.6,3.56,2.53,5.22a.27.27,0,0,0,.43,0,.06.06,0,0,0,.09,0,11.56,11.56,0,0,0,.67-5.94c-.19-1.16-1.06-2.58-2.46-2.24S88.81,176.85,89,178Zm.71-1.68c1.24-2.06,2.38.54,2.49,1.41a13.41,13.41,0,0,1,.07,1.68,33.83,33.83,0,0,1-.32,3.48c-.41-.85-.88-1.65-1.32-2.48C90.15,179.39,89.06,177.41,89.75,176.28Z"/><path class="cls-6" d="M99.73,185.33c.47-1.36-.87-2.36-2-2.67a11.51,11.51,0,0,0-6,.1c-.05,0-.05.05,0,.08a.28.28,0,0,0,0,.44c1.57,1.08,3.1,2.44,5,3C97.72,186.63,99.28,186.63,99.73,185.33Zm-5.33-.89c-.78-.52-1.53-1.07-2.33-1.55a31.08,31.08,0,0,1,3.48,0,11.9,11.9,0,0,1,1.68.23c.84.19,3.32,1.57,1.16,2.61C97.19,186.33,95.33,185.06,94.4,184.44Z"/><path class="cls-12" d="M91.46,179l22.05,11s17.2-35,19.09-37.24c2.52-3,35.3,1.24,43-8.47,8-10,1.15-22.5,1.15-22.5l-25,0a20.91,20.91,0,0,0,1.37,6.82s-28.54-1.7-36.61,6.15C110.38,140.74,91.46,179,91.46,179Z"/><path class="cls-9" d="M157.74,131.09a42.59,42.59,0,0,0-4-2.43,16,16,0,0,0-3-1.21c-.73-.18-1-.23-.36.09l1.83.87h-.39q-.74,0-1.47-.06c-1,0-1.92,0-2.88,0-1.94,0-3.87.17-5.81.27a0,0,0,1,0,0,.08c1.94-.07,3.88,0,5.82,0,1,0,1.92,0,2.88,0l1.41,0c.39,0,.8,0,1.19,0l.54.25c1.41.67,2.81,1.36,4.17,2.13C157.73,131.17,157.78,131.11,157.74,131.09Z"/><path class="cls-9" d="M151.23,120.82c.26,1.18.47,2.36.77,3.53.14.54.27,1.08.45,1.6s.4,1,.9,1.06.75-.36.72-.84a14.72,14.72,0,0,0-.24-1.6c-.1-.61-.2-1.22-.29-1.83,0-.31-.09-.62-.14-.92,0-.08,0-.66-.08-.83,0,0,0,0,0,0h0l0,0s0-.06,0-.09a0,0,0,0,1,0,0c.11.06.11.21.14.33.09.3.17.59.25.89.14.57.28,1.13.4,1.7s.25,1.13.36,1.7a2.61,2.61,0,0,1,.07,1.3,1,1,0,0,1-.94.72l.06.11c.05.12.08.24.12.36s.08.25.11.37a1.1,1.1,0,0,1,0,.18c0,.07,0,.14,0,.21a.09.09,0,0,1-.18.05,1.53,1.53,0,0,0-.11-.16,1.18,1.18,0,0,1-.07-.2c0-.12-.07-.24-.1-.36s0-.24-.07-.36,0-.14,0-.21a1.29,1.29,0,0,1-.66-.28,2.24,2.24,0,0,1-.66-1.09c-.16-.49-.28-1-.4-1.5a22.19,22.19,0,0,1-.62-3.79A.11.11,0,0,1,151.23,120.82Z"/><path class="cls-9" d="M163.26,124.17c.09.59.14,1.17.25,1.75s.25,1.14.41,1.69a5.79,5.79,0,0,0,.67,1.53,5.59,5.59,0,0,0,1.09,1.19,9.69,9.69,0,0,0,2.69,1.62,15.7,15.7,0,0,0,1.51.5c.27.07.54.12.81.17a1.61,1.61,0,0,1,.65.17.14.14,0,0,1,0,.23,2.36,2.36,0,0,1-1.21,0,8,8,0,0,1-1.29-.27,9.47,9.47,0,0,1-2.42-1.11,7.74,7.74,0,0,1-2-1.75,5.8,5.8,0,0,1-1-2.43,12,12,0,0,1-.25-3.27A.06.06,0,0,1,163.26,124.17Z"/><path class="cls-9" d="M95.93,175a13.24,13.24,0,0,1,1.77.75l1.84.85c1.2.57,2.38,1.16,3.56,1.77,2.36,1.24,4.72,2.49,7.05,3.78,1.22.68,3.83,2.12,3.94,2.26s0,.19-.1.16c-2.43-1.07-4.8-2.25-7.18-3.43s-4.74-2.37-7.06-3.66c-.64-.36-1.27-.73-1.9-1.1a15.53,15.53,0,0,1-2-1.21C95.8,175.08,95.85,174.93,95.93,175Z"/><path class="cls-9" d="M176.76,127.57c0-.11-.17-.1-.17,0,0,5.42-.79,11.48-5,15.37-4.57,4.26-11.17,4.77-17.1,4.72-3.41,0-6.81-.12-10.22,0s-6.88.28-10.28.71a5.64,5.64,0,0,0-3.49,1.67,17.51,17.51,0,0,0-2.31,3.33q-2.58,4.26-5,8.61-4.8,8.66-8.87,17.67c-.34.75-.67,1.49-1,2.24,0,.05.05.09.07,0,2.76-6,5.75-11.95,8.92-17.78q2.37-4.37,4.91-8.65c.8-1.34,1.57-2.71,2.45-4a6.22,6.22,0,0,1,3.12-2.61,12.87,12.87,0,0,1,2.54-.37c.87-.08,1.74-.15,2.62-.21,1.69-.13,3.4-.22,5.1-.28,3.43-.13,6.86-.08,10.3,0,6,.11,12.48-.1,17.43-3.9a14,14,0,0,0,4.59-6.42,25.09,25.09,0,0,0,1.33-8.06C176.78,128.94,176.77,128.25,176.76,127.57Z"/><path class="cls-9" d="M141.05,151.3c-1.22,0-2.43.07-3.65.12a13.91,13.91,0,0,0-3,.27,3.4,3.4,0,0,0-2.41,1.37c-.94,1.28-6.06,11.18-8.21,15.56-.6,1.21-1.19,2.43-1.76,3.65s-1.13,2.56-1.72,3.83c0,.05,0,.08.07,0,.52-1.06,1.11-2.09,1.65-3.14s1.08-2.11,1.6-3.16l3.21-6.41c1.07-2.11,2.36-4.17,3.44-6.28.91-1.77,2.15-4.19,3-4.55a14.52,14.52,0,0,1,3.77-.91c1.34-.09,2.68-.18,4-.29C141.11,151.39,141.11,151.3,141.05,151.3Z"/><path class="cls-6" d="M167.87,87.9c1.14,4.53,3.28,9.76,2.23,14.48-.82,3.7-3.55,6.64-6.55,8.78-6.61,4.71-16.69,7.22-23.27,1-2.62-2.46-4.2-8.39-1.28-11.28,1.5-1.48,3.5-2.16,5.35-3.1a8.54,8.54,0,0,0,4.71-5.7c1.37-5.16.2-8.49-.4-13.65a3.65,3.65,0,0,1,.69-2.91A9.77,9.77,0,0,1,155,72.14c2.29-.22,4.87,1.4,6.87,2.33a6.07,6.07,0,0,1,3.7,4.32C166.37,81.82,167.1,84.87,167.87,87.9Z"/><path class="cls-6" d="M168.87,89.94c-1.31-4.08-2.71-8.13-4.08-12.19,0,0,0,0,0,0,1,3.37,2,6.76,3.09,10.12s2.36,6.61,3.12,10c1.71,7.58-5.48,12.28-12,13.23-.3,0-.19.52.11.46,5.71-1,12.1-4.36,12.55-10.89C171.84,97.09,170,93.27,168.87,89.94Z"/><path class="cls-6" d="M149,78a.07.07,0,0,0-.13,0c.67,4.22,1.85,9.07.21,13.21a10.84,10.84,0,0,1-4,5,26.14,26.14,0,0,1-4.67,2c-6.16,2.58-4.44,11.26.92,13.68.11,0,.21-.14.1-.2-3.83-1.94-5.89-6.47-3.93-10.51C139,98,143.32,98,145.94,95.92,151.36,91.54,150.32,84.05,149,78Z"/><path class="cls-11" d="M160.31,95.08c-2.83,6.11-12.49,20.29-17.14,20.93-4.12.57-14.32-1.79-17.75-3.68-1.58-.87,2.39-12.57,5-12,3.32.69,7.8,2.33,10.87,2.52,1.09.06,6.32-3.68,15.54-9.75C160.3,90.83,161.91,91.64,160.31,95.08Z"/><path class="cls-11" d="M125.13,101.77s-8.2-1.27-8.62-1.19-.34.69-.28,1.16a3.91,3.91,0,0,0,.35.79c.62,1.22,1.66,3.39,0,3.89-2.18.64-4.52-4.24-4.77-5.06a2.69,2.69,0,0,1,.06-1.13c.3-1.34,1.23-3.29,2.81-3.79,2.16-.69,4.64-.39,6.8-.29Z"/><path class="cls-6" d="M125.13,101.77s-8.2-1.27-8.62-1.19-.34.69-.28,1.16a3.91,3.91,0,0,0,.35.79l-4.7-2.3c.3-1.34,1.23-3.29,2.81-3.79,2.16-.69,4.64-.39,6.8-.29Z"/><path class="cls-11" d="M125.42,112.33c-.43-.23-2.64-.88-5.62-1.91-.8-2.31-2.93-6.7-3.49-7.87a15.38,15.38,0,0,0-2.18-4.12c-.25.12-1.1.53-2.18.95a12.35,12.35,0,0,1-4.52,1,1.65,1.65,0,0,1-1.51-.81c-.47-1,1.58-2.06,3.88-3.58,3.14-2.07,7.1-4.45,9-3.88,2.86.85,5.69,4.36,6.66,5.3a31.19,31.19,0,0,0,5,2.87C129.64,104.62,126,112.63,125.42,112.33Z"/><path class="cls-6" d="M116,101.68c0-.06-.07,0,0,0,.08.22.43,1.24.21,1.35-.38.19-2.68-1-3.73-1.4-.06,0-.09,0,0,.07a14.59,14.59,0,0,1,1.54.74c.49.24,1.91,1.08,2.39.84C116.65,103.16,116.13,101.9,116,101.68Z"/><path class="cls-6" d="M104.75,107.19c-.29.28-.6.5-.73.37h0c-.12-.14.11-.45.4-.72Z"/><path class="cls-8" d="M108,106.8a9.59,9.59,0,0,1-3.37.48.42.42,0,0,1-.35-.35,9.56,9.56,0,0,1,.57-3.36c.2-.2,1.13-.69,2-1.26,1.19-.73,14-12.58,14.19-12.64s.59.26.78.46.5.59.44.8-12.23,12.69-13,13.86C108.74,105.68,108.23,106.6,108,106.8Z"/><path class="cls-10" d="M108,106.8a.23.23,0,0,1-.11.07,10.92,10.92,0,0,1-1.94-1.55,6.84,6.84,0,0,1-1.19-1.6.27.27,0,0,1,.09-.15l.14-.12a8.22,8.22,0,0,0,3.14,3.19A.86.86,0,0,1,108,106.8Z"/><rect class="cls-6" x="109.41" y="99.01" width="0.93" height="5.7" rx="0.34" transform="translate(106.13 -47.92) rotate(45.74)"/><rect class="cls-10" x="109.04" y="100.59" width="0.54" height="3.62" rx="0.2" transform="translate(106.32 -47.35) rotate(45.73)"/><rect class="cls-6" x="108.84" y="102.51" width="0.16" height="0.54" transform="translate(-40.81 105.19) rotate(-44.26)"/><path class="cls-11" d="M119.8,110.42c-1-.35-1.93-.65-2.55-.84a7.72,7.72,0,0,1-4.58-3.38c-1-1.44-6-3-3.55-4.5s6.8,2.19,7.23,1.55a1,1,0,0,0,0-.7C116.87,103.72,119,108.11,119.8,110.42Z"/><path class="cls-7" d="M146.29,98.76l10.13,4.07A81.26,81.26,0,0,0,161,95.65c1.88-3.59,1-5.13-3.65-3.34C154.29,93.52,146.29,98.76,146.29,98.76Z"/><path class="cls-7" d="M155.18,102.33c.12,0,1.17.41,1.24.46.36-.53.72-1.07,1.09-1.6.18-.27.37-.53.57-.79s.43-.62.62-.87c0,0,.08,0,.06,0-.21.35-.38.6-.57.91s-.33.54-.51.8c-.38.56-.75,1.17-1.15,1.71a11.34,11.34,0,0,1-1.37-.62A0,0,0,0,1,155.18,102.33Z"/><path class="cls-7" d="M147.7,98.22c1.51.48,3,1,4.5,1.57.74.29,1.48.59,2.21.9s1.43.69,2.17,1c0,0,0,.08,0,.07-.72-.34-1.49-.58-2.22-.88l-2.22-.88c-1.47-.58-3-1.17-4.44-1.71A0,0,0,0,1,147.7,98.22Z"/><path class="cls-7" d="M149.67,122.91l28.78,2.33s-7.36-25.11-13.3-31.45c-2.7-2.89-5.34-2.45-7.57-.59-.56.46-7.48,9.24-8.07,12.3-.51,2.71,1.69,5.71,1.69,5.71Z"/><path class="cls-6" d="M153.93,97.85c-.87,1.39-1.81,2.72-2.68,4.09a20.24,20.24,0,0,0-1.22,2.11,5.36,5.36,0,0,0-.59,2.33,4.23,4.23,0,0,1,0-1.23,6,6,0,0,1,.37-1.18,16,16,0,0,1,1.18-2.16c.42-.63.84-1.26,1.28-1.86.08-.22.16-.43.25-.64a6.19,6.19,0,0,1,.45-.89,6.62,6.62,0,0,1-.34.94l-.11.26C153,99,153.46,98.43,153.93,97.85Z"/><path class="cls-2" d="M172.72,108.41a19.36,19.36,0,0,1-3.51,1.11,3.49,3.49,0,0,1-1.07,0,1.71,1.71,0,0,1-1-.43,3.46,3.46,0,0,1-.83-1.95,23.6,23.6,0,0,1-.2-2.5c0-.05,0-.09,0-.13,0-.54-.05-1.09-.11-1.63a11.21,11.21,0,0,0-.38-2.08,5.05,5.05,0,0,0-.95-1.86,3.76,3.76,0,0,0-1.69-1.2,5.84,5.84,0,0,0-2.08-.27,19.06,19.06,0,0,0-2.9.39l-.1,0-1.2.26c-1.14.24-2.28.49-3.45.62l.07-.1c1.13-.13,2.25-.38,3.37-.62l1.24-.26.1,0a16.24,16.24,0,0,1,2.87-.39,5.86,5.86,0,0,1,2.12.26,4,4,0,0,1,1.75,1.23,5.29,5.29,0,0,1,1,1.91,10.91,10.91,0,0,1,.38,2.1c0,.51.08,1,.1,1.54a.53.53,0,0,1,0,.12,24.66,24.66,0,0,0,.2,2.59,3.29,3.29,0,0,0,.8,1.9,2.24,2.24,0,0,0,2,.37,18.81,18.81,0,0,0,3.49-1.09Zm-17.06,12.3a3.31,3.31,0,0,0-1.86-1,1.59,1.59,0,0,0-1,.27,4.22,4.22,0,0,0-.82.7,15.15,15.15,0,0,0-1.62,2.3h.09a15.53,15.53,0,0,1,1.6-2.25,2.26,2.26,0,0,1,1.78-.94,3.31,3.31,0,0,1,1.8,1c.93.87,1.72,1.88,2.59,2.82h.16C157.44,122.66,156.63,121.61,155.66,120.71Zm20.06-4-.3,0a6.8,6.8,0,0,0-3.76,1.91,27.56,27.56,0,0,0-2.87,3.15c-.72.86-1.42,1.72-2.2,2.5h.13c.77-.77,1.45-1.61,2.14-2.45a28.33,28.33,0,0,1,2.85-3.14,6.82,6.82,0,0,1,3.71-1.91l.33,0Zm-5.63-14.55a7,7,0,0,0-3.53,2l-.34.33-.1.1c-.85.88-1.6,1.84-2.36,2.78a32.17,32.17,0,0,1-2.13,2.54.76.76,0,0,1-.09.09c-.18.19-.38.38-.58.56a6,6,0,0,1-1.77,1.13,4,4,0,0,1-2.07.16,5.39,5.39,0,0,1-1.92-.84,10.92,10.92,0,0,1-1.62-1.36c-1-1-1.89-2.11-3-3.06a4.57,4.57,0,0,0-1.15-.78s0,.07,0,.1a4.76,4.76,0,0,1,1.1.75c1.05.95,1.93,2.07,2.94,3.07a11.41,11.41,0,0,0,1.64,1.38,5.18,5.18,0,0,0,2,.85,3.94,3.94,0,0,0,2.12-.17,5.76,5.76,0,0,0,1.8-1.15c.22-.2.44-.41.64-.62l.09-.09c.75-.79,1.41-1.65,2.08-2.5a33.11,33.11,0,0,1,2.29-2.71l.1-.11.4-.39a7,7,0,0,1,3.49-2ZM167,111.59a3.36,3.36,0,0,0-1.84-1c-1.13-.31-2.3-.44-3.44-.65l-.13,0-.62-.13a11,11,0,0,1-2-.61,5.23,5.23,0,0,1-1.74-1.15,3.89,3.89,0,0,1-1-1.82,5.7,5.7,0,0,1,0-2.1,24.58,24.58,0,0,1,1.13-4.09c.23-.68.46-1.37.66-2.07l0-.1a18.09,18.09,0,0,0,.47-1.93,7.91,7.91,0,0,0,0-3.32l-.08,0a7.58,7.58,0,0,1,0,3.25,18.85,18.85,0,0,1-.48,2l0,.1c-.2.68-.43,1.35-.65,2a25,25,0,0,0-1.15,4.11,5.87,5.87,0,0,0,0,2.13,4.13,4.13,0,0,0,1,1.88,5.29,5.29,0,0,0,1.79,1.17,11.24,11.24,0,0,0,2.05.61c.18,0,.37.08.55.12l.13,0c1.17.22,2.36.35,3.5.65a3.37,3.37,0,0,1,1.8,1,2.25,2.25,0,0,1,.14,2,23.51,23.51,0,0,1-1.74,3.87,26.08,26.08,0,0,0-1.74,3.89,6.84,6.84,0,0,0-.34,2.1,2.94,2.94,0,0,0,.05.51h.07a2.22,2.22,0,0,1-.06-.51,6.4,6.4,0,0,1,.35-2.08,25.42,25.42,0,0,1,1.74-3.88,23.79,23.79,0,0,0,1.76-3.88,4.19,4.19,0,0,0,.17-1.06A1.64,1.64,0,0,0,167,111.59Z"/><path class="cls-6" d="M158.92,110.6a21.73,21.73,0,0,0-3.33.35c-.55.1-1.09.23-1.62.38l-.81.19a3.56,3.56,0,0,1-.86.11,0,0,0,1,0,0,0,5.62,5.62,0,0,0,.82,0,5.33,5.33,0,0,0,.79-.1c.55-.1,1.1-.23,1.65-.34,1.12-.21,2.24-.43,3.37-.57C159,110.69,159,110.6,158.92,110.6Z"/><path class="cls-6" d="M161.61,111.75a23.12,23.12,0,0,0-2.75-.3c-.46,0-.92,0-1.38,0l-.66,0c-.24,0-.48.06-.73.08,0,0,0,0,0,0,.23,0,.46,0,.69,0l.69,0,1.38,0c.92,0,1.84.06,2.76.11C161.65,111.83,161.66,111.75,161.61,111.75Z"/><path class="cls-11" d="M161.38,92.47c0,.52-1.36,4.36-3.61,4.91-.74.18-1.89-3.78-1.89-3.78l-.15-.28L153.6,89.5,157.5,85l.58-.62s.51,1.09,1.13,2.45l.09.19a2.26,2.26,0,0,1,.11.22l.28.61c.07.16.14.31.21.48s.14.33.22.5A27.58,27.58,0,0,1,161.38,92.47Z"/><path class="cls-6" d="M159.21,86.82a8.79,8.79,0,0,1-3.48,6.5L153.6,89.5,157.5,85l.58-.62S158.59,85.46,159.21,86.82Z"/><path class="cls-11" d="M146.41,83.71c.25,7.68,4.87,8.4,6.53,8.35,1.5,0,6.62-.42,7.16-8.08s-3.1-10-6.54-10S146.16,76,146.41,83.71Z"/><path class="cls-6" d="M147.45,82.35c.18,0,.34-.09.51-.13a.9.9,0,0,0,.5-.24.29.29,0,0,0,0-.34.69.69,0,0,0-.68-.12,1,1,0,0,0-.6.39A.29.29,0,0,0,147.45,82.35Z"/><path class="cls-6" d="M152.71,82.05a4.85,4.85,0,0,1-.53-.08.78.78,0,0,1-.51-.19.26.26,0,0,1,0-.33.69.69,0,0,1,.66-.19,1,1,0,0,1,.64.31A.29.29,0,0,1,152.71,82.05Z"/><path class="cls-6" d="M151.6,84s0,0,0,0c0,.53.08,1.13.56,1.29a0,0,0,1,1,0,0C151.62,85.29,151.51,84.5,151.6,84Z"/><path class="cls-6" d="M152.05,83.44c.83-.09.95,1.59.18,1.68S151.34,83.51,152.05,83.44Z"/><path class="cls-6" d="M152.38,83.5c.16.09.31.25.49.25s.35-.18.47-.36c0,0,0,0,0,0,0,.32-.07.66-.41.73s-.56-.2-.67-.52C152.27,83.56,152.32,83.47,152.38,83.5Z"/><path class="cls-6" d="M148.69,84.09s0,0,0,0c.06.52,0,1.13-.42,1.34,0,0,0,0,0,0C148.8,85.38,148.82,84.58,148.69,84.09Z"/><path class="cls-6" d="M148.18,83.58c-.85,0-.78,1.69,0,1.69S148.89,83.58,148.18,83.58Z"/><path class="cls-6" d="M147.83,83.71c-.13.09-.25.26-.41.28s-.33-.16-.46-.33c0,0,0,0,0,0,0,.32.12.65.43.7s.49-.24.55-.56C147.93,83.76,147.88,83.67,147.83,83.71Z"/><path class="cls-6" d="M152,88.28c-.11.14-.22.32-.41.35a1.39,1.39,0,0,1-.57-.06s0,0,0,0a.71.71,0,0,0,.69.2.54.54,0,0,0,.36-.5S152,88.26,152,88.28Z"/><path class="cls-6" d="M149.89,87.55a2.1,2.1,0,0,0,.85.66,1,1,0,0,0,.58,0c.42-.11.43-.5.36-.83a2.24,2.24,0,0,0-.19-.51A2.76,2.76,0,0,1,149.89,87.55Z"/><path class="cls-13" d="M150.74,88.21a1,1,0,0,0,.58,0c.42-.11.43-.5.36-.83A1,1,0,0,0,150.74,88.21Z"/><path class="cls-6" d="M149.66,86.52s-.06.79,0,1.15c0,0,.09,0,.22,0h0a1.76,1.76,0,0,0,1.66-.75,0,0,0,0,0,0,0,2.67,2.67,0,0,1-1.57.55c0-.1.15-1.34.09-1.35a3.79,3.79,0,0,0-.83.24c.09-1.64.43-3.25.49-4.89a.05.05,0,0,0-.1,0,26.15,26.15,0,0,0-.74,5.25C148.78,86.91,149.52,86.59,149.66,86.52Z"/><path class="cls-6" d="M159.55,84.59c-.83,0-3-2.36-3.05-6.39a29.45,29.45,0,0,0,.56,4.15c.28.53-1.21-1.3-1.29-4.55a13.37,13.37,0,0,1-3.35,1.72,5.14,5.14,0,0,1-2.59.29c-.1-.11,2.16-.81,2.77-1.52,0,0-4.09,1.89-6,2-.21,0-.46-4.47,2.46-6.36s7.53.18,8.76,1.38c0,0,1.46.21,3,2.38S160.45,84.65,159.55,84.59Z"/><path class="cls-12" d="M152.61,86.5a2.43,2.43,0,0,1-2.21-2.61h0a2.41,2.41,0,1,1,2.8,2.58A2.88,2.88,0,0,1,152.61,86.5Zm-1.89-2.58A2.09,2.09,0,1,0,153,82a2.24,2.24,0,0,0-.52,0A2.11,2.11,0,0,0,150.72,83.92Z"/><path class="cls-12" d="M147.52,86.73c-1,0-1.85-1-1.91-2.32A3,3,0,0,1,146,82.7a1.63,1.63,0,0,1,1.25-.79,1.6,1.6,0,0,1,1.32.66,2.9,2.9,0,0,1,.59,1.66,2.23,2.23,0,0,1-1.51,2.48Zm-1.22-3.85a2.52,2.52,0,0,0-.37,1.51c.06,1.15.76,2.06,1.57,2s1.43-1,1.37-2.16a2.53,2.53,0,0,0-.52-1.47,1.27,1.27,0,0,0-1-.54h-.12A1.29,1.29,0,0,0,146.3,82.88Z"/><path class="cls-12" d="M150.5,84.17l.19-.26a1.31,1.31,0,0,0-1.8,0l.25.21C149.63,83.53,150.46,84.14,150.5,84.17Z"/><path class="cls-12" d="M161.26,84.26l.28-.16c-.08-.13-.76-1.27-1.49-1.35s-5,.54-5.15.56l0,.32c1.24-.18,4.56-.62,5.08-.56S161.08,84,161.26,84.26Z"/><path class="cls-11" d="M160.21,86.81a1.37,1.37,0,0,1-.35.13,1.12,1.12,0,0,1-.35.06,1.25,1.25,0,0,1-.46-.09,1.42,1.42,0,0,1-.32-.19,1.81,1.81,0,0,1-.34-.39l.18-2.09s1.39-2.58,2.53-2.12S161.42,86.19,160.21,86.81Z"/><path class="cls-6" d="M160.84,83.15s0,0,0,0a3.26,3.26,0,0,0-1.44,2.24.71.71,0,0,1,1-.32s0,.05,0,.05a.81.81,0,0,0-.84.38,4,4,0,0,0-.33.76c0,.08-.18.06-.16,0v0C158.94,85.1,159.64,83.41,160.84,83.15Z"/><path class="cls-2" d="M160.06,86.5a.35.35,0,0,1-.38.33.36.36,0,0,1-.33-.38.36.36,0,0,1,.39-.33A.35.35,0,0,1,160.06,86.5Z"/><path class="cls-2" d="M160.73,85.88a.26.26,0,0,1-.28.23.25.25,0,1,1,.28-.23Z"/><path class="cls-11" d="M166.47,95.16c5.24,8.11,12.12,21.68,8.37,24.28-6.16,4.28-23.27,5.65-27.18,5.8-1.69.07-4.16-11.14-2.93-12.46s19.17-.88,19.38-2c.13-.61-.9-6.06-2.1-12.83C160.61,90.16,165,92.84,166.47,95.16Z"/><path class="cls-11" d="M147.73,112.12s-5.12-.46-8.48-.6a20.62,20.62,0,0,0-6.51.66c-2.1.85-10.34,5.78-9.19,7.81,1,1.83,7.58-3.31,7.58-3.31s-7,4.6-5.39,6.57,8.28-4.8,8.28-4.8-7.15,4.88-5.11,6.65c1.54,1.33,7.88-4.48,7.88-4.48s-6.12,4.25-4.59,5.69c1.68,1.59,7.87-3.41,7.87-3.41,4.48,3,7.85,2.61,10.21,2C150.85,124.8,147.73,112.12,147.73,112.12Z"/><path class="cls-6" d="M133.47,114.94c-.85.51-1.71,1-2.51,1.6s-1.58,1.2-2.32,1.85a17.16,17.16,0,0,0-2.65,2.83,36.22,36.22,0,0,1,5.14-4.46c.8-.59,1.57-1.21,2.37-1.79A0,0,0,1,0,133.47,114.94Z"/><path class="cls-6" d="M135.63,117.79c-1,.7-2.13,1.35-3.15,2.1s-1.92,1.53-2.89,2.34c-.07.06,0,.08.06,0,1-.77,2-1.4,3-2.16s2-1.56,3-2.28C135.67,117.8,135.65,117.78,135.63,117.79Z"/><path class="cls-6" d="M137.93,119.9a28.81,28.81,0,0,0-4.58,3.58c-.07.06,0,.08.08,0,1.5-1.22,2.67-2.19,4.53-3.54C138,119.94,138,119.88,137.93,119.9Z"/><path class="cls-6" d="M148.71,112c-1.19-.11-2.49,0-3.71-.09-1.07,0-2.07-.19-3.11-.26a39.77,39.77,0,0,0-7.4,0c-1.54.25-3.44,1.5-4.53,2,0,0,0,.09,0,.07,2-.73,3.25-1.6,5.09-1.86,2.12-.3,7.63.11,9.75.23,1.25.07,2.62,0,3.86,0C148.76,112,148.77,112,148.71,112Z"/><path class="cls-7" d="M173.16,105.45l-10.87-.93a82.4,82.4,0,0,1-.9-8.48c-.06-4.06,1.43-5,4.76-1.34C168.38,97.17,173.16,105.45,173.16,105.45Z"/><path class="cls-6" d="M163.61,104.64a12.23,12.23,0,0,0-1.31-.15c-.08-.64-.16-1.28-.25-1.92,0-.32-.1-.64-.15-1s-.11-.75-.17-1.06c0,0-.07,0-.06,0,0,.41.06.71.09,1.07s.06.63.1.94c.08.67.14,1.39.26,2.05a11.49,11.49,0,0,0,1.49.06S163.63,104.64,163.61,104.64Z"/><path class="cls-6" d="M172.15,104.33c-1.57-.25-3.15-.47-4.73-.62-.79-.08-1.59-.14-2.38-.19s-1.59,0-2.38-.09c0,0,0,.07,0,.07.79,0,1.59.15,2.37.21l2.38.21c1.58.15,3.16.29,4.74.48C172.19,104.4,172.19,104.34,172.15,104.33Z"/><rect class="cls-7" x="41.12" y="123.87" width="158.5" height="5.64"/><rect class="cls-14" x="46.79" y="129.51" width="147.15" height="5.63"/><polygon class="cls-7" points="46.81 214.23 44.53 214.23 51.16 135.14 56.97 135.14 46.81 214.23"/><polygon class="cls-14" points="56.97 135.14 56.29 140.44 50.72 140.44 51.16 135.14 56.97 135.14"/><polygon class="cls-7" points="193.93 214.23 196.21 214.23 189.58 135.14 183.77 135.14 193.93 214.23"/><polygon class="cls-14" points="183.77 135.14 184.45 140.44 190.02 140.44 189.58 135.14 183.77 135.14"/><polygon class="cls-6" points="80.98 123.87 113.67 123.87 105.73 102.05 73.04 102.05 80.98 123.87"/><polygon class="cls-8" points="79.82 123.87 112.52 123.87 104.58 102.05 71.88 102.05 79.82 123.87"/><polygon class="cls-6" points="71.88 102.05 79.82 123.87 93.05 123.87 74.94 102.05 71.88 102.05"/><polygon class="cls-9" points="74 123.87 77.98 123.87 81.55 117.68 77.57 117.68 74 123.87"/><polygon class="cls-8" points="81.55 117.68 81.55 123.87 77.98 123.87 81.55 117.68"/><polygon class="cls-9" points="96.32 123.87 100.3 123.87 103.87 117.68 99.89 117.68 96.32 123.87"/><polygon class="cls-6" points="103.87 117.68 103.87 123.87 100.3 123.87 103.87 117.68"/><rect class="cls-4" x="127.15" y="122.68" width="26.43" height="1.19"/><rect class="cls-10" x="127.15" y="122.68" width="13.3" height="1.19"/><polygon class="cls-4" points="139.02 123.87 113.27 123.87 109.9 106.38 135.65 106.38 139.02 123.87"/><path class="cls-10" d="M126,115.12a1.42,1.42,0,0,1-1.43,1.57,1.75,1.75,0,0,1-1.71-1.57,1.42,1.42,0,0,1,1.43-1.57A1.76,1.76,0,0,1,126,115.12Z"/><path class="cls-1" d="M148.43,41.13l-15.1,15a2.62,2.62,0,0,1-3.69-3.72l15.1-15Z"/><polygon class="cls-4" points="148.43 41.13 144.14 45.39 141.28 40.83 144.74 37.4 148.43 41.13"/><path class="cls-1" d="M128.64,57.08h0a.65.65,0,0,1,0-.93l3.42-3.4.93.94-3.41,3.4A.66.66,0,0,1,128.64,57.08Z"/><path class="cls-1" d="M133,53.69l-3.42,3.4a.66.66,0,0,1-.94,0,.68.68,0,0,1,0-1l.58-.57,2.84-2.82Z"/><rect class="cls-7" x="141.55" y="38.55" width="7.84" height="3.7" transform="translate(71.63 -91.29) rotate(45.2)"/><path class="cls-7" d="M147.13,42.42l-3.69-3.72,3.12-3.1a2.62,2.62,0,0,1,3.7,0h0a2.62,2.62,0,0,1,0,3.71Z"/><path class="cls-7" d="M138.94,50.55l-5.61,5.57a2.59,2.59,0,0,1-3.17.39l-.58.58a.66.66,0,0,1-.94,0,.68.68,0,0,1,0-1l.58-.57a2.6,2.6,0,0,1,.42-3.17l1.89-1.88Z"/><polygon class="cls-3" points="206.37 120.19 186.68 120.19 186.68 94.92 201.3 94.92 206.37 99.73 206.37 120.19"/><rect class="cls-1" x="186.68" y="112.8" width="19.69" height="7.4"/><polygon class="cls-7" points="186.68 112.8 192.91 106.83 198.56 112.8 186.68 112.8"/><polygon class="cls-7" points="194.68 112.8 202.08 103.45 206.37 108.88 206.37 112.8 194.68 112.8"/><path class="cls-2" d="M193.13,102.89a2.21,2.21,0,1,1-2.21-2.2A2.21,2.21,0,0,1,193.13,102.89Z"/><polygon class="cls-1" points="201.3 94.92 206.37 99.73 201.3 99.73 201.3 94.92"/><path class="cls-10" d="M191.25,117.32a.12.12,0,0,1,.17.08,1.09,1.09,0,0,0,1,.74,1.06,1.06,0,0,0,1.07-1.06V114.6a.14.14,0,0,1,.13-.14.14.14,0,0,1,.14.14v2.48a1.34,1.34,0,0,1-2.62.41A.14.14,0,0,1,191.25,117.32Z"/><path class="cls-10" d="M194.85,114.6a.14.14,0,0,1,.13-.14h1.12a1.13,1.13,0,0,1,0,2.26h-1v1.55a.14.14,0,0,1-.14.14.14.14,0,0,1-.13-.14Zm1.25,1.85a.86.86,0,0,0,0-1.71h-1v1.71Z"/><path class="cls-10" d="M200,116.64a.14.14,0,0,1,0-.28h1.24a.14.14,0,0,1,.12.14v1.38a.12.12,0,0,1-.05.1,2,2,0,0,1-1.27.44,2,2,0,1,1,0-4,2.11,2.11,0,0,1,1.28.44.15.15,0,0,1,0,.2.16.16,0,0,1-.2,0,1.73,1.73,0,0,0-1.1-.39,1.73,1.73,0,1,0,0,3.46,1.73,1.73,0,0,0,1-.34v-1.16Z"/><polygon class="cls-1" points="205.46 83.64 204.75 83.64 204.75 83.17 204.99 83.17 204.99 82.93 205.46 82.93 205.46 83.64"/><path class="cls-1" d="M203.8,83.64h-1v-.47h1Zm-1.91,0h-.95v-.47h.95Zm-1.9,0h-1v-.47h1Zm-1.91,0h-1v-.47h1Zm-1.9,0h-1v-.47h1Zm-1.91,0h-1v-.47h1Zm-1.9,0h-1v-.47h1Zm-1.9,0h-1v-.47h1Zm-1.91,0h-.95v-.47h.95Zm-1.9,0h-1v-.47h1Zm-1.91,0h-.95v-.47h.95Zm-1.9,0h-.95v-.47h.95Zm-1.91,0H180v-.47h.95Z"/><polygon class="cls-1" points="179.04 83.64 178.33 83.64 178.33 82.93 178.8 82.93 178.8 83.17 179.04 83.17 179.04 83.64"/><path class="cls-1" d="M178.8,82h-.47V81h.47Zm0-1.9h-.47v-1h.47Zm0-1.91h-.47v-1h.47Zm0-1.9h-.47v-1h.47Zm0-1.91h-.47v-1h.47Zm0-1.9h-.47v-.95h.47Zm0-1.91h-.47v-1h.47Zm0-1.9h-.47v-1h.47Zm0-1.91h-.47v-.95h.47Zm0-1.9h-.47v-1h.47Zm0-1.9h-.47V62h.47Zm0-1.91h-.47v-1h.47Zm0-1.9h-.47v-1h.47Z"/><polygon class="cls-1" points="178.8 57.22 178.33 57.22 178.33 56.52 179.04 56.52 179.04 56.99 178.8 56.99 178.8 57.22"/><path class="cls-1" d="M203.8,57h-1v-.47h1Zm-1.91,0h-.95v-.47h.95ZM200,57h-1v-.47h1Zm-1.91,0h-1v-.47h1Zm-1.9,0h-1v-.47h1Zm-1.91,0h-1v-.47h1Zm-1.9,0h-1v-.47h1Zm-1.9,0h-1v-.47h1Zm-1.91,0h-.95v-.47h.95Zm-1.9,0h-1v-.47h1Zm-1.91,0h-.95v-.47h.95Zm-1.9,0h-.95v-.47h.95Zm-1.91,0H180v-.47h.95Z"/><polygon class="cls-1" points="205.46 57.22 204.99 57.22 204.99 56.99 204.75 56.99 204.75 56.52 205.46 56.52 205.46 57.22"/><path class="cls-1" d="M205.46,82H205V81h.48Zm0-1.9H205v-1h.48Zm0-1.91H205v-1h.48Zm0-1.9H205v-1h.48Zm0-1.91H205v-1h.48Zm0-1.9H205v-.95h.48Zm0-1.91H205v-1h.48Zm0-1.9H205v-1h.48Zm0-1.91H205v-.95h.48Zm0-1.9H205v-1h.48Zm0-1.9H205V62h.48Zm0-1.91H205v-1h.48Zm0-1.9H205v-1h.48Z"/><rect class="cls-2" x="176.91" y="81.74" width="3.32" height="3.32"/><path class="cls-1" d="M180.46,85.3h-3.79V81.51h3.79Zm-3.32-.47H180V82h-2.85Z"/><rect class="cls-2" x="176.91" y="68.42" width="3.32" height="3.32"/><path class="cls-1" d="M180.46,72h-3.79V68.18h3.79Zm-3.32-.47H180V68.65h-2.85Z"/><rect class="cls-2" x="176.91" y="55.09" width="3.32" height="3.32"/><path class="cls-1" d="M180.46,58.65h-3.79V54.86h3.79Zm-3.32-.47H180V55.33h-2.85Z"/><rect class="cls-2" x="203.56" y="81.74" width="3.32" height="3.32"/><path class="cls-1" d="M207.12,85.3h-3.8V81.51h3.8Zm-3.33-.47h2.86V82h-2.86Z"/><rect class="cls-2" x="203.56" y="68.42" width="3.32" height="3.32"/><path class="cls-1" d="M207.12,72h-3.8V68.18h3.8Zm-3.33-.47h2.86V68.65h-2.86Z"/><rect class="cls-2" x="203.56" y="55.09" width="3.32" height="3.32"/><path class="cls-1" d="M207.12,58.65h-3.8V54.86h3.8Zm-3.33-.47h2.86V55.33h-2.86Z"/><rect class="cls-2" x="190.23" y="55.09" width="3.32" height="3.32"/><path class="cls-1" d="M193.79,58.65H190V54.86h3.79Zm-3.32-.47h2.85V55.33h-2.85Z"/><rect class="cls-2" x="190.23" y="81.74" width="3.32" height="3.32"/><path class="cls-1" d="M193.79,85.3H190V81.51h3.79Zm-3.32-.47h2.85V82h-2.85Z"/><path class="cls-3" d="M192.22,73.25H186.9l-2.07,5.8h2v.51h-4.1v-.51H184l6.85-18.45h2.2l6.77,18.45h1.23v.51h-8.78v-.51h1.91Zm-5.08-.59H192l-2.34-7Z"/><path class="cls-1" d="M51.64,106.82A26,26,0,0,1,48.2,118H43.47A26,26,0,0,1,40,106.82c4.85-2.71,5-8.78,5-8.78h.49v9.61a1.48,1.48,0,1,0,.68,0V98h.48S46.79,104.11,51.64,106.82Z"/><rect class="cls-4" x="42.35" y="117.42" width="6.98" height="2.94"/><path class="cls-1" d="M62,113.75h-.47a15.73,15.73,0,1,0-31.45,0h-.47a16.2,16.2,0,1,1,32.39,0Z"/><rect class="cls-1" x="29.51" y="97.36" width="32.29" height="0.47"/><rect class="cls-2" x="28.21" y="112.09" width="3.32" height="3.32"/><path class="cls-1" d="M31.77,115.65H28v-3.79h3.79Zm-3.32-.47H31.3v-2.85H28.45Z"/><rect class="cls-2" x="28.21" y="95.93" width="3.32" height="3.32"/><path class="cls-1" d="M31.77,99.49H28V95.7h3.79ZM28.45,99H31.3V96.17H28.45Z"/><rect class="cls-2" x="60.14" y="112.09" width="3.32" height="3.32"/><path class="cls-1" d="M63.7,115.65H59.9v-3.79h3.8Zm-3.33-.47h2.85v-2.85H60.37Z"/><rect class="cls-2" x="60.14" y="95.93" width="3.32" height="3.32"/><path class="cls-1" d="M63.7,99.49H59.9V95.7h3.8ZM60.37,99h2.85V96.17H60.37Z"/><polygon class="cls-6" points="60.59 120.98 59.74 120.86 64.1 87.7 79.93 79.01 80.34 79.76 64.89 88.24 60.59 120.98"/><path class="cls-12" d="M63.29,88a1.21,1.21,0,1,0,1.21-1.21A1.21,1.21,0,0,0,63.29,88Z"/><path class="cls-12" d="M78.76,79.38A1.21,1.21,0,1,0,80,78.18,1.21,1.21,0,0,0,78.76,79.38Z"/><polygon class="cls-12" points="88.06 80.49 82.4 86.81 79.79 83.58 78.2 81.61 82.44 76.88 84.57 78.25 88.06 80.49"/><polygon class="cls-15" points="88.06 80.49 82.4 86.81 79.79 83.58 84.57 78.25 88.06 80.49"/><polygon class="cls-12" points="96.27 83.61 86.4 94.62 79.84 86.26 87.24 78 96.27 83.61"/><polygon class="cls-7" points="67.92 123.87 53.31 123.87 54.21 119.28 67.02 119.28 67.92 123.87"/></svg>