<svg width="36" height="41" viewBox="0 0 36 41" fill="none" xmlns="http://www.w3.org/2000/svg">
<path fill-rule="evenodd" clip-rule="evenodd" d="M31.0909 0C33.8022 0 36 2.47252 36 5.5225V34.9759C36 38.0259 33.8022 40.4984 31.0909 40.4984H4.90909C2.19788 40.4984 0 38.0259 0 34.9759V5.5225C0 2.47252 2.19788 0 4.90909 0H31.0909ZM31.0909 3.68167C31.9947 3.68167 32.7273 4.50585 32.7273 5.5225V34.9759C32.7273 35.9926 31.9947 36.8167 31.0909 36.8167H22.9091V23.9307H26.3065C27.0108 23.9307 27.6361 23.4237 27.8589 22.6719L28.5838 20.2254C28.8488 19.3313 28.2572 18.4082 27.4196 18.4082H22.9091V14.7265C22.9091 13.8061 23.7273 12.8857 24.5455 12.8857H27.8182C28.7219 12.8857 29.4545 12.0615 29.4545 11.0449V9.78207C29.4545 9.18744 29.117 8.65432 28.6058 8.50258C26.4608 7.8658 24.5455 7.8658 24.5455 7.8658C20.4545 7.8658 18 11.0449 18 13.8061V18.4082H14.7273C13.8235 18.4082 13.0909 19.2323 13.0909 20.249V22.0898C13.0909 23.1065 13.8235 23.9307 14.7273 23.9307H18V36.8167H4.90909C4.00536 36.8167 3.27273 35.9926 3.27273 34.9759V5.5225C3.27273 4.50585 4.00536 3.68167 4.90909 3.68167H31.0909Z" fill="white"/>
</svg>
