<svg id="Layer_1" data-name="Layer 1" xmlns="http://www.w3.org/2000/svg" viewBox="0 0 250 250"><defs><style>.cls-1{fill:#ff7f0d;}.cls-2{isolation:isolate;}.cls-3{fill:#5a5d5d;}.cls-4{fill:#fff;}.cls-5{fill:#ffac62;}</style></defs><title>Reach icon</title><path class="cls-1" d="M97.92,57.45,79.09,76.92c-2.09,2.16,1.21,5.47,3.31,3.3l18.82-19.47C103.31,58.59,100,55.28,97.92,57.45Z"/><path class="cls-1" d="M92.08,77,77.86,91.69c-1.58,1.63.91,4.13,2.49,2.49q7.11-7.35,14.23-14.71C96.15,77.84,93.66,75.34,92.08,77Z"/><path class="cls-1" d="M61.91,70.51,51.2,81.59c-1.19,1.23.69,3.11,1.88,1.88l10.7-11.08C65,71.16,63.1,69.28,61.91,70.51Z"/><path class="cls-1" d="M109.18,71.13q-9.41,9.75-18.82,19.48c-2.09,2.16,1.21,5.47,3.3,3.3l18.83-19.47C114.58,72.28,111.28,69,109.18,71.13Z"/><path class="cls-1" d="M207.59,58.71,188.77,78.18c-2.09,2.16,1.21,5.47,3.3,3.3L210.9,62C213,59.85,209.69,56.54,207.59,58.71Z"/><path class="cls-1" d="M201.76,78.23,187.53,93c-1.58,1.63.91,4.13,2.5,2.49l14.22-14.71C205.83,79.09,203.34,76.6,201.76,78.23Z"/><path class="cls-1" d="M207.69,50.26,197,61.34c-1.19,1.23.68,3.11,1.87,1.88l10.71-11.08C210.76,50.91,208.88,49,207.69,50.26Z"/><path class="cls-1" d="M218.86,72.39,200,91.87c-2.09,2.16,1.21,5.47,3.31,3.3L222.16,75.7C224.25,73.53,221,70.23,218.86,72.39Z"/><circle class="cls-1" cx="66.3" cy="95.5" r="8.18"/><g class="cls-2"><path class="cls-3" d="M60.71,112.35a.54.54,0,0,1-.25-.06l-12.6-6.68a.56.56,0,0,1-.29-.47L47,80.9a.55.55,0,0,1,.8-.5l12.59,6.68a.55.55,0,0,1,.3.47l.62,24.24a.52.52,0,0,1-.26.48A.51.51,0,0,1,60.71,112.35Zm-12.05-7.56,11.48,6.09-.59-23L48.07,81.81Z"/><path class="cls-3" d="M60.09,88.11a.58.58,0,0,1-.26-.06L47.24,81.37A.56.56,0,0,1,47,80.8a.55.55,0,0,1,.45-.46L70,76.45a.6.6,0,0,1,.35,0l12.59,6.68a.56.56,0,0,1,.29.58.55.55,0,0,1-.45.45L60.18,88.1Zm-10.92-7,11,5.84L81,83.4,70,77.56Z"/><path class="cls-3" d="M60.71,112.35a.52.52,0,0,1-.34-.12.55.55,0,0,1-.21-.41l-.62-24.24A.55.55,0,0,1,60,87l22.55-3.89a.53.53,0,0,1,.44.11.55.55,0,0,1,.2.42l.63,24.24a.54.54,0,0,1-.45.55l-22.55,3.9ZM60.65,88l.6,23.13,21.45-3.7-.6-23.13Z"/></g><circle class="cls-3" cx="170.07" cy="64.63" r="9.21"/><g class="cls-2"><path class="cls-1" d="M170.7,82.52a.58.58,0,0,1-.26-.06L159.68,76.6a.52.52,0,0,1-.22-.22l-9.85-18.63a.56.56,0,0,1,.1-.65.55.55,0,0,1,.65-.09l10.76,5.86a.54.54,0,0,1,.23.22l9.84,18.63a.55.55,0,0,1-.49.8Zm-10.35-6.8,9,4.9-8.92-16.87-9-4.9Z"/><path class="cls-1" d="M160.86,63.9a.59.59,0,0,1-.26-.07L149.84,58a.54.54,0,0,1-.29-.45.56.56,0,0,1,.23-.48l18.56-13.27a.57.57,0,0,1,.59,0l10.76,5.86a.55.55,0,0,1,.28.45.53.53,0,0,1-.23.48L161.18,63.79A.54.54,0,0,1,160.86,63.9Zm-9.73-6.47,9.69,5.27,17.57-12.56-9.69-5.27Z"/><path class="cls-1" d="M170.7,82.52h-.12a.54.54,0,0,1-.36-.28L160.38,63.6a.55.55,0,0,1,.16-.7l18.57-13.27a.57.57,0,0,1,.44-.09.54.54,0,0,1,.36.28l9.84,18.63a.55.55,0,0,1-.16.7L171,82.42A.51.51,0,0,1,170.7,82.52Zm-9.13-19,9.33,17.64,17.66-12.62-9.33-17.65Z"/></g><path class="cls-3" d="M158.89,97.53a8.17,8.17,0,0,1-1.61,2.18,5.73,5.73,0,0,1-.87-.69,6.74,6.74,0,0,0,1.26-1.55,7.52,7.52,0,0,0,1.07-4.1c-.05-1.4-.6-3.32-2.26-3.37h-.15c-1.66,0-2.21,2-2.25,3.37a7.6,7.6,0,0,0,1.06,4.1A7.05,7.05,0,0,0,156.41,99a7.32,7.32,0,0,1-.87.69,8,8,0,0,1-1.61-2.18,8.55,8.55,0,0,1-.86-5.16c.27-1.7,1.37-3.45,3.25-3.47h.18c1.87,0,3,1.77,3.24,3.47A8.54,8.54,0,0,1,158.89,97.53Z"/><path class="cls-3" d="M146.54,97.53a8.17,8.17,0,0,1-1.61,2.18,7.32,7.32,0,0,1-.87-.69,7,7,0,0,0,1.26-1.55,7.52,7.52,0,0,0,1.07-4.1c0-1.39-.6-3.32-2.26-3.37H144c-1.66,0-2.21,2-2.26,3.37a7.7,7.7,0,0,0,1.07,4.1A7.05,7.05,0,0,0,144.06,99a7.32,7.32,0,0,1-.87.69,8.2,8.2,0,0,1-1.62-2.18,8.62,8.62,0,0,1-.85-5.16c.27-1.7,1.37-3.44,3.24-3.47h.2c1.87,0,3,1.77,3.23,3.47A8.54,8.54,0,0,1,146.54,97.53Z"/><path class="cls-3" d="M171.33,97.53a8.17,8.17,0,0,1-1.61,2.18,5.73,5.73,0,0,1-.87-.69,6.74,6.74,0,0,0,1.26-1.55,7.52,7.52,0,0,0,1.07-4.1c-.05-1.4-.6-3.32-2.26-3.37h-.15c-1.66,0-2.21,2-2.25,3.37a7.52,7.52,0,0,0,1.07,4.1A6.74,6.74,0,0,0,168.85,99a7.32,7.32,0,0,1-.87.69,8,8,0,0,1-1.61-2.18,8.62,8.62,0,0,1-.86-5.16c.27-1.7,1.37-3.45,3.25-3.47h.18c1.87,0,3,1.77,3.24,3.47A8.54,8.54,0,0,1,171.33,97.53Z"/><path class="cls-3" d="M183.76,97.53a8.17,8.17,0,0,1-1.61,2.18,7.32,7.32,0,0,1-.87-.69,6.74,6.74,0,0,0,1.26-1.55,7.52,7.52,0,0,0,1.07-4.1c0-1.4-.6-3.32-2.25-3.37h-.15c-1.66,0-2.22,2-2.27,3.37a7.62,7.62,0,0,0,1.08,4.1A6.74,6.74,0,0,0,181.28,99a5.73,5.73,0,0,1-.87.69,8.17,8.17,0,0,1-1.61-2.18,8.47,8.47,0,0,1-.85-5.16c.26-1.7,1.37-3.45,3.24-3.47h.18c1.88,0,3,1.77,3.25,3.47A8.62,8.62,0,0,1,183.76,97.53Z"/><path class="cls-3" d="M196.11,97.53a8.17,8.17,0,0,1-1.61,2.18,5.73,5.73,0,0,1-.87-.69,6.74,6.74,0,0,0,1.26-1.55,7.62,7.62,0,0,0,1.08-4.1c-.05-1.39-.61-3.32-2.26-3.37h-.16c-1.65,0-2.21,2-2.25,3.37a7.52,7.52,0,0,0,1.07,4.1A6.74,6.74,0,0,0,193.63,99a7.32,7.32,0,0,1-.87.69,8.17,8.17,0,0,1-1.61-2.18,8.62,8.62,0,0,1-.86-5.16c.27-1.7,1.37-3.44,3.24-3.47h.2c1.87,0,3,1.77,3.24,3.47A8.55,8.55,0,0,1,196.11,97.53Z"/><path class="cls-3" d="M208.55,97.53a8.17,8.17,0,0,1-1.61,2.18,7.32,7.32,0,0,1-.87-.69,6.74,6.74,0,0,0,1.26-1.55,7.62,7.62,0,0,0,1.08-4.1c0-1.39-.6-3.32-2.26-3.37H206c-1.65,0-2.21,2-2.25,3.37a7.52,7.52,0,0,0,1.07,4.1A6.74,6.74,0,0,0,206.07,99a7.32,7.32,0,0,1-.87.69,8.17,8.17,0,0,1-1.61-2.18,8.62,8.62,0,0,1-.86-5.16c.27-1.7,1.38-3.44,3.25-3.47h.18c1.88,0,3,1.77,3.25,3.47A8.55,8.55,0,0,1,208.55,97.53Z"/><path class="cls-3" d="M212.47,102a8.75,8.75,0,0,1-6.4-1.57,8.67,8.67,0,0,1-5.11,1.66h-2.2a8.68,8.68,0,0,1-5.13-1.66,8.65,8.65,0,0,1-5.24,1.66c-.63,0-1.25,0-1.87,0a8.65,8.65,0,0,1-5.24-1.66,8.69,8.69,0,0,1-5.14,1.66H174a8.69,8.69,0,0,1-5.14-1.66,8.69,8.69,0,0,1-5.11,1.66h-2.2a8.66,8.66,0,0,1-5.13-1.66,8.66,8.66,0,0,1-5.25,1.66q-.93,0-1.86,0a8.65,8.65,0,0,1-5.24-1.66,8.75,8.75,0,0,1-6.4,1.57c-.7-.1-.4-1.16.29-1.06a7.45,7.45,0,0,0,5.24-1.23,7.32,7.32,0,0,0,.87-.69,7.32,7.32,0,0,0,.87.69,7.41,7.41,0,0,0,5.15,1.24.81.81,0,0,1,.22,0h.08a7.45,7.45,0,0,0,5.16-1.24,7.32,7.32,0,0,0,.87-.69,5.73,5.73,0,0,0,.87.69,7.44,7.44,0,0,0,5.24,1.23h.22A7.45,7.45,0,0,0,168,99.71a7.32,7.32,0,0,0,.87-.69,5.73,5.73,0,0,0,.87.69,7.44,7.44,0,0,0,5.24,1.23h.21a7.44,7.44,0,0,0,5.24-1.23,5.73,5.73,0,0,0,.87-.69,7.32,7.32,0,0,0,.87.69A7.44,7.44,0,0,0,187.3,101a.81.81,0,0,1,.22,0h.09a7.43,7.43,0,0,0,5.15-1.24,7.32,7.32,0,0,0,.87-.69,5.73,5.73,0,0,0,.87.69,7.44,7.44,0,0,0,5.24,1.23H200a7.45,7.45,0,0,0,5.24-1.23,7.32,7.32,0,0,0,.87-.69,7.32,7.32,0,0,0,.87.69,7.45,7.45,0,0,0,5.24,1.23C212.87,100.84,213.17,101.9,212.47,102Z"/><rect class="cls-4" x="25.88" y="130.9" width="197.67" height="100.85"/><rect class="cls-1" x="80.72" y="148.16" width="84.62" height="66.72"/><rect class="cls-3" x="28.97" y="134.84" width="6.85" height="6.85"/><rect class="cls-3" x="40.59" y="134.84" width="6.85" height="6.85"/><rect class="cls-3" x="52.09" y="134.84" width="6.85" height="6.85"/><rect class="cls-3" x="63.71" y="134.84" width="6.85" height="6.85"/><rect class="cls-3" x="75.76" y="134.84" width="6.85" height="6.85"/><rect class="cls-3" x="87.38" y="134.84" width="6.85" height="6.85"/><rect class="cls-3" x="98.88" y="134.84" width="6.85" height="6.85"/><rect class="cls-3" x="110.5" y="134.84" width="6.85" height="6.85"/><rect class="cls-3" x="121.34" y="134.84" width="6.85" height="6.85"/><rect class="cls-3" x="132.96" y="134.84" width="6.85" height="6.85"/><rect class="cls-3" x="144.46" y="134.84" width="6.85" height="6.85"/><rect class="cls-3" x="156.08" y="134.84" width="6.85" height="6.85"/><rect class="cls-3" x="167.42" y="134.84" width="6.85" height="6.85"/><rect class="cls-3" x="179.03" y="134.84" width="6.85" height="6.85"/><rect class="cls-3" x="190.54" y="134.84" width="6.85" height="6.85"/><rect class="cls-3" x="202.15" y="134.84" width="6.85" height="6.85"/><rect class="cls-3" x="214.21" y="134.84" width="6.85" height="6.85"/><path class="cls-3" d="M220.14,144l-74.66.2-74.29.2-41.9.12a.55.55,0,0,0,0,1.1l74.66-.21,74.29-.2,41.9-.11A.55.55,0,0,0,220.14,144Z"/><rect class="cls-3" x="213.86" y="221.36" width="6.85" height="6.85" transform="translate(434.56 449.56) rotate(180)"/><rect class="cls-3" x="202.24" y="221.36" width="6.85" height="6.85" transform="translate(411.33 449.56) rotate(180)"/><rect class="cls-3" x="190.74" y="221.36" width="6.85" height="6.85" transform="translate(388.32 449.56) rotate(180)"/><rect class="cls-3" x="179.12" y="221.36" width="6.85" height="6.85" transform="translate(365.09 449.56) rotate(180)"/><rect class="cls-3" x="167.06" y="221.36" width="6.85" height="6.85" transform="translate(340.98 449.56) rotate(180)"/><rect class="cls-3" x="155.45" y="221.36" width="6.85" height="6.85" transform="translate(317.74 449.56) rotate(180)"/><rect class="cls-3" x="143.94" y="221.36" width="6.85" height="6.85" transform="translate(294.73 449.56) rotate(180)"/><rect class="cls-3" x="132.33" y="221.36" width="6.85" height="6.85" transform="translate(271.5 449.56) rotate(180)"/><rect class="cls-3" x="121.48" y="221.36" width="6.85" height="6.85" transform="translate(249.81 449.56) rotate(180)"/><rect class="cls-3" x="109.87" y="221.36" width="6.85" height="6.85" transform="translate(226.58 449.56) rotate(180)"/><rect class="cls-3" x="98.36" y="221.36" width="6.85" height="6.85" transform="translate(203.57 449.56) rotate(180)"/><rect class="cls-3" x="86.75" y="221.36" width="6.85" height="6.85" transform="translate(180.34 449.56) rotate(180)"/><rect class="cls-3" x="75.41" y="221.36" width="6.85" height="6.85" transform="translate(157.67 449.56) rotate(180)"/><rect class="cls-3" x="63.79" y="221.36" width="6.85" height="6.85" transform="translate(134.43 449.56) rotate(180)"/><rect class="cls-3" x="52.29" y="221.36" width="6.85" height="6.85" transform="translate(111.43 449.56) rotate(180)"/><rect class="cls-3" x="40.67" y="221.36" width="6.85" height="6.85" transform="translate(88.19 449.56) rotate(180)"/><rect class="cls-3" x="28.62" y="221.36" width="6.85" height="6.85" transform="translate(64.08 449.56) rotate(180)"/><path class="cls-4" d="M29.53,219.09l74.67-.2,74.28-.2,41.91-.12a.55.55,0,0,0,0-1.09l-74.67.2-74.28.2L29.53,218A.55.55,0,0,0,29.53,219.09Z"/><rect class="cls-1" x="25.88" y="148.16" width="45.43" height="66.72"/><rect class="cls-1" x="178.12" y="148.16" width="45.43" height="66.72"/><path class="cls-4" d="M123.87,152.3a30,30,0,1,0,29.95,30A30,30,0,0,0,123.87,152.3Zm0,58.18a28.22,28.22,0,1,1,28.2-28.22A28.25,28.25,0,0,1,123.87,210.48Z"/><polygon class="cls-3" points="114.09 164.17 114.09 201.98 142.57 182.8 114.09 164.17"/><rect class="cls-3" x="185.44" y="156.1" width="48.99" height="5.88"/><rect class="cls-3" x="168.9" y="172.1" width="39.42" height="5.88"/><rect class="cls-3" x="182.1" y="185.55" width="53.3" height="5.88"/><rect class="cls-3" x="171.33" y="198.96" width="53.3" height="5.88"/><rect class="cls-4" x="188.62" y="169.15" width="1.68" height="12.44"/><rect class="cls-4" x="214.62" y="152.81" width="1.68" height="12.44"/><rect class="cls-4" x="180.8" y="182.27" width="1.68" height="12.44"/><rect class="cls-4" x="214.62" y="195.68" width="1.68" height="12.44"/><rect class="cls-3" x="13.66" y="200.28" width="48.99" height="5.88" transform="translate(76.31 406.44) rotate(180)"/><rect class="cls-3" x="39.77" y="184.28" width="39.42" height="5.88" transform="translate(118.95 374.43) rotate(180)"/><rect class="cls-3" x="12.69" y="170.83" width="53.3" height="5.88" transform="translate(78.68 347.54) rotate(180)"/><rect class="cls-3" x="23.46" y="157.41" width="53.3" height="5.88" transform="translate(100.22 320.71) rotate(180)"/><rect class="cls-4" x="57.8" y="180.66" width="1.68" height="12.44" transform="translate(117.27 373.77) rotate(180)"/><rect class="cls-4" x="31.79" y="197" width="1.68" height="12.44" transform="translate(65.26 406.44) rotate(180)"/><rect class="cls-4" x="65.61" y="167.55" width="1.68" height="12.44" transform="translate(132.89 347.54) rotate(180)"/><rect class="cls-4" x="31.79" y="154.13" width="1.68" height="12.44" transform="translate(65.26 320.71) rotate(180)"/><path class="cls-1" d="M205.63,131.34H75.7L59.21,148.29l-29-14.81a13.73,13.73,0,0,1-7.47-12.21A17.33,17.33,0,0,1,40.06,104H102l18.75,12.89L132.27,104h73.36a13.7,13.7,0,1,1,0,27.39Z"/><path class="cls-4" d="M141.58,80.77c-.37,4.72-1.16,9.59-3.78,13.53a16.57,16.57,0,0,1-6.05,5.41c.2,1.63.24,1.93.52,4.24l-11.53,12.89L102,104l3.87-20.34a8.61,8.61,0,0,1-9.22-9.35,6.45,6.45,0,0,1,2.12-4.37,4.4,4.4,0,0,1,.74-.51,3.9,3.9,0,0,1,5.16,1.19l0,0c1.63-3.31,3.25-6.62,4.89-9.94v-.23h31.77A129.24,129.24,0,0,1,141.58,80.77Z"/><path class="cls-3" d="M120.83,117.57,101.39,104.2l3.8-20a9.15,9.15,0,0,1-9.09-10,6.93,6.93,0,0,1,2.31-4.76,5.16,5.16,0,0,1,.82-.56,4.59,4.59,0,0,1,5.37.68c.8-1.64,1.61-3.27,2.41-4.9l2-4.16v-.64h32.83l0,.5a128.24,128.24,0,0,1,.21,20.43c-.35,4.47-1.09,9.6-3.87,13.79a17.14,17.14,0,0,1-5.92,5.42l.5,4.11-.16.18ZM102.6,103.7l18.06,12.42,11-12.35-.53-4.37.34-.17A16,16,0,0,0,137.34,94c2.65-4,3.35-8.94,3.69-13.26h0A125.12,125.12,0,0,0,140.87,61H110.05L108,65.16l-2.78,5.67-.24.48-.65-.29-.13-.18a3.38,3.38,0,0,0-4.43-1,4.25,4.25,0,0,0-.64.44,6,6,0,0,0-1.93,4,8.08,8.08,0,0,0,8.63,8.76l.71-.06Z"/><path class="cls-3" d="M154.69,48.37a15.15,15.15,0,0,1-11.06,12.05h-34v.23c-1.64,3.32-3.26,6.63-4.89,9.94l0,0a3.9,3.9,0,0,0-5.16-1.19,4.4,4.4,0,0,0-.74.51,29.51,29.51,0,0,1-1.31-10.5c0-.36.06-.72.1-1.07A21.1,21.1,0,0,1,98,56a15.51,15.51,0,0,1,4.93-8.1c3.76-3.1,9-3.87,13.81-3.52s9.59,1.67,14.41,2.26,10,.41,14.19-2.05c1.1-.65,2.12-1.44,3.28-2a4.73,4.73,0,0,1,3.71-.3C154.52,43.15,155.05,46,154.69,48.37Z"/><path class="cls-3" d="M98,56a21.1,21.1,0,0,0-.46,2.37c0,.35-.08.71-.1,1.07a5,5,0,0,0-3.73.26,9.8,9.8,0,0,0-4,4.47,34.86,34.86,0,0,1-2.93,5.33,11,11,0,0,1-13.41,2.91c-2.75-1.46-4.9-4.13-7.93-4.85-3.48-.81-7,1.23-9.64,3.63s-5,5.32-8.18,6.88A11.74,11.74,0,0,1,30.78,67.19c.06-2.68,1.2-5.49,3.5-6.87s5.52-1,8.3-.52,5.79,1.12,8.36-.08c3.42-1.58,5-5.79,8.31-7.51,2.47-1.28,5.49-1,8.13-.05s5.08,2.32,7.72,3.18,5.68,1.15,8.12-.21,4-4.1,6.6-4.84a6.21,6.21,0,0,1,5.87,1.82A10.55,10.55,0,0,1,98,56Z"/><path class="cls-5" d="M131.76,84.32h-6l4.66-14.66,3.26,12.12A2,2,0,0,1,131.76,84.32Z"/><circle class="cls-5" cx="115.28" cy="81.43" r="5.17" transform="translate(9.46 174.83) rotate(-76.67)"/><path class="cls-4" d="M111.89,167.91a4,4,0,0,1-5.65,0l-8.44-8.43a4,4,0,0,1-1.08,2,4,4,0,0,1-2.83,1.16,4,4,0,0,1-2.82-1.16l-.29-.29a4,4,0,0,1-4,4.13,3.94,3.94,0,0,1-2.56-.93,4,4,0,0,1-6.8,3.17l-2.92-2.92,0,0-.23-.22-11-10.88a6.31,6.31,0,0,1-1.55-2.51l-1.3-4,14.21-14.6,16.13,6.61a6.28,6.28,0,0,1,3.79,4.65l.28,1.5,17.06,17.06A4,4,0,0,1,111.89,167.91Z"/><path class="cls-3" d="M109.06,169.63a4.47,4.47,0,0,1-3.21-1.33l-7.79-7.79a4.59,4.59,0,0,1-4.17,2.72,4.52,4.52,0,0,1-2.67-.86,4.54,4.54,0,0,1-6.46,3A4.54,4.54,0,0,1,77.05,168l-2.9-2.91a2.44,2.44,0,0,1-.28-.25L62.88,154a7,7,0,0,1-1.68-2.73l-1.41-4.32,14.7-15.1L91,138.55a6.8,6.8,0,0,1,4.12,5.06l.25,1.33,16.93,16.94a4.53,4.53,0,0,1,0,6.42A4.47,4.47,0,0,1,109.06,169.63Zm-11.6-11.27,9.17,9.17a3.46,3.46,0,0,0,4.87,0h0a3.45,3.45,0,0,0,0-4.87L94.32,145.48,94,143.81a5.69,5.69,0,0,0-3.46-4.24L74.76,133.1,61,147.19l1.2,3.69a5.79,5.79,0,0,0,1.41,2.29l11,10.88.2.19.06,0,2.92,2.92a3.44,3.44,0,0,0,5.86-2.73l-.12-1.33,1,.86a3.47,3.47,0,0,0,2.21.8,3.42,3.42,0,0,0,2.44-1,3.46,3.46,0,0,0,1-2.55l0-1.4,1.27,1.28a3.43,3.43,0,0,0,5.8-1.76Z"/><path class="cls-4" d="M156.17,131.34V112.79l-22.92,2.14a27.54,27.54,0,0,0-9.28,2.56l-18.78,9a2.56,2.56,0,0,0-1.47,2.32h0a2.57,2.57,0,0,0,2.57,2.57Z"/><path class="cls-3" d="M156.72,131.89H106.29A3.12,3.12,0,0,1,105,126l18.78-9a27.67,27.67,0,0,1,9.47-2.61l23.52-2.2Zm-1.1-18.49-22.32,2.08a26.94,26.94,0,0,0-9.1,2.51l-18.78,9a2,2,0,0,0,.87,3.85h49.33Z"/><path class="cls-3" d="M131.49,99.22a17.91,17.91,0,0,1-6.88,1.69,20.53,20.53,0,0,1-7.38-1.08c-2.15-.72-4.41-1.76-5.73-3.7-.39-.58-1.34,0-.94.56,2.17,3.2,6.56,4.59,10.21,5.11a19.78,19.78,0,0,0,10.93-1.46Z"/><path class="cls-3" d="M122.64,90.15a6.89,6.89,0,0,1-5.32-6.4.55.55,0,0,0-1.1,0,8,8,0,0,0,6.13,7.46C123,91.37,123.33,90.31,122.64,90.15Z"/><path class="cls-3" d="M76.48,130.36a.54.54,0,0,0-.19-.21q-11.58-7.75-23.55-14.88a.55.55,0,0,0-.56,1q11.84,7,23.27,14.7-8,8.51-16.18,16.9c-.49.51.29,1.28.78.78q8.37-8.61,16.6-17.35A.56.56,0,0,0,76.48,130.36Z"/><path class="cls-3" d="M125.73,119.46q-10,5.08-19.45,11.07c-.59.38,0,1.33.56.95q9.47-6,19.45-11.07C126.92,120.09,126.36,119.14,125.73,119.46Z"/><path class="cls-3" d="M129.42,122a184.16,184.16,0,0,0-16.77,8.76.55.55,0,0,0,.56.95A181.57,181.57,0,0,1,130,123C130.62,122.66,130.06,121.72,129.42,122Z"/><path class="cls-3" d="M134.13,125q-6.52,2.67-12.81,5.89c-.63.32-.08,1.27.55.95,4.1-2.1,8.29-4,12.55-5.78C135.07,125.74,134.79,124.68,134.13,125Z"/><path class="cls-3" d="M122.7,72.43a2.9,2.9,0,1,1-2.87-3.25A3.08,3.08,0,0,1,122.7,72.43Z"/><path class="cls-3" d="M121.92,66.12a1.44,1.44,0,0,0-.63-.82,1.56,1.56,0,0,0-1.06-.14,20.39,20.39,0,0,0-3.52,1,1.52,1.52,0,0,0-.82.63,1.37,1.37,0,0,0,.49,1.88,1.36,1.36,0,0,0,1.06.14,20.39,20.39,0,0,1,3.52-1,1.4,1.4,0,0,0,.82-.63A1.45,1.45,0,0,0,121.92,66.12Z"/><ellipse class="cls-3" cx="137.76" cy="72.84" rx="2.88" ry="3.26"/><path class="cls-3" d="M135.67,66.52a1.42,1.42,0,0,1,.64-.82,1.53,1.53,0,0,1,1.05-.14,20.39,20.39,0,0,1,3.52,1,1.52,1.52,0,0,1,.82.63,1.36,1.36,0,0,1,.14,1.06,1.4,1.4,0,0,1-.63.82,1.32,1.32,0,0,1-1.06.14,20.39,20.39,0,0,0-3.52-1,1.4,1.4,0,0,1-.82-.63A1.45,1.45,0,0,1,135.67,66.52Z"/><path class="cls-3" d="M119.83,80.05a9,9,0,1,1,8.72-9A8.89,8.89,0,0,1,119.83,80.05Zm0-16.95A7.93,7.93,0,1,0,127.45,71,7.79,7.79,0,0,0,119.83,63.1Z"/><path class="cls-3" d="M140.38,62a8.75,8.75,0,0,0-8.22,6L128,68a.55.55,0,0,0,0,1.1l3.85.06a9.75,9.75,0,0,0-.19,1.88,8.72,8.72,0,1,0,8.72-9Zm0,17A7.93,7.93,0,1,1,148,71,7.78,7.78,0,0,1,140.38,79Z"/><path class="cls-3" d="M99.52,57.44c-.89-3.06-1.88-6.46-4.4-8.59-2.2-1.86-5.42-2.69-8-1a25.7,25.7,0,0,0-3.11,2.88,5.43,5.43,0,0,1-4.38,1.59,15.46,15.46,0,0,1-5.18-1.81,39.42,39.42,0,0,0-4.86-2.11,14.45,14.45,0,0,0-9.77-.23,10.13,10.13,0,0,0-3.7,2.49c-1,1.07-1.88,2.28-2.85,3.39a8.19,8.19,0,0,1-3.6,2.63,11.09,11.09,0,0,1-4.66.2c-3.07-.38-6.32-1.3-9.35-.21a8.72,8.72,0,0,0-2,15.44c.58.41,1.13-.54.56-.94a7.62,7.62,0,0,1,2.05-13.53c2.92-.93,6.06,0,9,.36s5.54-.05,7.72-2,3.33-4.53,5.73-6c2.75-1.7,6.17-1.71,9.21-.92,3.26.85,6.06,2.74,9.22,3.83a8.42,8.42,0,0,0,4.55.44,7.18,7.18,0,0,0,3.34-2c1.06-1,2-2.31,3.43-2.92a5.36,5.36,0,0,1,4.72.46c3.21,1.8,4.31,5.6,5.27,8.9A.55.55,0,0,0,99.52,57.44Z"/><path class="cls-3" d="M155.64,104.45v26.84a.55.55,0,0,0,1.1,0V104.45A.55.55,0,0,0,155.64,104.45Z"/></svg>