<svg width="32" height="36" viewBox="0 0 32 36" fill="none" xmlns="http://www.w3.org/2000/svg">
<path fill-rule="evenodd" clip-rule="evenodd" d="M24.0979 35.8604C20.9909 34.9847 14.6301 32.5156 8.8636 26.0284C3.09715 19.5412 0.902534 12.3853 0.124063 8.88986C-0.323305 6.88109 0.482298 4.94267 1.84829 3.84499L5.42934 0.96736C7.52464 -0.716351 10.4395 -0.145009 11.9051 2.23671L14.1596 5.90028C15.1166 7.45541 14.7865 9.58685 13.4184 10.6862L11.6207 12.1308C11.8928 13.3016 12.739 15.7059 15.3891 18.6872C18.0393 21.6686 20.1764 22.6205 21.2171 22.9266L22.5011 20.9042C23.4784 19.3652 25.373 18.9937 26.7553 20.0703L30.0119 22.6067C32.1289 24.2557 32.6368 27.5347 31.1401 29.8919L28.5822 33.9207C27.6065 35.4574 25.8835 36.3638 24.0979 35.8604ZM11.0388 23.5814C16.2828 29.4808 22.0697 31.7211 24.8454 32.5035C25.2512 32.6177 25.7417 32.4404 26.079 31.9092L28.637 27.8804C29.1358 27.0948 28.9666 26.0018 28.2608 25.452L25.0043 22.9157L23.6264 25.0861C23.0633 25.973 22.0218 26.6686 20.8092 26.3743C19.2957 26.007 16.498 24.8288 13.214 21.1343C9.93002 17.4398 8.88272 14.2923 8.55616 12.5897C8.29453 11.2255 8.9129 10.0539 9.70129 9.42035L11.6304 7.87014L9.37592 4.20657C8.88737 3.41265 7.91576 3.22221 7.21733 3.78344L3.63628 6.66108C3.16403 7.04056 3.00636 7.59237 3.10801 8.0488C3.8035 11.1716 5.79486 17.6819 11.0388 23.5814Z" fill="white"/>
</svg>
