<svg id="Isolation_Mode" data-name="Isolation Mode" xmlns="http://www.w3.org/2000/svg" viewBox="0 0 52.79 37.78"><defs><style>.cls-1{fill:#f58120;}.cls-2{fill:#fff;}</style></defs><title>Reach logo</title><path class="cls-1" d="M-303.91,327.25a7,7,0,0,0-1.48-2A7.09,7.09,0,0,0-307.5,324a6.58,6.58,0,0,0-2.47-.48h-36.6v4H-311a2.37,2.37,0,0,1,.91.17,2.51,2.51,0,0,1,.78.46,2.43,2.43,0,0,1,.54.72,2,2,0,0,1,.2.9,2,2,0,0,1-.2.91,2.27,2.27,0,0,1-.54.71,2.36,2.36,0,0,1-.78.47,2.37,2.37,0,0,1-.91.17h-40.55v4h37.15l5.68,6.73h5.77c-.07-.07-5-5.86-5.66-6.68l1.44-.66a7.35,7.35,0,0,0,1.5-1,7,7,0,0,0,1.2-1.3,6,6,0,0,0,.79-1.56,5.24,5.24,0,0,0,.3-1.78A5.35,5.35,0,0,0-303.91,327.25Z" transform="translate(351.51 -323.47)"/><path class="cls-1" d="M-350.44,342.48a6.89,6.89,0,0,1,1.48-2,6.89,6.89,0,0,1,2.11-1.32,6.58,6.58,0,0,1,2.47-.48h34.59l4.08,4h-37.68a2.38,2.38,0,0,0-.91.18,2.64,2.64,0,0,0-.78.46,2.52,2.52,0,0,0-.54.71,2.16,2.16,0,0,0-.2.91,2.13,2.13,0,0,0,.2.91,2.27,2.27,0,0,0,.54.71,2.46,2.46,0,0,0,.78.47,2.58,2.58,0,0,0,.91.17h40.55v4H-340l-3.88,4.93h-5.77a2.85,2.85,0,0,0,.31-.36c.14-.18.3-.4.5-.64l.62-.79c.22-.28.45-.56.67-.86.54-.67,1.13-1.41,1.76-2.23l-1.44-.67a6.91,6.91,0,0,1-1.5-1,7,7,0,0,1-1.2-1.3,6,6,0,0,1-.79-1.56,5.28,5.28,0,0,1-.3-1.78A5.35,5.35,0,0,1-350.44,342.48Z" transform="translate(351.51 -323.47)"/><path class="cls-2" d="M-313.28,355.15a2.13,2.13,0,0,1,.14-.78,1.9,1.9,0,0,1,.38-.57,2.54,2.54,0,0,1,.57-.4,4,4,0,0,1,.69-.24,3.7,3.7,0,0,1,.74-.13,6.23,6.23,0,0,1,.74,0l.61,0a3.74,3.74,0,0,1,.66.09,3.48,3.48,0,0,1,.63.18,2.19,2.19,0,0,1,.57.29,2,2,0,0,1,.45.43,1.63,1.63,0,0,1,.27.58h-1.43a.94.94,0,0,0-.35-.27,1.84,1.84,0,0,0-.47-.15,4.13,4.13,0,0,0-.49-.07h-.85l-.43,0a3,3,0,0,0-.43.11,1.55,1.55,0,0,0-.36.19.91.91,0,0,0-.25.3.87.87,0,0,0-.09.42v.2a.87.87,0,0,0,.09.42.91.91,0,0,0,.25.3,2,2,0,0,0,.36.19,3,3,0,0,0,.43.11l.43.05h.4l.44,0a4.26,4.26,0,0,0,.5-.06,3.68,3.68,0,0,0,.47-.15,1.06,1.06,0,0,0,.35-.27h1.43a1.6,1.6,0,0,1-.27.59,2.24,2.24,0,0,1-.45.42,2.19,2.19,0,0,1-.57.29,3.48,3.48,0,0,1-.63.18,3.76,3.76,0,0,1-.65.09l-.62,0a6.23,6.23,0,0,1-.74,0,4.58,4.58,0,0,1-.74-.13,3.35,3.35,0,0,1-.69-.25,2.22,2.22,0,0,1-.57-.39,1.83,1.83,0,0,1-.38-.58,2,2,0,0,1-.14-.77Z" transform="translate(351.51 -323.47)"/><polygon class="cls-2" points="45.81 29.29 47.11 29.29 47.11 30.91 50.74 30.91 50.74 29.29 52.03 29.29 52.03 33.63 50.74 33.63 50.74 32 47.11 32 47.11 33.63 45.81 33.63 45.81 29.29"/><path class="cls-2" d="M-339.79,355.44V357a.1.1,0,0,0,.11.1h1.07a.07.07,0,0,0,.07-.07l0-3.16v-.08h.84a.08.08,0,0,0,.06-.11l-1.46-2.21a.07.07,0,0,0-.12,0l-1.45,2.22a.08.08,0,0,0,.06.11h.76a.08.08,0,0,1,.08.07Z" transform="translate(351.51 -323.47)"/><path class="cls-2" d="M-326.59,353.7a1.63,1.63,0,0,0-.37-.49,1.55,1.55,0,0,0-.53-.34,1.62,1.62,0,0,0-.61-.12h-9.15v1h8.9a.62.62,0,0,1,.23,0,.62.62,0,0,1,.19.12.62.62,0,0,1,.14.18.51.51,0,0,1,.05.22.59.59,0,0,1-.05.23.62.62,0,0,1-.14.18.45.45,0,0,1-.19.11.64.64,0,0,1-.23.05h-10.13v1h9.28l1,1.23h1.44s0,0-.08-.09l-.12-.16-.16-.19-.16-.22c-.14-.17-.29-.35-.44-.56l.36-.16a1.85,1.85,0,0,0,.37-.25,1.79,1.79,0,0,0,.3-.32,1.79,1.79,0,0,0,.2-.39,1.33,1.33,0,0,0,.07-.45,1.27,1.27,0,0,0-.14-.61" transform="translate(351.51 -323.47)"/><polygon class="cls-2" points="25.87 33.63 25.87 29.29 31.3 29.29 31.3 30.19 27.16 30.19 27.16 31.05 30.93 31.05 30.67 31.86 27.16 31.86 27.16 32.73 31.3 32.73 31.3 33.63 25.87 33.63"/><path class="cls-2" d="M-317.34,352.75h1.85l2.63,4.35h-1.38l-.54-.88h-3.28l-.53.88H-320Zm-.14,2.52h2.13l-1.06-1.77Z" transform="translate(351.51 -323.47)"/><path class="cls-2" d="M-348.89,360.55v-2.07h.24a.34.34,0,0,1,.19,0,.31.31,0,0,1,.11.18l.45,1.44h0l.45-1.44a.3.3,0,0,1,.09-.17.37.37,0,0,1,.2,0h.23v2.07h-.27v-1.73h0l-.56,1.73h-.3l-.54-1.73h0v1.73Z" transform="translate(351.51 -323.47)"/><path class="cls-2" d="M-345.72,359l.52,0v1.52h-.28v-.62c-.12.43-.32.65-.58.65a.4.4,0,0,1-.34-.17.88.88,0,0,1-.12-.5,1.09,1.09,0,0,1,.07-.42.7.7,0,0,1,.17-.28.82.82,0,0,1,.25-.16A1.06,1.06,0,0,1-345.72,359Zm-.27,1.36a.3.3,0,0,0,.18-.06.59.59,0,0,0,.13-.18,1.27,1.27,0,0,0,.11-.26c0-.1.05-.2.07-.3a3.06,3.06,0,0,0,.05-.32l-.29,0a.47.47,0,0,0-.37.15.63.63,0,0,0-.13.43,1.1,1.1,0,0,0,.06.42A.21.21,0,0,0-346,360.36Z" transform="translate(351.51 -323.47)"/><path class="cls-2" d="M-343.75,359.26c-.44,0-.68.38-.7,1.13v.16h-.28v-1c0-.11,0-.3,0-.55h.28c0,.23,0,.42,0,.55v.11a1.11,1.11,0,0,1,.28-.52.53.53,0,0,1,.39-.17A1.43,1.43,0,0,1-343.75,359.26Z" transform="translate(351.51 -323.47)"/><path class="cls-2" d="M-343.55,358.36h.27v2.19h-.27Zm.6,1.4.7.79-.19,0a.2.2,0,0,1-.14,0,.38.38,0,0,1-.12-.11l-.58-.64.7-.75h.31Z" transform="translate(351.51 -323.47)"/><path class="cls-2" d="M-341.4,359a.65.65,0,0,1,.5.19.84.84,0,0,1,.18.58.25.25,0,0,1-.08.1l-1.06,0a.62.62,0,0,0,.14.38.54.54,0,0,0,.37.13,1.74,1.74,0,0,0,.51-.07.78.78,0,0,1,0,.22,1.26,1.26,0,0,1-.47.07.85.85,0,0,1-.58-.2.8.8,0,0,1-.21-.59,1.23,1.23,0,0,1,.05-.35.89.89,0,0,1,.16-.25.72.72,0,0,1,.24-.14A.88.88,0,0,1-341.4,359Zm0,.22a.43.43,0,0,0-.33.13.57.57,0,0,0-.13.37c.27,0,.56,0,.87,0C-341,359.37-341.15,359.22-341.4,359.22Z" transform="translate(351.51 -323.47)"/><path class="cls-2" d="M-340,360.07a.34.34,0,0,0,.06.22.22.22,0,0,0,.19.07,1.06,1.06,0,0,0,.31,0,.78.78,0,0,1,0,.22,1.19,1.19,0,0,1-.33,0,.49.49,0,0,1-.36-.12.5.5,0,0,1-.12-.37v-.84h-.27a.86.86,0,0,1,0-.22h.25v-.3a.77.77,0,0,1,.13-.12.66.66,0,0,1,.15-.07v.51l.56,0a1,1,0,0,1,0,.22H-340Z" transform="translate(351.51 -323.47)"/><path class="cls-2" d="M-339,358.82a.9.9,0,0,1-.2-.19,1.34,1.34,0,0,1,.2-.21,1,1,0,0,1,.21.21A1,1,0,0,1-339,358.82Zm-.14,1.73V359h.28v1.52Z" transform="translate(351.51 -323.47)"/><path class="cls-2" d="M-337.53,359a.41.41,0,0,1,.16,0,.38.38,0,0,1,.13.09.38.38,0,0,1,.09.18.77.77,0,0,1,0,.27v1h-.28v-.93a.63.63,0,0,0-.06-.31.21.21,0,0,0-.19-.09.28.28,0,0,0-.22.12.82.82,0,0,0-.16.31,2.72,2.72,0,0,0-.09.43,2.42,2.42,0,0,0,0,.47h-.27v-1c0-.11,0-.3,0-.55h.27c0,.23,0,.42,0,.55v.07a1,1,0,0,1,.26-.5A.49.49,0,0,1-337.53,359Z" transform="translate(351.51 -323.47)"/><path class="cls-2" d="M-335.92,359l.52,0v1.4a.86.86,0,0,1-.2.61.82.82,0,0,1-.62.21,1.66,1.66,0,0,1-.42,0,1.06,1.06,0,0,1,0-.21,2.73,2.73,0,0,0,.41,0,.79.79,0,0,0,.28,0,.3.3,0,0,0,.17-.12.4.4,0,0,0,.1-.18,1.84,1.84,0,0,0,0-.26v-.5c-.12.43-.32.65-.58.65a.4.4,0,0,1-.34-.17.88.88,0,0,1-.12-.5,1.09,1.09,0,0,1,.07-.42.7.7,0,0,1,.17-.28.82.82,0,0,1,.25-.16A1.06,1.06,0,0,1-335.92,359Zm-.27,1.36a.3.3,0,0,0,.18-.06.59.59,0,0,0,.13-.18,1.27,1.27,0,0,0,.11-.26c0-.1,0-.2.07-.3a3.06,3.06,0,0,0,.05-.32l-.29,0a.47.47,0,0,0-.37.15.63.63,0,0,0-.13.43,1.1,1.1,0,0,0,.06.42A.21.21,0,0,0-336.19,360.36Z" transform="translate(351.51 -323.47)"/><path class="cls-2" d="M-333.6,359l.51,0v1.52h-.27v-.62c-.13.43-.32.65-.58.65a.4.4,0,0,1-.34-.17.88.88,0,0,1-.12-.5,1.33,1.33,0,0,1,.06-.42.71.71,0,0,1,.18-.28.82.82,0,0,1,.25-.16A1.06,1.06,0,0,1-333.6,359Zm-.27,1.36a.32.32,0,0,0,.18-.06.83.83,0,0,0,.13-.18,1.28,1.28,0,0,0,.1-.26,1.67,1.67,0,0,0,.08-.3c0-.1,0-.21.05-.32l-.29,0a.47.47,0,0,0-.37.15.63.63,0,0,0-.14.43,1.06,1.06,0,0,0,.07.42A.2.2,0,0,0-333.87,360.36Z" transform="translate(351.51 -323.47)"/><path class="cls-2" d="M-331.72,359a.41.41,0,0,1,.16,0,.38.38,0,0,1,.13.09.39.39,0,0,1,.1.18,1.12,1.12,0,0,1,0,.27v1h-.27v-.93a.63.63,0,0,0-.06-.31.23.23,0,0,0-.2-.09.29.29,0,0,0-.22.12.82.82,0,0,0-.16.31,2.72,2.72,0,0,0-.09.43,3.59,3.59,0,0,0,0,.47h-.28v-1c0-.11,0-.3,0-.55h.27c0,.23,0,.42,0,.55v.07a1,1,0,0,1,.25-.5A.49.49,0,0,1-331.72,359Z" transform="translate(351.51 -323.47)"/><path class="cls-2" d="M-329.86,358.36h.27v2.19h-.27v-.62c-.13.43-.33.65-.59.65a.41.41,0,0,1-.34-.17,1,1,0,0,1-.11-.5,1.33,1.33,0,0,1,.06-.42.7.7,0,0,1,.17-.28.87.87,0,0,1,.26-.16,1,1,0,0,1,.31-.05h.24Zm-.51,2a.27.27,0,0,0,.17-.06.86.86,0,0,0,.14-.18,2.39,2.39,0,0,0,.1-.26,1.63,1.63,0,0,0,.07-.3,3.06,3.06,0,0,0,.05-.32l-.29,0a.47.47,0,0,0-.37.15.63.63,0,0,0-.13.43.91.91,0,0,0,.07.42A.19.19,0,0,0-330.37,360.36Z" transform="translate(351.51 -323.47)"/><path class="cls-2" d="M-328.47,360.55v-2.07h.77a1.16,1.16,0,0,1,.34,0,.59.59,0,0,1,.23.14.57.57,0,0,1,.13.21.66.66,0,0,1,0,.25.57.57,0,0,1-.17.45.68.68,0,0,1-.49.17,1.26,1.26,0,0,1-.3,0,1.15,1.15,0,0,1-.27-.1v.93Zm.28-1.05h.5a.48.48,0,0,0,.34-.1.37.37,0,0,0,.11-.27c0-.27-.16-.4-.48-.4h-.47Z" transform="translate(351.51 -323.47)"/><path class="cls-2" d="M-325.64,359.26c-.44,0-.68.38-.7,1.13v.16h-.28v-1c0-.11,0-.3,0-.55h.27a4.39,4.39,0,0,1,0,.55v.11a1.11,1.11,0,0,1,.28-.52.53.53,0,0,1,.39-.17A1.43,1.43,0,0,1-325.64,359.26Z" transform="translate(351.51 -323.47)"/><path class="cls-2" d="M-324.8,360.58a.94.94,0,0,1-.3-.05.59.59,0,0,1-.23-.14.72.72,0,0,1-.16-.25,1.23,1.23,0,0,1-.05-.35,1.23,1.23,0,0,1,.05-.35.72.72,0,0,1,.16-.25.59.59,0,0,1,.23-.14.94.94,0,0,1,.3-.05.77.77,0,0,1,.54.2.83.83,0,0,1,.2.59.83.83,0,0,1-.2.59A.77.77,0,0,1-324.8,360.58Zm0-.22a.42.42,0,0,0,.34-.15.66.66,0,0,0,.12-.42.66.66,0,0,0-.12-.42.42.42,0,0,0-.34-.15.41.41,0,0,0-.34.15.66.66,0,0,0-.13.42.66.66,0,0,0,.13.42A.41.41,0,0,0-324.8,360.36Z" transform="translate(351.51 -323.47)"/><path class="cls-2" d="M-322.95,359l.52,0v1.4a.86.86,0,0,1-.2.61.82.82,0,0,1-.62.21,1.66,1.66,0,0,1-.42,0,1.06,1.06,0,0,1,0-.21,2.73,2.73,0,0,0,.41,0,.79.79,0,0,0,.28,0,.3.3,0,0,0,.17-.12.4.4,0,0,0,.1-.18,1.84,1.84,0,0,0,0-.26v-.5c-.12.43-.32.65-.58.65a.4.4,0,0,1-.34-.17.88.88,0,0,1-.12-.5,1.09,1.09,0,0,1,.07-.42.7.7,0,0,1,.17-.28.82.82,0,0,1,.25-.16A1.06,1.06,0,0,1-322.95,359Zm-.27,1.36a.3.3,0,0,0,.18-.06.59.59,0,0,0,.13-.18,1.27,1.27,0,0,0,.11-.26c0-.1.05-.2.07-.3a3.06,3.06,0,0,0,.05-.32l-.29,0a.47.47,0,0,0-.37.15.63.63,0,0,0-.13.43,1.1,1.1,0,0,0,.06.42A.21.21,0,0,0-323.22,360.36Z" transform="translate(351.51 -323.47)"/><path class="cls-2" d="M-321,359.26c-.44,0-.68.38-.7,1.13v.16H-322v-1c0-.11,0-.3,0-.55h.27a4.39,4.39,0,0,1,0,.55v.11a1.11,1.11,0,0,1,.28-.52A.53.53,0,0,1-321,359,1.43,1.43,0,0,1-321,359.26Z" transform="translate(351.51 -323.47)"/><path class="cls-2" d="M-320.08,359l.51,0v1.52h-.27v-.62c-.13.43-.32.65-.59.65a.38.38,0,0,1-.33-.17.88.88,0,0,1-.12-.5,1.33,1.33,0,0,1,.06-.42.7.7,0,0,1,.17-.28.87.87,0,0,1,.26-.16A1,1,0,0,1-320.08,359Zm-.27,1.36a.27.27,0,0,0,.17-.06.86.86,0,0,0,.14-.18,1.28,1.28,0,0,0,.1-.26,1.63,1.63,0,0,0,.07-.3,3.06,3.06,0,0,0,.05-.32l-.28,0a.49.49,0,0,0-.38.15.63.63,0,0,0-.13.43.91.91,0,0,0,.07.42A.19.19,0,0,0-320.35,360.36Z" transform="translate(351.51 -323.47)"/><path class="cls-2" d="M-317.17,359a.41.41,0,0,1,.16,0,.38.38,0,0,1,.13.09.5.5,0,0,1,.1.18,1.12,1.12,0,0,1,0,.27v1H-317v-.93a.63.63,0,0,0-.06-.31.23.23,0,0,0-.2-.09.29.29,0,0,0-.22.12,1,1,0,0,0-.16.31,2.72,2.72,0,0,0-.09.43,3.59,3.59,0,0,0,0,.47h-.28v-.93a.63.63,0,0,0-.06-.31.21.21,0,0,0-.19-.09.28.28,0,0,0-.22.12.82.82,0,0,0-.16.31c0,.13-.07.28-.1.43a3.59,3.59,0,0,0,0,.47h-.27v-1c0-.11,0-.3,0-.55h.27c0,.23,0,.42,0,.55v.07a1,1,0,0,1,.26-.5.49.49,0,0,1,.36-.15.41.41,0,0,1,.16,0,.38.38,0,0,1,.13.09.38.38,0,0,1,.09.18.77.77,0,0,1,0,.27v.08a1.19,1.19,0,0,1,.12-.32.78.78,0,0,1,.14-.2.5.5,0,0,1,.17-.1A.52.52,0,0,1-317.17,359Z" transform="translate(351.51 -323.47)"/><path class="cls-2" d="M-314.35,359a.41.41,0,0,1,.16,0,.38.38,0,0,1,.13.09.5.5,0,0,1,.1.18,1.12,1.12,0,0,1,0,.27v1h-.27v-.93a.63.63,0,0,0-.06-.31.23.23,0,0,0-.2-.09.29.29,0,0,0-.22.12,1,1,0,0,0-.16.31,2.72,2.72,0,0,0-.09.43,3.59,3.59,0,0,0,0,.47h-.28v-.93a.63.63,0,0,0-.06-.31.21.21,0,0,0-.19-.09.28.28,0,0,0-.22.12.82.82,0,0,0-.16.31c0,.13-.07.28-.1.43a3.59,3.59,0,0,0,0,.47h-.27v-1c0-.11,0-.3,0-.55h.27c0,.23,0,.42,0,.55v.07a1,1,0,0,1,.26-.5.49.49,0,0,1,.36-.15.41.41,0,0,1,.16,0,.38.38,0,0,1,.13.09.38.38,0,0,1,.09.18.77.77,0,0,1,0,.27v.08a1.19,1.19,0,0,1,.12-.32.78.78,0,0,1,.14-.2.5.5,0,0,1,.17-.1A.52.52,0,0,1-314.35,359Z" transform="translate(351.51 -323.47)"/><path class="cls-2" d="M-313.32,358.82a1.19,1.19,0,0,1-.2-.19,1.34,1.34,0,0,1,.2-.21,1,1,0,0,1,.21.21A1,1,0,0,1-313.32,358.82Zm-.13,1.73V359h.27v1.52Z" transform="translate(351.51 -323.47)"/><path class="cls-2" d="M-311.81,359a.41.41,0,0,1,.16,0,.38.38,0,0,1,.13.09.39.39,0,0,1,.1.18,1.12,1.12,0,0,1,0,.27v1h-.27v-.93a.63.63,0,0,0-.06-.31.23.23,0,0,0-.2-.09.29.29,0,0,0-.22.12.82.82,0,0,0-.16.31,2.72,2.72,0,0,0-.09.43,3.59,3.59,0,0,0,0,.47h-.28v-1c0-.11,0-.3,0-.55h.27c0,.23,0,.42,0,.55v.07a1,1,0,0,1,.25-.5A.49.49,0,0,1-311.81,359Z" transform="translate(351.51 -323.47)"/><path class="cls-2" d="M-310.2,359l.52,0v1.4a.86.86,0,0,1-.2.61.82.82,0,0,1-.62.21,1.53,1.53,0,0,1-.41,0,1,1,0,0,1,0-.21,2.77,2.77,0,0,0,.42,0,.73.73,0,0,0,.27,0,.36.36,0,0,0,.18-.12.51.51,0,0,0,.09-.18,1,1,0,0,0,0-.26v-.5c-.13.43-.33.65-.59.65a.41.41,0,0,1-.34-.17,1,1,0,0,1-.11-.5,1.33,1.33,0,0,1,.06-.42.7.7,0,0,1,.17-.28.87.87,0,0,1,.26-.16A.94.94,0,0,1-310.2,359Zm-.26,1.36a.27.27,0,0,0,.17-.06.86.86,0,0,0,.14-.18,2.39,2.39,0,0,0,.1-.26c0-.1.05-.2.07-.3a3.06,3.06,0,0,0,.05-.32l-.29,0a.47.47,0,0,0-.37.15.63.63,0,0,0-.13.43,1.1,1.1,0,0,0,.06.42A.21.21,0,0,0-310.46,360.36Z" transform="translate(351.51 -323.47)"/><path class="cls-2" d="M-307.33,360.55l-.2-.6h-.76l-.19.6h-.29l.68-2.09h.17a.25.25,0,0,1,.18.07.89.89,0,0,1,.13.29l.57,1.73Zm-.89-.82h.62l-.31-.94h0Z" transform="translate(351.51 -323.47)"/><path class="cls-2" d="M-306.06,359l.52,0v1.4a.86.86,0,0,1-.2.61.82.82,0,0,1-.62.21,1.66,1.66,0,0,1-.42,0,1.06,1.06,0,0,1,0-.21,2.73,2.73,0,0,0,.41,0,.79.79,0,0,0,.28,0,.3.3,0,0,0,.17-.12.38.38,0,0,0,.09-.18,1,1,0,0,0,0-.26v-.5c-.13.43-.32.65-.58.65a.4.4,0,0,1-.34-.17.88.88,0,0,1-.12-.5,1.33,1.33,0,0,1,.06-.42.71.71,0,0,1,.18-.28.82.82,0,0,1,.25-.16A1.06,1.06,0,0,1-306.06,359Zm-.27,1.36a.3.3,0,0,0,.18-.06.83.83,0,0,0,.13-.18,1.28,1.28,0,0,0,.1-.26,1.67,1.67,0,0,0,.08-.3c0-.1,0-.21,0-.32l-.29,0a.47.47,0,0,0-.37.15.63.63,0,0,0-.14.43,1.06,1.06,0,0,0,.07.42A.2.2,0,0,0-306.33,360.36Z" transform="translate(351.51 -323.47)"/><path class="cls-2" d="M-304.41,359a.63.63,0,0,1,.5.19.84.84,0,0,1,.18.58.36.36,0,0,1-.07.1l-1.07,0a.57.57,0,0,0,.15.38.51.51,0,0,0,.36.13,1.74,1.74,0,0,0,.51-.07.54.54,0,0,1,0,.22,1.26,1.26,0,0,1-.47.07.85.85,0,0,1-.58-.2.8.8,0,0,1-.21-.59,1,1,0,0,1,.06-.35.6.6,0,0,1,.16-.25.59.59,0,0,1,.23-.14A.93.93,0,0,1-304.41,359Zm0,.22a.39.39,0,0,0-.32.13.57.57,0,0,0-.14.37c.27,0,.56,0,.87,0C-304,359.37-304.16,359.22-304.41,359.22Z" transform="translate(351.51 -323.47)"/><path class="cls-2" d="M-302.44,359a.41.41,0,0,1,.16,0,.51.51,0,0,1,.13.09.38.38,0,0,1,.09.18,1.12,1.12,0,0,1,0,.27v1h-.27v-.93a.63.63,0,0,0-.06-.31.22.22,0,0,0-.2-.09.29.29,0,0,0-.22.12,1,1,0,0,0-.16.31,2.72,2.72,0,0,0-.09.43,3.59,3.59,0,0,0,0,.47h-.27v-1c0-.11,0-.3,0-.55h.28c0,.23,0,.42,0,.55v.07a1.1,1.1,0,0,1,.25-.5A.51.51,0,0,1-302.44,359Z" transform="translate(351.51 -323.47)"/><path class="cls-2" d="M-300.85,360.58a.81.81,0,0,1-.57-.2.8.8,0,0,1-.21-.59.79.79,0,0,1,.21-.59.81.81,0,0,1,.57-.2,1.51,1.51,0,0,1,.48.07.69.69,0,0,1,0,.22,1.33,1.33,0,0,0-.45-.07.45.45,0,0,0-.37.15.6.6,0,0,0-.13.42.6.6,0,0,0,.13.42.45.45,0,0,0,.37.15,1.62,1.62,0,0,0,.48-.07.73.73,0,0,1,0,.22A1.18,1.18,0,0,1-300.85,360.58Z" transform="translate(351.51 -323.47)"/><path class="cls-2" d="M-298.72,359v1.4a.86.86,0,0,1-.2.61.8.8,0,0,1-.62.21,1.53,1.53,0,0,1-.41,0,.79.79,0,0,1,0-.21,2.77,2.77,0,0,0,.42,0,.77.77,0,0,0,.27,0,.36.36,0,0,0,.18-.12.51.51,0,0,0,.09-.18,1,1,0,0,0,0-.26v-.5a1,1,0,0,1-.25.5.49.49,0,0,1-.36.15.41.41,0,0,1-.16,0,.38.38,0,0,1-.13-.09.5.5,0,0,1-.1-.18,1.12,1.12,0,0,1,0-.27v-1h.27V360a.63.63,0,0,0,.06.31.23.23,0,0,0,.2.09.29.29,0,0,0,.22-.12.82.82,0,0,0,.16-.31,2.72,2.72,0,0,0,.09-.43,3.59,3.59,0,0,0,0-.47Z" transform="translate(351.51 -323.47)"/></svg>