<svg id="Layer_1" data-name="Layer 1" xmlns="http://www.w3.org/2000/svg" viewBox="0 0 250 250"><defs><style>.cls-1{fill:#e0e0e0;}.cls-2{fill:#f47e2a;}.cls-14,.cls-16,.cls-23,.cls-25,.cls-29,.cls-3,.cls-6{fill:#fff;}.cls-10,.cls-21,.cls-24,.cls-26,.cls-3{opacity:0.3;}.cls-4{fill:#5d5e5e;}.cls-5{isolation:isolate;}.cls-15,.cls-6{opacity:0.1;}.cls-13,.cls-29,.cls-7{opacity:0.2;}.cls-8{fill:#37474f;}.cls-9{fill:#b7b7b7;}.cls-11{fill:#f5f5f5;}.cls-12,.cls-26{fill:#e97525;}.cls-16,.cls-27,.cls-30{opacity:0.5;}.cls-17{fill:#f47e23;}.cls-18,.cls-24{fill:#ab6cad;}.cls-19,.cls-25{opacity:0.4;}.cls-20{fill:#455b64;}.cls-22{fill:#263238;}.cls-23{opacity:0.6;}.cls-28{fill:none;}</style></defs><title>Reach icon</title><path class="cls-1" d="M35.18,197.79l69.29,40a9.5,9.5,0,0,0,9.48,0l110.68-63.93a3.08,3.08,0,0,0,0-5.33l-71.34-41.24L35.18,195.46A1.34,1.34,0,0,0,35.18,197.79Z"/><path class="cls-1" d="M82.35,215.9l5.22,3L63.74,232.67a2.32,2.32,0,0,1-2.31,0l-2.32-1.34a1.16,1.16,0,0,1,0-2Z"/><path class="cls-2" d="M34.54,187.47a2.51,2.51,0,0,1,1.53-2.31L145,122.3a8.09,8.09,0,0,1,7.36,0l69.12,40.16a2.62,2.62,0,0,1,1.5,2v6.6a2.55,2.55,0,0,1-1.53,2.22L112.52,236.18a8.09,8.09,0,0,1-7.36,0L36,196a2.6,2.6,0,0,1-1.5-2h0v-6.51Z"/><path class="cls-3" d="M221.4,166.73,112.52,229.59a8.09,8.09,0,0,1-7.36,0L36,189.42a2.68,2.68,0,0,1-1.5-1.95,2.51,2.51,0,0,1,1.53-2.31L145,122.3a8.09,8.09,0,0,1,7.36,0l69.12,40.16a2.62,2.62,0,0,1,1.5,2v.15A2.66,2.66,0,0,1,221.4,166.73Z"/><path class="cls-4" d="M147.55,141.8a.48.48,0,0,0,0,.91l4.51,2.62a1.73,1.73,0,0,0,1.55,0l13.63-7.87a.48.48,0,0,0,0-.9l-4.51-2.62a1.7,1.7,0,0,0-1.55,0Z"/><path class="cls-4" d="M149.28,132.69a.48.48,0,0,0,0,.9l4.51,2.62a1.72,1.72,0,0,0,1.56,0l4.89-2.82a.48.48,0,0,0,0-.9l-4.51-2.62a1.7,1.7,0,0,0-1.55,0Z"/><g class="cls-5"><path class="cls-4" d="M129,138.49a.48.48,0,0,0,0,.9l2.61,1.51a1.7,1.7,0,0,0,1.55,0l4.89-2.82c.43-.25.44-.65,0-.9l-2.61-1.52a1.76,1.76,0,0,0-1.55,0Z"/><path class="cls-4" d="M134.1,141.46c-.43.24-.44.65,0,.89L138.6,145a1.76,1.76,0,0,0,1.55,0l4.89-2.83c.43-.25.44-.65,0-.9l-4.51-2.62a1.7,1.7,0,0,0-1.55,0Z"/><path class="cls-4" d="M121.4,142.87c-.43.25-.44.65,0,.9l2.61,1.51a1.7,1.7,0,0,0,1.55,0l4.89-2.82c.43-.25.44-.65,0-.9L127.84,140a1.76,1.76,0,0,0-1.55,0Z"/><path class="cls-4" d="M126.51,145.84c-.43.25-.44.65,0,.9l4.51,2.62a1.7,1.7,0,0,0,1.55,0l4.89-2.83c.43-.24.44-.65,0-.89L133,143a1.76,1.76,0,0,0-1.55,0Z"/></g><path class="cls-4" d="M141.69,137.07c-.43.25-.44.65,0,.9l4.51,2.62a1.7,1.7,0,0,0,1.55,0l4.89-2.82c.44-.25.44-.65,0-.9l-4.51-2.62a1.7,1.7,0,0,0-1.55,0Z"/><g class="cls-5"><path class="cls-4" d="M144.17,129.72a.48.48,0,0,0,0,.9l2.61,1.52a1.72,1.72,0,0,0,1.56,0l4.89-2.83a.48.48,0,0,0,0-.9l-2.61-1.51a1.7,1.7,0,0,0-1.55,0Z"/><path class="cls-4" d="M136.58,134.1c-.43.25-.44.65,0,.9l2.61,1.52a1.7,1.7,0,0,0,1.55,0l4.89-2.82c.44-.25.44-.65,0-.9L143,131.28a1.7,1.7,0,0,0-1.55,0Z"/></g><path class="cls-4" d="M111.32,154.6a.48.48,0,0,0,0,.9l4.51,2.62a1.7,1.7,0,0,0,1.55,0l4.89-2.82a.48.48,0,0,0,0-.9l-4.51-2.62a1.72,1.72,0,0,0-1.56,0Z"/><path class="cls-4" d="M103.74,159c-.44.25-.44.65,0,.9l4.51,2.62a1.7,1.7,0,0,0,1.55,0l4.89-2.82c.43-.25.44-.65,0-.9l-4.51-2.62a1.7,1.7,0,0,0-1.55,0Z"/><path class="cls-4" d="M98.63,156c-.43.24-.44.65,0,.89l2.61,1.52a1.7,1.7,0,0,0,1.55,0l4.89-2.82c.43-.25.44-.65,0-.9l-2.61-1.52a1.73,1.73,0,0,0-1.55,0Z"/><path class="cls-4" d="M106.21,151.63a.48.48,0,0,0,0,.9l2.61,1.52a1.7,1.7,0,0,0,1.55,0l4.89-2.82a.48.48,0,0,0,0-.9l-2.61-1.52a1.7,1.7,0,0,0-1.55,0Z"/><path class="cls-4" d="M113.81,147.25c-.43.25-.44.65,0,.9l2.61,1.52a1.7,1.7,0,0,0,1.55,0l4.89-2.83c.43-.25.44-.65,0-.9l-2.61-1.51a1.7,1.7,0,0,0-1.55,0Z"/><path class="cls-4" d="M128.19,161.1a.48.48,0,0,0,0,.9l4.51,2.63a1.7,1.7,0,0,0,1.55,0l4.89-2.83a.48.48,0,0,0,0-.9l-4.51-2.62a1.7,1.7,0,0,0-1.55,0Z"/><path class="cls-4" d="M117.55,159.12a.48.48,0,0,0,0,.9l4.51,2.63a1.76,1.76,0,0,0,1.55,0l4.89-2.83c.43-.25.44-.65,0-.9L124,156.3a1.72,1.72,0,0,0-1.56,0Z"/><path class="cls-4" d="M45.49,186.69a.48.48,0,0,0,0,.9l2.61,1.52a1.7,1.7,0,0,0,1.55,0l4.89-2.83c.43-.24.43-.64,0-.89l-2.61-1.52a1.7,1.7,0,0,0-1.55,0Z"/><path class="cls-4" d="M155.22,162.52a.48.48,0,0,0,0,.9l4.51,2.62a1.7,1.7,0,0,0,1.55,0l4.89-2.82a.48.48,0,0,0,0-.9l-4.51-2.62a1.7,1.7,0,0,0-1.55,0Z"/><path class="cls-4" d="M109.68,188.82a.48.48,0,0,0,0,.9l4.51,2.62a1.72,1.72,0,0,0,1.56,0l4.89-2.82a.48.48,0,0,0,0-.9L116.12,186a1.7,1.7,0,0,0-1.55,0Z"/><g class="cls-5"><path class="cls-4" d="M96.14,163.37a.48.48,0,0,0,0,.9l4.51,2.62a1.7,1.7,0,0,0,1.55,0l4.89-2.83a.47.47,0,0,0,0-.89l-4.51-2.63a1.78,1.78,0,0,0-1.56,0Z"/><path class="cls-4" d="M110.06,163.45a.48.48,0,0,0,0,.9l4.51,2.62a1.7,1.7,0,0,0,1.55,0l4.89-2.82a.48.48,0,0,0,0-.9l-4.51-2.62a1.7,1.7,0,0,0-1.55,0Z"/><path class="cls-4" d="M83.44,164.78a.48.48,0,0,0,0,.9l2.61,1.52a1.73,1.73,0,0,0,1.55,0l4.89-2.83c.43-.25.43-.65,0-.89L89.88,162a1.7,1.7,0,0,0-1.55,0Z"/><path class="cls-4" d="M120.83,165.35a.48.48,0,0,0,0,.9l4.51,2.63a1.76,1.76,0,0,0,1.55,0l4.89-2.83a.48.48,0,0,0,0-.9l-4.51-2.62a1.7,1.7,0,0,0-1.55,0Z"/><path class="cls-4" d="M131.89,167.48a.48.48,0,0,0,0,.9l4.51,2.62a1.72,1.72,0,0,0,1.56,0l4.89-2.82a.48.48,0,0,0,0-.9l-4.51-2.62a1.7,1.7,0,0,0-1.55,0Z"/><path class="cls-4" d="M88.55,167.75a.48.48,0,0,0,0,.9l4.51,2.62a1.7,1.7,0,0,0,1.55,0l4.89-2.82a.48.48,0,0,0,0-.9L95,164.93a1.7,1.7,0,0,0-1.55,0Z"/><path class="cls-4" d="M102.57,167.78a.48.48,0,0,0,0,.9l4.51,2.62a1.72,1.72,0,0,0,1.56,0l4.89-2.82a.48.48,0,0,0,0-.9L109,165a1.73,1.73,0,0,0-1.55,0Z"/><path class="cls-4" d="M75.85,169.16a.48.48,0,0,0,0,.9l2.61,1.52a1.7,1.7,0,0,0,1.55,0l4.89-2.83a.47.47,0,0,0,0-.89l-2.61-1.52a1.7,1.7,0,0,0-1.55,0Z"/><path class="cls-4" d="M113.47,169.6a.48.48,0,0,0,0,.9l4.51,2.63a1.73,1.73,0,0,0,1.55,0l4.89-2.82a.48.48,0,0,0,0-.9l-4.51-2.62a1.72,1.72,0,0,0-1.56,0Z"/><path class="cls-4" d="M124.53,171.73a.48.48,0,0,0,0,.9l4.51,2.62a1.72,1.72,0,0,0,1.56,0l4.89-2.82a.48.48,0,0,0,0-.9L131,168.91a1.7,1.7,0,0,0-1.55,0Z"/><path class="cls-4" d="M81,172.13a.48.48,0,0,0,0,.9l4.51,2.62a1.7,1.7,0,0,0,1.55,0l4.89-2.82a.48.48,0,0,0,0-.9l-4.51-2.62a1.72,1.72,0,0,0-1.56,0Z"/><path class="cls-4" d="M95.08,172.1c-.44.25-.44.66,0,.9l4.51,2.63a1.73,1.73,0,0,0,1.55,0L106,172.8c.43-.25.44-.65,0-.9l-4.51-2.62a1.72,1.72,0,0,0-1.56,0Z"/><path class="cls-4" d="M106.11,173.85a.48.48,0,0,0,0,.9l4.51,2.62a1.7,1.7,0,0,0,1.55,0l4.89-2.82a.48.48,0,0,0,0-.9L112.56,171a1.72,1.72,0,0,0-1.56,0Z"/><path class="cls-4" d="M117.17,176a.48.48,0,0,0,0,.9l4.51,2.62a1.7,1.7,0,0,0,1.55,0l4.89-2.82a.48.48,0,0,0,0-.9l-4.51-2.62a1.7,1.7,0,0,0-1.55,0Z"/><path class="cls-4" d="M87.58,176.43a.48.48,0,0,0,0,.9L92.09,180a1.7,1.7,0,0,0,1.55,0l4.89-2.82c.43-.25.44-.65,0-.9L94,173.61a1.72,1.72,0,0,0-1.56,0Z"/><path class="cls-4" d="M73.37,176.52c-.43.24-.43.64,0,.89L77.88,180a1.7,1.7,0,0,0,1.55,0l4.89-2.82a.48.48,0,0,0,0-.9l-4.51-2.62a1.7,1.7,0,0,0-1.55,0Z"/><path class="cls-4" d="M98.75,178.1a.48.48,0,0,0,0,.9l4.51,2.62a1.7,1.7,0,0,0,1.55,0l4.89-2.82a.48.48,0,0,0,0-.9l-4.52-2.62a1.7,1.7,0,0,0-1.55,0Z"/><path class="cls-4" d="M109.81,180.23a.48.48,0,0,0,0,.9l4.51,2.62a1.7,1.7,0,0,0,1.55,0l4.89-2.82a.48.48,0,0,0,0-.9l-4.51-2.62a1.7,1.7,0,0,0-1.55,0Z"/><path class="cls-4" d="M80.09,180.76a.47.47,0,0,0,0,.89l4.51,2.63a1.7,1.7,0,0,0,1.55,0L91,181.45a.48.48,0,0,0,0-.9l-4.51-2.62a1.7,1.7,0,0,0-1.55,0Z"/><path class="cls-4" d="M65.78,180.9a.48.48,0,0,0,0,.9l4.51,2.62a1.73,1.73,0,0,0,1.55,0l4.89-2.83c.43-.24.43-.64,0-.89l-4.51-2.63a1.76,1.76,0,0,0-1.55,0Z"/><path class="cls-4" d="M117.27,184.44c-.43.25-.44.65,0,.9l4.51,2.62a1.73,1.73,0,0,0,1.55,0l35.26-20.36a.47.47,0,0,0,0-.89l-4.51-2.63a1.76,1.76,0,0,0-1.55,0Z"/><path class="cls-4" d="M72.59,185.08a.48.48,0,0,0,0,.9l4.51,2.62a1.7,1.7,0,0,0,1.55,0l4.89-2.82c.43-.25.44-.65,0-.9L79,182.26a1.72,1.72,0,0,0-1.56,0Z"/><path class="cls-4" d="M65.1,189.41a.48.48,0,0,0,0,.9l4.51,2.62a1.7,1.7,0,0,0,1.55,0l4.89-2.82a.48.48,0,0,0,0-.9l-4.51-2.62a1.75,1.75,0,0,0-1.56,0Z"/><path class="cls-4" d="M50.6,189.66a.48.48,0,0,0,0,.9l4.51,2.62a1.7,1.7,0,0,0,1.55,0L69.14,186a.48.48,0,0,0,0-.9l-4.51-2.62a1.7,1.7,0,0,0-1.55,0Z"/><path class="cls-4" d="M57.61,193.73a.48.48,0,0,0,0,.9l4.51,2.63a1.76,1.76,0,0,0,1.55,0l4.89-2.83a.48.48,0,0,0,0-.9l-4.51-2.62a1.7,1.7,0,0,0-1.55,0Z"/></g><path class="cls-4" d="M91,160.4a.48.48,0,0,0,0,.9l2.61,1.51a1.7,1.7,0,0,0,1.55,0l4.89-2.82a.48.48,0,0,0,0-.9l-2.61-1.51a1.7,1.7,0,0,0-1.55,0Z"/><g class="cls-5"><path class="cls-4" d="M68.26,173.55a.47.47,0,0,0,0,.89L70.87,176a1.7,1.7,0,0,0,1.55,0l4.89-2.82a.48.48,0,0,0,0-.9l-2.61-1.52a1.7,1.7,0,0,0-1.55,0Z"/><path class="cls-4" d="M60.67,177.93a.48.48,0,0,0,0,.9l2.61,1.51a1.7,1.7,0,0,0,1.55,0l4.89-2.82a.48.48,0,0,0,0-.9l-2.61-1.51a1.7,1.7,0,0,0-1.55,0Z"/></g><path class="cls-4" d="M53.08,182.31a.48.48,0,0,0,0,.9l2.61,1.52a1.76,1.76,0,0,0,1.55,0l4.89-2.83a.48.48,0,0,0,0-.9l-2.61-1.51a1.7,1.7,0,0,0-1.55,0Z"/><path class="cls-4" d="M132.54,150.47a.48.48,0,0,0,0,.9l4.51,2.62a1.7,1.7,0,0,0,1.55,0l4.89-2.82a.48.48,0,0,0,0-.9L139,147.65a1.7,1.7,0,0,0-1.55,0Z"/><path class="cls-4" d="M125.05,154.8a.48.48,0,0,0,0,.9l4.52,2.62a1.7,1.7,0,0,0,1.55,0L136,155.5a.48.48,0,0,0,0-.9L131.49,152a1.73,1.73,0,0,0-1.55,0Z"/><path class="cls-4" d="M135.55,156.86a.48.48,0,0,0,0,.9l4.51,2.62a1.72,1.72,0,0,0,1.56,0l4.89-2.82a.48.48,0,0,0,0-.9L142,154a1.7,1.7,0,0,0-1.55,0Z"/><path class="cls-4" d="M178,149.38a.48.48,0,0,0,0,.9l4.51,2.62a1.7,1.7,0,0,0,1.55,0l4.89-2.83a.47.47,0,0,0,0-.89l-4.52-2.63a1.76,1.76,0,0,0-1.55,0Z"/><path class="cls-4" d="M170.4,153.76a.48.48,0,0,0,0,.9l4.51,2.62a1.7,1.7,0,0,0,1.55,0l4.89-2.82a.48.48,0,0,0,0-.9l-4.51-2.62a1.7,1.7,0,0,0-1.55,0Z"/><g class="cls-5"><path class="cls-4" d="M150.27,148.36a.48.48,0,0,0,0,.9l4.52,2.62a1.7,1.7,0,0,0,1.55,0l4.89-2.82a.48.48,0,0,0,0-.9l-4.51-2.62a1.73,1.73,0,0,0-1.55,0Z"/><path class="cls-4" d="M161.52,150.37a.48.48,0,0,0,0,.9L166,153.9a1.7,1.7,0,0,0,1.55,0l14-8.09c.43-.24.44-.65,0-.89l-4.51-2.63a1.78,1.78,0,0,0-1.56,0Z"/><path class="cls-4" d="M142.91,152.61a.48.48,0,0,0,0,.9l4.52,2.62a1.7,1.7,0,0,0,1.55,0l4.89-2.82a.48.48,0,0,0,0-.9l-4.51-2.62a1.73,1.73,0,0,0-1.55,0Z"/><path class="cls-4" d="M154,154.74a.48.48,0,0,0,0,.9l4.51,2.62a1.73,1.73,0,0,0,1.55,0l4.89-2.83c.43-.25.44-.65,0-.89l-4.51-2.63a1.75,1.75,0,0,0-1.56,0Z"/><path class="cls-4" d="M146.61,159a.48.48,0,0,0,0,.91l4.51,2.62a1.72,1.72,0,0,0,1.56,0l4.88-2.82c.43-.25.44-.65,0-.9l-4.51-2.62a1.72,1.72,0,0,0-1.56,0Z"/></g><path class="cls-4" d="M157.87,144a.48.48,0,0,0,0,.9l4.51,2.62a1.7,1.7,0,0,0,1.55,0l10.32-6a.47.47,0,0,0,0-.89L169.74,138a1.76,1.76,0,0,0-1.55,0Z"/><path class="cls-4" d="M140,146.15a.48.48,0,0,0,0,.9l4.51,2.62a1.7,1.7,0,0,0,1.55,0l4.89-2.83c.43-.24.44-.65,0-.89l-4.51-2.63a1.72,1.72,0,0,0-1.56,0Z"/><path class="cls-4" d="M102.09,193.2c-.43.25-.44.65,0,.9l4.51,2.62a1.7,1.7,0,0,0,1.55,0L113,193.9c.43-.25.44-.65,0-.9l-4.51-2.62a1.7,1.7,0,0,0-1.55,0Z"/><path class="cls-4" d="M97.47,199.69a.48.48,0,0,0,0,.9l1.21.71a1.75,1.75,0,0,0,1.56,0l5.31-3.07a.47.47,0,0,0,0-.89l-1.21-.71a1.76,1.76,0,0,0-1.55,0Z"/><path class="cls-4" d="M87.73,193a.48.48,0,0,0,0,.9l4.51,2.62a1.7,1.7,0,0,0,1.55,0l4.89-2.83c.43-.25.43-.65,0-.89l-4.51-2.63a1.73,1.73,0,0,0-1.55,0Z"/><path class="cls-4" d="M64.62,197.81a.48.48,0,0,0,0,.9l4.51,2.62a1.7,1.7,0,0,0,1.55,0l9.58-5.53a.48.48,0,0,0,0-.9l-4.51-2.62a1.75,1.75,0,0,0-1.56,0Z"/><path class="cls-4" d="M72,202.08a.48.48,0,0,0,0,.9l4.51,2.62a1.7,1.7,0,0,0,1.55,0l13.3-7.68c.43-.25.43-.65,0-.89l-4.51-2.63a1.73,1.73,0,0,0-1.55,0Z"/><path class="cls-4" d="M76.67,190.85a.48.48,0,0,0,0,.9l4.51,2.62a1.7,1.7,0,0,0,1.55,0l4.89-2.82c.43-.25.44-.65,0-.9L83.12,188a1.75,1.75,0,0,0-1.56,0Z"/><path class="cls-4" d="M95.09,188.73a.48.48,0,0,0,0,.9l4.51,2.62a1.7,1.7,0,0,0,1.55,0l4.89-2.83a.47.47,0,0,0,0-.89l-4.52-2.63a1.76,1.76,0,0,0-1.55,0Z"/><path class="cls-4" d="M84,186.6a.48.48,0,0,0,0,.9l4.51,2.62a1.7,1.7,0,0,0,1.55,0L95,187.3c.43-.25.44-.65,0-.9l-4.51-2.62a1.75,1.75,0,0,0-1.56,0Z"/><path class="cls-4" d="M102.45,184.48a.48.48,0,0,0,0,.9L107,188a1.7,1.7,0,0,0,1.55,0l4.89-2.82a.48.48,0,0,0,0-.9l-4.52-2.62a1.7,1.7,0,0,0-1.55,0Z"/><path class="cls-4" d="M91.39,182.35a.48.48,0,0,0,0,.9l4.51,2.62a1.7,1.7,0,0,0,1.55,0l4.89-2.82c.43-.25.44-.65,0-.9l-4.51-2.62a1.72,1.72,0,0,0-1.56,0Z"/><path class="cls-4" d="M139.25,163.23a.48.48,0,0,0,0,.9l4.52,2.62a1.7,1.7,0,0,0,1.55,0l4.89-2.82a.48.48,0,0,0,0-.9l-4.51-2.62a1.7,1.7,0,0,0-1.55,0Z"/><path class="cls-4" d="M118.92,150.22c-.44.25-.44.65,0,.9l4.51,2.62a1.7,1.7,0,0,0,1.55,0l4.89-2.82c.43-.25.44-.65,0-.9l-4.51-2.62a1.7,1.7,0,0,0-1.55,0Z"/><path class="cls-4" d="M162.81,158.14a.48.48,0,0,0,0,.9l4.51,2.62a1.7,1.7,0,0,0,1.55,0l4.89-2.82a.48.48,0,0,0,0-.9l-4.51-2.62a1.7,1.7,0,0,0-1.55,0Z"/><path class="cls-4" d="M90.05,204c-.44.25-.44.65,0,.9l1.21.7a1.7,1.7,0,0,0,1.55,0l5.31-3.07c.43-.25.44-.65,0-.9l-1.21-.7a1.7,1.7,0,0,0-1.55,0Z"/><path class="cls-4" d="M82.62,208.27a.48.48,0,0,0,0,.9l1.21.7a1.7,1.7,0,0,0,1.55,0l5.32-3.07a.48.48,0,0,0,0-.9l-1.2-.7a1.72,1.72,0,0,0-1.56,0Z"/><path class="cls-4" d="M86.74,202.06a.48.48,0,0,0,0,.9l1.21.7a1.7,1.7,0,0,0,1.55,0l5.31-3.07c.43-.25.43-.65,0-.89L93.61,199a1.7,1.7,0,0,0-1.55,0Z"/><path class="cls-4" d="M159.75,172.29l19.32,11.22a1,1,0,0,1,0,1.7l-32.4,18.7a2.44,2.44,0,0,1-2.45,0L124.9,192.68a1,1,0,0,1,0-1.69l32.39-18.71A2.44,2.44,0,0,1,159.75,172.29Z"/><path class="cls-6" d="M112.52,229.59,221.4,166.73a2.66,2.66,0,0,0,1.54-2.08v6.45a2.55,2.55,0,0,1-1.53,2.22L112.52,236.18a7.43,7.43,0,0,1-3.39.87v-6.59A7.43,7.43,0,0,0,112.52,229.59Z"/><path class="cls-7" d="M34.54,187.47a2.68,2.68,0,0,0,1.5,1.95l69.12,40.17a7.7,7.7,0,0,0,4,.87v6.59a7.7,7.7,0,0,1-4-.87L36,196a2.6,2.6,0,0,1-1.5-2h0v-6.51Z"/><path class="cls-8" d="M156.15,204.57v.86c0,1.16.83,1.63,1.84,1l16.94-9.78a4,4,0,0,0,1.83-3.16v-.85Z"/><path class="cls-2" d="M33.59,90.21l109.08-63a3.27,3.27,0,0,1,3.34,0h0l2.3,1.52h0a3.28,3.28,0,0,1,1.48,2.75v83.31a8.57,8.57,0,0,1-4.28,7.42l-109.07,63a3.28,3.28,0,0,1-3.41-.07h0l-2.28-1.51h0a3.27,3.27,0,0,1-1.45-2.72V97.63A8.57,8.57,0,0,1,33.59,90.21Z"/><path class="cls-9" d="M142.54,117.1a2.63,2.63,0,0,0,1.32-2.28V36.08L38.74,96.79a2.65,2.65,0,0,0-1.31,2.29v78.74Z"/><path class="cls-10" d="M142.54,117.1a2.63,2.63,0,0,0,1.32-2.28V36.08L38.74,96.79a2.65,2.65,0,0,0-1.31,2.29v78.74Z"/><path class="cls-6" d="M142.54,117.1a2.63,2.63,0,0,0,1.32-2.28V36.08L38.74,96.79a2.65,2.65,0,0,0-1.31,2.29v78.74Z"/><path class="cls-3" d="M33.59,90.21l109.08-63a3.27,3.27,0,0,1,3.34,0h0l2.3,1.52h0a3.28,3.28,0,0,0-3.46-.1l-109.07,63a8.52,8.52,0,0,0-3.57,4L30,94.37A8.59,8.59,0,0,1,33.59,90.21Z"/><path class="cls-6" d="M32.21,95.67a8.54,8.54,0,0,0-.72,3.41v83.3A3.28,3.28,0,0,0,33,185.17h0l-2.28-1.51h0a3.27,3.27,0,0,1-1.45-2.72V97.63A8.54,8.54,0,0,1,30,94.37Z"/><path class="cls-11" d="M167.51,36.53l.23,79.68a5,5,0,0,1-2.26,3.9l-112,64.68v2.57l-2.75-1.74h0l-.08-.05h0a1.62,1.62,0,0,1-.59-1.39l-.24-83.1,2.83,1.79Z"/><path class="cls-12" d="M52.05,93.71,165.22,28.37a1.5,1.5,0,0,1,1.75-.05h0L169.64,30l-2.14,1.22v5.32L52.63,102.86l-2.83-1.79V97.61A5,5,0,0,1,52.05,93.71Z"/><path class="cls-11" d="M52.63,102.86,52.86,186c0,1.44,1,2,2.27,1.29L168.31,121.9a4.94,4.94,0,0,0,2.25-3.9l-.23-83.09Z"/><path class="cls-11" d="M167.08,32.61a2.18,2.18,0,0,0-1,1.71c0,.62.45.88,1,.56a2.16,2.16,0,0,0,1-1.7C168.07,32.55,167.62,32.3,167.08,32.61Z"/><path class="cls-11" d="M164.2,34.27a2.14,2.14,0,0,0-1,1.71c0,.62.44.88,1,.56a2.13,2.13,0,0,0,1-1.7C165.19,34.21,164.75,34,164.2,34.27Z"/><path class="cls-11" d="M161.33,35.93a2.18,2.18,0,0,0-1,1.71c0,.62.44.88,1,.57a2.2,2.2,0,0,0,1-1.71C162.32,35.87,161.87,35.62,161.33,35.93Z"/><path class="cls-12" d="M168.05,30.16c1.25-.72,2.26-.15,2.27,1.29v3.46l-117.7,68V99.4a4.94,4.94,0,0,1,2.25-3.9Zm-3.84,6.38a2.13,2.13,0,0,0,1-1.7c0-.63-.44-.88-1-.57a2.14,2.14,0,0,0-1,1.71c0,.62.44.88,1,.56m-2.88,1.67a2.2,2.2,0,0,0,1-1.71c0-.63-.45-.88-1-.57a2.18,2.18,0,0,0-1,1.71c0,.62.44.88,1,.57m5.75-3.33a2.16,2.16,0,0,0,1-1.7c0-.63-.45-.88-1-.57a2.18,2.18,0,0,0-1,1.71c0,.62.45.88,1,.56"/><g class="cls-13"><path class="cls-14" d="M168.05,30.16c1.25-.72,2.26-.15,2.27,1.29v3.46l-117.7,68V99.4a4.94,4.94,0,0,1,2.25-3.9Zm-3.84,6.38a2.13,2.13,0,0,0,1-1.7c0-.63-.44-.88-1-.57a2.14,2.14,0,0,0-1,1.71c0,.62.44.88,1,.56m-2.88,1.67a2.2,2.2,0,0,0,1-1.71c0-.63-.45-.88-1-.57a2.18,2.18,0,0,0-1,1.71c0,.62.44.88,1,.57m5.75-3.33a2.16,2.16,0,0,0,1-1.7c0-.63-.45-.88-1-.57a2.18,2.18,0,0,0-1,1.71c0,.62.45.88,1,.56"/></g><path class="cls-15" d="M52.86,186a1.61,1.61,0,0,0,.6,1.39v0l-2.75-1.74h0l-.08-.05h0a1.62,1.62,0,0,1-.59-1.39l-.24-83.1,2.83,1.79Z"/><path class="cls-16" d="M52.05,93.71,165.22,28.37a1.5,1.5,0,0,1,1.75-.05h0L169.64,30a1.59,1.59,0,0,0-1.59.17L54.87,95.5a4.94,4.94,0,0,0-2.25,3.9v3.46l-2.83-1.79V97.61A5,5,0,0,1,52.05,93.71Z"/><path class="cls-17" d="M141.84,72.39l4.2,8.55-3.33,1.92-.64-1.53-3.62,2.09-.64,2.27-3.27,1.89,4.14-13.36Zm-2.52,7.86,1.86-1.08L140.24,77l-.92,3.3"/><path class="cls-17" d="M130.58,78.64a7.15,7.15,0,0,1,3.6-1.12l-1,3.24a5.26,5.26,0,0,0-2.66.72c-.94.54-1.23,1-1.23,1.39,0,1.32,5.27-2.82,5.28,1.22,0,2-1.47,4.55-4.43,6.26A7.87,7.87,0,0,1,126,91.63l1-3.3a5.6,5.6,0,0,0,3.15-.81c.91-.52,1.24-.94,1.23-1.31,0-1.37-5.26,2.77-5.27-1.32C126.15,82.86,127.63,80.35,130.58,78.64Z"/><polygon class="cls-17" points="149.75 67.83 149.77 75.92 154.07 73.43 154.08 76.3 146.56 80.64 146.53 69.69 149.75 67.83"/><polygon class="cls-17" points="162.68 60.36 162.69 63.14 158.1 65.79 158.1 67.08 162.14 64.75 162.15 67.41 158.11 69.74 158.12 71.18 162.89 68.42 162.9 71.21 154.97 75.79 154.94 64.83 162.68 60.36"/><path class="cls-17" d="M134,105.38c1.11-.17,1.76.38,1.76,1.68,0,1.88-1.38,3.79-4,5.3l-5.32,3.07,0-10.86,5.05-2.92c2.61-1.5,3.83-1,3.83.64A4.81,4.81,0,0,1,134,105.38Zm-2.5,4.57a1.75,1.75,0,0,0,1-1.46c0-.56-.36-.64-1.06-.24l-1.91,1.11v1.7l1.92-1.11m-1.94-4.63v1.62l1.48-.86a1.67,1.67,0,0,0,1-1.42c0-.52-.33-.61-1.05-.2l-1.48.86"/><polygon class="cls-17" points="144.5 94.1 144.51 96.86 139.96 99.49 139.97 100.77 143.97 98.46 143.97 101.09 139.97 103.4 139.98 104.83 144.71 102.1 144.72 104.86 136.85 109.4 136.82 98.54 144.5 94.1"/><path class="cls-17" d="M149.87,90.76a7.12,7.12,0,0,1,3.57-1.12l-.95,3.21a5.14,5.14,0,0,0-2.64.72c-.93.54-1.23,1-1.22,1.38,0,1.31,5.22-2.79,5.24,1.21,0,2-1.47,4.51-4.4,6.2a7.61,7.61,0,0,1-4.12,1.26l1-3.26a5.57,5.57,0,0,0,3.12-.8c.9-.52,1.23-.93,1.23-1.3,0-1.36-5.23,2.75-5.24-1.3C145.47,94.94,146.94,92.45,149.87,90.76Z"/><polygon class="cls-17" points="162.66 83.62 162.67 86.46 159.9 88.06 159.93 96.08 156.74 97.92 156.72 89.89 153.94 91.5 153.94 88.66 162.66 83.62"/><path class="cls-17" d="M129.07,116.86c1.32-.77,2.17-.46,2.17.81a4,4,0,0,1-2.16,3.32l-.69.4v1.35l-1.61.92v-5.47Zm-.1,2.76a1.15,1.15,0,0,0,.65-1c0-.4-.21-.52-.65-.27l-.59.34V120l.59-.34"/><path class="cls-17" d="M135.34,117l1,1.11-1.72,1-.81-.9-.44.25v1.37l-1.6.93,0-5.48,2.3-1.32c1.33-.77,2.17-.46,2.18.81A3.49,3.49,0,0,1,135.34,117Zm-1.38-.29a1.17,1.17,0,0,0,.66-1c0-.4-.22-.51-.66-.26l-.59.34v1.28l.58-.34"/><path class="cls-17" d="M139.34,110.8c1.55-.89,2.69-.35,2.7,1.32a5.5,5.5,0,0,1-2.69,4.42c-1.55.89-2.69.34-2.69-1.32A5.45,5.45,0,0,1,139.34,110.8Zm0,4.24a2.33,2.33,0,0,0,1.06-2c0-.85-.48-1.09-1.07-.75a2.36,2.36,0,0,0-1.06,2c0,.85.48,1.09,1.07.75"/><path class="cls-17" d="M145,107.68c1.6-.92,2.7-.51,2.71,1.19a5.19,5.19,0,0,1-2.69,4.29l-2.35,1.35V109Zm-.05,4.08a2.28,2.28,0,0,0,1.14-2c0-.84-.47-1-1.15-.64l-.67.39v2.6l.68-.39"/><path class="cls-17" d="M152.85,103.13v3a4.49,4.49,0,0,1-2.32,3.94c-1.46.84-2.32.39-2.33-1.26v-3l1.61-.93v3c0,.84.28,1,.73.73a1.63,1.63,0,0,0,.73-1.57v-3Z"/><path class="cls-17" d="M156.05,101.15c.93-.53,1.67-.56,2.14-.13l-1,1.62a.83.83,0,0,0-1,0,2.36,2.36,0,0,0-1.12,2c0,.83.46,1.11,1.13.72a2.77,2.77,0,0,0,1-1.24l1,.45a5.36,5.36,0,0,1-2.13,2.34c-1.53.88-2.66.34-2.67-1.34A5.44,5.44,0,0,1,156.05,101.15Z"/><polygon class="cls-17" points="162.66 97.46 162.67 98.89 161.27 99.7 161.28 103.75 159.67 104.68 159.66 100.63 158.27 101.44 158.26 100 162.66 97.46"/><g class="cls-13"><path class="cls-14" d="M141.84,72.39l4.2,8.55-3.33,1.92-.64-1.53-3.62,2.09-.64,2.27-3.27,1.89,4.14-13.36Zm-2.52,7.86,1.86-1.08L140.24,77l-.92,3.3"/><path class="cls-14" d="M130.58,78.64a7.15,7.15,0,0,1,3.6-1.12l-1,3.24a5.26,5.26,0,0,0-2.66.72c-.94.54-1.23,1-1.23,1.39,0,1.32,5.27-2.82,5.28,1.22,0,2-1.47,4.55-4.43,6.26A7.87,7.87,0,0,1,126,91.63l1-3.3a5.6,5.6,0,0,0,3.15-.81c.91-.52,1.24-.94,1.23-1.31,0-1.37-5.26,2.77-5.27-1.32C126.15,82.86,127.63,80.35,130.58,78.64Z"/><polygon class="cls-14" points="149.75 67.83 149.77 75.92 154.07 73.43 154.08 76.3 146.56 80.64 146.53 69.69 149.75 67.83"/><polygon class="cls-14" points="162.68 60.36 162.69 63.14 158.1 65.79 158.1 67.08 162.14 64.75 162.15 67.41 158.11 69.74 158.12 71.18 162.89 68.42 162.9 71.21 154.97 75.79 154.94 64.83 162.68 60.36"/><path class="cls-14" d="M134,105.38c1.11-.17,1.76.38,1.76,1.68,0,1.88-1.38,3.79-4,5.3l-5.32,3.07,0-10.86,5.05-2.92c2.61-1.5,3.83-1,3.83.64A4.81,4.81,0,0,1,134,105.38Zm-2.5,4.57a1.75,1.75,0,0,0,1-1.46c0-.56-.36-.64-1.06-.24l-1.91,1.11v1.7l1.92-1.11m-1.94-4.63v1.62l1.48-.86a1.67,1.67,0,0,0,1-1.42c0-.52-.33-.61-1.05-.2l-1.48.86"/><polygon class="cls-14" points="144.5 94.1 144.51 96.86 139.96 99.49 139.97 100.77 143.97 98.46 143.97 101.09 139.97 103.4 139.98 104.83 144.71 102.1 144.72 104.86 136.85 109.4 136.82 98.54 144.5 94.1"/><path class="cls-14" d="M149.87,90.76a7.12,7.12,0,0,1,3.57-1.12l-.95,3.21a5.14,5.14,0,0,0-2.64.72c-.93.54-1.23,1-1.22,1.38,0,1.31,5.22-2.79,5.24,1.21,0,2-1.47,4.51-4.4,6.2a7.61,7.61,0,0,1-4.12,1.26l1-3.26a5.57,5.57,0,0,0,3.12-.8c.9-.52,1.23-.93,1.23-1.3,0-1.36-5.23,2.75-5.24-1.3C145.47,94.94,146.94,92.45,149.87,90.76Z"/><polygon class="cls-14" points="162.66 83.62 162.67 86.46 159.9 88.06 159.93 96.08 156.74 97.92 156.72 89.89 153.94 91.5 153.94 88.66 162.66 83.62"/><path class="cls-14" d="M129.07,116.86c1.32-.77,2.17-.46,2.17.81a4,4,0,0,1-2.16,3.32l-.69.4v1.35l-1.61.92v-5.47Zm-.1,2.76a1.15,1.15,0,0,0,.65-1c0-.4-.21-.52-.65-.27l-.59.34V120l.59-.34"/><path class="cls-14" d="M135.34,117l1,1.11-1.72,1-.81-.9-.44.25v1.37l-1.6.93,0-5.48,2.3-1.32c1.33-.77,2.17-.46,2.18.81A3.49,3.49,0,0,1,135.34,117Zm-1.38-.29a1.17,1.17,0,0,0,.66-1c0-.4-.22-.51-.66-.26l-.59.34v1.28l.58-.34"/><path class="cls-14" d="M139.34,110.8c1.55-.89,2.69-.35,2.7,1.32a5.5,5.5,0,0,1-2.69,4.42c-1.55.89-2.69.34-2.69-1.32A5.45,5.45,0,0,1,139.34,110.8Zm0,4.24a2.33,2.33,0,0,0,1.06-2c0-.85-.48-1.09-1.07-.75a2.36,2.36,0,0,0-1.06,2c0,.85.48,1.09,1.07.75"/><path class="cls-14" d="M145,107.68c1.6-.92,2.7-.51,2.71,1.19a5.19,5.19,0,0,1-2.69,4.29l-2.35,1.35V109Zm-.05,4.08a2.28,2.28,0,0,0,1.14-2c0-.84-.47-1-1.15-.64l-.67.39v2.6l.68-.39"/><path class="cls-14" d="M152.85,103.13v3a4.49,4.49,0,0,1-2.32,3.94c-1.46.84-2.32.39-2.33-1.26v-3l1.61-.93v3c0,.84.28,1,.73.73a1.63,1.63,0,0,0,.73-1.57v-3Z"/><path class="cls-14" d="M156.05,101.15c.93-.53,1.67-.56,2.14-.13l-1,1.62a.83.83,0,0,0-1,0,2.36,2.36,0,0,0-1.12,2c0,.83.46,1.11,1.13.72a2.77,2.77,0,0,0,1-1.24l1,.45a5.36,5.36,0,0,1-2.13,2.34c-1.53.88-2.66.34-2.67-1.34A5.44,5.44,0,0,1,156.05,101.15Z"/><polygon class="cls-14" points="162.66 97.46 162.67 98.89 161.27 99.7 161.28 103.75 159.67 104.68 159.66 100.63 158.27 101.44 158.26 100 162.66 97.46"/></g><path class="cls-12" d="M72.56,13.7l.63-1.07-4-2.37h0c-3.36-2-8-1.7-13.12,1.26C45.93,17.37,37.69,31.64,37.73,43.3c0,5.64,2,9.65,5.11,11.63h0l.25.15.11.07,3.9,2.31.66-1.13a16.52,16.52,0,0,0,8.44-2.5C66.35,48,74.58,33.7,74.55,22A16.4,16.4,0,0,0,72.56,13.7Z"/><path class="cls-10" d="M72.56,13.7l.63-1.07-4-2.37h0c-3.36-2-8-1.7-13.12,1.26C45.93,17.37,37.69,31.64,37.73,43.3c0,5.64,2,9.65,5.11,11.63h0l.25.15.11.07,3.9,2.31.66-1.13a16.52,16.52,0,0,0,8.44-2.5C66.35,48,74.58,33.7,74.55,22A16.4,16.4,0,0,0,72.56,13.7Z"/><ellipse class="cls-12" cx="60.08" cy="35.01" rx="5.56" ry="3.22" transform="translate(-0.38 69.36) rotate(-59.84)"/><path class="cls-14" d="M60,18c8.17-4.72,14.82-.93,14.84,8.46S68.3,47.29,60.13,52s-14.82.93-14.84-8.46S51.86,22.73,60,18Zm.08,29.84c6.17-3.56,11.16-12.21,11.14-19.29s-5-9.95-11.21-6.39S48.88,34.38,48.9,41.46,54,51.41,60.11,47.85"/><path class="cls-12" d="M60,13.85C70.17,8,78.46,12.71,78.49,24.38S70.29,50.3,60.14,56.16,41.7,57.3,41.67,45.64,49.87,19.71,60,13.85ZM60.13,52C68.3,47.29,74.9,35.86,74.87,26.47S68.2,13.29,60,18,45.26,34.16,45.29,43.55,52,56.72,60.13,52"/><path class="cls-14" d="M60.05,26.32c4.17-2.41,7.57-.47,7.59,4.32a16.64,16.64,0,0,1-7.54,13c-4.17,2.41-7.57.47-7.58-4.32A16.66,16.66,0,0,1,60.05,26.32Zm0,13.22A8.67,8.67,0,0,0,64,32.73c0-2.49-1.78-3.51-4-2.25a8.7,8.7,0,0,0-3.93,6.81c0,2.49,1.79,3.5,4,2.25"/><path class="cls-12" d="M60,22.17c6.16-3.56,11.19-.7,11.21,6.39s-5,15.73-11.14,19.29-11.19.69-11.21-6.39S53.88,25.72,60,22.17Zm.06,21.52a16.64,16.64,0,0,0,7.54-13c0-4.79-3.42-6.73-7.59-4.32a16.66,16.66,0,0,0-7.53,13c0,4.79,3.41,6.73,7.58,4.32"/><polygon class="cls-18" points="80.03 45.6 85.55 48.81 91.83 49.17 86.31 45.97 80.03 45.6"/><polygon class="cls-18" points="80.03 45.6 80.03 46.32 85.55 49.52 85.55 48.81 80.03 45.6"/><polygon class="cls-18" points="91.83 49.17 91.83 49.89 85.55 49.52 85.55 48.81 91.83 49.17"/><g class="cls-13"><polygon points="80.03 45.6 85.55 48.81 91.83 49.17 86.31 45.97 80.03 45.6"/></g><polygon class="cls-19" points="80.03 45.6 80.03 46.32 85.55 49.52 85.55 48.81 80.03 45.6"/><polygon class="cls-10" points="91.83 49.17 91.83 49.89 85.55 49.52 85.55 48.81 91.83 49.17"/><path class="cls-20" d="M87.75,52.25l.93-1.62-28-16.27h0a.46.46,0,0,0-.49,0,1.48,1.48,0,0,0-.66,1.14.49.49,0,0,0,.19.43h0Z"/><path class="cls-20" d="M88.22,50.68c.36-.21.66,0,.66.38a1.44,1.44,0,0,1-.66,1.14c-.36.22-.66,0-.66-.37A1.46,1.46,0,0,1,88.22,50.68Z"/><g class="cls-21"><path class="cls-14" d="M88.22,50.68c.36-.21.66,0,.66.38a1.44,1.44,0,0,1-.66,1.14c-.36.22-.66,0-.66-.37A1.46,1.46,0,0,1,88.22,50.68Z"/></g><polygon class="cls-18" points="78.88 46.27 79.49 49.9 85.01 53.11 84.4 49.47 78.88 46.27"/><g class="cls-13"><polygon points="78.88 46.27 79.49 49.9 85.01 53.11 84.4 49.47 78.88 46.27"/></g><polygon class="cls-18" points="78.88 46.27 79.49 49.9 79.49 50.62 78.88 46.98 78.88 46.27"/><polygon class="cls-18" points="85.01 53.11 85.01 53.83 79.49 50.62 79.49 49.9 85.01 53.11"/><polygon class="cls-19" points="78.88 46.27 79.49 49.9 79.49 50.62 78.88 46.98 78.88 46.27"/><polygon class="cls-10" points="85.01 53.11 85.01 53.83 79.49 50.62 79.49 49.9 85.01 53.11"/><path class="cls-12" d="M109,103.05h0a5.41,5.41,0,0,0-4.49-3,1.87,1.87,0,0,0-.59.12L63.33,123.32A3.83,3.83,0,0,0,61.76,125a3.93,3.93,0,0,0-.4,1.7v87.86a3.74,3.74,0,0,0,5,3.35h0l.16-.06,40.62-23.15a3.89,3.89,0,0,0,2-3.38V103.48A1,1,0,0,0,109,103.05Z"/><path class="cls-3" d="M109,103.05h0a5.41,5.41,0,0,0-4.49-3,1.87,1.87,0,0,0-.59.12L63.33,123.32A3.83,3.83,0,0,0,61.76,125a3.93,3.93,0,0,0-.4,1.7v87.86a3.74,3.74,0,0,0,5,3.35h0l.16-.06,40.62-23.15a3.89,3.89,0,0,0,2-3.38V103.48A1,1,0,0,0,109,103.05Z"/><path class="cls-20" d="M67,136a1.94,1.94,0,0,1,1-1.69l37.71-21.46a1,1,0,0,1,1.46.85v70.85a2,2,0,0,1-1,1.68l-37.72,21.5a1,1,0,0,1-1.45-.85Z"/><path class="cls-10" d="M61.36,126.69v87.86a3.74,3.74,0,0,0,5,3.35h0a1,1,0,0,1-1.3-.91V129.12a3.87,3.87,0,0,1,.66-2.15l-4-2A3.93,3.93,0,0,0,61.36,126.69Z"/><path class="cls-6" d="M104.53,100.09a1.87,1.87,0,0,0-.59.12L63.33,123.32A3.83,3.83,0,0,0,61.76,125l4,2a4,4,0,0,1,1.31-1.23l40.62-23.11a1,1,0,0,1,1.35.42h0A5.41,5.41,0,0,0,104.53,100.09Z"/><path class="cls-22" d="M92.11,117.14c.28-.16.52,0,.52.29a1.13,1.13,0,0,1-.52.9l-8,4.6c-.28.17-.51,0-.51-.3a1.12,1.12,0,0,1,.51-.89Z"/><path class="cls-22" d="M82.09,122.93c.29-.17.52,0,.52.29a1.17,1.17,0,0,1-.51.9c-.29.16-.53,0-.53-.3A1.14,1.14,0,0,1,82.09,122.93Z"/><path class="cls-22" d="M87.19,116.47c.57-.33,1-.06,1,.59a2.28,2.28,0,0,1-1,1.79c-.57.33-1,.06-1-.59A2.26,2.26,0,0,1,87.19,116.47Z"/><path class="cls-22" d="M87.2,199.19c1.16-.67,2.09-.14,2.1,1.19A4.65,4.65,0,0,1,87.21,204c-1.16.67-2.12.12-2.13-1.21A4.65,4.65,0,0,1,87.2,199.19Z"/><path class="cls-12" d="M115.69,96.42h0l-1.25-.66h0a.53.53,0,0,0-.59,0L92.46,107.89a1.11,1.11,0,0,0-.55,1v25.39a.55.55,0,0,0,.35.51h0l1.25.67h0a.55.55,0,0,0,.53,0l21.38-12.18a1.1,1.1,0,0,0,.56-1V96.92A.55.55,0,0,0,115.69,96.42Z"/><path class="cls-23" d="M115.69,96.42h0l-1.25-.66h0a.53.53,0,0,0-.59,0L92.46,107.89a1.11,1.11,0,0,0-.55,1v25.39a.55.55,0,0,0,.35.51h0l1.25.67h0a.55.55,0,0,0,.53,0l21.38-12.18a1.1,1.1,0,0,0,.56-1V96.92A.55.55,0,0,0,115.69,96.42Z"/><path class="cls-24" d="M91.91,108.85v25.39a.55.55,0,0,0,.35.51h0l1.25.67a.53.53,0,0,1-.27-.47V109.56a1.26,1.26,0,0,1,.08-.43l-1.3-.75A1,1,0,0,0,91.91,108.85Z"/><path class="cls-25" d="M114.44,95.76h0a.53.53,0,0,0-.59,0L92.46,107.89a1.15,1.15,0,0,0-.44.49l1.3.75a1.2,1.2,0,0,1,.47-.53l21.39-12.16a.54.54,0,0,1,.51,0h0Z"/><path class="cls-14" d="M106.63,105.31c.31-.18.64-.35,1-.52s.68-.33,1-.46v3a1.28,1.28,0,0,0-.31.11l-.38.21a2.19,2.19,0,0,0-.69.64,1.55,1.55,0,0,0-.3.94v.87l1.69-1v3.21l-1.69,1,0,11.13-4.15,2.4,0-11.13-1.43.82v-3.2l1.43-.83v-1a8.89,8.89,0,0,1,.19-1.95,5.41,5.41,0,0,1,.64-1.57,5.79,5.79,0,0,1,1.19-1.36A11.72,11.72,0,0,1,106.63,105.31Z"/><path class="cls-12" d="M86.15,125.4h0l-1.25-.65h0a.54.54,0,0,0-.6,0L62.93,136.87a1.1,1.1,0,0,0-.56.95v25.39a.56.56,0,0,0,.36.51h0l1.26.67h0a.53.53,0,0,0,.53,0l21.38-12.19a1.1,1.1,0,0,0,.56-1V125.89A.53.53,0,0,0,86.15,125.4Z"/><path class="cls-23" d="M86.15,125.4h0l-1.25-.65h0a.54.54,0,0,0-.6,0L62.93,136.87a1.1,1.1,0,0,0-.56.95v25.39a.56.56,0,0,0,.36.51h0l1.26.67h0a.53.53,0,0,0,.53,0l21.38-12.19a1.1,1.1,0,0,0,.56-1V125.89A.53.53,0,0,0,86.15,125.4Z"/><path class="cls-26" d="M62.37,137.82v25.39a.56.56,0,0,0,.36.51h0l1.26.67a.54.54,0,0,1-.28-.47V138.53a1.27,1.27,0,0,1,.09-.43l-1.31-.75A1.08,1.08,0,0,0,62.37,137.82Z"/><path class="cls-25" d="M84.91,124.74h0a.54.54,0,0,0-.6,0L62.93,136.87a1.1,1.1,0,0,0-.45.48l1.31.75a1.13,1.13,0,0,1,.47-.52l21.38-12.17a.54.54,0,0,1,.51,0h0Z"/><polygon class="cls-14" points="70.94 140.87 82.07 141.83 70.98 155.62 70.94 140.87"/><path class="cls-12" d="M122.79,130.52h0l-1.25-.66h0a.56.56,0,0,0-.6,0L99.57,142a1.11,1.11,0,0,0-.56,1v25.38a.56.56,0,0,0,.36.51h0l1.26.68h0a.55.55,0,0,0,.53,0l21.38-12.18a1.13,1.13,0,0,0,.56-1V131A.56.56,0,0,0,122.79,130.52Z"/><path class="cls-23" d="M122.79,130.52h0l-1.25-.66h0a.56.56,0,0,0-.6,0L99.57,142a1.11,1.11,0,0,0-.56,1v25.38a.56.56,0,0,0,.36.51h0l1.26.68h0a.55.55,0,0,0,.53,0l21.38-12.18a1.13,1.13,0,0,0,.56-1V131A.56.56,0,0,0,122.79,130.52Z"/><path class="cls-26" d="M99,143v25.38a.56.56,0,0,0,.36.51h0l1.26.68a.56.56,0,0,1-.27-.48V143.66a1.22,1.22,0,0,1,.08-.43l-1.31-.76A1.13,1.13,0,0,0,99,143Z"/><path class="cls-25" d="M121.55,129.86h0a.56.56,0,0,0-.6,0L99.57,142a1.1,1.1,0,0,0-.45.48l1.31.76a1.15,1.15,0,0,1,.47-.53l21.38-12.17a.57.57,0,0,1,.51,0h0Z"/><path class="cls-14" d="M116.44,142.33h0c.53-.29,1,0,1,.56a2.17,2.17,0,0,1-1,1.67h0c-.53.29-1,0-1-.58A2.16,2.16,0,0,1,116.44,142.33Z"/><path class="cls-14" d="M119.77,141.1a5.65,5.65,0,0,0,.13.62l0,8.66a3.89,3.89,0,0,0-.12.65,9.42,9.42,0,0,1-3,5.2c-.21.19-.42.31-.63.51l-7.51,4.34a2.71,2.71,0,0,0-.51.16,2.21,2.21,0,0,1-3-1.68A3.28,3.28,0,0,0,105,159q0-4.35,0-8.69c0-.06,0-.11,0-.16a7.3,7.3,0,0,1,.47-1.91,8.7,8.7,0,0,1,3.65-4.55c.91-.54,1.83-1.07,2.74-1.59l3.82-2.2a4.35,4.35,0,0,1,1-.46A2.21,2.21,0,0,1,119.77,141.1Zm-1.17,9.43q0-3.74,0-7.47a3.08,3.08,0,0,0-.15-1c-.42-1.12-1.45-1.35-2.73-.61L113,143l-3.77,2.17a4.83,4.83,0,0,0-1,.73,6.16,6.16,0,0,0-1.89,4.2c0,2.52,0,5,0,7.54,0,1.11.39,1.79,1.18,2a2.31,2.31,0,0,0,1.7-.39l1.09-.63,2.16-1.24,3.23-1.87a4.84,4.84,0,0,0,1-.75,6.08,6.08,0,0,0,1.89-4.23"/><path class="cls-14" d="M112.45,145.92c2.11-1.22,3.85-.23,3.85,2.2a8.46,8.46,0,0,1-3.82,6.62c-2.12,1.22-3.85.23-3.86-2.19A8.5,8.5,0,0,1,112.45,145.92Zm2.53,3c0-1.59-1.1-2.25-2.51-1.47l0,0a5.53,5.53,0,0,0-2.48,4.32c0,1.59,1.12,2.23,2.51,1.45l0,0A5.55,5.55,0,0,0,115,148.9"/><path class="cls-12" d="M93.82,160h0l-1.25-.65h0a.54.54,0,0,0-.6,0L70.6,171.44a1.1,1.1,0,0,0-.56.95v25.39a.56.56,0,0,0,.36.51h0l1.26.67h0a.53.53,0,0,0,.53,0l21.38-12.19a1.1,1.1,0,0,0,.56-.95V160.46A.53.53,0,0,0,93.82,160Z"/><path class="cls-23" d="M93.82,160h0l-1.25-.65h0a.54.54,0,0,0-.6,0L70.6,171.44a1.1,1.1,0,0,0-.56.95v25.39a.56.56,0,0,0,.36.51h0l1.26.67h0a.53.53,0,0,0,.53,0l21.38-12.19a1.1,1.1,0,0,0,.56-.95V160.46A.53.53,0,0,0,93.82,160Z"/><path class="cls-24" d="M70,172.39v25.39a.56.56,0,0,0,.36.51h0l1.26.67a.53.53,0,0,1-.27-.47V173.1a1.26,1.26,0,0,1,.08-.43l-1.31-.75A1.08,1.08,0,0,0,70,172.39Z"/><path class="cls-25" d="M92.58,159.31h0a.54.54,0,0,0-.6,0L70.6,171.44a1.1,1.1,0,0,0-.45.48l1.31.75a1.13,1.13,0,0,1,.47-.52L93.31,160a.54.54,0,0,1,.51,0h0Z"/><path class="cls-14" d="M86.69,170.35a2.38,2.38,0,0,1,2.26-.29.24.24,0,0,0,.27,0l.13-.09a14.58,14.58,0,0,0,1.87-2,8.62,8.62,0,0,1-1.35,2.88c.19-.16.39-.3.58-.47s.41-.35.61-.54l.57-.56,0,0c-.26.5-.51,1-.79,1.52s-.49.77-.73,1.17a.67.67,0,0,0-.1.29,18.86,18.86,0,0,1-2.33,8.89,19.31,19.31,0,0,1-4.76,6.1A16.69,16.69,0,0,1,80.63,189a7.88,7.88,0,0,1-5,1.22l-.08,0,.75-.39a10.88,10.88,0,0,0,1.82-1.34,14.85,14.85,0,0,0,2.28-2.64c-1.51.72-2.53.44-3.09-.87.22-.1.43-.2.64-.32a5.06,5.06,0,0,0,.79-.57,4.54,4.54,0,0,1-.81.08,1.79,1.79,0,0,1-.73-.18,1.63,1.63,0,0,1-.57-.48,2.55,2.55,0,0,1-.36-.74,7.59,7.59,0,0,1-.15-1c.27,0,.5,0,.74-.11a3.87,3.87,0,0,0,.72-.29,2,2,0,0,1-1.39-1.93,5.45,5.45,0,0,1,.42-2.57c1.8,1.38,4.06,1.41,6.83,0a4.2,4.2,0,0,1-.06-.6A6.8,6.8,0,0,1,85,171.83,5.67,5.67,0,0,1,86.69,170.35Z"/><path class="cls-12" d="M136.11,228.37l2-1.15a2.48,2.48,0,0,0,1.25-2.15V201.19l-4.48,2.66-4.48-2.58v23.8a2.47,2.47,0,0,0,1.24,2.15l2,1.15A2.47,2.47,0,0,0,136.11,228.37Z"/><path class="cls-6" d="M139.35,201.19v23.88a2.48,2.48,0,0,1-1.25,2.15l-2,1.15a2.49,2.49,0,0,1-1.24.34V203.85Z"/><path class="cls-3" d="M134.87,203.85v24.86a2.55,2.55,0,0,1-1.25-.34l-2-1.15a2.47,2.47,0,0,1-1.24-2.15v-23.8Z"/><path class="cls-12" d="M131.25,174.05l-.09-.06h0c-1.52-.86-3.63-.73-5.95.61-4.65,2.68-8.4,9.19-8.39,14.53,0,2.62.93,4.48,2.41,5.37l11.65,6.6,11.31-20.61Zm-13.52,14.53a12.55,12.55,0,0,1,.08-1.36,12.55,12.55,0,0,0-.08,1.36,8.49,8.49,0,0,0,.09,1.26A8.49,8.49,0,0,1,117.73,188.58Z"/><path class="cls-3" d="M131.25,174.05l-.09-.06h0c-1.52-.86-3.63-.73-5.95.61-4.65,2.68-8.4,9.19-8.39,14.53,0,2.62.93,4.48,2.41,5.37l11.65,6.6,11.31-20.61Zm-13.52,14.53a12.55,12.55,0,0,1,.08-1.36,12.55,12.55,0,0,0-.08,1.36,8.49,8.49,0,0,0,.09,1.26A8.49,8.49,0,0,1,117.73,188.58Z"/><path class="cls-12" d="M143.28,177.78l-.11-.07,0,0c-1.94-1.1-4.6-.93-7.54.77-5.89,3.4-10.65,11.64-10.63,18.41,0,3.32,1.17,5.67,3.05,6.8,18.79,13.5,30.19,34.08,30.19,34.08l26.95-51.6C175.35,188.32,156.92,185.94,143.28,177.78Z"/><path class="cls-16" d="M143.28,177.78l-.11-.07,0,0c-1.94-1.1-4.6-.93-7.54.77-5.89,3.4-10.65,11.64-10.63,18.41,0,3.32,1.17,5.67,3.05,6.8,18.79,13.5,30.19,34.08,30.19,34.08l26.95-51.6C175.35,188.32,156.92,185.94,143.28,177.78Z"/><path class="cls-20" d="M159.44,222.38a27.84,27.84,0,0,0-.2,3.38,22.21,22.21,0,0,0,.22,3.14,22.21,22.21,0,0,1-.22-3.14A27.84,27.84,0,0,1,159.44,222.38Z"/><path class="cls-12" d="M193.81,194.68a11,11,0,0,0-1-1.13l-.07-.05a8.07,8.07,0,0,0-1.08-.87c-.2-.14-.41-.27-.62-.39a9.31,9.31,0,0,0-2.77-1,11.15,11.15,0,0,0-2.34-.19,12.19,12.19,0,0,0-1.68.15,16.67,16.67,0,0,0-1.75.38l-.9.28q-.92.31-1.86.75c-.62.29-1.26.61-1.9,1a28.62,28.62,0,0,0-4.65,3.36c-.6.52-1.18,1.07-1.75,1.64s-1.13,1.16-1.67,1.78c-.28.31-.54.62-.81.94a43.4,43.4,0,0,0-3.64,5.09c-.44.71-.86,1.44-1.26,2.18s-.78,1.49-1.14,2.25-.69,1.52-1,2.29a38.72,38.72,0,0,0-1.85,5.81c-.18.78-.33,1.55-.45,2.32-.07.39-.12.77-.17,1.15a27.84,27.84,0,0,0-.2,3.38,22.21,22.21,0,0,0,.22,3.14c.1.65.23,1.28.38,1.87a15.4,15.4,0,0,0,.55,1.7,11.08,11.08,0,0,0,.72,1.51,10.47,10.47,0,0,0,.86,1.33,9.17,9.17,0,0,0,6.31,3.59,11.76,11.76,0,0,0,1.59.08,14,14,0,0,0,1.67-.16,14.47,14.47,0,0,0,1.75-.38c.3-.08.6-.18.91-.28a21.78,21.78,0,0,0,3.75-1.73,33.94,33.94,0,0,0,8.88-7.72l.78-1c.51-.66,1-1.33,1.48-2s.94-1.39,1.38-2.1c3.75-6.1,6.09-13.12,6.07-19.4a19.12,19.12,0,0,0-.85-5.88A12.39,12.39,0,0,0,193.81,194.68Z"/><path class="cls-27" d="M193.81,194.68a11,11,0,0,0-1-1.13l-.07-.05a8.07,8.07,0,0,0-1.08-.87c-.2-.14-.41-.27-.62-.39a9.31,9.31,0,0,0-2.77-1,11.15,11.15,0,0,0-2.34-.19,12.19,12.19,0,0,0-1.68.15,16.67,16.67,0,0,0-1.75.38l-.9.28q-.92.31-1.86.75c-.62.29-1.26.61-1.9,1a28.62,28.62,0,0,0-4.65,3.36c-.6.52-1.18,1.07-1.75,1.64s-1.13,1.16-1.67,1.78c-.28.31-.54.62-.81.94a43.4,43.4,0,0,0-3.64,5.09c-.44.71-.86,1.44-1.26,2.18s-.78,1.49-1.14,2.25-.69,1.52-1,2.29a38.72,38.72,0,0,0-1.85,5.81c-.18.78-.33,1.55-.45,2.32-.07.39-.12.77-.17,1.15a27.84,27.84,0,0,0-.2,3.38,22.21,22.21,0,0,0,.22,3.14c.1.65.23,1.28.38,1.87a15.4,15.4,0,0,0,.55,1.7,11.08,11.08,0,0,0,.72,1.51,10.47,10.47,0,0,0,.86,1.33,9.17,9.17,0,0,0,6.31,3.59,11.76,11.76,0,0,0,1.59.08,14,14,0,0,0,1.67-.16,14.47,14.47,0,0,0,1.75-.38c.3-.08.6-.18.91-.28a21.78,21.78,0,0,0,3.75-1.73,33.94,33.94,0,0,0,8.88-7.72l.78-1c.51-.66,1-1.33,1.48-2s.94-1.39,1.38-2.1c3.75-6.1,6.09-13.12,6.07-19.4a19.12,19.12,0,0,0-.85-5.88A12.39,12.39,0,0,0,193.81,194.68Z"/><polygon class="cls-12" points="166.84 198.44 176.57 204.24 167.61 219.5 156.9 213.73 166.84 198.44"/><polygon class="cls-10" points="166.84 198.44 176.57 204.24 167.61 219.5 156.9 213.73 166.84 198.44"/><path class="cls-12" d="M177.3,204.93a4,4,0,0,0-.34-.38l0,0c-.12-.1-.24-.2-.37-.29a1.37,1.37,0,0,0-.2-.13,3.31,3.31,0,0,0-.94-.35,3.38,3.38,0,0,0-.79-.06,3.64,3.64,0,0,0-.56.05,4.16,4.16,0,0,0-.59.13l-.31.09c-.2.07-.41.16-.62.25a6.61,6.61,0,0,0-.64.34,9.28,9.28,0,0,0-1.57,1.13c-.2.18-.4.36-.59.55l-.57.6-.27.32a14.36,14.36,0,0,0-1.22,1.72c-.15.24-.29.48-.43.73s-.26.5-.38.76-.24.51-.34.77a13.45,13.45,0,0,0-.62,2c-.06.26-.12.52-.16.78s0,.26-.05.39a8.83,8.83,0,0,0-.07,1.14,7.13,7.13,0,0,0,.08,1.06,5.86,5.86,0,0,0,.12.63c.06.2.12.39.19.57a4,4,0,0,0,.24.51,5,5,0,0,0,.29.45,3.18,3.18,0,0,0,2.66,1.23,3.88,3.88,0,0,0,.57-.05,4.49,4.49,0,0,0,.59-.13l.3-.09A7.51,7.51,0,0,0,172,219a11.35,11.35,0,0,0,3-2.6c.09-.11.18-.21.26-.32s.34-.45.5-.68.32-.47.47-.71a12.93,12.93,0,0,0,2-6.54,6.26,6.26,0,0,0-.29-2A3.91,3.91,0,0,0,177.3,204.93Z"/><path class="cls-12" d="M193,189.52l-.24-.13.23.14Z"/><path class="cls-12" d="M156.9,227.11c0-13.32,9.33-29.55,20.92-36.24,5.79-3.34,11-3.68,14.85-1.52l-4.46-2.61h0c-3.81-2.18-9.07-1.86-14.88,1.5-11.6,6.69-21,22.92-20.93,36.24,0,6.43,2.23,11,5.81,13.27h0l.25.15.23.14,4.21,2.47h0C159.2,238.28,156.91,233.66,156.9,227.11Z"/><path class="cls-3" d="M156.9,227.11c0-13.32,9.33-29.55,20.92-36.24,5.79-3.34,11-3.68,14.85-1.52l-4.46-2.61h0c-3.81-2.18-9.07-1.86-14.88,1.5-11.6,6.69-21,22.92-20.93,36.24,0,6.43,2.23,11,5.81,13.27h0l.25.15.23.14,4.21,2.47h0C159.2,238.28,156.91,233.66,156.9,227.11Z"/><path class="cls-12" d="M193,189.53l-.23-.14-.05,0c-3.81-2.16-9.06-1.82-14.85,1.52-11.59,6.69-21,22.92-20.92,36.24,0,6.55,2.3,11.17,6,13.39s9.17,2,15.07-1.38c11.59-6.69,21-22.92,20.93-36.25C198.87,196.37,196.61,191.77,193,189.53Zm-2.48,34.09c-.44.71-.9,1.42-1.38,2.1s-1,1.36-1.48,2l-.78,1a33.94,33.94,0,0,1-8.88,7.72,21.78,21.78,0,0,1-3.75,1.73c-.31.1-.61.2-.91.28a14.47,14.47,0,0,1-1.75.38,14,14,0,0,1-1.67.16,11.76,11.76,0,0,1-1.59-.08,9.17,9.17,0,0,1-6.31-3.59,10.47,10.47,0,0,1-.86-1.33,11.08,11.08,0,0,1-.72-1.51,15.4,15.4,0,0,1-.55-1.7c-.15-.59-.28-1.22-.38-1.87a22.21,22.21,0,0,1-.22-3.14,27.84,27.84,0,0,1,.2-3.38c.05-.38.1-.76.17-1.15.12-.77.27-1.54.45-2.32a38.72,38.72,0,0,1,1.85-5.81c.31-.77.64-1.53,1-2.29s.74-1.51,1.14-2.25.82-1.47,1.26-2.18a43.4,43.4,0,0,1,3.64-5.09c.27-.32.53-.63.81-.94.54-.62,1.1-1.21,1.67-1.78s1.15-1.12,1.75-1.64a28.62,28.62,0,0,1,4.65-3.36c.64-.38,1.28-.7,1.9-1s1.25-.54,1.86-.75l.9-.28a16.67,16.67,0,0,1,1.75-.38,12.19,12.19,0,0,1,1.68-.15,11.15,11.15,0,0,1,2.34.19,9.31,9.31,0,0,1,2.77,1c.21.12.42.25.62.39a8.07,8.07,0,0,1,1.08.87l.07.05a11,11,0,0,1,1,1.13,12.39,12.39,0,0,1,1.88,3.66,19.12,19.12,0,0,1,.85,5.88h0C196.56,210.5,194.22,217.52,190.47,223.62Z"/><path class="cls-12" d="M177.72,149.12l-15.5,8.9a2.88,2.88,0,0,0-1.13,1.14,3,3,0,0,0-.39,1.48v11.28a3,3,0,0,0,4.57,2.47l2.69-1.54.24.39,0,0h0l0,0h0c.44.29,1.22.71,1.4.8h0a.17.17,0,0,0,.21-.11l1-2.81h0l9.9-5.65a3,3,0,0,0,1.53-2.63V151.58C182.3,149.4,179.08,148.34,177.72,149.12Z"/><path class="cls-28" d="M164.91,159.85Z"/><path class="cls-29" d="M168.2,173.24l0,0h0l0,0h0c.44.29,1.22.71,1.4.8h0a.15.15,0,0,1-.09-.07l-1-1.56.19-.11h0l-.85.49Z"/><path class="cls-25" d="M164.1,160.87a3.08,3.08,0,0,1,.81-1h0l.37-.25,15.5-8.9a1,1,0,0,1,1.52.88c0-2.18-3.22-3.24-4.58-2.46l-15.5,8.9a2.88,2.88,0,0,0-1.13,1.14Z"/><path class="cls-29" d="M163.76,173.51V162.23c0-.12,0-.24,0-.36a3.16,3.16,0,0,1,.32-1l-3-1.71a3,3,0,0,0-.39,1.48v11.28a3,3,0,0,0,4.57,2.47A1,1,0,0,1,163.76,173.51Z"/><path class="cls-12" d="M171.72,162.24c.23-.14.42,0,.42.24v4.22a.93.93,0,0,1-.42.73l-2.11,1.22c-.23.13-.42,0-.42-.25l0-4.21a.91.91,0,0,1,.43-.73Zm-.79,5.08a1,1,0,0,0,.44-.77c0-.28-.2-.4-.45-.26a1,1,0,0,0-.44.77c0,.28.2.4.45.26"/><g class="cls-30"><path class="cls-14" d="M171.72,162.24c.23-.14.42,0,.42.24v4.22a.93.93,0,0,1-.42.73l-2.11,1.22c-.23.13-.42,0-.42-.25l0-4.21a.91.91,0,0,1,.43-.73Zm-.79,5.08a1,1,0,0,0,.44-.77c0-.28-.2-.4-.45-.26a1,1,0,0,0-.44.77c0,.28.2.4.45.26"/></g><path class="cls-14" d="M173.86,156.35c.93-.53,1.66-.06,1.6,1l-.08,1.73,2.45-1.42c.84-.48,1,.63.45,1.42.58.17.41,1.14-.11,1.77.48.21.06,1.31-.53,1.77.38.16.06,1.33-.61,1.72l-2.41,1.39-1.53.88c-.51.3-.94.06-.94-.54v-3.5l1-2.33a9.29,9.29,0,0,0,.76-3.53Z"/><path class="cls-12" d="M175.39,93.4l-15.51,8.9a3,3,0,0,0-1.52,2.62V116.2a3,3,0,0,0,4.57,2.46l2.7-1.53.24.39s0,0,0,0h0l0,0h0c.44.3,1.22.72,1.39.81h0a.17.17,0,0,0,.21-.11l1-2.81h0l9.9-5.65a3,3,0,0,0,1.52-2.63V95.86C180,93.68,176.75,92.62,175.39,93.4Z"/><path class="cls-28" d="M162.58,104.13h0Z"/><path class="cls-29" d="M165.87,117.52s0,0,0,0h0l0,0h0c.44.3,1.22.72,1.39.81h0a.17.17,0,0,1-.1-.07l-1-1.56.19-.11h0l-.84.49Z"/><path class="cls-25" d="M161.76,105.15a3.21,3.21,0,0,1,.81-1h0a3.27,3.27,0,0,1,.36-.25L178.45,95a1,1,0,0,1,1.51.88c0-2.18-3.21-3.24-4.57-2.46l-15.51,8.9a3,3,0,0,0-1.13,1.14Z"/><path class="cls-29" d="M161.42,117.79V106.51a2.1,2.1,0,0,1,0-.36,3.15,3.15,0,0,1,.31-1l-3-1.71a3,3,0,0,0-.39,1.48V116.2a3,3,0,0,0,4.57,2.46A1,1,0,0,1,161.42,117.79Z"/><path class="cls-12" d="M169.38,106.52c.24-.14.43,0,.43.24V111a1,1,0,0,1-.42.73l-2.11,1.22a.27.27,0,0,1-.43-.25v-4.21a.91.91,0,0,1,.43-.73Zm-.79,5.08a.94.94,0,0,0,.44-.77c0-.28-.19-.4-.44-.26a1,1,0,0,0-.45.77c0,.28.21.4.45.26"/><g class="cls-30"><path class="cls-14" d="M169.38,106.52c.24-.14.43,0,.43.24V111a1,1,0,0,1-.42.73l-2.11,1.22a.27.27,0,0,1-.43-.25v-4.21a.91.91,0,0,1,.43-.73Zm-.79,5.08a.94.94,0,0,0,.44-.77c0-.28-.19-.4-.44-.26a1,1,0,0,0-.45.77c0,.28.21.4.45.26"/></g><path class="cls-14" d="M171.53,100.63c.92-.53,1.65-.06,1.6,1l-.09,1.73L175.5,102c.83-.48,1,.63.45,1.42.57.17.4,1.14-.11,1.77.47.21,0,1.31-.53,1.77.38.16.05,1.33-.62,1.72L172.28,110l-1.52.88c-.52.3-.94.06-.94-.54v-3.5l1-2.33a9.48,9.48,0,0,0,.76-3.53Z"/><path class="cls-12" d="M92.78,83.73l-15.51,8.9a3,3,0,0,0-1.52,2.62v11.29A3,3,0,0,0,80.32,109l2.7-1.54.24.39s0,0,0,0h0l0,0h0c.44.29,1.22.71,1.39.8h0a.18.18,0,0,0,.21-.1l1-2.81h0l9.9-5.66a3,3,0,0,0,1.52-2.63V86.19C97.35,84,94.14,83,92.78,83.73Z"/><path class="cls-28" d="M80,94.47h0Z"/><path class="cls-29" d="M83.26,107.85s0,0,0,0h0l0,0h0c.44.29,1.22.71,1.39.8h0a.17.17,0,0,1-.1-.07l-1-1.56.19-.1h0l-.84.48Z"/><path class="cls-25" d="M79.15,95.48a3.07,3.07,0,0,1,.81-1h0a2.36,2.36,0,0,1,.36-.26l15.51-8.89a1,1,0,0,1,1.51.87c0-2.18-3.21-3.24-4.57-2.46l-15.51,8.9a3,3,0,0,0-1.13,1.14Z"/><path class="cls-29" d="M78.81,108.12V96.84a2.19,2.19,0,0,1,0-.36,3.15,3.15,0,0,1,.31-1l-3-1.71a3,3,0,0,0-.39,1.48v11.29A3,3,0,0,0,80.32,109,1,1,0,0,1,78.81,108.12Z"/><path class="cls-12" d="M86.77,96.85c.24-.13.43,0,.43.25v4.21a.93.93,0,0,1-.42.73l-2.11,1.22c-.23.13-.43,0-.43-.24V98.8a.93.93,0,0,1,.43-.73ZM86,101.93a1,1,0,0,0,.45-.77c0-.28-.2-.39-.45-.25a1,1,0,0,0-.45.77c0,.28.21.39.45.25"/><g class="cls-30"><path class="cls-14" d="M86.77,96.85c.24-.13.43,0,.43.25v4.21a.93.93,0,0,1-.42.73l-2.11,1.22c-.23.13-.43,0-.43-.24V98.8a.93.93,0,0,1,.43-.73ZM86,101.93a1,1,0,0,0,.45-.77c0-.28-.2-.39-.45-.25a1,1,0,0,0-.45.77c0,.28.21.39.45.25"/></g><path class="cls-14" d="M88.92,91c.92-.53,1.65-.06,1.6,1l-.09,1.73,2.46-1.42c.83-.48,1,.64.45,1.43.57.16.4,1.14-.11,1.76.47.22,0,1.31-.53,1.77.38.16,0,1.34-.62,1.73l-2.41,1.39-1.52.88c-.52.29-.94,0-.94-.54v-3.5l1-2.34a9.48,9.48,0,0,0,.76-3.53Z"/></svg>