<svg id="Layer_1" data-name="Layer 1" xmlns="http://www.w3.org/2000/svg" viewBox="0 0 250 250"><defs><style>.cls-1{opacity:0.24;}.cls-2{fill:#ff8000;}.cls-3{fill:#e6f5fa;}.cls-4{fill:#b7b7b7;}.cls-10,.cls-11,.cls-14,.cls-16,.cls-17,.cls-19,.cls-21,.cls-22,.cls-23,.cls-5{fill:none;}.cls-5{stroke:#b7b7b7;}.cls-10,.cls-11,.cls-14,.cls-16,.cls-17,.cls-19,.cls-21,.cls-22,.cls-5{stroke-miterlimit:10;}.cls-6{fill:#fff;}.cls-7{fill:#d97f48;}.cls-8{fill:#474747;}.cls-9{fill:#5b5d5d;}.cls-10{stroke:#d97f48;}.cls-10,.cls-17{stroke-width:0.5px;}.cls-11{stroke:#969696;}.cls-11,.cls-14,.cls-16,.cls-19,.cls-21,.cls-22{stroke-width:0.25px;}.cls-12{fill:#7a553c;}.cls-12,.cls-13,.cls-16,.cls-20{opacity:0.52;}.cls-14,.cls-16{stroke:#7a553c;}.cls-15{fill:#111d36;}.cls-17,.cls-22{stroke:#ff8000;}.cls-18{fill:#f7a771;}.cls-19{stroke:#c18359;}.cls-20{fill:#c18359;}.cls-21{stroke:#ed823a;}.cls-23{stroke:#111d36;stroke-linecap:round;stroke-linejoin:round;stroke-width:0.37px;}</style></defs><title>Reach icon</title><g class="cls-1"><path class="cls-2" d="M199.87,173.11A80.09,80.09,0,1,0,56.63,222.35H182.94A79.74,79.74,0,0,0,199.87,173.11Z"/></g><path class="cls-3" d="M229.42,190.05H208.73a1.37,1.37,0,0,1-1.37-1.37h0a1.37,1.37,0,0,1,1.37-1.37h20.69a1.37,1.37,0,0,1,1.37,1.37h0A1.38,1.38,0,0,1,229.42,190.05Z"/><path class="cls-3" d="M30.36,175.68H7.64a1.37,1.37,0,0,1-1.37-1.37h0a1.38,1.38,0,0,1,1.37-1.37H30.36a1.38,1.38,0,0,1,1.37,1.37h0A1.37,1.37,0,0,1,30.36,175.68Z"/><rect class="cls-4" x="230.64" y="202.69" width="4.23" height="4.1" rx="1.03"/><rect class="cls-4" x="20.34" y="191.1" width="5.61" height="5.43" rx="1.37"/><path class="cls-5" d="M161.27,83.39h9.84a.92.92,0,0,1,.91.93v4.82a.92.92,0,0,1-.91.92H166l-3,2.59V90.2l-1.77,0a.92.92,0,0,1-.89-.92V84.32A.92.92,0,0,1,161.27,83.39Z"/><path class="cls-5" d="M226.41,128.06a3,3,0,1,1-3-3A3,3,0,0,1,226.41,128.06Z"/><path class="cls-5" d="M12.55,153.24a3,3,0,1,1-3-3A3,3,0,0,1,12.55,153.24Z"/><path class="cls-2" d="M93.61,88a.19.19,0,0,0,.33-.12V78.36a1.3,1.3,0,0,0-1.3-1.3H76.81a1.3,1.3,0,0,0-1.3,1.3v6.38a1.3,1.3,0,0,0,1.3,1.3H91.94Z"/><path class="cls-6" d="M81.75,81.6a.8.8,0,0,1-1.59,0,.8.8,0,0,1,1.59,0Z"/><path class="cls-6" d="M85.14,81.59a.79.79,0,0,1-1.58,0,.78.78,0,0,1,.78-.79A.8.8,0,0,1,85.14,81.59Z"/><path class="cls-6" d="M88.53,81.58a.79.79,0,1,1-1.58,0,.78.78,0,0,1,.78-.79A.8.8,0,0,1,88.53,81.58Z"/><path class="cls-2" d="M197.19,80.1h19.29a2.47,2.47,0,0,1,2.47,2.47v18a2.47,2.47,0,0,1-2.47,2.47H198a3.25,3.25,0,0,1-3.25-3.25V82.56A2.47,2.47,0,0,1,197.19,80.1Z"/><path class="cls-6" d="M212.36,93.43,210.92,92a1.25,1.25,0,0,0-.92-.43,1.3,1.3,0,0,0-.92.41l-.83.82-.15-.08c-.1,0-.18-.08-.26-.13a9,9,0,0,1-2.13-2,4.13,4.13,0,0,1-.66-1c.2-.18.38-.39.56-.57l.23-.23a1.36,1.36,0,0,0,.44-1,1.4,1.4,0,0,0-.44-1l-.72-.72a3,3,0,0,1-.23-.25c-.15-.16-.33-.34-.49-.49a1.3,1.3,0,0,0-.92-.41,1.27,1.27,0,0,0-.92.41l-.9.9a2,2,0,0,0-.59,1.26,4.72,4.72,0,0,0,.33,2,10.48,10.48,0,0,0,2,3.36,12.56,12.56,0,0,0,4.11,3.21,6.7,6.7,0,0,0,2.31.69H210a2,2,0,0,0,1.54-.67l0,0a2.85,2.85,0,0,1,.46-.46l.33-.34A1.28,1.28,0,0,0,212.36,93.43Zm-.59,1.33-.31.31c-.18.16-.33.34-.51.52A1.24,1.24,0,0,1,210,96h-.13a5.29,5.29,0,0,1-2-.62,11.58,11.58,0,0,1-3.83-3,11,11,0,0,1-1.87-3.11,3.14,3.14,0,0,1-.31-1.59,1.05,1.05,0,0,1,.36-.74l.87-.87a.54.54,0,0,1,.36-.18.47.47,0,0,1,.36.18l.46.46a3.13,3.13,0,0,0,.26.25l.72.72a.65.65,0,0,1,.18.36.54.54,0,0,1-.18.36l-.23.23-.65.64,0,0a.56.56,0,0,0-.16.64v0a6.08,6.08,0,0,0,.85,1.38,9.54,9.54,0,0,0,2.34,2.14,2.59,2.59,0,0,0,.33.17c.1.06.18.08.26.13l0,0a.58.58,0,0,0,.72-.13l.9-.9a.54.54,0,0,1,.36-.18.49.49,0,0,1,.33.18L211.77,94A.48.48,0,0,1,211.77,94.76Z"/><path class="cls-2" d="M16.38,95.1H38a2.76,2.76,0,0,1,2.76,2.76V118A2.76,2.76,0,0,1,38,120.79H17.26a3.65,3.65,0,0,1-3.65-3.65V97.86A2.76,2.76,0,0,1,16.38,95.1Z"/><path class="cls-6" d="M22,102.63a7.31,7.31,0,1,0,10.34,0A7.33,7.33,0,0,0,22,102.63Zm10.32,1.05H30a13.56,13.56,0,0,0-.91-2.19A6.64,6.64,0,0,1,32.34,103.68Zm-7.83,3.69a11.9,11.9,0,0,1,.34-2.83h4.68a11.9,11.9,0,0,1,.34,2.83Zm5.33.85a13.44,13.44,0,0,1-.5,2.84H25a14.13,14.13,0,0,1-.51-2.84Zm-2.65-7a5.88,5.88,0,0,1,1,.08,12.85,12.85,0,0,1,1.06,2.39H25.1a12.85,12.85,0,0,1,1.06-2.39A5.81,5.81,0,0,1,27.19,101.21Zm-1.92.28a14.45,14.45,0,0,0-.9,2.19H22A6.61,6.61,0,0,1,25.27,101.49Zm-3.81,3.05h2.66a13.08,13.08,0,0,0-.37,2.83H20.61A6.59,6.59,0,0,1,21.46,104.54Zm0,6.52a6.67,6.67,0,0,1-.85-2.84h3.15a14,14,0,0,0,.45,2.84Zm.58.85h2.42a17.22,17.22,0,0,0,.9,2.22A6.57,6.57,0,0,1,22,111.91Zm5.15,2.48a6.36,6.36,0,0,1-.87-.06,20.1,20.1,0,0,1-1-2.42h3.77a18.61,18.61,0,0,1-1,2.42A6.11,6.11,0,0,1,27.19,114.39Zm1.82-.26a18.87,18.87,0,0,0,.91-2.22h2.42A6.59,6.59,0,0,1,29,114.13Zm3.91-3.07H30.17a13.3,13.3,0,0,0,.44-2.84h3.16A6.67,6.67,0,0,1,32.92,111.06Zm.85-3.69H30.63a12.5,12.5,0,0,0-.38-2.83h2.67A6.59,6.59,0,0,1,33.77,107.37Z"/><path class="cls-2" d="M216.77,148.11h20.6a2.63,2.63,0,0,1,2.63,2.63V170a2.63,2.63,0,0,1-2.63,2.63H217.61a3.47,3.47,0,0,1-3.47-3.47V150.74A2.63,2.63,0,0,1,216.77,148.11Z"/><path class="cls-6" d="M230.1,158.35a3.15,3.15,0,1,0-3.15,3.14A3.14,3.14,0,0,0,230.1,158.35Zm-5.5,0A2.36,2.36,0,1,1,227,160.7,2.36,2.36,0,0,1,224.6,158.35Z"/><path class="cls-6" d="M226.64,167.61a.4.4,0,0,0,.55.08l.08-.08.41-.57,2.32-3.59c1.07-1.83,2.06-3.85,2.06-5.1a5.11,5.11,0,1,0-10.21,0c0,1.21.93,3.15,2,4.94l2.41,3.75ZM227,154a4.31,4.31,0,0,1,4.32,4.32c0,1.88-2.87,6.31-4.32,8.35-1.44-2-4.31-6.47-4.31-8.35A4.31,4.31,0,0,1,227,154Z"/><path class="cls-7" d="M44.72,152.14,43.14,156a149.83,149.83,0,0,0,16.68,10.3,3.53,3.53,0,0,0,5-3.42v-.08a3.55,3.55,0,0,0-2.39-3.16C54.7,157,53.19,155.93,44.72,152.14Z"/><path class="cls-7" d="M44.34,156.29s-7.89,3.48-10.8-1.57l12-3Z"/><path class="cls-7" d="M69,138.58a151.71,151.71,0,0,0-10.83,22.78A3.67,3.67,0,0,0,59.91,166l.06,0a3.61,3.61,0,0,0,4.68-1.52c5.71-10.3,10.79-18.32,10.79-18.32Z"/><path class="cls-2" d="M69.12,136.79S63.44,138,58.7,152l10.68,6.34,3.94-7.83Z"/><path class="cls-8" d="M63.87,154.82H51.54v-2H63.87a1,1,0,0,1,1,1h0A1,1,0,0,1,63.87,154.82Z"/><path class="cls-9" d="M56.44,154.81H28.35a1.49,1.49,0,0,1-1.43-1.05l-5-16.64a1.07,1.07,0,0,1,1-1.39H49.59A1.51,1.51,0,0,1,51,136.79Z"/><path class="cls-3" d="M40.23,144.61a2.13,2.13,0,1,1-2.47-1.71A2.12,2.12,0,0,1,40.23,144.61Z"/><path class="cls-7" d="M94.33,156.74s6.78,24.47,9.55,45.76l4.65-.88s-1.45-31.19-6.14-50.49Z"/><path class="cls-7" d="M108.49,200.55s7,10.34-1.4,15a1.33,1.33,0,0,1-1.66-.3l-.06-.06a1.34,1.34,0,0,1,.09-1.81c1.2-1.21,2.8-3.72.24-7,0,0-1.34.35-1.12,3a1.1,1.1,0,0,1-1.19,1.2h0a1.1,1.1,0,0,1-1-.83c-.44-1.76-1.17-6.12,1.64-8.46Z"/><path class="cls-2" d="M95.21,136.79s4.34,1.27,9,15.91L93.49,159,91,150.52Z"/><path class="cls-2" d="M94.56,136.4l-8-3.21-8.27.11-8.3,3a3.24,3.24,0,0,0-2,3.83l6.1,24H90.34L96,139.07A2.32,2.32,0,0,0,94.56,136.4Z"/><rect class="cls-8" x="74.01" y="164.23" width="16.33" height="2.61"/><line class="cls-10" x1="71.57" y1="154.6" x2="68.77" y2="143.55"/><line class="cls-10" x1="92.37" y1="155.18" x2="94.97" y2="143.55"/><path class="cls-4" d="M90.34,166.84H74s-7.91,2-13.21,39.07c-.81,5.65-1.5,11.16-2.1,16.44H74.12l6.81-34.21,1.49.39,2.52,33.82H99.43l.3-18.27S98.42,174.35,90.34,166.84Z"/><line class="cls-11" x1="82.42" y1="188.53" x2="77.35" y2="186.55"/><path class="cls-9" d="M95.8,119.17c-.72-2.74-1-2.25-3.42-7.7-1.45-3.26-2.57-4.57-3.24-5.1h0a9.8,9.8,0,0,0-6.85-2.64,9.7,9.7,0,0,0-6.62,2.51h0c-.64.43-1.84,1.66-3.43,5.23-2.43,5.45-2.69,5-3.41,7.7A7,7,0,0,0,74.67,128a4.17,4.17,0,0,1-1-1.9s2.36,3.22,5.58,3h6.08c3.22.2,5.59-3,5.59-3a4.13,4.13,0,0,1-1,1.9A7,7,0,0,0,95.8,119.17Z"/><path class="cls-7" d="M89.84,134.52l-3.33-1.33-1-8.76a5.19,5.19,0,0,1-2.42,1.32,4.45,4.45,0,0,1-2.73-.56l-1.12-.94-1,9.05-3.63,1.34s.23,2.35,7.91,2.35S89.84,134.52,89.84,134.52Z"/><path class="cls-12" d="M78.6,124.57s2.11,4.07,4.62,3.49S85.83,124,85.83,124Z"/><path class="cls-9" d="M91.34,112.87a8.67,8.67,0,1,1-17.33,0c0-5,3.88-8.38,8.67-8.38S91.34,107.88,91.34,112.87Z"/><path class="cls-7" d="M89.84,113.33A35.29,35.29,0,0,1,89,121a6.66,6.66,0,0,1-3.29,4.21l-.31.19a5.7,5.7,0,0,1-5.88.07h0A6.73,6.73,0,0,1,76,121a51.86,51.86,0,0,1-.79-7.67s-.68-7.84,7.21-7.69S89.84,113.33,89.84,113.33Z"/><path class="cls-7" d="M76.07,120.7c-1.39,1.2-4.31-3.55-3-4.83s2.3.8,2.3.8l.27,1.5.41,2,.1.46Z"/><g class="cls-13"><path class="cls-14" d="M73.71,117.47s.57-1.23,1.89.93"/></g><path class="cls-7" d="M89,120.73c1.41,1.18,4.25-3.63,2.89-4.88s-2.29.84-2.29.84l-.25,1.51-.37,2-.09.46Z"/><g class="cls-13"><path class="cls-14" d="M91.28,117.46s-.59-1.22-1.88,1"/></g><path class="cls-9" d="M75.31,115.78s3.16-4.27,2.43-8.59a6.22,6.22,0,0,0-2.95,4.22C74.18,114.45,75.31,115.78,75.31,115.78Z"/><path class="cls-9" d="M90,115.86s-3.79-4.64-3.06-9a7.22,7.22,0,0,1,3.15,4.51C90.67,114.45,90,115.86,90,115.86Z"/><path class="cls-9" d="M73,112.71h19.1s-2.15-8.09-10.21-8.57S73,112.71,73,112.71Z"/><path class="cls-15" d="M79.76,116.38a.73.73,0,1,1-.73-.73A.73.73,0,0,1,79.76,116.38Z"/><path class="cls-15" d="M86.49,116.38a.73.73,0,1,1-.73-.73A.73.73,0,0,1,86.49,116.38Z"/><path class="cls-16" d="M82,118v1a.39.39,0,0,0,.46.38l.52-.11"/><path class="cls-15" d="M81.19,114.13l-4.41.53a2.35,2.35,0,0,1,2.16-1.37C80.74,113.09,81.19,114.13,81.19,114.13Z"/><path class="cls-15" d="M83.73,114.13l4.41.53A2.35,2.35,0,0,0,86,113.29C84.18,113.09,83.73,114.13,83.73,114.13Z"/><circle class="cls-17" cx="78.31" cy="116.36" r="3.01"/><circle class="cls-17" cx="86.83" cy="116.36" r="3.01"/><path class="cls-17" d="M81.32,116.61a1.45,1.45,0,0,1,2.5,0"/><path class="cls-6" d="M80.17,120.7H85A3.07,3.07,0,0,1,80.17,120.7Z"/><path class="cls-18" d="M184.31,144.61l10.95,9.47a5,5,0,0,1,.58,7h0a5,5,0,0,1-7,.69L178,153Z"/><path class="cls-2" d="M170.36,135.32c8,1.29,16.7,9.29,16.7,9.29L179.83,155l-9.51-7.8Z"/><path class="cls-18" d="M195.87,134.21,188,156.7a4.59,4.59,0,0,0,3,5.94h0a4.59,4.59,0,0,0,5.83-3.71l4-23.89Z"/><path class="cls-18" d="M195.87,134.21s-1.54-2-1.85-7.69a.87.87,0,0,1,.51-.84h0a.89.89,0,0,1,1.21.5l.78,2.38,4.39,6.48Z"/><path class="cls-18" d="M196.52,128.56l.19-7.91c0-.33.24-.81.67-.82h0a.7.7,0,0,1,.83.64l.18,5.61,1-6.56a.61.61,0,0,1,.67-.5h0a.59.59,0,0,1,.53.62l-.34,7.12,1.43-5.85a.68.68,0,0,1,.69-.51h0a.68.68,0,0,1,.63.75l-.73,6.41,2.83-4a.64.64,0,0,1,1,0h0a.63.63,0,0,1,.08.76l-2.38,4.84a10.16,10.16,0,0,1-2.88,5.9l-4.21-2.5Z"/><path class="cls-19" d="M196.52,128.56s3,0,3,2.69"/><path class="cls-2" d="M169.55,134.71l6,2.25c1.55.57,2,2.3,1.54,3.91L174.3,175H150.81L149,139.76a2.32,2.32,0,0,1,1.41-2.67l8.05-3.21Z"/><line class="cls-2" x1="176.16" y1="151.94" x2="176.71" y2="145.14"/><path class="cls-18" d="M149.54,158.16s-6.38,24.81-8,46.22l-4.7-.63s.69-31.23,4.32-50.75Z"/><path class="cls-2" d="M149.76,137.48s-5.29,1.27-9.92,15.91l11.64,6.34,2.48-8.52Z"/><path class="cls-18" d="M166.86,133.9l-.46-8.45a9.42,9.42,0,0,1-3,1.36,4.55,4.55,0,0,1-2.81-.58l-1.65-1-.5,8.61h0l-2.48,1s1.55,2.66,6.75,2.39,6.82-2.55,6.82-2.55Z"/><path class="cls-20" d="M158.63,125.59s2.3,4.2,5,3.59,3-4.28,3-4.28Z"/><path class="cls-18" d="M170.37,114a36.43,36.43,0,0,1-.89,7.92,6.84,6.84,0,0,1-3.39,4.34l-.31.19a5.86,5.86,0,0,1-6.06.07h0a6.89,6.89,0,0,1-3.59-4.63,53.15,53.15,0,0,1-.81-7.89s-.7-8.08,7.42-7.92S170.37,114,170.37,114Z"/><path class="cls-18" d="M156.2,121.61c-1.43,1.24-4.44-3.65-3.06-5s2.37.83,2.37.83l.28,1.54.42,2.08.11.47Z"/><path class="cls-19" d="M153.77,118.29s.58-1.27,1.94,1"/><path class="cls-18" d="M169.48,121.64c1.45,1.21,4.38-3.73,3-5s-2.35.86-2.35.86l-.26,1.55-.38,2.09-.1.47Z"/><path class="cls-19" d="M171.85,118.28s-.6-1.26-1.93,1"/><path class="cls-15" d="M160,116.67a.75.75,0,1,1-.74-.74A.74.74,0,0,1,160,116.67Z"/><path class="cls-15" d="M166.92,116.67a.75.75,0,1,1-.74-.74A.74.74,0,0,1,166.92,116.67Z"/><path class="cls-21" d="M162.34,117.81v1.5a.39.39,0,0,0,.46.4l.54-.11"/><path class="cls-15" d="M163.87,113.93l4.32,1.11s-.2-1.21-2-1.65S163.87,113.93,163.87,113.93Z"/><path class="cls-15" d="M161.19,113.93,156.87,115s.19-1.21,2-1.65S161.19,113.93,161.19,113.93Z"/><path class="cls-15" d="M162.35,121.91a.76.76,0,0,0,.33-.45c.1-.37.14-1-.58-1-1-.1-2.81,1.93-4.36.77C157.74,121.2,159.22,123.93,162.35,121.91Z"/><path class="cls-15" d="M162.94,121.91a.74.74,0,0,1-.32-.45c-.1-.37-.15-1,.57-1,1.05-.1,2.8,1.93,4.34.77C167.53,121.2,166.06,123.93,162.94,121.91Z"/><path class="cls-9" d="M170.18,104.46c-2.65-1.88-7.7-.13-10.5,1.08a1.93,1.93,0,0,0-.47-1.44c-4.8,1.47-4.19,4.2-3.86,5.07-.94,1-2.23,3.46.22,8.64a20.74,20.74,0,0,0,.79-7.94c2.27,1,8.45,3.5,12.38,1.93a21.51,21.51,0,0,0,1.3,6c1.49-3.8,1.28-6.08.69-7.43C171.41,109.57,173.4,106.73,170.18,104.46Z"/><path class="cls-4" d="M169.85,222.35h15.09c-5.57-23.83-9.95-40.3-9.95-40.3l-.69-7.1H162.84l.52,24.94Z"/><path class="cls-4" d="M163.36,199.89,162.84,175h-12c-9,13.47-3.91,37.42-3.91,37.42l1.37,10h15.09Z"/><polyline class="cls-11" points="163.36 199.89 163.36 192.82 166.76 187.54"/><path class="cls-4" d="M117,214.06s4.06-20.13,6.44-25.62a.58.58,0,0,1,1.09.09c.57,2.09,1.33,8.26,1,26.4v7.42h14.24l2.09-17.85s3.18-24.88-7.16-39H114a79.94,79.94,0,0,0-12,36.57c-.31,4.72-.84,11.93-1.49,20.29h14.67Z"/><line class="cls-11" x1="119.91" y1="186.55" x2="124.76" y2="188.53"/><polygon class="cls-2" points="119.85 126.23 109.89 128.97 114.01 162.96 134.9 162.96 139.03 128.82 127.99 126.08 119.85 126.23"/><rect class="cls-2" x="114.01" y="162.96" width="20.71" height="2.53"/><path class="cls-18" d="M129.47,150.71s8.54-3.42,13.11-1l.43,5.49-13.93,1.75Z"/><path class="cls-2" d="M147.71,161.79s-13.86,1.66-25.08-4.23l9.51-2.88,11.75-2Z"/><path class="cls-2" d="M138.35,128.71s5.38.35,8.81,11c3.65,11.32,3.91,20.24,1.38,21.73s-5.67-1.8-8.88-10.92-4.71-14-4.71-14Z"/><line class="cls-2" x1="137.25" y1="143.55" x2="138.08" y2="136.68"/><path class="cls-2" d="M109.89,129s-5.38.34-8.81,11c-3.64,11.32-3.91,20.23-1.38,21.72s6-1.8,9.27-10.92a137.64,137.64,0,0,0,4.32-14Z"/><line class="cls-2" x1="111.58" y1="142.89" x2="110.83" y2="136.68"/><path class="cls-18" d="M114.35,150.75a27.18,27.18,0,0,0-10.25-6.09.84.84,0,0,0-.8.17h0a.83.83,0,0,0,.19,1.38l3.85,1.79-5,.34a1.45,1.45,0,0,0-1.35,1.62,4.55,4.55,0,0,0,2,2.78Z"/><path class="cls-2" d="M102.93,152.74s18.3-3.61,27-3.57l3.46,8.56s-27.08,6.79-33.67,4Z"/><path class="cls-2" d="M114.35,150.75s11.5-1.79,15.56-1.58l.49,1.21"/><polyline class="cls-2" points="113.84 161.6 133.37 157.73 130.4 150.38"/><path class="cls-9" d="M114.84,111.55l-4.08,5.33s14.69,11.29,26.78-.8l-4.31-5.26Z"/><path class="cls-18" d="M128,125.82l-1-8.19a5.32,5.32,0,0,1-2.48,1.35,4.53,4.53,0,0,1-2.8-.58l-1.15-1-.62,8.48a1.53,1.53,0,0,1,0,.3l4.47,9.73,3.67-9.88A1.15,1.15,0,0,1,128,125.82Z"/><path class="cls-20" d="M119.85,117.77s2.16,4.57,4.74,4,2.68-4.55,2.68-4.55Z"/><path class="cls-9" d="M132.92,105.76a8.9,8.9,0,1,1-17.79,0c0-5.12,4-8.6,8.9-8.6S132.92,100.64,132.92,105.76Z"/><path class="cls-18" d="M131.38,106.24a36.13,36.13,0,0,1-.89,7.89,6.81,6.81,0,0,1-3.38,4.33l-.31.19a5.85,5.85,0,0,1-6,.07h0a6.83,6.83,0,0,1-3.58-4.62,52.81,52.81,0,0,1-.81-7.86s-.7-8.06,7.4-7.9S131.38,106.24,131.38,106.24Z"/><path class="cls-18" d="M117.25,113.8c-1.43,1.23-4.43-3.65-3-5s2.36.82,2.36.82l.28,1.55.42,2.07.1.46Z"/><path class="cls-19" d="M114.82,110.48s.59-1.26,1.94,1"/><path class="cls-18" d="M130.49,113.83c1.44,1.21,4.36-3.72,3-5s-2.34.86-2.34.86l-.26,1.55-.38,2.08-.1.47Z"/><g class="cls-13"><path class="cls-19" d="M132.86,110.47s-.61-1.25-1.93,1"/></g><path class="cls-9" d="M131.6,104.27a7.32,7.32,0,0,0-2.88-4.39,6.25,6.25,0,0,0-3.7-1.81s-5.06-1.14-7.15,2.68a6.6,6.6,0,0,0-1.94,3.52c-.62,3.12.54,4.47.54,4.47a15.1,15.1,0,0,0,2.49-6c1.53,1.27,4.63,2.85,10.52,2.77a17.88,17.88,0,0,0,2,3.3S132.23,107.39,131.6,104.27Z"/><path class="cls-9" d="M121,109.36a.75.75,0,1,1-.74-.74A.74.74,0,0,1,121,109.36Z"/><path class="cls-9" d="M127.94,109.36a.75.75,0,1,1-.75-.74A.74.74,0,0,1,127.94,109.36Z"/><path class="cls-21" d="M123.19,111v1a.4.4,0,0,0,.47.39l.53-.11"/><path d="M126.86,105.91s-2.18-.18-2.21.71c0,0,0,.6,1.91.72s2.41,0,2.58-.58S127.89,105.92,126.86,105.91Z"/><path d="M120.33,105.91s2.18-.18,2.21.71c0,0,0,.6-1.91.72s-2.41,0-2.58-.58S119.3,105.92,120.33,105.91Z"/><path class="cls-22" d="M125.72,113.17a2.65,2.65,0,0,1-2.81.9"/><line class="cls-23" x1="24.15" y1="222.35" x2="216.05" y2="222.35"/><circle class="cls-17" cx="119.31" cy="109.36" r="3.01"/><circle class="cls-17" cx="127.83" cy="109.36" r="3.01"/><path class="cls-17" d="M122.32,109.61a1.45,1.45,0,0,1,2.5,0"/></svg>